%TF.GenerationSoftware,KiCad,Pcbnew,9.0.6*%
%TF.CreationDate,2026-01-26T18:49:13-03:00*%
%TF.ProjectId,evasion_sensor,65766173-696f-46e5-9f73-656e736f722e,rev?*%
%TF.SameCoordinates,Original*%
%TF.FileFunction,Drillmap*%
%TF.FilePolarity,Positive*%
%FSLAX45Y45*%
G04 Gerber Fmt 4.5, Leading zero omitted, Abs format (unit mm)*
G04 Created by KiCad (PCBNEW 9.0.6) date 2026-01-26 18:49:13*
%MOMM*%
%LPD*%
G01*
G04 APERTURE LIST*
%ADD10C,0.050000*%
%ADD11C,0.200000*%
G04 APERTURE END LIST*
D10*
X17763000Y-9034000D02*
G75*
G02*
X17663000Y-8934000I0J100000D01*
G01*
X21286000Y-5637000D02*
X21286000Y-8934000D01*
X17663000Y-8934000D02*
X17663000Y-5637000D01*
X17663000Y-5637000D02*
G75*
G02*
X17763000Y-5537000I100000J0D01*
G01*
X21186000Y-5537000D02*
G75*
G02*
X21286000Y-5637000I0J-100000D01*
G01*
X21186000Y-9034000D02*
X17763000Y-9034000D01*
X17763000Y-5537000D02*
X21186000Y-5537000D01*
X21286000Y-8934000D02*
G75*
G02*
X21186000Y-9034000I-100000J0D01*
G01*
D11*
X17921277Y-9347984D02*
X17921277Y-9147984D01*
X17921277Y-9147984D02*
X17968896Y-9147984D01*
X17968896Y-9147984D02*
X17997467Y-9157508D01*
X17997467Y-9157508D02*
X18016515Y-9176555D01*
X18016515Y-9176555D02*
X18026039Y-9195603D01*
X18026039Y-9195603D02*
X18035563Y-9233698D01*
X18035563Y-9233698D02*
X18035563Y-9262270D01*
X18035563Y-9262270D02*
X18026039Y-9300365D01*
X18026039Y-9300365D02*
X18016515Y-9319412D01*
X18016515Y-9319412D02*
X17997467Y-9338460D01*
X17997467Y-9338460D02*
X17968896Y-9347984D01*
X17968896Y-9347984D02*
X17921277Y-9347984D01*
X18121277Y-9347984D02*
X18121277Y-9214650D01*
X18121277Y-9252746D02*
X18130801Y-9233698D01*
X18130801Y-9233698D02*
X18140324Y-9224174D01*
X18140324Y-9224174D02*
X18159372Y-9214650D01*
X18159372Y-9214650D02*
X18178420Y-9214650D01*
X18245086Y-9347984D02*
X18245086Y-9214650D01*
X18245086Y-9147984D02*
X18235563Y-9157508D01*
X18235563Y-9157508D02*
X18245086Y-9167031D01*
X18245086Y-9167031D02*
X18254610Y-9157508D01*
X18254610Y-9157508D02*
X18245086Y-9147984D01*
X18245086Y-9147984D02*
X18245086Y-9167031D01*
X18368896Y-9347984D02*
X18349848Y-9338460D01*
X18349848Y-9338460D02*
X18340324Y-9319412D01*
X18340324Y-9319412D02*
X18340324Y-9147984D01*
X18473658Y-9347984D02*
X18454610Y-9338460D01*
X18454610Y-9338460D02*
X18445086Y-9319412D01*
X18445086Y-9319412D02*
X18445086Y-9147984D01*
X18702229Y-9347984D02*
X18702229Y-9147984D01*
X18702229Y-9147984D02*
X18768896Y-9290841D01*
X18768896Y-9290841D02*
X18835563Y-9147984D01*
X18835563Y-9147984D02*
X18835563Y-9347984D01*
X19016515Y-9347984D02*
X19016515Y-9243222D01*
X19016515Y-9243222D02*
X19006991Y-9224174D01*
X19006991Y-9224174D02*
X18987944Y-9214650D01*
X18987944Y-9214650D02*
X18949848Y-9214650D01*
X18949848Y-9214650D02*
X18930801Y-9224174D01*
X19016515Y-9338460D02*
X18997467Y-9347984D01*
X18997467Y-9347984D02*
X18949848Y-9347984D01*
X18949848Y-9347984D02*
X18930801Y-9338460D01*
X18930801Y-9338460D02*
X18921277Y-9319412D01*
X18921277Y-9319412D02*
X18921277Y-9300365D01*
X18921277Y-9300365D02*
X18930801Y-9281317D01*
X18930801Y-9281317D02*
X18949848Y-9271793D01*
X18949848Y-9271793D02*
X18997467Y-9271793D01*
X18997467Y-9271793D02*
X19016515Y-9262270D01*
X19111753Y-9214650D02*
X19111753Y-9414650D01*
X19111753Y-9224174D02*
X19130801Y-9214650D01*
X19130801Y-9214650D02*
X19168896Y-9214650D01*
X19168896Y-9214650D02*
X19187944Y-9224174D01*
X19187944Y-9224174D02*
X19197467Y-9233698D01*
X19197467Y-9233698D02*
X19206991Y-9252746D01*
X19206991Y-9252746D02*
X19206991Y-9309889D01*
X19206991Y-9309889D02*
X19197467Y-9328936D01*
X19197467Y-9328936D02*
X19187944Y-9338460D01*
X19187944Y-9338460D02*
X19168896Y-9347984D01*
X19168896Y-9347984D02*
X19130801Y-9347984D01*
X19130801Y-9347984D02*
X19111753Y-9338460D01*
X19292705Y-9328936D02*
X19302229Y-9338460D01*
X19302229Y-9338460D02*
X19292705Y-9347984D01*
X19292705Y-9347984D02*
X19283182Y-9338460D01*
X19283182Y-9338460D02*
X19292705Y-9328936D01*
X19292705Y-9328936D02*
X19292705Y-9347984D01*
X19292705Y-9224174D02*
X19302229Y-9233698D01*
X19302229Y-9233698D02*
X19292705Y-9243222D01*
X19292705Y-9243222D02*
X19283182Y-9233698D01*
X19283182Y-9233698D02*
X19292705Y-9224174D01*
X19292705Y-9224174D02*
X19292705Y-9243222D01*
M02*
