%TF.GenerationSoftware,KiCad,Pcbnew,9.0.6*%
%TF.CreationDate,2026-01-26T18:49:08-03:00*%
%TF.ProjectId,evasion_sensor,65766173-696f-46e5-9f73-656e736f722e,rev?*%
%TF.SameCoordinates,Original*%
%TF.FileFunction,Copper,L2,Bot*%
%TF.FilePolarity,Positive*%
%FSLAX46Y46*%
G04 Gerber Fmt 4.6, Leading zero omitted, Abs format (unit mm)*
G04 Created by KiCad (PCBNEW 9.0.6) date 2026-01-26 18:49:08*
%MOMM*%
%LPD*%
G01*
G04 APERTURE LIST*
%TA.AperFunction,ComponentPad*%
%ADD10R,1.700000X1.700000*%
%TD*%
%TA.AperFunction,ComponentPad*%
%ADD11C,1.700000*%
%TD*%
%TA.AperFunction,ViaPad*%
%ADD12C,0.600000*%
%TD*%
G04 APERTURE END LIST*
D10*
%TO.P,J1,1,Pin_1*%
%TO.N,SCL3*%
X203130000Y-64740000D03*
D11*
%TO.P,J1,2,Pin_2*%
%TO.N,SDA3*%
X203130000Y-67280000D03*
%TO.P,J1,3,Pin_3*%
%TO.N,SCL2*%
X203130000Y-69820000D03*
%TO.P,J1,4,Pin_4*%
%TO.N,SDA2*%
X203130000Y-72360000D03*
%TO.P,J1,5,Pin_5*%
%TO.N,SCL1*%
X203130000Y-74900000D03*
%TO.P,J1,6,Pin_6*%
%TO.N,SDA1*%
X203130000Y-77440000D03*
%TO.P,J1,7,Pin_7*%
%TO.N,SCL0*%
X203130000Y-79980000D03*
%TO.P,J1,8,Pin_8*%
%TO.N,SDA0*%
X203130000Y-82520000D03*
%TD*%
D10*
%TO.P,J2,1,Pin_1*%
%TO.N,+3.3V*%
X193250000Y-58830000D03*
D11*
%TO.P,J2,2,Pin_2*%
%TO.N,GND*%
X190710000Y-58830000D03*
%TO.P,J2,3,Pin_3*%
%TO.N,SCL*%
X188170000Y-58830000D03*
%TO.P,J2,4,Pin_4*%
%TO.N,SDA*%
X185630000Y-58830000D03*
%TD*%
D12*
%TO.N,GND*%
X187600000Y-86610000D03*
X191270000Y-67812500D03*
X191260000Y-86610000D03*
X187410000Y-67770000D03*
X194535000Y-69065000D03*
X194750000Y-86610000D03*
X195320000Y-77170000D03*
%TD*%
%TA.AperFunction,Conductor*%
%TO.N,GND*%
G36*
X211866922Y-55871280D02*
G01*
X211957266Y-55881459D01*
X211984331Y-55887636D01*
X212063540Y-55915352D01*
X212088553Y-55927398D01*
X212159606Y-55972043D01*
X212181313Y-55989355D01*
X212240644Y-56048686D01*
X212257957Y-56070395D01*
X212302600Y-56141444D01*
X212314648Y-56166462D01*
X212342362Y-56245666D01*
X212348540Y-56272735D01*
X212358720Y-56363076D01*
X212359500Y-56376961D01*
X212359500Y-89333038D01*
X212358720Y-89346922D01*
X212358720Y-89346923D01*
X212348540Y-89437264D01*
X212342362Y-89464333D01*
X212314648Y-89543537D01*
X212302600Y-89568555D01*
X212257957Y-89639604D01*
X212240644Y-89661313D01*
X212181313Y-89720644D01*
X212159604Y-89737957D01*
X212088555Y-89782600D01*
X212063537Y-89794648D01*
X211984333Y-89822362D01*
X211957264Y-89828540D01*
X211877075Y-89837576D01*
X211866921Y-89838720D01*
X211853038Y-89839500D01*
X177636962Y-89839500D01*
X177623078Y-89838720D01*
X177610553Y-89837308D01*
X177532735Y-89828540D01*
X177505666Y-89822362D01*
X177426462Y-89794648D01*
X177401444Y-89782600D01*
X177330395Y-89737957D01*
X177308686Y-89720644D01*
X177249355Y-89661313D01*
X177232042Y-89639604D01*
X177187399Y-89568555D01*
X177175351Y-89543537D01*
X177147637Y-89464333D01*
X177141459Y-89437263D01*
X177131280Y-89346922D01*
X177130500Y-89333038D01*
X177130500Y-82416530D01*
X202079500Y-82416530D01*
X202079500Y-82623469D01*
X202119868Y-82826412D01*
X202119870Y-82826420D01*
X202199058Y-83017596D01*
X202314024Y-83189657D01*
X202460342Y-83335975D01*
X202460345Y-83335977D01*
X202632402Y-83450941D01*
X202823580Y-83530130D01*
X203026530Y-83570499D01*
X203026534Y-83570500D01*
X203026535Y-83570500D01*
X203233466Y-83570500D01*
X203233467Y-83570499D01*
X203436420Y-83530130D01*
X203627598Y-83450941D01*
X203799655Y-83335977D01*
X203945977Y-83189655D01*
X204060941Y-83017598D01*
X204140130Y-82826420D01*
X204180500Y-82623465D01*
X204180500Y-82416535D01*
X204140130Y-82213580D01*
X204060941Y-82022402D01*
X203945977Y-81850345D01*
X203945975Y-81850342D01*
X203799657Y-81704024D01*
X203713626Y-81646541D01*
X203627598Y-81589059D01*
X203436420Y-81509870D01*
X203436412Y-81509868D01*
X203233469Y-81469500D01*
X203233465Y-81469500D01*
X203026535Y-81469500D01*
X203026530Y-81469500D01*
X202823587Y-81509868D01*
X202823579Y-81509870D01*
X202632403Y-81589058D01*
X202460342Y-81704024D01*
X202314024Y-81850342D01*
X202199058Y-82022403D01*
X202119870Y-82213579D01*
X202119868Y-82213587D01*
X202079500Y-82416530D01*
X177130500Y-82416530D01*
X177130500Y-79876530D01*
X202079500Y-79876530D01*
X202079500Y-80083469D01*
X202119868Y-80286412D01*
X202119870Y-80286420D01*
X202199058Y-80477596D01*
X202314024Y-80649657D01*
X202460342Y-80795975D01*
X202460345Y-80795977D01*
X202632402Y-80910941D01*
X202823580Y-80990130D01*
X203026530Y-81030499D01*
X203026534Y-81030500D01*
X203026535Y-81030500D01*
X203233466Y-81030500D01*
X203233467Y-81030499D01*
X203436420Y-80990130D01*
X203627598Y-80910941D01*
X203799655Y-80795977D01*
X203945977Y-80649655D01*
X204060941Y-80477598D01*
X204140130Y-80286420D01*
X204180500Y-80083465D01*
X204180500Y-79876535D01*
X204140130Y-79673580D01*
X204060941Y-79482402D01*
X203945977Y-79310345D01*
X203945975Y-79310342D01*
X203799657Y-79164024D01*
X203713626Y-79106541D01*
X203627598Y-79049059D01*
X203436420Y-78969870D01*
X203436412Y-78969868D01*
X203233469Y-78929500D01*
X203233465Y-78929500D01*
X203026535Y-78929500D01*
X203026530Y-78929500D01*
X202823587Y-78969868D01*
X202823579Y-78969870D01*
X202632403Y-79049058D01*
X202460342Y-79164024D01*
X202314024Y-79310342D01*
X202199058Y-79482403D01*
X202119870Y-79673579D01*
X202119868Y-79673587D01*
X202079500Y-79876530D01*
X177130500Y-79876530D01*
X177130500Y-77336530D01*
X202079500Y-77336530D01*
X202079500Y-77543469D01*
X202119868Y-77746412D01*
X202119870Y-77746420D01*
X202199058Y-77937596D01*
X202314024Y-78109657D01*
X202460342Y-78255975D01*
X202460345Y-78255977D01*
X202632402Y-78370941D01*
X202823580Y-78450130D01*
X203026530Y-78490499D01*
X203026534Y-78490500D01*
X203026535Y-78490500D01*
X203233466Y-78490500D01*
X203233467Y-78490499D01*
X203436420Y-78450130D01*
X203627598Y-78370941D01*
X203799655Y-78255977D01*
X203945977Y-78109655D01*
X204060941Y-77937598D01*
X204140130Y-77746420D01*
X204180500Y-77543465D01*
X204180500Y-77336535D01*
X204140130Y-77133580D01*
X204060941Y-76942402D01*
X203945977Y-76770345D01*
X203945975Y-76770342D01*
X203799657Y-76624024D01*
X203713626Y-76566541D01*
X203627598Y-76509059D01*
X203436420Y-76429870D01*
X203436412Y-76429868D01*
X203233469Y-76389500D01*
X203233465Y-76389500D01*
X203026535Y-76389500D01*
X203026530Y-76389500D01*
X202823587Y-76429868D01*
X202823579Y-76429870D01*
X202632403Y-76509058D01*
X202460342Y-76624024D01*
X202314024Y-76770342D01*
X202199058Y-76942403D01*
X202119870Y-77133579D01*
X202119868Y-77133587D01*
X202079500Y-77336530D01*
X177130500Y-77336530D01*
X177130500Y-74796530D01*
X202079500Y-74796530D01*
X202079500Y-75003469D01*
X202119868Y-75206412D01*
X202119870Y-75206420D01*
X202199058Y-75397596D01*
X202314024Y-75569657D01*
X202460342Y-75715975D01*
X202460345Y-75715977D01*
X202632402Y-75830941D01*
X202823580Y-75910130D01*
X203026530Y-75950499D01*
X203026534Y-75950500D01*
X203026535Y-75950500D01*
X203233466Y-75950500D01*
X203233467Y-75950499D01*
X203436420Y-75910130D01*
X203627598Y-75830941D01*
X203799655Y-75715977D01*
X203945977Y-75569655D01*
X204060941Y-75397598D01*
X204140130Y-75206420D01*
X204180500Y-75003465D01*
X204180500Y-74796535D01*
X204140130Y-74593580D01*
X204060941Y-74402402D01*
X203945977Y-74230345D01*
X203945975Y-74230342D01*
X203799657Y-74084024D01*
X203713626Y-74026541D01*
X203627598Y-73969059D01*
X203436420Y-73889870D01*
X203436412Y-73889868D01*
X203233469Y-73849500D01*
X203233465Y-73849500D01*
X203026535Y-73849500D01*
X203026530Y-73849500D01*
X202823587Y-73889868D01*
X202823579Y-73889870D01*
X202632403Y-73969058D01*
X202460342Y-74084024D01*
X202314024Y-74230342D01*
X202199058Y-74402403D01*
X202119870Y-74593579D01*
X202119868Y-74593587D01*
X202079500Y-74796530D01*
X177130500Y-74796530D01*
X177130500Y-72256530D01*
X202079500Y-72256530D01*
X202079500Y-72463469D01*
X202119868Y-72666412D01*
X202119870Y-72666420D01*
X202199058Y-72857596D01*
X202314024Y-73029657D01*
X202460342Y-73175975D01*
X202460345Y-73175977D01*
X202632402Y-73290941D01*
X202823580Y-73370130D01*
X203026530Y-73410499D01*
X203026534Y-73410500D01*
X203026535Y-73410500D01*
X203233466Y-73410500D01*
X203233467Y-73410499D01*
X203436420Y-73370130D01*
X203627598Y-73290941D01*
X203799655Y-73175977D01*
X203945977Y-73029655D01*
X204060941Y-72857598D01*
X204140130Y-72666420D01*
X204180500Y-72463465D01*
X204180500Y-72256535D01*
X204140130Y-72053580D01*
X204060941Y-71862402D01*
X203945977Y-71690345D01*
X203945975Y-71690342D01*
X203799657Y-71544024D01*
X203713626Y-71486541D01*
X203627598Y-71429059D01*
X203436420Y-71349870D01*
X203436412Y-71349868D01*
X203233469Y-71309500D01*
X203233465Y-71309500D01*
X203026535Y-71309500D01*
X203026530Y-71309500D01*
X202823587Y-71349868D01*
X202823579Y-71349870D01*
X202632403Y-71429058D01*
X202460342Y-71544024D01*
X202314024Y-71690342D01*
X202199058Y-71862403D01*
X202119870Y-72053579D01*
X202119868Y-72053587D01*
X202079500Y-72256530D01*
X177130500Y-72256530D01*
X177130500Y-69716530D01*
X202079500Y-69716530D01*
X202079500Y-69923469D01*
X202119868Y-70126412D01*
X202119870Y-70126420D01*
X202199058Y-70317596D01*
X202314024Y-70489657D01*
X202460342Y-70635975D01*
X202460345Y-70635977D01*
X202632402Y-70750941D01*
X202823580Y-70830130D01*
X203026530Y-70870499D01*
X203026534Y-70870500D01*
X203026535Y-70870500D01*
X203233466Y-70870500D01*
X203233467Y-70870499D01*
X203436420Y-70830130D01*
X203627598Y-70750941D01*
X203799655Y-70635977D01*
X203945977Y-70489655D01*
X204060941Y-70317598D01*
X204140130Y-70126420D01*
X204180500Y-69923465D01*
X204180500Y-69716535D01*
X204140130Y-69513580D01*
X204060941Y-69322402D01*
X203945977Y-69150345D01*
X203945975Y-69150342D01*
X203799657Y-69004024D01*
X203713626Y-68946541D01*
X203627598Y-68889059D01*
X203436420Y-68809870D01*
X203436412Y-68809868D01*
X203233469Y-68769500D01*
X203233465Y-68769500D01*
X203026535Y-68769500D01*
X203026530Y-68769500D01*
X202823587Y-68809868D01*
X202823579Y-68809870D01*
X202632403Y-68889058D01*
X202460342Y-69004024D01*
X202314024Y-69150342D01*
X202199058Y-69322403D01*
X202119870Y-69513579D01*
X202119868Y-69513587D01*
X202079500Y-69716530D01*
X177130500Y-69716530D01*
X177130500Y-67176530D01*
X202079500Y-67176530D01*
X202079500Y-67383469D01*
X202119868Y-67586412D01*
X202119870Y-67586420D01*
X202199058Y-67777596D01*
X202314024Y-67949657D01*
X202460342Y-68095975D01*
X202460345Y-68095977D01*
X202632402Y-68210941D01*
X202823580Y-68290130D01*
X203026530Y-68330499D01*
X203026534Y-68330500D01*
X203026535Y-68330500D01*
X203233466Y-68330500D01*
X203233467Y-68330499D01*
X203436420Y-68290130D01*
X203627598Y-68210941D01*
X203799655Y-68095977D01*
X203945977Y-67949655D01*
X204060941Y-67777598D01*
X204140130Y-67586420D01*
X204180500Y-67383465D01*
X204180500Y-67176535D01*
X204140130Y-66973580D01*
X204060941Y-66782402D01*
X203945977Y-66610345D01*
X203945975Y-66610342D01*
X203799657Y-66464024D01*
X203713626Y-66406541D01*
X203627598Y-66349059D01*
X203436420Y-66269870D01*
X203436412Y-66269868D01*
X203233469Y-66229500D01*
X203233465Y-66229500D01*
X203026535Y-66229500D01*
X203026530Y-66229500D01*
X202823587Y-66269868D01*
X202823579Y-66269870D01*
X202632403Y-66349058D01*
X202460342Y-66464024D01*
X202314024Y-66610342D01*
X202199058Y-66782403D01*
X202119870Y-66973579D01*
X202119868Y-66973587D01*
X202079500Y-67176530D01*
X177130500Y-67176530D01*
X177130500Y-63870247D01*
X202079500Y-63870247D01*
X202079500Y-65609752D01*
X202091131Y-65668229D01*
X202091132Y-65668230D01*
X202135447Y-65734552D01*
X202201769Y-65778867D01*
X202201770Y-65778868D01*
X202260247Y-65790499D01*
X202260250Y-65790500D01*
X202260252Y-65790500D01*
X203999750Y-65790500D01*
X203999751Y-65790499D01*
X204014568Y-65787552D01*
X204058229Y-65778868D01*
X204058229Y-65778867D01*
X204058231Y-65778867D01*
X204124552Y-65734552D01*
X204168867Y-65668231D01*
X204168867Y-65668229D01*
X204168868Y-65668229D01*
X204180499Y-65609752D01*
X204180500Y-65609750D01*
X204180500Y-63870249D01*
X204180499Y-63870247D01*
X204168868Y-63811770D01*
X204168867Y-63811769D01*
X204124552Y-63745447D01*
X204058230Y-63701132D01*
X204058229Y-63701131D01*
X203999752Y-63689500D01*
X203999748Y-63689500D01*
X202260252Y-63689500D01*
X202260247Y-63689500D01*
X202201770Y-63701131D01*
X202201769Y-63701132D01*
X202135447Y-63745447D01*
X202091132Y-63811769D01*
X202091131Y-63811770D01*
X202079500Y-63870247D01*
X177130500Y-63870247D01*
X177130500Y-58726530D01*
X184579500Y-58726530D01*
X184579500Y-58933469D01*
X184619868Y-59136412D01*
X184619870Y-59136420D01*
X184699058Y-59327596D01*
X184814024Y-59499657D01*
X184960342Y-59645975D01*
X184960345Y-59645977D01*
X185132402Y-59760941D01*
X185323580Y-59840130D01*
X185468052Y-59868867D01*
X185526530Y-59880499D01*
X185526534Y-59880500D01*
X185526535Y-59880500D01*
X185733466Y-59880500D01*
X185733467Y-59880499D01*
X185936420Y-59840130D01*
X186127598Y-59760941D01*
X186299655Y-59645977D01*
X186445977Y-59499655D01*
X186560941Y-59327598D01*
X186640130Y-59136420D01*
X186680500Y-58933465D01*
X186680500Y-58726535D01*
X186680499Y-58726530D01*
X187119500Y-58726530D01*
X187119500Y-58933469D01*
X187159868Y-59136412D01*
X187159870Y-59136420D01*
X187239058Y-59327596D01*
X187354024Y-59499657D01*
X187500342Y-59645975D01*
X187500345Y-59645977D01*
X187672402Y-59760941D01*
X187863580Y-59840130D01*
X188008052Y-59868867D01*
X188066530Y-59880499D01*
X188066534Y-59880500D01*
X188066535Y-59880500D01*
X188273466Y-59880500D01*
X188273467Y-59880499D01*
X188476420Y-59840130D01*
X188667598Y-59760941D01*
X188839655Y-59645977D01*
X188985977Y-59499655D01*
X189100941Y-59327598D01*
X189180130Y-59136420D01*
X189220500Y-58933465D01*
X189220500Y-58726535D01*
X189180130Y-58523580D01*
X189100941Y-58332402D01*
X188985977Y-58160345D01*
X188985975Y-58160342D01*
X188839657Y-58014024D01*
X188759173Y-57960247D01*
X192199500Y-57960247D01*
X192199500Y-59699752D01*
X192211131Y-59758229D01*
X192211132Y-59758230D01*
X192255447Y-59824552D01*
X192321769Y-59868867D01*
X192321770Y-59868868D01*
X192380247Y-59880499D01*
X192380250Y-59880500D01*
X192380252Y-59880500D01*
X194119750Y-59880500D01*
X194119751Y-59880499D01*
X194134568Y-59877552D01*
X194178229Y-59868868D01*
X194178229Y-59868867D01*
X194178231Y-59868867D01*
X194244552Y-59824552D01*
X194288867Y-59758231D01*
X194288867Y-59758229D01*
X194288868Y-59758229D01*
X194300499Y-59699752D01*
X194300500Y-59699750D01*
X194300500Y-57960249D01*
X194300499Y-57960247D01*
X194288868Y-57901770D01*
X194288867Y-57901769D01*
X194244552Y-57835447D01*
X194178230Y-57791132D01*
X194178229Y-57791131D01*
X194119752Y-57779500D01*
X194119748Y-57779500D01*
X192380252Y-57779500D01*
X192380247Y-57779500D01*
X192321770Y-57791131D01*
X192321769Y-57791132D01*
X192255447Y-57835447D01*
X192211132Y-57901769D01*
X192211131Y-57901770D01*
X192199500Y-57960247D01*
X188759173Y-57960247D01*
X188671655Y-57901770D01*
X188667598Y-57899059D01*
X188476420Y-57819870D01*
X188476412Y-57819868D01*
X188273469Y-57779500D01*
X188273465Y-57779500D01*
X188066535Y-57779500D01*
X188066530Y-57779500D01*
X187863587Y-57819868D01*
X187863579Y-57819870D01*
X187672403Y-57899058D01*
X187500342Y-58014024D01*
X187354024Y-58160342D01*
X187239058Y-58332403D01*
X187159870Y-58523579D01*
X187159868Y-58523587D01*
X187119500Y-58726530D01*
X186680499Y-58726530D01*
X186640130Y-58523580D01*
X186560941Y-58332402D01*
X186445977Y-58160345D01*
X186445975Y-58160342D01*
X186299657Y-58014024D01*
X186131655Y-57901770D01*
X186127598Y-57899059D01*
X185936420Y-57819870D01*
X185936412Y-57819868D01*
X185733469Y-57779500D01*
X185733465Y-57779500D01*
X185526535Y-57779500D01*
X185526530Y-57779500D01*
X185323587Y-57819868D01*
X185323579Y-57819870D01*
X185132403Y-57899058D01*
X184960342Y-58014024D01*
X184814024Y-58160342D01*
X184699058Y-58332403D01*
X184619870Y-58523579D01*
X184619868Y-58523587D01*
X184579500Y-58726530D01*
X177130500Y-58726530D01*
X177130500Y-56376961D01*
X177131280Y-56363077D01*
X177131280Y-56363076D01*
X177141460Y-56272729D01*
X177147635Y-56245670D01*
X177175353Y-56166456D01*
X177187396Y-56141450D01*
X177232046Y-56070389D01*
X177249351Y-56048690D01*
X177308690Y-55989351D01*
X177330389Y-55972046D01*
X177401450Y-55927396D01*
X177426456Y-55915353D01*
X177505670Y-55887635D01*
X177532733Y-55881459D01*
X177595419Y-55874396D01*
X177623079Y-55871280D01*
X177636962Y-55870500D01*
X177695892Y-55870500D01*
X211794108Y-55870500D01*
X211853038Y-55870500D01*
X211866922Y-55871280D01*
G37*
%TD.AperFunction*%
%TD*%
M02*
