M48
; DRILL file {KiCad 9.0.6} date 2026-01-27T05:52:51-0300
; FORMAT={-:-/ absolute / metric / decimal}
; #@! TF.CreationDate,2026-01-27T05:52:51-03:00
; #@! TF.GenerationSoftware,Kicad,Pcbnew,9.0.6
; #@! TF.FileFunction,Plated,1,2,PTH
FMAT,2
METRIC
; #@! TA.AperFunction,Plated,PTH,ViaDrill
T1C0.300
; #@! TA.AperFunction,Plated,PTH,ComponentDrill
T2C1.000
; #@! TA.AperFunction,Plated,PTH,ComponentDrill
T3C3.200
%
G90
G05
T1
X184.9Y-68.04
X187.6Y-86.61
X191.26Y-86.61
X194.535Y-69.065
X194.75Y-86.61
X195.32Y-77.84
T2
X185.63Y-58.83
X188.17Y-58.83
X190.71Y-58.83
X193.25Y-58.83
X203.13Y-64.74
X203.13Y-67.28
X203.13Y-69.82
X203.13Y-72.36
X203.13Y-74.9
X203.13Y-77.44
X203.13Y-79.98
X203.13Y-82.52
T3
X199.61Y-58.55
X199.61Y-88.08
M30
