%TF.GenerationSoftware,KiCad,Pcbnew,9.0.6*%
%TF.CreationDate,2026-01-27T05:52:47-03:00*%
%TF.ProjectId,evasion_sensor,65766173-696f-46e5-9f73-656e736f722e,rev?*%
%TF.SameCoordinates,Original*%
%TF.FileFunction,Copper,L1,Top*%
%TF.FilePolarity,Positive*%
%FSLAX46Y46*%
G04 Gerber Fmt 4.6, Leading zero omitted, Abs format (unit mm)*
G04 Created by KiCad (PCBNEW 9.0.6) date 2026-01-27 05:52:47*
%MOMM*%
%LPD*%
G01*
G04 APERTURE LIST*
G04 Aperture macros list*
%AMRoundRect*
0 Rectangle with rounded corners*
0 $1 Rounding radius*
0 $2 $3 $4 $5 $6 $7 $8 $9 X,Y pos of 4 corners*
0 Add a 4 corners polygon primitive as box body*
4,1,4,$2,$3,$4,$5,$6,$7,$8,$9,$2,$3,0*
0 Add four circle primitives for the rounded corners*
1,1,$1+$1,$2,$3*
1,1,$1+$1,$4,$5*
1,1,$1+$1,$6,$7*
1,1,$1+$1,$8,$9*
0 Add four rect primitives between the rounded corners*
20,1,$1+$1,$2,$3,$4,$5,0*
20,1,$1+$1,$4,$5,$6,$7,0*
20,1,$1+$1,$6,$7,$8,$9,0*
20,1,$1+$1,$8,$9,$2,$3,0*%
G04 Aperture macros list end*
%TA.AperFunction,SMDPad,CuDef*%
%ADD10RoundRect,0.250000X0.400000X0.625000X-0.400000X0.625000X-0.400000X-0.625000X0.400000X-0.625000X0*%
%TD*%
%TA.AperFunction,SMDPad,CuDef*%
%ADD11RoundRect,0.100000X0.637500X0.100000X-0.637500X0.100000X-0.637500X-0.100000X0.637500X-0.100000X0*%
%TD*%
%TA.AperFunction,SMDPad,CuDef*%
%ADD12RoundRect,0.250000X-0.625000X0.400000X-0.625000X-0.400000X0.625000X-0.400000X0.625000X0.400000X0*%
%TD*%
%TA.AperFunction,SMDPad,CuDef*%
%ADD13RoundRect,0.250000X-0.400000X-0.625000X0.400000X-0.625000X0.400000X0.625000X-0.400000X0.625000X0*%
%TD*%
%TA.AperFunction,SMDPad,CuDef*%
%ADD14RoundRect,0.250000X-0.650000X0.412500X-0.650000X-0.412500X0.650000X-0.412500X0.650000X0.412500X0*%
%TD*%
%TA.AperFunction,ComponentPad*%
%ADD15R,1.700000X1.700000*%
%TD*%
%TA.AperFunction,ComponentPad*%
%ADD16C,1.700000*%
%TD*%
%TA.AperFunction,ComponentPad*%
%ADD17C,5.700000*%
%TD*%
%TA.AperFunction,ViaPad*%
%ADD18C,0.600000*%
%TD*%
%TA.AperFunction,Conductor*%
%ADD19C,0.200000*%
%TD*%
G04 APERTURE END LIST*
D10*
%TO.P,R10,1*%
%TO.N,+3.3V*%
X210340000Y-70910000D03*
%TO.P,R10,2*%
%TO.N,SDA2*%
X207240000Y-70910000D03*
%TD*%
%TO.P,R8,1*%
%TO.N,+3.3V*%
X210340000Y-63270000D03*
%TO.P,R8,2*%
%TO.N,SDA3*%
X207240000Y-63270000D03*
%TD*%
%TO.P,R11,1*%
%TO.N,+3.3V*%
X210340000Y-74730000D03*
%TO.P,R11,2*%
%TO.N,SCL1*%
X207240000Y-74730000D03*
%TD*%
D11*
%TO.P,U1,1,A0*%
%TO.N,A0*%
X192220000Y-77170000D03*
%TO.P,U1,2,A1*%
%TO.N,A1*%
X192220000Y-76520000D03*
%TO.P,U1,3,~{RESET}*%
%TO.N,GND*%
X192220000Y-75870000D03*
%TO.P,U1,4,SD0*%
%TO.N,SDA0*%
X192220000Y-75220000D03*
%TO.P,U1,5,SC0*%
%TO.N,SCL0*%
X192220000Y-74570000D03*
%TO.P,U1,6,SD1*%
%TO.N,SDA1*%
X192220000Y-73920000D03*
%TO.P,U1,7,SC1*%
%TO.N,SCL1*%
X192220000Y-73270000D03*
%TO.P,U1,8,SD2*%
%TO.N,SDA2*%
X192220000Y-72620000D03*
%TO.P,U1,9,SC2*%
%TO.N,SCL2*%
X192220000Y-71970000D03*
%TO.P,U1,10,SD3*%
%TO.N,SDA3*%
X192220000Y-71320000D03*
%TO.P,U1,11,SC3*%
%TO.N,SCL3*%
X192220000Y-70670000D03*
%TO.P,U1,12,GND*%
%TO.N,GND*%
X192220000Y-70020000D03*
%TO.P,U1,13,SD4*%
%TO.N,unconnected-(U1-SD4-Pad13)*%
X186495000Y-70020000D03*
%TO.P,U1,14,SC4*%
%TO.N,unconnected-(U1-SC4-Pad14)*%
X186495000Y-70670000D03*
%TO.P,U1,15,SD5*%
%TO.N,unconnected-(U1-SD5-Pad15)*%
X186495000Y-71320000D03*
%TO.P,U1,16,SC5*%
%TO.N,unconnected-(U1-SC5-Pad16)*%
X186495000Y-71970000D03*
%TO.P,U1,17,SD6*%
%TO.N,unconnected-(U1-SD6-Pad17)*%
X186495000Y-72620000D03*
%TO.P,U1,18,SC6*%
%TO.N,unconnected-(U1-SC6-Pad18)*%
X186495000Y-73270000D03*
%TO.P,U1,19,SD7*%
%TO.N,unconnected-(U1-SD7-Pad19)*%
X186495000Y-73920000D03*
%TO.P,U1,20,SC7*%
%TO.N,unconnected-(U1-SC7-Pad20)*%
X186495000Y-74570000D03*
%TO.P,U1,21,A2*%
%TO.N,A2*%
X186495000Y-75220000D03*
%TO.P,U1,22,SCL*%
%TO.N,SCL*%
X186495000Y-75870000D03*
%TO.P,U1,23,SDA*%
%TO.N,SDA*%
X186495000Y-76520000D03*
%TO.P,U1,24,VCC*%
%TO.N,+3.3V*%
X186495000Y-77170000D03*
%TD*%
D12*
%TO.P,R4,1*%
%TO.N,A2*%
X186780000Y-80850000D03*
%TO.P,R4,2*%
%TO.N,GND*%
X186780000Y-83950000D03*
%TD*%
%TO.P,R6,1*%
%TO.N,A0*%
X190410000Y-80850000D03*
%TO.P,R6,2*%
%TO.N,GND*%
X190410000Y-83950000D03*
%TD*%
D10*
%TO.P,R13,1*%
%TO.N,+3.3V*%
X210340000Y-82370000D03*
%TO.P,R13,2*%
%TO.N,SCL0*%
X207240000Y-82370000D03*
%TD*%
%TO.P,R9,1*%
%TO.N,+3.3V*%
X210340000Y-67090000D03*
%TO.P,R9,2*%
%TO.N,SCL2*%
X207240000Y-67090000D03*
%TD*%
%TO.P,R12,1*%
%TO.N,+3.3V*%
X210340000Y-78550000D03*
%TO.P,R12,2*%
%TO.N,SDA1*%
X207240000Y-78550000D03*
%TD*%
D13*
%TO.P,R1,1*%
%TO.N,+3.3V*%
X179960000Y-72160000D03*
%TO.P,R1,2*%
%TO.N,SCL*%
X183060000Y-72160000D03*
%TD*%
D14*
%TO.P,C1,1*%
%TO.N,+3.3V*%
X191270000Y-64417500D03*
%TO.P,C1,2*%
%TO.N,GND*%
X191270000Y-67542500D03*
%TD*%
D12*
%TO.P,R5,1*%
%TO.N,A1*%
X194090000Y-80870000D03*
%TO.P,R5,2*%
%TO.N,GND*%
X194090000Y-83970000D03*
%TD*%
D15*
%TO.P,J1,1,Pin_1*%
%TO.N,SCL3*%
X203130000Y-64740000D03*
D16*
%TO.P,J1,2,Pin_2*%
%TO.N,SDA3*%
X203130000Y-67280000D03*
%TO.P,J1,3,Pin_3*%
%TO.N,SCL2*%
X203130000Y-69820000D03*
%TO.P,J1,4,Pin_4*%
%TO.N,SDA2*%
X203130000Y-72360000D03*
%TO.P,J1,5,Pin_5*%
%TO.N,SCL1*%
X203130000Y-74900000D03*
%TO.P,J1,6,Pin_6*%
%TO.N,SDA1*%
X203130000Y-77440000D03*
%TO.P,J1,7,Pin_7*%
%TO.N,SCL0*%
X203130000Y-79980000D03*
%TO.P,J1,8,Pin_8*%
%TO.N,SDA0*%
X203130000Y-82520000D03*
%TD*%
D10*
%TO.P,R7,1*%
%TO.N,+3.3V*%
X210340000Y-59450000D03*
%TO.P,R7,2*%
%TO.N,SCL3*%
X207240000Y-59450000D03*
%TD*%
D12*
%TO.P,R3,1*%
%TO.N,+3.3V*%
X187410000Y-64400000D03*
%TO.P,R3,2*%
%TO.N,GND*%
X187410000Y-67500000D03*
%TD*%
D13*
%TO.P,R2,1*%
%TO.N,+3.3V*%
X179960000Y-75950000D03*
%TO.P,R2,2*%
%TO.N,SDA*%
X183060000Y-75950000D03*
%TD*%
D10*
%TO.P,R14,1*%
%TO.N,+3.3V*%
X210340000Y-86190000D03*
%TO.P,R14,2*%
%TO.N,SDA0*%
X207240000Y-86190000D03*
%TD*%
D15*
%TO.P,J2,1,Pin_1*%
%TO.N,+3.3V*%
X193250000Y-58830000D03*
D16*
%TO.P,J2,2,Pin_2*%
%TO.N,GND*%
X190710000Y-58830000D03*
%TO.P,J2,3,Pin_3*%
%TO.N,SCL*%
X188170000Y-58830000D03*
%TO.P,J2,4,Pin_4*%
%TO.N,SDA*%
X185630000Y-58830000D03*
%TD*%
D17*
%TO.P,H1,1*%
%TO.N,N/C*%
X199610000Y-58550000D03*
%TD*%
%TO.P,H2,1*%
%TO.N,N/C*%
X199610000Y-88080000D03*
%TD*%
D18*
%TO.N,GND*%
X187600000Y-86610000D03*
X184900000Y-68040000D03*
X191260000Y-86610000D03*
X194535000Y-69065000D03*
X194750000Y-86610000D03*
X195320000Y-77840000D03*
%TD*%
D19*
%TO.N,SCL2*%
X199890000Y-69820000D02*
X203130000Y-69820000D01*
X199500000Y-71730000D02*
X199500000Y-70210000D01*
X199260000Y-71970000D02*
X199500000Y-71730000D01*
X192220000Y-71970000D02*
X199260000Y-71970000D01*
X199500000Y-70210000D02*
X199890000Y-69820000D01*
%TO.N,SCL1*%
X199500000Y-74490000D02*
X199910000Y-74900000D01*
X199500000Y-73430000D02*
X199500000Y-74490000D01*
X199910000Y-74900000D02*
X203130000Y-74900000D01*
X192220000Y-73270000D02*
X199340000Y-73270000D01*
X199340000Y-73270000D02*
X199500000Y-73430000D01*
%TO.N,SCL0*%
X198250000Y-79980000D02*
X203130000Y-79980000D01*
X197740000Y-79470000D02*
X198250000Y-79980000D01*
X196690000Y-74570000D02*
X197740000Y-75620000D01*
X192220000Y-74570000D02*
X196690000Y-74570000D01*
X197740000Y-75620000D02*
X197740000Y-79470000D01*
%TO.N,SDA0*%
X196690000Y-75220000D02*
X196690000Y-81470000D01*
X197740000Y-82520000D02*
X203130000Y-82520000D01*
X192220000Y-75220000D02*
X196690000Y-75220000D01*
X196690000Y-81470000D02*
X197740000Y-82520000D01*
%TO.N,GND*%
X195320000Y-76380000D02*
X194810000Y-75870000D01*
X195320000Y-77840000D02*
X195320000Y-76380000D01*
X194810000Y-75870000D02*
X192220000Y-75870000D01*
%TO.N,SCL3*%
X196420000Y-69450000D02*
X196420000Y-65480000D01*
X197160000Y-64740000D02*
X203130000Y-64740000D01*
X195200000Y-70670000D02*
X196420000Y-69450000D01*
X196420000Y-65480000D02*
X197160000Y-64740000D01*
X192220000Y-70670000D02*
X195200000Y-70670000D01*
%TO.N,SDA3*%
X197760000Y-67960000D02*
X198440000Y-67280000D01*
X198440000Y-67280000D02*
X203130000Y-67280000D01*
X197760000Y-70820000D02*
X197760000Y-67960000D01*
X197260000Y-71320000D02*
X197760000Y-70820000D01*
X192220000Y-71320000D02*
X197260000Y-71320000D01*
%TO.N,GND*%
X185420000Y-67500000D02*
X187410000Y-67500000D01*
X184900000Y-68020000D02*
X185420000Y-67500000D01*
X191270000Y-67542500D02*
X187452500Y-67542500D01*
X194090000Y-85790000D02*
X194750000Y-86450000D01*
X192220000Y-70020000D02*
X193580000Y-70020000D01*
X190410000Y-85610000D02*
X191310000Y-86510000D01*
X190410000Y-83950000D02*
X190410000Y-85610000D01*
X186780000Y-83950000D02*
X186780000Y-85790000D01*
X194090000Y-83970000D02*
X194090000Y-85790000D01*
X186780000Y-85790000D02*
X187600000Y-86610000D01*
X193580000Y-70020000D02*
X194535000Y-69065000D01*
%TO.N,SCL3*%
X203710000Y-59450000D02*
X203130000Y-60030000D01*
X203130000Y-60030000D02*
X203130000Y-64740000D01*
X207240000Y-59450000D02*
X203710000Y-59450000D01*
%TO.N,SDA1*%
X205610000Y-77650000D02*
X205610000Y-78500000D01*
X205400000Y-77440000D02*
X205610000Y-77650000D01*
X198640000Y-77070000D02*
X199010000Y-77440000D01*
X205890000Y-78780000D02*
X207240000Y-78780000D01*
X192220000Y-73920000D02*
X197610000Y-73920000D01*
X197610000Y-73920000D02*
X198640000Y-74950000D01*
X205610000Y-78500000D02*
X205890000Y-78780000D01*
X198640000Y-74950000D02*
X198640000Y-77070000D01*
X203130000Y-77440000D02*
X205400000Y-77440000D01*
X199010000Y-77440000D02*
X203130000Y-77440000D01*
%TO.N,SDA2*%
X205340000Y-71330000D02*
X205340000Y-72160000D01*
X205340000Y-72160000D02*
X205150000Y-72350000D01*
X207240000Y-71090000D02*
X205580000Y-71090000D01*
X192220000Y-72620000D02*
X202870000Y-72620000D01*
X205580000Y-71090000D02*
X205340000Y-71330000D01*
X205150000Y-72350000D02*
X203140000Y-72350000D01*
%TO.N,SDA3*%
X205220000Y-63520000D02*
X205520000Y-63220000D01*
X203130000Y-67280000D02*
X204600000Y-67280000D01*
X205520000Y-63220000D02*
X207240000Y-63220000D01*
X205220000Y-66660000D02*
X205220000Y-63520000D01*
X204600000Y-67280000D02*
X205220000Y-66660000D01*
%TO.N,SDA0*%
X203700000Y-86190000D02*
X207240000Y-86190000D01*
X203130000Y-82520000D02*
X203130000Y-85620000D01*
X203130000Y-85620000D02*
X203700000Y-86190000D01*
%TO.N,SCL2*%
X206210000Y-67150000D02*
X205890000Y-67470000D01*
X207240000Y-67150000D02*
X206210000Y-67150000D01*
X205890000Y-69430000D02*
X205500000Y-69820000D01*
X205890000Y-67470000D02*
X205890000Y-69430000D01*
X205500000Y-69820000D02*
X203130000Y-69820000D01*
%TO.N,SCL1*%
X203130000Y-74900000D02*
X207230000Y-74900000D01*
%TO.N,SCL0*%
X205820000Y-82510000D02*
X207240000Y-82510000D01*
X205530000Y-82220000D02*
X205820000Y-82510000D01*
X205260000Y-79980000D02*
X205530000Y-80250000D01*
X205530000Y-80250000D02*
X205530000Y-82220000D01*
X203130000Y-79980000D02*
X205260000Y-79980000D01*
%TO.N,SCL*%
X184080000Y-62710000D02*
X183060000Y-63730000D01*
X183060000Y-72160000D02*
X184390000Y-72160000D01*
X184390000Y-72160000D02*
X184740000Y-72510000D01*
X184740000Y-72510000D02*
X184740000Y-75210000D01*
X184740000Y-75210000D02*
X185400000Y-75870000D01*
X185400000Y-75870000D02*
X186495000Y-75870000D01*
X188170000Y-58830000D02*
X188170000Y-60930000D01*
X188170000Y-60930000D02*
X186390000Y-62710000D01*
X186390000Y-62710000D02*
X184080000Y-62710000D01*
X183060000Y-63730000D02*
X183060000Y-72160000D01*
%TO.N,SDA*%
X181560000Y-62930000D02*
X182751000Y-61739000D01*
X181930000Y-75950000D02*
X181560000Y-75580000D01*
X183060000Y-75950000D02*
X181930000Y-75950000D01*
X182751000Y-61739000D02*
X185011000Y-61739000D01*
X185011000Y-61739000D02*
X185630000Y-61120000D01*
X181560000Y-75580000D02*
X181560000Y-62930000D01*
X186495000Y-76520000D02*
X185150000Y-76520000D01*
X184580000Y-75950000D02*
X183060000Y-75950000D01*
X185630000Y-61120000D02*
X185630000Y-58830000D01*
X185150000Y-76520000D02*
X184580000Y-75950000D01*
%TO.N,A2*%
X188150000Y-78480000D02*
X188530000Y-78100000D01*
X188530000Y-78100000D02*
X188530000Y-75680000D01*
X186780000Y-78700000D02*
X187000000Y-78480000D01*
X188530000Y-75680000D02*
X188070000Y-75220000D01*
X188070000Y-75220000D02*
X186495000Y-75220000D01*
X186780000Y-80850000D02*
X186780000Y-78700000D01*
X187000000Y-78480000D02*
X188150000Y-78480000D01*
%TO.N,A1*%
X193370000Y-76520000D02*
X194090000Y-77240000D01*
X194090000Y-77240000D02*
X194090000Y-80870000D01*
X192220000Y-76520000D02*
X193370000Y-76520000D01*
%TO.N,A0*%
X190710000Y-77170000D02*
X190410000Y-77470000D01*
X190410000Y-77470000D02*
X190410000Y-80850000D01*
X192220000Y-77170000D02*
X190710000Y-77170000D01*
%TD*%
%TA.AperFunction,Conductor*%
%TO.N,+3.3V*%
G36*
X213005394Y-53320972D02*
G01*
X213012947Y-53321632D01*
X213151564Y-53333760D01*
X213164907Y-53335665D01*
X213194247Y-53341501D01*
X213202109Y-53343334D01*
X213326922Y-53376777D01*
X213342275Y-53381989D01*
X213359224Y-53389009D01*
X213364134Y-53391169D01*
X213489918Y-53449823D01*
X213508633Y-53460629D01*
X213633582Y-53548119D01*
X213650140Y-53562013D01*
X213757986Y-53669859D01*
X213771880Y-53686417D01*
X213859370Y-53811366D01*
X213870177Y-53830084D01*
X213928809Y-53955819D01*
X213930989Y-53960774D01*
X213938009Y-53977723D01*
X213943222Y-53993080D01*
X213976659Y-54117869D01*
X213978501Y-54125769D01*
X213984330Y-54155071D01*
X213986241Y-54168456D01*
X213999028Y-54314605D01*
X213999500Y-54325413D01*
X213999500Y-91634586D01*
X213999028Y-91645394D01*
X213986241Y-91791542D01*
X213984330Y-91804927D01*
X213978501Y-91834229D01*
X213976659Y-91842129D01*
X213943222Y-91966918D01*
X213938009Y-91982275D01*
X213930989Y-91999224D01*
X213928809Y-92004179D01*
X213870177Y-92129915D01*
X213859370Y-92148633D01*
X213771880Y-92273582D01*
X213757986Y-92290140D01*
X213650140Y-92397986D01*
X213633582Y-92411880D01*
X213508633Y-92499370D01*
X213489915Y-92510177D01*
X213364179Y-92568809D01*
X213359224Y-92570989D01*
X213342275Y-92578009D01*
X213326918Y-92583222D01*
X213202129Y-92616659D01*
X213194229Y-92618501D01*
X213164927Y-92624330D01*
X213151542Y-92626241D01*
X213005395Y-92639028D01*
X212994587Y-92639500D01*
X177225413Y-92639500D01*
X177214605Y-92639028D01*
X177068456Y-92626241D01*
X177055071Y-92624330D01*
X177025769Y-92618501D01*
X177017869Y-92616659D01*
X176893080Y-92583222D01*
X176877723Y-92578009D01*
X176860774Y-92570989D01*
X176855819Y-92568809D01*
X176730084Y-92510177D01*
X176711366Y-92499370D01*
X176586417Y-92411880D01*
X176569859Y-92397986D01*
X176462013Y-92290140D01*
X176448119Y-92273582D01*
X176360629Y-92148633D01*
X176349822Y-92129916D01*
X176319292Y-92064445D01*
X176291169Y-92004134D01*
X176289009Y-91999224D01*
X176281989Y-91982275D01*
X176276776Y-91966918D01*
X176258829Y-91899938D01*
X176243334Y-91842109D01*
X176241501Y-91834247D01*
X176235665Y-91804907D01*
X176233760Y-91791564D01*
X176220972Y-91645394D01*
X176220500Y-91634588D01*
X176220500Y-87908681D01*
X196559500Y-87908681D01*
X196559500Y-88251318D01*
X196597858Y-88591768D01*
X196597861Y-88591782D01*
X196674102Y-88925816D01*
X196674103Y-88925818D01*
X196787264Y-89249216D01*
X196935922Y-89557907D01*
X196935924Y-89557910D01*
X197118211Y-89848018D01*
X197331834Y-90115893D01*
X197574107Y-90358166D01*
X197841982Y-90571789D01*
X198132090Y-90754076D01*
X198440785Y-90902736D01*
X198764183Y-91015897D01*
X199098217Y-91092139D01*
X199098226Y-91092140D01*
X199098231Y-91092141D01*
X199325197Y-91117713D01*
X199438682Y-91130499D01*
X199438685Y-91130500D01*
X199438688Y-91130500D01*
X199781315Y-91130500D01*
X199781316Y-91130499D01*
X199955311Y-91110895D01*
X200121768Y-91092141D01*
X200121771Y-91092140D01*
X200121783Y-91092139D01*
X200455817Y-91015897D01*
X200779215Y-90902736D01*
X201087910Y-90754076D01*
X201378018Y-90571789D01*
X201645893Y-90358166D01*
X201888166Y-90115893D01*
X202101789Y-89848018D01*
X202284076Y-89557910D01*
X202432736Y-89249215D01*
X202545897Y-88925817D01*
X202622139Y-88591783D01*
X202660500Y-88251312D01*
X202660500Y-87908688D01*
X202622139Y-87568217D01*
X202545897Y-87234183D01*
X202432736Y-86910785D01*
X202284076Y-86602090D01*
X202101789Y-86311982D01*
X201888166Y-86044107D01*
X201645893Y-85801834D01*
X201636711Y-85794512D01*
X201520514Y-85701848D01*
X201378018Y-85588211D01*
X201148773Y-85444167D01*
X201087907Y-85405922D01*
X200779216Y-85257264D01*
X200455818Y-85144103D01*
X200455816Y-85144102D01*
X200198024Y-85085262D01*
X200121783Y-85067861D01*
X200121780Y-85067860D01*
X200121768Y-85067858D01*
X199781318Y-85029500D01*
X199781312Y-85029500D01*
X199438688Y-85029500D01*
X199438681Y-85029500D01*
X199098231Y-85067858D01*
X199098217Y-85067861D01*
X198764183Y-85144102D01*
X198764181Y-85144103D01*
X198440783Y-85257264D01*
X198132092Y-85405922D01*
X197841983Y-85588210D01*
X197574107Y-85801833D01*
X197331833Y-86044107D01*
X197118210Y-86311983D01*
X196935922Y-86602092D01*
X196787264Y-86910783D01*
X196674103Y-87234181D01*
X196674102Y-87234183D01*
X196597861Y-87568217D01*
X196597858Y-87568231D01*
X196559500Y-87908681D01*
X176220500Y-87908681D01*
X176220500Y-83495730D01*
X185704500Y-83495730D01*
X185704500Y-84404269D01*
X185707353Y-84434699D01*
X185707353Y-84434701D01*
X185752206Y-84562880D01*
X185752207Y-84562882D01*
X185832850Y-84672150D01*
X185942118Y-84752793D01*
X185984845Y-84767744D01*
X186070299Y-84797646D01*
X186100730Y-84800500D01*
X186100734Y-84800500D01*
X186355500Y-84800500D01*
X186422539Y-84820185D01*
X186468294Y-84872989D01*
X186479500Y-84924500D01*
X186479500Y-85829562D01*
X186499979Y-85905989D01*
X186508357Y-85920500D01*
X186508358Y-85920501D01*
X186539539Y-85974509D01*
X186539541Y-85974512D01*
X187063181Y-86498152D01*
X187096666Y-86559475D01*
X187099500Y-86585833D01*
X187099500Y-86675891D01*
X187133608Y-86803187D01*
X187166554Y-86860250D01*
X187199500Y-86917314D01*
X187292686Y-87010500D01*
X187406814Y-87076392D01*
X187534108Y-87110500D01*
X187534110Y-87110500D01*
X187665890Y-87110500D01*
X187665892Y-87110500D01*
X187793186Y-87076392D01*
X187907314Y-87010500D01*
X188000500Y-86917314D01*
X188066392Y-86803186D01*
X188100500Y-86675892D01*
X188100500Y-86544108D01*
X188066392Y-86416814D01*
X188000500Y-86302686D01*
X187907314Y-86209500D01*
X187850250Y-86176554D01*
X187793187Y-86143608D01*
X187691270Y-86116300D01*
X187665892Y-86109500D01*
X187575833Y-86109500D01*
X187508794Y-86089815D01*
X187488152Y-86073181D01*
X187116819Y-85701848D01*
X187083334Y-85640525D01*
X187080500Y-85614167D01*
X187080500Y-84924500D01*
X187100185Y-84857461D01*
X187152989Y-84811706D01*
X187204500Y-84800500D01*
X187459270Y-84800500D01*
X187489699Y-84797646D01*
X187489701Y-84797646D01*
X187560728Y-84772792D01*
X187617882Y-84752793D01*
X187727150Y-84672150D01*
X187807793Y-84562882D01*
X187830219Y-84498790D01*
X187852646Y-84434701D01*
X187852646Y-84434699D01*
X187855500Y-84404269D01*
X187855500Y-83495730D01*
X189334500Y-83495730D01*
X189334500Y-84404269D01*
X189337353Y-84434699D01*
X189337353Y-84434701D01*
X189382206Y-84562880D01*
X189382207Y-84562882D01*
X189462850Y-84672150D01*
X189572118Y-84752793D01*
X189614845Y-84767744D01*
X189700299Y-84797646D01*
X189730730Y-84800500D01*
X189730734Y-84800500D01*
X189985500Y-84800500D01*
X190052539Y-84820185D01*
X190098294Y-84872989D01*
X190109500Y-84924500D01*
X190109500Y-85649562D01*
X190123510Y-85701848D01*
X190129979Y-85725989D01*
X190144093Y-85750434D01*
X190144094Y-85750438D01*
X190144095Y-85750438D01*
X190169539Y-85794510D01*
X190169541Y-85794512D01*
X190742612Y-86367583D01*
X190776097Y-86428906D01*
X190774706Y-86487356D01*
X190759500Y-86544106D01*
X190759500Y-86675891D01*
X190793608Y-86803187D01*
X190826554Y-86860250D01*
X190859500Y-86917314D01*
X190952686Y-87010500D01*
X191066814Y-87076392D01*
X191194108Y-87110500D01*
X191194110Y-87110500D01*
X191325890Y-87110500D01*
X191325892Y-87110500D01*
X191453186Y-87076392D01*
X191567314Y-87010500D01*
X191660500Y-86917314D01*
X191726392Y-86803186D01*
X191760500Y-86675892D01*
X191760500Y-86544108D01*
X191726392Y-86416814D01*
X191660500Y-86302686D01*
X191567314Y-86209500D01*
X191453186Y-86143608D01*
X191369702Y-86121238D01*
X191314116Y-86089145D01*
X190746819Y-85521848D01*
X190713334Y-85460525D01*
X190710500Y-85434167D01*
X190710500Y-84924500D01*
X190730185Y-84857461D01*
X190782989Y-84811706D01*
X190834500Y-84800500D01*
X191089270Y-84800500D01*
X191119699Y-84797646D01*
X191119701Y-84797646D01*
X191190728Y-84772792D01*
X191247882Y-84752793D01*
X191357150Y-84672150D01*
X191437793Y-84562882D01*
X191460219Y-84498790D01*
X191482646Y-84434701D01*
X191482646Y-84434699D01*
X191485500Y-84404269D01*
X191485500Y-83515730D01*
X193014500Y-83515730D01*
X193014500Y-84424269D01*
X193017353Y-84454699D01*
X193017353Y-84454701D01*
X193062206Y-84582880D01*
X193062207Y-84582882D01*
X193142850Y-84692150D01*
X193252118Y-84772793D01*
X193294845Y-84787744D01*
X193380299Y-84817646D01*
X193410730Y-84820500D01*
X193410734Y-84820500D01*
X193665500Y-84820500D01*
X193732539Y-84840185D01*
X193778294Y-84892989D01*
X193789500Y-84944500D01*
X193789500Y-85829562D01*
X193809979Y-85905989D01*
X193818357Y-85920500D01*
X193818358Y-85920501D01*
X193849539Y-85974509D01*
X193849541Y-85974512D01*
X194234725Y-86359696D01*
X194268210Y-86421019D01*
X194266819Y-86479469D01*
X194249500Y-86544106D01*
X194249500Y-86675891D01*
X194283608Y-86803187D01*
X194316554Y-86860250D01*
X194349500Y-86917314D01*
X194442686Y-87010500D01*
X194556814Y-87076392D01*
X194684108Y-87110500D01*
X194684110Y-87110500D01*
X194815890Y-87110500D01*
X194815892Y-87110500D01*
X194943186Y-87076392D01*
X195057314Y-87010500D01*
X195150500Y-86917314D01*
X195216392Y-86803186D01*
X195250500Y-86675892D01*
X195250500Y-86544108D01*
X195216392Y-86416814D01*
X195150500Y-86302686D01*
X195057314Y-86209500D01*
X195000250Y-86176554D01*
X194943187Y-86143608D01*
X194873363Y-86124899D01*
X194817776Y-86092805D01*
X194426819Y-85701848D01*
X194393334Y-85640525D01*
X194390500Y-85614167D01*
X194390500Y-84944500D01*
X194410185Y-84877461D01*
X194462989Y-84831706D01*
X194514500Y-84820500D01*
X194769270Y-84820500D01*
X194799699Y-84817646D01*
X194799701Y-84817646D01*
X194863790Y-84795219D01*
X194927882Y-84772793D01*
X195037150Y-84692150D01*
X195117793Y-84582882D01*
X195140219Y-84518790D01*
X195162646Y-84454701D01*
X195162646Y-84454699D01*
X195165500Y-84424269D01*
X195165500Y-83515730D01*
X195162646Y-83485300D01*
X195162646Y-83485298D01*
X195117793Y-83357119D01*
X195117792Y-83357117D01*
X195103032Y-83337118D01*
X195037150Y-83247850D01*
X194927882Y-83167207D01*
X194927880Y-83167206D01*
X194799700Y-83122353D01*
X194769270Y-83119500D01*
X194769266Y-83119500D01*
X193410734Y-83119500D01*
X193410730Y-83119500D01*
X193380300Y-83122353D01*
X193380298Y-83122353D01*
X193252119Y-83167206D01*
X193252117Y-83167207D01*
X193142850Y-83247850D01*
X193062207Y-83357117D01*
X193062206Y-83357119D01*
X193017353Y-83485298D01*
X193017353Y-83485300D01*
X193014500Y-83515730D01*
X191485500Y-83515730D01*
X191485500Y-83495730D01*
X191482646Y-83465300D01*
X191482646Y-83465298D01*
X191449006Y-83369163D01*
X191437793Y-83337118D01*
X191357150Y-83227850D01*
X191247882Y-83147207D01*
X191247880Y-83147206D01*
X191119700Y-83102353D01*
X191089270Y-83099500D01*
X191089266Y-83099500D01*
X189730734Y-83099500D01*
X189730730Y-83099500D01*
X189700300Y-83102353D01*
X189700298Y-83102353D01*
X189572119Y-83147206D01*
X189572117Y-83147207D01*
X189462850Y-83227850D01*
X189382207Y-83337117D01*
X189382206Y-83337119D01*
X189337353Y-83465298D01*
X189337353Y-83465300D01*
X189334500Y-83495730D01*
X187855500Y-83495730D01*
X187852646Y-83465300D01*
X187852646Y-83465298D01*
X187819006Y-83369163D01*
X187807793Y-83337118D01*
X187727150Y-83227850D01*
X187617882Y-83147207D01*
X187617880Y-83147206D01*
X187489700Y-83102353D01*
X187459270Y-83099500D01*
X187459266Y-83099500D01*
X186100734Y-83099500D01*
X186100730Y-83099500D01*
X186070300Y-83102353D01*
X186070298Y-83102353D01*
X185942119Y-83147206D01*
X185942117Y-83147207D01*
X185832850Y-83227850D01*
X185752207Y-83337117D01*
X185752206Y-83337119D01*
X185707353Y-83465298D01*
X185707353Y-83465300D01*
X185704500Y-83495730D01*
X176220500Y-83495730D01*
X176220500Y-62890438D01*
X181259500Y-62890438D01*
X181259500Y-75619562D01*
X181279979Y-75695989D01*
X181315661Y-75757793D01*
X181315663Y-75757796D01*
X181315662Y-75757796D01*
X181319326Y-75764141D01*
X181319540Y-75764511D01*
X181689540Y-76134511D01*
X181745489Y-76190460D01*
X181745491Y-76190461D01*
X181745495Y-76190464D01*
X181795788Y-76219500D01*
X181814011Y-76230021D01*
X181890438Y-76250500D01*
X182085500Y-76250500D01*
X182152539Y-76270185D01*
X182198294Y-76322989D01*
X182209500Y-76374500D01*
X182209500Y-76629269D01*
X182212353Y-76659699D01*
X182212353Y-76659701D01*
X182257206Y-76787880D01*
X182257207Y-76787882D01*
X182337850Y-76897150D01*
X182447118Y-76977793D01*
X182458707Y-76981848D01*
X182575299Y-77022646D01*
X182605730Y-77025500D01*
X182605734Y-77025500D01*
X183514270Y-77025500D01*
X183544699Y-77022646D01*
X183544701Y-77022646D01*
X183609392Y-77000009D01*
X183672882Y-76977793D01*
X183782150Y-76897150D01*
X183862793Y-76787882D01*
X183885219Y-76723790D01*
X183907646Y-76659701D01*
X183907646Y-76659699D01*
X183910500Y-76629269D01*
X183910500Y-76374500D01*
X183930185Y-76307461D01*
X183982989Y-76261706D01*
X184034500Y-76250500D01*
X184404167Y-76250500D01*
X184471206Y-76270185D01*
X184491848Y-76286819D01*
X184965489Y-76760460D01*
X185034012Y-76800022D01*
X185110438Y-76820500D01*
X185189562Y-76820500D01*
X185581667Y-76820500D01*
X185648706Y-76840185D01*
X185669348Y-76856819D01*
X185684735Y-76872206D01*
X185749726Y-76900902D01*
X185787506Y-76917584D01*
X185787507Y-76917584D01*
X185787509Y-76917585D01*
X185812635Y-76920500D01*
X187177364Y-76920499D01*
X187177379Y-76920497D01*
X187177382Y-76920497D01*
X187202487Y-76917586D01*
X187202488Y-76917585D01*
X187202491Y-76917585D01*
X187305265Y-76872206D01*
X187384706Y-76792765D01*
X187430085Y-76689991D01*
X187433000Y-76664865D01*
X187432999Y-76375136D01*
X187432925Y-76374500D01*
X187430086Y-76350012D01*
X187430085Y-76350008D01*
X187383757Y-76245086D01*
X187374685Y-76175808D01*
X187383757Y-76144913D01*
X187384704Y-76142766D01*
X187384706Y-76142765D01*
X187430085Y-76039991D01*
X187433000Y-76014865D01*
X187432999Y-75725136D01*
X187431937Y-75715975D01*
X187430086Y-75700012D01*
X187430085Y-75700010D01*
X187427690Y-75694585D01*
X187418619Y-75625307D01*
X187448443Y-75562122D01*
X187507693Y-75525092D01*
X187541125Y-75520500D01*
X187894167Y-75520500D01*
X187961206Y-75540185D01*
X187981848Y-75556819D01*
X188193181Y-75768152D01*
X188226666Y-75829475D01*
X188229500Y-75855833D01*
X188229500Y-77924167D01*
X188220855Y-77953607D01*
X188214332Y-77983594D01*
X188210577Y-77988609D01*
X188209815Y-77991206D01*
X188193181Y-78011848D01*
X188061848Y-78143181D01*
X188000525Y-78176666D01*
X187974167Y-78179500D01*
X186960438Y-78179500D01*
X186922224Y-78189739D01*
X186884009Y-78199979D01*
X186859558Y-78214096D01*
X186856281Y-78215989D01*
X186844161Y-78222986D01*
X186815489Y-78239539D01*
X186539541Y-78515487D01*
X186539535Y-78515495D01*
X186499982Y-78584004D01*
X186499979Y-78584009D01*
X186479500Y-78660439D01*
X186479500Y-79875500D01*
X186459815Y-79942539D01*
X186407011Y-79988294D01*
X186355500Y-79999500D01*
X186100730Y-79999500D01*
X186070300Y-80002353D01*
X186070298Y-80002353D01*
X185942119Y-80047206D01*
X185942117Y-80047207D01*
X185832850Y-80127850D01*
X185752207Y-80237117D01*
X185752206Y-80237119D01*
X185707353Y-80365298D01*
X185707353Y-80365300D01*
X185704500Y-80395730D01*
X185704500Y-81304269D01*
X185707353Y-81334699D01*
X185707353Y-81334701D01*
X185738199Y-81422850D01*
X185752207Y-81462882D01*
X185832850Y-81572150D01*
X185942118Y-81652793D01*
X185963572Y-81660300D01*
X186070299Y-81697646D01*
X186100730Y-81700500D01*
X186100734Y-81700500D01*
X187459270Y-81700500D01*
X187489699Y-81697646D01*
X187489701Y-81697646D01*
X187560728Y-81672792D01*
X187617882Y-81652793D01*
X187727150Y-81572150D01*
X187807793Y-81462882D01*
X187836148Y-81381848D01*
X187852646Y-81334701D01*
X187852646Y-81334699D01*
X187855500Y-81304269D01*
X187855500Y-80395730D01*
X189334500Y-80395730D01*
X189334500Y-81304269D01*
X189337353Y-81334699D01*
X189337353Y-81334701D01*
X189368199Y-81422850D01*
X189382207Y-81462882D01*
X189462850Y-81572150D01*
X189572118Y-81652793D01*
X189593572Y-81660300D01*
X189700299Y-81697646D01*
X189730730Y-81700500D01*
X189730734Y-81700500D01*
X191089270Y-81700500D01*
X191119699Y-81697646D01*
X191119701Y-81697646D01*
X191190728Y-81672792D01*
X191247882Y-81652793D01*
X191357150Y-81572150D01*
X191437793Y-81462882D01*
X191466148Y-81381848D01*
X191482646Y-81334701D01*
X191482646Y-81334699D01*
X191485500Y-81304269D01*
X191485500Y-80395730D01*
X191482646Y-80365300D01*
X191482646Y-80365298D01*
X191445806Y-80260017D01*
X191437793Y-80237118D01*
X191357150Y-80127850D01*
X191247882Y-80047207D01*
X191247880Y-80047206D01*
X191119700Y-80002353D01*
X191089270Y-79999500D01*
X191089266Y-79999500D01*
X190834500Y-79999500D01*
X190767461Y-79979815D01*
X190721706Y-79927011D01*
X190710500Y-79875500D01*
X190710500Y-77645833D01*
X190719144Y-77616392D01*
X190725668Y-77586406D01*
X190729422Y-77581390D01*
X190730185Y-77578794D01*
X190746819Y-77558152D01*
X190798152Y-77506819D01*
X190859475Y-77473334D01*
X190885833Y-77470500D01*
X191306667Y-77470500D01*
X191373706Y-77490185D01*
X191394348Y-77506819D01*
X191409735Y-77522206D01*
X191512509Y-77567585D01*
X191537635Y-77570500D01*
X192902364Y-77570499D01*
X192902379Y-77570497D01*
X192902382Y-77570497D01*
X192927487Y-77567586D01*
X192927488Y-77567585D01*
X192927491Y-77567585D01*
X193030265Y-77522206D01*
X193109706Y-77442765D01*
X193155085Y-77339991D01*
X193158000Y-77314865D01*
X193157999Y-77032331D01*
X193177683Y-76965293D01*
X193230487Y-76919538D01*
X193299646Y-76909594D01*
X193363201Y-76938619D01*
X193369680Y-76944651D01*
X193753181Y-77328152D01*
X193786666Y-77389475D01*
X193789500Y-77415833D01*
X193789500Y-79895500D01*
X193769815Y-79962539D01*
X193717011Y-80008294D01*
X193665500Y-80019500D01*
X193410730Y-80019500D01*
X193380300Y-80022353D01*
X193380298Y-80022353D01*
X193252119Y-80067206D01*
X193252117Y-80067207D01*
X193142850Y-80147850D01*
X193062207Y-80257117D01*
X193062206Y-80257119D01*
X193017353Y-80385298D01*
X193017353Y-80385300D01*
X193014500Y-80415730D01*
X193014500Y-81324269D01*
X193017353Y-81354699D01*
X193017353Y-81354701D01*
X193057524Y-81469500D01*
X193062207Y-81482882D01*
X193142850Y-81592150D01*
X193252118Y-81672793D01*
X193294845Y-81687744D01*
X193380299Y-81717646D01*
X193410730Y-81720500D01*
X193410734Y-81720500D01*
X194769270Y-81720500D01*
X194799699Y-81717646D01*
X194799701Y-81717646D01*
X194876609Y-81690734D01*
X194927882Y-81672793D01*
X195037150Y-81592150D01*
X195117793Y-81482882D01*
X195140219Y-81418790D01*
X195162646Y-81354701D01*
X195162646Y-81354699D01*
X195165500Y-81324269D01*
X195165500Y-80415730D01*
X195162646Y-80385300D01*
X195162646Y-80385298D01*
X195125975Y-80280500D01*
X195117793Y-80257118D01*
X195037150Y-80147850D01*
X194927882Y-80067207D01*
X194927880Y-80067206D01*
X194799700Y-80022353D01*
X194769270Y-80019500D01*
X194769266Y-80019500D01*
X194514500Y-80019500D01*
X194447461Y-79999815D01*
X194401706Y-79947011D01*
X194390500Y-79895500D01*
X194390500Y-77200438D01*
X194390260Y-77199544D01*
X194390246Y-77199491D01*
X194370023Y-77124014D01*
X194370022Y-77124013D01*
X194370022Y-77124012D01*
X194330460Y-77055489D01*
X193657152Y-76382181D01*
X193623667Y-76320858D01*
X193628651Y-76251166D01*
X193670523Y-76195233D01*
X193735987Y-76170816D01*
X193744833Y-76170500D01*
X194634167Y-76170500D01*
X194701206Y-76190185D01*
X194721848Y-76206819D01*
X194983181Y-76468152D01*
X195016666Y-76529475D01*
X195019500Y-76555833D01*
X195019500Y-77381323D01*
X194999815Y-77448362D01*
X194983182Y-77469004D01*
X194919500Y-77532686D01*
X194853608Y-77646812D01*
X194819500Y-77774108D01*
X194819500Y-77905891D01*
X194853608Y-78033187D01*
X194886554Y-78090250D01*
X194919500Y-78147314D01*
X195012686Y-78240500D01*
X195126814Y-78306392D01*
X195254108Y-78340500D01*
X195254110Y-78340500D01*
X195385890Y-78340500D01*
X195385892Y-78340500D01*
X195513186Y-78306392D01*
X195627314Y-78240500D01*
X195720500Y-78147314D01*
X195786392Y-78033186D01*
X195820500Y-77905892D01*
X195820500Y-77774108D01*
X195786392Y-77646814D01*
X195720500Y-77532686D01*
X195656818Y-77469004D01*
X195623334Y-77407680D01*
X195620500Y-77381323D01*
X195620500Y-76340439D01*
X195615253Y-76320858D01*
X195600021Y-76264011D01*
X195592605Y-76251166D01*
X195560464Y-76195495D01*
X195560458Y-76195487D01*
X195097152Y-75732181D01*
X195063667Y-75670858D01*
X195068651Y-75601166D01*
X195110523Y-75545233D01*
X195175987Y-75520816D01*
X195184833Y-75520500D01*
X196265500Y-75520500D01*
X196332539Y-75540185D01*
X196378294Y-75592989D01*
X196389500Y-75644500D01*
X196389500Y-81509562D01*
X196403152Y-81560513D01*
X196409979Y-81585990D01*
X196409980Y-81585991D01*
X196448548Y-81652793D01*
X196449540Y-81654511D01*
X197499540Y-82704511D01*
X197555489Y-82760460D01*
X197555491Y-82760461D01*
X197555495Y-82760464D01*
X197606690Y-82790021D01*
X197624011Y-82800021D01*
X197700438Y-82820500D01*
X197779562Y-82820500D01*
X202034564Y-82820500D01*
X202101603Y-82840185D01*
X202147358Y-82892989D01*
X202149121Y-82897039D01*
X202173341Y-82955511D01*
X202199058Y-83017596D01*
X202314024Y-83189657D01*
X202460342Y-83335975D01*
X202460345Y-83335977D01*
X202632402Y-83450941D01*
X202752953Y-83500875D01*
X202807356Y-83544714D01*
X202829421Y-83611008D01*
X202829500Y-83615435D01*
X202829500Y-85659562D01*
X202849979Y-85735989D01*
X202883767Y-85794511D01*
X202889540Y-85804511D01*
X203515489Y-86430460D01*
X203584012Y-86470022D01*
X203660438Y-86490500D01*
X203739562Y-86490500D01*
X206265500Y-86490500D01*
X206332539Y-86510185D01*
X206378294Y-86562989D01*
X206389500Y-86614500D01*
X206389500Y-86869269D01*
X206392353Y-86899699D01*
X206392353Y-86899701D01*
X206437206Y-87027880D01*
X206437207Y-87027882D01*
X206517850Y-87137150D01*
X206627118Y-87217793D01*
X206669845Y-87232744D01*
X206755299Y-87262646D01*
X206785730Y-87265500D01*
X206785734Y-87265500D01*
X207694270Y-87265500D01*
X207724699Y-87262646D01*
X207724701Y-87262646D01*
X207788790Y-87240219D01*
X207852882Y-87217793D01*
X207962150Y-87137150D01*
X208042793Y-87027882D01*
X208081482Y-86917316D01*
X208087646Y-86899701D01*
X208087646Y-86899699D01*
X208090500Y-86869269D01*
X208090500Y-85510730D01*
X208087646Y-85480300D01*
X208087646Y-85480298D01*
X208042793Y-85352119D01*
X208042792Y-85352117D01*
X207962150Y-85242850D01*
X207852882Y-85162207D01*
X207852880Y-85162206D01*
X207724700Y-85117353D01*
X207694270Y-85114500D01*
X207694266Y-85114500D01*
X206785734Y-85114500D01*
X206785730Y-85114500D01*
X206755300Y-85117353D01*
X206755298Y-85117353D01*
X206627119Y-85162206D01*
X206627117Y-85162207D01*
X206517850Y-85242850D01*
X206437207Y-85352117D01*
X206437206Y-85352119D01*
X206392353Y-85480298D01*
X206392353Y-85480300D01*
X206389500Y-85510730D01*
X206389500Y-85765500D01*
X206369815Y-85832539D01*
X206317011Y-85878294D01*
X206265500Y-85889500D01*
X203875833Y-85889500D01*
X203808794Y-85869815D01*
X203788152Y-85853181D01*
X203466819Y-85531848D01*
X203433334Y-85470525D01*
X203430500Y-85444167D01*
X203430500Y-83615435D01*
X203450185Y-83548396D01*
X203502989Y-83502641D01*
X203507012Y-83500889D01*
X203627598Y-83450941D01*
X203799655Y-83335977D01*
X203945977Y-83189655D01*
X204060941Y-83017598D01*
X204140130Y-82826420D01*
X204180500Y-82623465D01*
X204180500Y-82416535D01*
X204140130Y-82213580D01*
X204060941Y-82022402D01*
X203945977Y-81850345D01*
X203945975Y-81850342D01*
X203799657Y-81704024D01*
X203632224Y-81592150D01*
X203627598Y-81589059D01*
X203620191Y-81585991D01*
X203436420Y-81509870D01*
X203436412Y-81509868D01*
X203233469Y-81469500D01*
X203233465Y-81469500D01*
X203026535Y-81469500D01*
X203026530Y-81469500D01*
X202823587Y-81509868D01*
X202823579Y-81509870D01*
X202632403Y-81589058D01*
X202460342Y-81704024D01*
X202314024Y-81850342D01*
X202199058Y-82022403D01*
X202149125Y-82142953D01*
X202105284Y-82197356D01*
X202038990Y-82219421D01*
X202034564Y-82219500D01*
X197915833Y-82219500D01*
X197848794Y-82199815D01*
X197828152Y-82183181D01*
X197026819Y-81381848D01*
X196993334Y-81320525D01*
X196990500Y-81294167D01*
X196990500Y-75594833D01*
X197010185Y-75527794D01*
X197062989Y-75482039D01*
X197132147Y-75472095D01*
X197195703Y-75501120D01*
X197202181Y-75507152D01*
X197403181Y-75708152D01*
X197436666Y-75769475D01*
X197439500Y-75795833D01*
X197439500Y-79509562D01*
X197453152Y-79560513D01*
X197459979Y-79585990D01*
X197481141Y-79622642D01*
X197481142Y-79622645D01*
X197499537Y-79654507D01*
X197499539Y-79654510D01*
X197499540Y-79654511D01*
X198009540Y-80164511D01*
X198065489Y-80220460D01*
X198065491Y-80220461D01*
X198065495Y-80220464D01*
X198134004Y-80260017D01*
X198134011Y-80260021D01*
X198210438Y-80280500D01*
X198289562Y-80280500D01*
X202034564Y-80280500D01*
X202101603Y-80300185D01*
X202147358Y-80352989D01*
X202149121Y-80357039D01*
X202152544Y-80365301D01*
X202199058Y-80477596D01*
X202314024Y-80649657D01*
X202460342Y-80795975D01*
X202460345Y-80795977D01*
X202632402Y-80910941D01*
X202823580Y-80990130D01*
X203026530Y-81030499D01*
X203026534Y-81030500D01*
X203026535Y-81030500D01*
X203233466Y-81030500D01*
X203233467Y-81030499D01*
X203436420Y-80990130D01*
X203627598Y-80910941D01*
X203799655Y-80795977D01*
X203945977Y-80649655D01*
X204060941Y-80477598D01*
X204110875Y-80357046D01*
X204154716Y-80302644D01*
X204221010Y-80280579D01*
X204225436Y-80280500D01*
X205084167Y-80280500D01*
X205113607Y-80289144D01*
X205143594Y-80295668D01*
X205148609Y-80299422D01*
X205151206Y-80300185D01*
X205171848Y-80316819D01*
X205193181Y-80338152D01*
X205226666Y-80399475D01*
X205229500Y-80425833D01*
X205229500Y-82259562D01*
X205243152Y-82310513D01*
X205249979Y-82335990D01*
X205249982Y-82335995D01*
X205289235Y-82403984D01*
X205289537Y-82404508D01*
X205289540Y-82404511D01*
X205579540Y-82694511D01*
X205635489Y-82750460D01*
X205635491Y-82750461D01*
X205635495Y-82750464D01*
X205704004Y-82790017D01*
X205704011Y-82790021D01*
X205780438Y-82810500D01*
X205859562Y-82810500D01*
X206265500Y-82810500D01*
X206332539Y-82830185D01*
X206378294Y-82882989D01*
X206389500Y-82934500D01*
X206389500Y-83049269D01*
X206392353Y-83079699D01*
X206392353Y-83079701D01*
X206437206Y-83207880D01*
X206437207Y-83207882D01*
X206517850Y-83317150D01*
X206627118Y-83397793D01*
X206669845Y-83412744D01*
X206755299Y-83442646D01*
X206785730Y-83445500D01*
X206785734Y-83445500D01*
X207694270Y-83445500D01*
X207724699Y-83442646D01*
X207724701Y-83442646D01*
X207788790Y-83420219D01*
X207852882Y-83397793D01*
X207962150Y-83317150D01*
X208042793Y-83207882D01*
X208065219Y-83143790D01*
X208087646Y-83079701D01*
X208087646Y-83079699D01*
X208090500Y-83049269D01*
X208090500Y-81690730D01*
X208087646Y-81660300D01*
X208087646Y-81660298D01*
X208042793Y-81532119D01*
X208042792Y-81532117D01*
X208026373Y-81509870D01*
X207962150Y-81422850D01*
X207852882Y-81342207D01*
X207852880Y-81342206D01*
X207724700Y-81297353D01*
X207694270Y-81294500D01*
X207694266Y-81294500D01*
X206785734Y-81294500D01*
X206785730Y-81294500D01*
X206755300Y-81297353D01*
X206755298Y-81297353D01*
X206627119Y-81342206D01*
X206627117Y-81342207D01*
X206517850Y-81422850D01*
X206437207Y-81532117D01*
X206437206Y-81532119D01*
X206392353Y-81660298D01*
X206392353Y-81660300D01*
X206389500Y-81690730D01*
X206389500Y-82085500D01*
X206369815Y-82152539D01*
X206317011Y-82198294D01*
X206265500Y-82209500D01*
X205995833Y-82209500D01*
X205966392Y-82200855D01*
X205936406Y-82194332D01*
X205931390Y-82190577D01*
X205928794Y-82189815D01*
X205908152Y-82173181D01*
X205866819Y-82131848D01*
X205833334Y-82070525D01*
X205830500Y-82044167D01*
X205830500Y-80210440D01*
X205830500Y-80210438D01*
X205818194Y-80164511D01*
X205810022Y-80134012D01*
X205770460Y-80065489D01*
X205444511Y-79739540D01*
X205444509Y-79739539D01*
X205444504Y-79739535D01*
X205375995Y-79699982D01*
X205375990Y-79699979D01*
X205350513Y-79693152D01*
X205299562Y-79679500D01*
X205299560Y-79679500D01*
X204225436Y-79679500D01*
X204158397Y-79659815D01*
X204112642Y-79607011D01*
X204110875Y-79602953D01*
X204072190Y-79509560D01*
X204060941Y-79482402D01*
X203945977Y-79310345D01*
X203945975Y-79310342D01*
X203799657Y-79164024D01*
X203643998Y-79060017D01*
X203627598Y-79049059D01*
X203558554Y-79020460D01*
X203436420Y-78969870D01*
X203436412Y-78969868D01*
X203233469Y-78929500D01*
X203233465Y-78929500D01*
X203026535Y-78929500D01*
X203026530Y-78929500D01*
X202823587Y-78969868D01*
X202823579Y-78969870D01*
X202632403Y-79049058D01*
X202460342Y-79164024D01*
X202314024Y-79310342D01*
X202199058Y-79482403D01*
X202149125Y-79602953D01*
X202105284Y-79657356D01*
X202038990Y-79679421D01*
X202034564Y-79679500D01*
X198425833Y-79679500D01*
X198358794Y-79659815D01*
X198338152Y-79643181D01*
X198076819Y-79381848D01*
X198043334Y-79320525D01*
X198040500Y-79294167D01*
X198040500Y-75580439D01*
X198039808Y-75577857D01*
X198020021Y-75504011D01*
X198001888Y-75472603D01*
X197980464Y-75435495D01*
X197980458Y-75435487D01*
X196977152Y-74432181D01*
X196943667Y-74370858D01*
X196948651Y-74301166D01*
X196990523Y-74245233D01*
X197055987Y-74220816D01*
X197064833Y-74220500D01*
X197434167Y-74220500D01*
X197501206Y-74240185D01*
X197521848Y-74256819D01*
X198303181Y-75038152D01*
X198336666Y-75099475D01*
X198339500Y-75125833D01*
X198339500Y-77109562D01*
X198359979Y-77185989D01*
X198367774Y-77199491D01*
X198373588Y-77209560D01*
X198373590Y-77209563D01*
X198399537Y-77254507D01*
X198399539Y-77254510D01*
X198399540Y-77254511D01*
X198769540Y-77624511D01*
X198825489Y-77680460D01*
X198825491Y-77680461D01*
X198825495Y-77680464D01*
X198880324Y-77712119D01*
X198894011Y-77720021D01*
X198970438Y-77740500D01*
X202034564Y-77740500D01*
X202101603Y-77760185D01*
X202147358Y-77812989D01*
X202149121Y-77817039D01*
X202199059Y-77937598D01*
X202248671Y-78011848D01*
X202314024Y-78109657D01*
X202460342Y-78255975D01*
X202460345Y-78255977D01*
X202632402Y-78370941D01*
X202823580Y-78450130D01*
X202971234Y-78479500D01*
X203026530Y-78490499D01*
X203026534Y-78490500D01*
X203026535Y-78490500D01*
X203233466Y-78490500D01*
X203233467Y-78490499D01*
X203436420Y-78450130D01*
X203627598Y-78370941D01*
X203799655Y-78255977D01*
X203945977Y-78109655D01*
X204060941Y-77937598D01*
X204110875Y-77817046D01*
X204154716Y-77762644D01*
X204221010Y-77740579D01*
X204225436Y-77740500D01*
X205185500Y-77740500D01*
X205252539Y-77760185D01*
X205298294Y-77812989D01*
X205309500Y-77864500D01*
X205309500Y-78539562D01*
X205321410Y-78584009D01*
X205329979Y-78615990D01*
X205343842Y-78640000D01*
X205357705Y-78664012D01*
X205369540Y-78684511D01*
X205649540Y-78964511D01*
X205705489Y-79020460D01*
X205705491Y-79020461D01*
X205705495Y-79020464D01*
X205755022Y-79049058D01*
X205774011Y-79060021D01*
X205850438Y-79080500D01*
X205929562Y-79080500D01*
X206265500Y-79080500D01*
X206332539Y-79100185D01*
X206378294Y-79152989D01*
X206389500Y-79204500D01*
X206389500Y-79229269D01*
X206392353Y-79259699D01*
X206392353Y-79259701D01*
X206437206Y-79387880D01*
X206437207Y-79387882D01*
X206517850Y-79497150D01*
X206627118Y-79577793D01*
X206650541Y-79585989D01*
X206755299Y-79622646D01*
X206785730Y-79625500D01*
X206785734Y-79625500D01*
X207694270Y-79625500D01*
X207724699Y-79622646D01*
X207724701Y-79622646D01*
X207788790Y-79600219D01*
X207852882Y-79577793D01*
X207962150Y-79497150D01*
X208042793Y-79387882D01*
X208075585Y-79294167D01*
X208087646Y-79259701D01*
X208087646Y-79259699D01*
X208090500Y-79229269D01*
X208090500Y-77870730D01*
X208087646Y-77840300D01*
X208087646Y-77840298D01*
X208042793Y-77712119D01*
X208042792Y-77712117D01*
X208019427Y-77680458D01*
X207962150Y-77602850D01*
X207852882Y-77522207D01*
X207852880Y-77522206D01*
X207724700Y-77477353D01*
X207694270Y-77474500D01*
X207694266Y-77474500D01*
X206785734Y-77474500D01*
X206785730Y-77474500D01*
X206755300Y-77477353D01*
X206755298Y-77477353D01*
X206627119Y-77522206D01*
X206627117Y-77522207D01*
X206517850Y-77602850D01*
X206437207Y-77712117D01*
X206437206Y-77712119D01*
X206392353Y-77840298D01*
X206392353Y-77840300D01*
X206389500Y-77870730D01*
X206389500Y-78355500D01*
X206386949Y-78364185D01*
X206388238Y-78373147D01*
X206377259Y-78397187D01*
X206369815Y-78422539D01*
X206362974Y-78428466D01*
X206359213Y-78436703D01*
X206336978Y-78450992D01*
X206317011Y-78468294D01*
X206306496Y-78470581D01*
X206300435Y-78474477D01*
X206265500Y-78479500D01*
X206065833Y-78479500D01*
X205998794Y-78459815D01*
X205978152Y-78443181D01*
X205946819Y-78411848D01*
X205913334Y-78350525D01*
X205910500Y-78324167D01*
X205910500Y-77610439D01*
X205910500Y-77610438D01*
X205890021Y-77534011D01*
X205883206Y-77522207D01*
X205850464Y-77465495D01*
X205850458Y-77465487D01*
X205584510Y-77199539D01*
X205572774Y-77192764D01*
X205561038Y-77185988D01*
X205538513Y-77172983D01*
X205515990Y-77159979D01*
X205490513Y-77153152D01*
X205439562Y-77139500D01*
X205439560Y-77139500D01*
X204225436Y-77139500D01*
X204158397Y-77119815D01*
X204112642Y-77067011D01*
X204110875Y-77062953D01*
X204098191Y-77032332D01*
X204060941Y-76942402D01*
X203945977Y-76770345D01*
X203945975Y-76770342D01*
X203799657Y-76624024D01*
X203658153Y-76529475D01*
X203627598Y-76509059D01*
X203528840Y-76468152D01*
X203436420Y-76429870D01*
X203436412Y-76429868D01*
X203233469Y-76389500D01*
X203233465Y-76389500D01*
X203026535Y-76389500D01*
X203026530Y-76389500D01*
X202823587Y-76429868D01*
X202823579Y-76429870D01*
X202632403Y-76509058D01*
X202460342Y-76624024D01*
X202314024Y-76770342D01*
X202199058Y-76942403D01*
X202149125Y-77062953D01*
X202105284Y-77117356D01*
X202038990Y-77139421D01*
X202034564Y-77139500D01*
X199185833Y-77139500D01*
X199156392Y-77130855D01*
X199126406Y-77124332D01*
X199121390Y-77120577D01*
X199118794Y-77119815D01*
X199098152Y-77103181D01*
X198976819Y-76981848D01*
X198943334Y-76920525D01*
X198940500Y-76894167D01*
X198940500Y-74910439D01*
X198940500Y-74910438D01*
X198920021Y-74834011D01*
X198920017Y-74834004D01*
X198880464Y-74765495D01*
X198880458Y-74765487D01*
X197897152Y-73782181D01*
X197863667Y-73720858D01*
X197868651Y-73651166D01*
X197910523Y-73595233D01*
X197975987Y-73570816D01*
X197984833Y-73570500D01*
X199075500Y-73570500D01*
X199142539Y-73590185D01*
X199188294Y-73642989D01*
X199199500Y-73694500D01*
X199199500Y-74529562D01*
X199212307Y-74577356D01*
X199219979Y-74605990D01*
X199219980Y-74605991D01*
X199245100Y-74649500D01*
X199259540Y-74674511D01*
X199725489Y-75140460D01*
X199794012Y-75180022D01*
X199870438Y-75200500D01*
X202034564Y-75200500D01*
X202101603Y-75220185D01*
X202147358Y-75272989D01*
X202149125Y-75277047D01*
X202185507Y-75364882D01*
X202199059Y-75397598D01*
X202237767Y-75455529D01*
X202314024Y-75569657D01*
X202460342Y-75715975D01*
X202460345Y-75715977D01*
X202632402Y-75830941D01*
X202823580Y-75910130D01*
X203026530Y-75950499D01*
X203026534Y-75950500D01*
X203026535Y-75950500D01*
X203233466Y-75950500D01*
X203233467Y-75950499D01*
X203436420Y-75910130D01*
X203627598Y-75830941D01*
X203799655Y-75715977D01*
X203945977Y-75569655D01*
X204060941Y-75397598D01*
X204110875Y-75277046D01*
X204154716Y-75222644D01*
X204221010Y-75200579D01*
X204225436Y-75200500D01*
X206265500Y-75200500D01*
X206332539Y-75220185D01*
X206378294Y-75272989D01*
X206389500Y-75324500D01*
X206389500Y-75409269D01*
X206392353Y-75439699D01*
X206392353Y-75439701D01*
X206435852Y-75564011D01*
X206437207Y-75567882D01*
X206517850Y-75677150D01*
X206627118Y-75757793D01*
X206669845Y-75772744D01*
X206755299Y-75802646D01*
X206785730Y-75805500D01*
X206785734Y-75805500D01*
X207694270Y-75805500D01*
X207724699Y-75802646D01*
X207724701Y-75802646D01*
X207788790Y-75780219D01*
X207852882Y-75757793D01*
X207962150Y-75677150D01*
X208042793Y-75567882D01*
X208068326Y-75494913D01*
X208087646Y-75439701D01*
X208087646Y-75439699D01*
X208090500Y-75409269D01*
X208090500Y-74050730D01*
X208087646Y-74020300D01*
X208087646Y-74020298D01*
X208042793Y-73892119D01*
X208042792Y-73892117D01*
X208041132Y-73889868D01*
X207962150Y-73782850D01*
X207852882Y-73702207D01*
X207852880Y-73702206D01*
X207724700Y-73657353D01*
X207694270Y-73654500D01*
X207694266Y-73654500D01*
X206785734Y-73654500D01*
X206785730Y-73654500D01*
X206755300Y-73657353D01*
X206755298Y-73657353D01*
X206627119Y-73702206D01*
X206627117Y-73702207D01*
X206517850Y-73782850D01*
X206437207Y-73892117D01*
X206437206Y-73892119D01*
X206392353Y-74020298D01*
X206392353Y-74020300D01*
X206389500Y-74050730D01*
X206389500Y-74475500D01*
X206369815Y-74542539D01*
X206317011Y-74588294D01*
X206265500Y-74599500D01*
X204225436Y-74599500D01*
X204158397Y-74579815D01*
X204112642Y-74527011D01*
X204110875Y-74522953D01*
X204073276Y-74432181D01*
X204060941Y-74402402D01*
X203945977Y-74230345D01*
X203945975Y-74230342D01*
X203799657Y-74084024D01*
X203704283Y-74020298D01*
X203627598Y-73969059D01*
X203436420Y-73889870D01*
X203436412Y-73889868D01*
X203233469Y-73849500D01*
X203233465Y-73849500D01*
X203026535Y-73849500D01*
X203026530Y-73849500D01*
X202823587Y-73889868D01*
X202823579Y-73889870D01*
X202632403Y-73969058D01*
X202460342Y-74084024D01*
X202314024Y-74230342D01*
X202199058Y-74402403D01*
X202149125Y-74522953D01*
X202105284Y-74577356D01*
X202038990Y-74599421D01*
X202034564Y-74599500D01*
X200085833Y-74599500D01*
X200056392Y-74590855D01*
X200026406Y-74584332D01*
X200021390Y-74580577D01*
X200018794Y-74579815D01*
X199998152Y-74563181D01*
X199836819Y-74401848D01*
X199803334Y-74340525D01*
X199800500Y-74314167D01*
X199800500Y-73390439D01*
X199800500Y-73390438D01*
X199780021Y-73314011D01*
X199766702Y-73290941D01*
X199740464Y-73245495D01*
X199740458Y-73245487D01*
X199627152Y-73132181D01*
X199593667Y-73070858D01*
X199598651Y-73001166D01*
X199640523Y-72945233D01*
X199705987Y-72920816D01*
X199714833Y-72920500D01*
X202174808Y-72920500D01*
X202241847Y-72940185D01*
X202277910Y-72975609D01*
X202314022Y-73029654D01*
X202314025Y-73029658D01*
X202460342Y-73175975D01*
X202460345Y-73175977D01*
X202632402Y-73290941D01*
X202823580Y-73370130D01*
X203026530Y-73410499D01*
X203026534Y-73410500D01*
X203026535Y-73410500D01*
X203233466Y-73410500D01*
X203233467Y-73410499D01*
X203436420Y-73370130D01*
X203627598Y-73290941D01*
X203799655Y-73175977D01*
X203945977Y-73029655D01*
X204060941Y-72857598D01*
X204115017Y-72727046D01*
X204158858Y-72672644D01*
X204225152Y-72650579D01*
X204229578Y-72650500D01*
X205189560Y-72650500D01*
X205189562Y-72650500D01*
X205265989Y-72630021D01*
X205334511Y-72590460D01*
X205390460Y-72534511D01*
X205580460Y-72344511D01*
X205620022Y-72275988D01*
X205640500Y-72199562D01*
X205640500Y-72120438D01*
X205640500Y-71514500D01*
X205660185Y-71447461D01*
X205712989Y-71401706D01*
X205764500Y-71390500D01*
X206265500Y-71390500D01*
X206332539Y-71410185D01*
X206378294Y-71462989D01*
X206389500Y-71514500D01*
X206389500Y-71589269D01*
X206392353Y-71619699D01*
X206392353Y-71619701D01*
X206432874Y-71735500D01*
X206437207Y-71747882D01*
X206517850Y-71857150D01*
X206627118Y-71937793D01*
X206669845Y-71952744D01*
X206755299Y-71982646D01*
X206785730Y-71985500D01*
X206785734Y-71985500D01*
X207694270Y-71985500D01*
X207724699Y-71982646D01*
X207724701Y-71982646D01*
X207788790Y-71960219D01*
X207852882Y-71937793D01*
X207962150Y-71857150D01*
X208042793Y-71747882D01*
X208078793Y-71645000D01*
X208087646Y-71619701D01*
X208087646Y-71619699D01*
X208090500Y-71589269D01*
X208090500Y-70230730D01*
X208087646Y-70200300D01*
X208087646Y-70200298D01*
X208042793Y-70072119D01*
X208042792Y-70072117D01*
X208034189Y-70060460D01*
X207962150Y-69962850D01*
X207852882Y-69882207D01*
X207852880Y-69882206D01*
X207724700Y-69837353D01*
X207694270Y-69834500D01*
X207694266Y-69834500D01*
X206785734Y-69834500D01*
X206785730Y-69834500D01*
X206755300Y-69837353D01*
X206755298Y-69837353D01*
X206627119Y-69882206D01*
X206627117Y-69882207D01*
X206517850Y-69962850D01*
X206437207Y-70072117D01*
X206437206Y-70072119D01*
X206392353Y-70200298D01*
X206392353Y-70200300D01*
X206389500Y-70230730D01*
X206389500Y-70665500D01*
X206369815Y-70732539D01*
X206317011Y-70778294D01*
X206265500Y-70789500D01*
X205540438Y-70789500D01*
X205502224Y-70799739D01*
X205464009Y-70809979D01*
X205464004Y-70809982D01*
X205395495Y-70849535D01*
X205395487Y-70849541D01*
X205099541Y-71145487D01*
X205099535Y-71145495D01*
X205059982Y-71214004D01*
X205059979Y-71214009D01*
X205039500Y-71290439D01*
X205039500Y-71925500D01*
X205019815Y-71992539D01*
X204967011Y-72038294D01*
X204915500Y-72049500D01*
X204221294Y-72049500D01*
X204154255Y-72029815D01*
X204108500Y-71977011D01*
X204106733Y-71972953D01*
X204082525Y-71914511D01*
X204060941Y-71862402D01*
X203945977Y-71690345D01*
X203945975Y-71690342D01*
X203799657Y-71544024D01*
X203678378Y-71462989D01*
X203627598Y-71429059D01*
X203582032Y-71410185D01*
X203436420Y-71349870D01*
X203436412Y-71349868D01*
X203233469Y-71309500D01*
X203233465Y-71309500D01*
X203026535Y-71309500D01*
X203026530Y-71309500D01*
X202823587Y-71349868D01*
X202823579Y-71349870D01*
X202632403Y-71429058D01*
X202460342Y-71544024D01*
X202314024Y-71690342D01*
X202199058Y-71862403D01*
X202119870Y-72053579D01*
X202119868Y-72053587D01*
X202086828Y-72219691D01*
X202054443Y-72281602D01*
X201993728Y-72316176D01*
X201965211Y-72319500D01*
X199634833Y-72319500D01*
X199567794Y-72299815D01*
X199522039Y-72247011D01*
X199512095Y-72177853D01*
X199541120Y-72114297D01*
X199547152Y-72107819D01*
X199625156Y-72029815D01*
X199740460Y-71914511D01*
X199760397Y-71879979D01*
X199780021Y-71845989D01*
X199800500Y-71769562D01*
X199800500Y-70385833D01*
X199809144Y-70356392D01*
X199815668Y-70326406D01*
X199819422Y-70321390D01*
X199820185Y-70318794D01*
X199836819Y-70298152D01*
X199978152Y-70156819D01*
X200039475Y-70123334D01*
X200065833Y-70120500D01*
X202034564Y-70120500D01*
X202101603Y-70140185D01*
X202147358Y-70192989D01*
X202149121Y-70197039D01*
X202150472Y-70200300D01*
X202190531Y-70297011D01*
X202199059Y-70317598D01*
X202220586Y-70349815D01*
X202314024Y-70489657D01*
X202460342Y-70635975D01*
X202460345Y-70635977D01*
X202632402Y-70750941D01*
X202823580Y-70830130D01*
X202971536Y-70859560D01*
X203026530Y-70870499D01*
X203026534Y-70870500D01*
X203026535Y-70870500D01*
X203233466Y-70870500D01*
X203233467Y-70870499D01*
X203436420Y-70830130D01*
X203627598Y-70750941D01*
X203799655Y-70635977D01*
X203945977Y-70489655D01*
X204060941Y-70317598D01*
X204110875Y-70197046D01*
X204154716Y-70142644D01*
X204221010Y-70120579D01*
X204225436Y-70120500D01*
X205539560Y-70120500D01*
X205539562Y-70120500D01*
X205615989Y-70100021D01*
X205684511Y-70060460D01*
X205740460Y-70004511D01*
X206130460Y-69614511D01*
X206158474Y-69565989D01*
X206170021Y-69545989D01*
X206190500Y-69469562D01*
X206190500Y-67952644D01*
X206210185Y-67885605D01*
X206262989Y-67839850D01*
X206332147Y-67829906D01*
X206395703Y-67858931D01*
X206431541Y-67911689D01*
X206436023Y-67924500D01*
X206437207Y-67927882D01*
X206517850Y-68037150D01*
X206627118Y-68117793D01*
X206669845Y-68132744D01*
X206755299Y-68162646D01*
X206785730Y-68165500D01*
X206785734Y-68165500D01*
X207694270Y-68165500D01*
X207724699Y-68162646D01*
X207724701Y-68162646D01*
X207801326Y-68135833D01*
X207852882Y-68117793D01*
X207962150Y-68037150D01*
X208042793Y-67927882D01*
X208072141Y-67844011D01*
X208087646Y-67799701D01*
X208087646Y-67799699D01*
X208090500Y-67769269D01*
X208090500Y-66410730D01*
X208087646Y-66380300D01*
X208087646Y-66380298D01*
X208042793Y-66252119D01*
X208042792Y-66252117D01*
X208026100Y-66229500D01*
X207962150Y-66142850D01*
X207852882Y-66062207D01*
X207852880Y-66062206D01*
X207724700Y-66017353D01*
X207694270Y-66014500D01*
X207694266Y-66014500D01*
X206785734Y-66014500D01*
X206785730Y-66014500D01*
X206755300Y-66017353D01*
X206755298Y-66017353D01*
X206627119Y-66062206D01*
X206627117Y-66062207D01*
X206517850Y-66142850D01*
X206437207Y-66252117D01*
X206437206Y-66252119D01*
X206392353Y-66380298D01*
X206392353Y-66380300D01*
X206389500Y-66410730D01*
X206389500Y-66725500D01*
X206369815Y-66792539D01*
X206317011Y-66838294D01*
X206265500Y-66849500D01*
X206170438Y-66849500D01*
X206132224Y-66859739D01*
X206094009Y-66869979D01*
X206094008Y-66869980D01*
X206041216Y-66900460D01*
X206025492Y-66909538D01*
X206025486Y-66909542D01*
X205649541Y-67285487D01*
X205649535Y-67285495D01*
X205609982Y-67354004D01*
X205609979Y-67354009D01*
X205589500Y-67430439D01*
X205589500Y-69254167D01*
X205580855Y-69283607D01*
X205574332Y-69313594D01*
X205570577Y-69318609D01*
X205569815Y-69321206D01*
X205553181Y-69341848D01*
X205411848Y-69483181D01*
X205350525Y-69516666D01*
X205324167Y-69519500D01*
X204225436Y-69519500D01*
X204158397Y-69499815D01*
X204112642Y-69447011D01*
X204110875Y-69442953D01*
X204077280Y-69361848D01*
X204060941Y-69322402D01*
X203945977Y-69150345D01*
X203945975Y-69150342D01*
X203799657Y-69004024D01*
X203713626Y-68946541D01*
X203627598Y-68889059D01*
X203585960Y-68871812D01*
X203436420Y-68809870D01*
X203436412Y-68809868D01*
X203233469Y-68769500D01*
X203233465Y-68769500D01*
X203026535Y-68769500D01*
X203026530Y-68769500D01*
X202823587Y-68809868D01*
X202823579Y-68809870D01*
X202632403Y-68889058D01*
X202460342Y-69004024D01*
X202314024Y-69150342D01*
X202199058Y-69322403D01*
X202149125Y-69442953D01*
X202105284Y-69497356D01*
X202038990Y-69519421D01*
X202034564Y-69519500D01*
X199850438Y-69519500D01*
X199812224Y-69529739D01*
X199774009Y-69539979D01*
X199774008Y-69539980D01*
X199729807Y-69565500D01*
X199705492Y-69579538D01*
X199705486Y-69579542D01*
X199259541Y-70025487D01*
X199259535Y-70025495D01*
X199219982Y-70094004D01*
X199219979Y-70094009D01*
X199212881Y-70120500D01*
X199200994Y-70164865D01*
X199199500Y-70170439D01*
X199199500Y-71545500D01*
X199179815Y-71612539D01*
X199127011Y-71658294D01*
X199075500Y-71669500D01*
X197634833Y-71669500D01*
X197567794Y-71649815D01*
X197522039Y-71597011D01*
X197512095Y-71527853D01*
X197541120Y-71464297D01*
X197547152Y-71457819D01*
X197714533Y-71290438D01*
X198000460Y-71004511D01*
X198040022Y-70935988D01*
X198060500Y-70859562D01*
X198060500Y-70780438D01*
X198060500Y-68135833D01*
X198080185Y-68068794D01*
X198096819Y-68048152D01*
X198528152Y-67616819D01*
X198589475Y-67583334D01*
X198615833Y-67580500D01*
X202034564Y-67580500D01*
X202101603Y-67600185D01*
X202147358Y-67652989D01*
X202149125Y-67657047D01*
X202198184Y-67775487D01*
X202199059Y-67777598D01*
X202245306Y-67846812D01*
X202314024Y-67949657D01*
X202460342Y-68095975D01*
X202460345Y-68095977D01*
X202632402Y-68210941D01*
X202823580Y-68290130D01*
X203026530Y-68330499D01*
X203026534Y-68330500D01*
X203026535Y-68330500D01*
X203233466Y-68330500D01*
X203233467Y-68330499D01*
X203436420Y-68290130D01*
X203627598Y-68210941D01*
X203799655Y-68095977D01*
X203945977Y-67949655D01*
X204060941Y-67777598D01*
X204110875Y-67657046D01*
X204154716Y-67602644D01*
X204221010Y-67580579D01*
X204225436Y-67580500D01*
X204639560Y-67580500D01*
X204639562Y-67580500D01*
X204715989Y-67560021D01*
X204784511Y-67520460D01*
X204840460Y-67464511D01*
X205460460Y-66844511D01*
X205481626Y-66807850D01*
X205500021Y-66775989D01*
X205520500Y-66699562D01*
X205520500Y-63695833D01*
X205529144Y-63666392D01*
X205535668Y-63636406D01*
X205539422Y-63631390D01*
X205540185Y-63628794D01*
X205556819Y-63608152D01*
X205608152Y-63556819D01*
X205669475Y-63523334D01*
X205695833Y-63520500D01*
X206265500Y-63520500D01*
X206332539Y-63540185D01*
X206378294Y-63592989D01*
X206389500Y-63644500D01*
X206389500Y-63949269D01*
X206392353Y-63979699D01*
X206392353Y-63979701D01*
X206437206Y-64107880D01*
X206437207Y-64107882D01*
X206517850Y-64217150D01*
X206627118Y-64297793D01*
X206669845Y-64312744D01*
X206755299Y-64342646D01*
X206785730Y-64345500D01*
X206785734Y-64345500D01*
X207694270Y-64345500D01*
X207724699Y-64342646D01*
X207724701Y-64342646D01*
X207802278Y-64315500D01*
X207852882Y-64297793D01*
X207962150Y-64217150D01*
X208042793Y-64107882D01*
X208065219Y-64043790D01*
X208087646Y-63979701D01*
X208087646Y-63979699D01*
X208090500Y-63949269D01*
X208090500Y-62590730D01*
X208087646Y-62560300D01*
X208087646Y-62560298D01*
X208042793Y-62432119D01*
X208042792Y-62432117D01*
X207962150Y-62322850D01*
X207852882Y-62242207D01*
X207852880Y-62242206D01*
X207724700Y-62197353D01*
X207694270Y-62194500D01*
X207694266Y-62194500D01*
X206785734Y-62194500D01*
X206785730Y-62194500D01*
X206755300Y-62197353D01*
X206755298Y-62197353D01*
X206627119Y-62242206D01*
X206627117Y-62242207D01*
X206517850Y-62322850D01*
X206437207Y-62432117D01*
X206437206Y-62432119D01*
X206392353Y-62560298D01*
X206392353Y-62560300D01*
X206389500Y-62590730D01*
X206389500Y-62795500D01*
X206369815Y-62862539D01*
X206317011Y-62908294D01*
X206265500Y-62919500D01*
X205480438Y-62919500D01*
X205442224Y-62929739D01*
X205404009Y-62939979D01*
X205404004Y-62939982D01*
X205335495Y-62979535D01*
X205335487Y-62979541D01*
X204979541Y-63335487D01*
X204979535Y-63335495D01*
X204939982Y-63404004D01*
X204939979Y-63404009D01*
X204919500Y-63480439D01*
X204919500Y-66484167D01*
X204899815Y-66551206D01*
X204883181Y-66571848D01*
X204511848Y-66943181D01*
X204484920Y-66957884D01*
X204459102Y-66974477D01*
X204452901Y-66975368D01*
X204450525Y-66976666D01*
X204424167Y-66979500D01*
X204225436Y-66979500D01*
X204158397Y-66959815D01*
X204112642Y-66907011D01*
X204110875Y-66902953D01*
X204060941Y-66782402D01*
X203945977Y-66610345D01*
X203945975Y-66610342D01*
X203799657Y-66464024D01*
X203674351Y-66380298D01*
X203627598Y-66349059D01*
X203436420Y-66269870D01*
X203436412Y-66269868D01*
X203233469Y-66229500D01*
X203233465Y-66229500D01*
X203026535Y-66229500D01*
X203026530Y-66229500D01*
X202823587Y-66269868D01*
X202823579Y-66269870D01*
X202632403Y-66349058D01*
X202460342Y-66464024D01*
X202314024Y-66610342D01*
X202199058Y-66782403D01*
X202173334Y-66844507D01*
X202150158Y-66900460D01*
X202149125Y-66902953D01*
X202105284Y-66957356D01*
X202038990Y-66979421D01*
X202034564Y-66979500D01*
X198400438Y-66979500D01*
X198369867Y-66987691D01*
X198324008Y-66999979D01*
X198324007Y-66999980D01*
X198265068Y-67034009D01*
X198265067Y-67034010D01*
X198255488Y-67039540D01*
X198255486Y-67039541D01*
X197575489Y-67719540D01*
X197519541Y-67775487D01*
X197519535Y-67775495D01*
X197479982Y-67844004D01*
X197479979Y-67844009D01*
X197475981Y-67858931D01*
X197461845Y-67911689D01*
X197459500Y-67920439D01*
X197459500Y-70644167D01*
X197439815Y-70711206D01*
X197423181Y-70731848D01*
X197171848Y-70983181D01*
X197110525Y-71016666D01*
X197084167Y-71019500D01*
X195574833Y-71019500D01*
X195507794Y-70999815D01*
X195462039Y-70947011D01*
X195452095Y-70877853D01*
X195481120Y-70814297D01*
X195487152Y-70807819D01*
X196067118Y-70227853D01*
X196660460Y-69634511D01*
X196700022Y-69565988D01*
X196720500Y-69489562D01*
X196720500Y-69410438D01*
X196720500Y-65655833D01*
X196740185Y-65588794D01*
X196756819Y-65568152D01*
X197248152Y-65076819D01*
X197309475Y-65043334D01*
X197335833Y-65040500D01*
X201955500Y-65040500D01*
X202022539Y-65060185D01*
X202068294Y-65112989D01*
X202079500Y-65164500D01*
X202079500Y-65609752D01*
X202091131Y-65668229D01*
X202091132Y-65668230D01*
X202135447Y-65734552D01*
X202201769Y-65778867D01*
X202201770Y-65778868D01*
X202260247Y-65790499D01*
X202260250Y-65790500D01*
X202260252Y-65790500D01*
X203999750Y-65790500D01*
X203999751Y-65790499D01*
X204014568Y-65787552D01*
X204058229Y-65778868D01*
X204058229Y-65778867D01*
X204058231Y-65778867D01*
X204124552Y-65734552D01*
X204168867Y-65668231D01*
X204168867Y-65668229D01*
X204168868Y-65668229D01*
X204180499Y-65609752D01*
X204180500Y-65609750D01*
X204180500Y-63870249D01*
X204180499Y-63870247D01*
X204168868Y-63811770D01*
X204168867Y-63811769D01*
X204124552Y-63745447D01*
X204058230Y-63701132D01*
X204058229Y-63701131D01*
X203999752Y-63689500D01*
X203999748Y-63689500D01*
X203554500Y-63689500D01*
X203487461Y-63669815D01*
X203441706Y-63617011D01*
X203430500Y-63565500D01*
X203430500Y-60205833D01*
X203450185Y-60138794D01*
X203466819Y-60118152D01*
X203798152Y-59786819D01*
X203859475Y-59753334D01*
X203885833Y-59750500D01*
X206265500Y-59750500D01*
X206332539Y-59770185D01*
X206378294Y-59822989D01*
X206389500Y-59874500D01*
X206389500Y-60129269D01*
X206392353Y-60159699D01*
X206392353Y-60159701D01*
X206437206Y-60287880D01*
X206437207Y-60287882D01*
X206517850Y-60397150D01*
X206627118Y-60477793D01*
X206669845Y-60492744D01*
X206755299Y-60522646D01*
X206785730Y-60525500D01*
X206785734Y-60525500D01*
X207694270Y-60525500D01*
X207724699Y-60522646D01*
X207724701Y-60522646D01*
X207788790Y-60500219D01*
X207852882Y-60477793D01*
X207962150Y-60397150D01*
X208042793Y-60287882D01*
X208071503Y-60205833D01*
X208087646Y-60159701D01*
X208087646Y-60159699D01*
X208090500Y-60129269D01*
X208090500Y-58770730D01*
X208087646Y-58740300D01*
X208087646Y-58740298D01*
X208042793Y-58612119D01*
X208042792Y-58612117D01*
X207962150Y-58502850D01*
X207852882Y-58422207D01*
X207852880Y-58422206D01*
X207724700Y-58377353D01*
X207694270Y-58374500D01*
X207694266Y-58374500D01*
X206785734Y-58374500D01*
X206785730Y-58374500D01*
X206755300Y-58377353D01*
X206755298Y-58377353D01*
X206627119Y-58422206D01*
X206627117Y-58422207D01*
X206517850Y-58502850D01*
X206437207Y-58612117D01*
X206437206Y-58612119D01*
X206392353Y-58740298D01*
X206392353Y-58740300D01*
X206389500Y-58770730D01*
X206389500Y-59025500D01*
X206369815Y-59092539D01*
X206317011Y-59138294D01*
X206265500Y-59149500D01*
X203670438Y-59149500D01*
X203632224Y-59159739D01*
X203594009Y-59169979D01*
X203594004Y-59169982D01*
X203525495Y-59209535D01*
X203525487Y-59209541D01*
X202889541Y-59845487D01*
X202889535Y-59845495D01*
X202849982Y-59914004D01*
X202849979Y-59914009D01*
X202829500Y-59990439D01*
X202829500Y-63565500D01*
X202809815Y-63632539D01*
X202757011Y-63678294D01*
X202705500Y-63689500D01*
X202260247Y-63689500D01*
X202201770Y-63701131D01*
X202201769Y-63701132D01*
X202135447Y-63745447D01*
X202091132Y-63811769D01*
X202091131Y-63811770D01*
X202079500Y-63870247D01*
X202079500Y-64315500D01*
X202059815Y-64382539D01*
X202007011Y-64428294D01*
X201955500Y-64439500D01*
X197120438Y-64439500D01*
X197082224Y-64449739D01*
X197044009Y-64459979D01*
X197044004Y-64459982D01*
X196975495Y-64499535D01*
X196975487Y-64499541D01*
X196179541Y-65295487D01*
X196179535Y-65295495D01*
X196139982Y-65364004D01*
X196139979Y-65364009D01*
X196119500Y-65440439D01*
X196119500Y-69274167D01*
X196099815Y-69341206D01*
X196083181Y-69361848D01*
X195111848Y-70333181D01*
X195050525Y-70366666D01*
X195024167Y-70369500D01*
X193954833Y-70369500D01*
X193887794Y-70349815D01*
X193842039Y-70297011D01*
X193832095Y-70227853D01*
X193861120Y-70164297D01*
X193867152Y-70157819D01*
X194423151Y-69601819D01*
X194484474Y-69568334D01*
X194510832Y-69565500D01*
X194600890Y-69565500D01*
X194600892Y-69565500D01*
X194728186Y-69531392D01*
X194842314Y-69465500D01*
X194935500Y-69372314D01*
X195001392Y-69258186D01*
X195035500Y-69130892D01*
X195035500Y-68999108D01*
X195001392Y-68871814D01*
X194935500Y-68757686D01*
X194842314Y-68664500D01*
X194785250Y-68631554D01*
X194728187Y-68598608D01*
X194664539Y-68581554D01*
X194600892Y-68564500D01*
X194469108Y-68564500D01*
X194341812Y-68598608D01*
X194227686Y-68664500D01*
X194227683Y-68664502D01*
X194134502Y-68757683D01*
X194134500Y-68757686D01*
X194068608Y-68871812D01*
X194034500Y-68999108D01*
X194034500Y-69089166D01*
X194014815Y-69156205D01*
X193998181Y-69176847D01*
X193491848Y-69683181D01*
X193430525Y-69716666D01*
X193404167Y-69719500D01*
X193133333Y-69719500D01*
X193066294Y-69699815D01*
X193045652Y-69683181D01*
X193030265Y-69667794D01*
X192927492Y-69622415D01*
X192902365Y-69619500D01*
X191537643Y-69619500D01*
X191537617Y-69619502D01*
X191512512Y-69622413D01*
X191512508Y-69622415D01*
X191409735Y-69667793D01*
X191330294Y-69747234D01*
X191284915Y-69850006D01*
X191284915Y-69850008D01*
X191282000Y-69875131D01*
X191282000Y-70164856D01*
X191282002Y-70164882D01*
X191284913Y-70189986D01*
X191284914Y-70189990D01*
X191284915Y-70189991D01*
X191330294Y-70292765D01*
X191330295Y-70292766D01*
X191331243Y-70294913D01*
X191340314Y-70364191D01*
X191331243Y-70395085D01*
X191284915Y-70500009D01*
X191282000Y-70525131D01*
X191282000Y-70814856D01*
X191282002Y-70814882D01*
X191284913Y-70839986D01*
X191284914Y-70839990D01*
X191284915Y-70839991D01*
X191330294Y-70942765D01*
X191330295Y-70942766D01*
X191331243Y-70944913D01*
X191340314Y-71014191D01*
X191331243Y-71045085D01*
X191284915Y-71150009D01*
X191282000Y-71175131D01*
X191282000Y-71464856D01*
X191282002Y-71464882D01*
X191284913Y-71489986D01*
X191284914Y-71489990D01*
X191284915Y-71489991D01*
X191330294Y-71592765D01*
X191330295Y-71592766D01*
X191331243Y-71594913D01*
X191340314Y-71664191D01*
X191331243Y-71695085D01*
X191284915Y-71800009D01*
X191282000Y-71825131D01*
X191282000Y-72114856D01*
X191282002Y-72114882D01*
X191284913Y-72139986D01*
X191284914Y-72139990D01*
X191284915Y-72139991D01*
X191330294Y-72242765D01*
X191330295Y-72242766D01*
X191331243Y-72244913D01*
X191340314Y-72314191D01*
X191331243Y-72345085D01*
X191284915Y-72450009D01*
X191282000Y-72475131D01*
X191282000Y-72764856D01*
X191282002Y-72764882D01*
X191284913Y-72789986D01*
X191284914Y-72789990D01*
X191284915Y-72789991D01*
X191330294Y-72892765D01*
X191330295Y-72892766D01*
X191331243Y-72894913D01*
X191340314Y-72964191D01*
X191331243Y-72995085D01*
X191284915Y-73100009D01*
X191282000Y-73125131D01*
X191282000Y-73414856D01*
X191282002Y-73414882D01*
X191284913Y-73439986D01*
X191284914Y-73439990D01*
X191284915Y-73439991D01*
X191330294Y-73542765D01*
X191330295Y-73542766D01*
X191331243Y-73544913D01*
X191340314Y-73614191D01*
X191331243Y-73645085D01*
X191284915Y-73750009D01*
X191282000Y-73775131D01*
X191282000Y-74064856D01*
X191282002Y-74064882D01*
X191284913Y-74089986D01*
X191284914Y-74089990D01*
X191284915Y-74089991D01*
X191330294Y-74192765D01*
X191330295Y-74192766D01*
X191331243Y-74194913D01*
X191340314Y-74264191D01*
X191331243Y-74295085D01*
X191284915Y-74400009D01*
X191282000Y-74425131D01*
X191282000Y-74714856D01*
X191282002Y-74714882D01*
X191284913Y-74739986D01*
X191284914Y-74739990D01*
X191284915Y-74739991D01*
X191330294Y-74842765D01*
X191330295Y-74842766D01*
X191331243Y-74844913D01*
X191340314Y-74914191D01*
X191331243Y-74945085D01*
X191284915Y-75050009D01*
X191282000Y-75075131D01*
X191282000Y-75364856D01*
X191282002Y-75364882D01*
X191284913Y-75389986D01*
X191284914Y-75389990D01*
X191284915Y-75389991D01*
X191330294Y-75492765D01*
X191330295Y-75492766D01*
X191331243Y-75494913D01*
X191340314Y-75564191D01*
X191331243Y-75595085D01*
X191284915Y-75700009D01*
X191282000Y-75725131D01*
X191282000Y-76014856D01*
X191282002Y-76014882D01*
X191284913Y-76039986D01*
X191284914Y-76039990D01*
X191284915Y-76039991D01*
X191330294Y-76142765D01*
X191330295Y-76142766D01*
X191331243Y-76144913D01*
X191340314Y-76214191D01*
X191331243Y-76245085D01*
X191284915Y-76350009D01*
X191282000Y-76375131D01*
X191282000Y-76664856D01*
X191282002Y-76664882D01*
X191284913Y-76689987D01*
X191284914Y-76689989D01*
X191287310Y-76695415D01*
X191296381Y-76764693D01*
X191266557Y-76827878D01*
X191207307Y-76864908D01*
X191173875Y-76869500D01*
X190670438Y-76869500D01*
X190603039Y-76887559D01*
X190594007Y-76889980D01*
X190546197Y-76917584D01*
X190525492Y-76929537D01*
X190525487Y-76929541D01*
X190169541Y-77285487D01*
X190169535Y-77285495D01*
X190129982Y-77354004D01*
X190129979Y-77354009D01*
X190120476Y-77389475D01*
X190113414Y-77415833D01*
X190109500Y-77430439D01*
X190109500Y-79875500D01*
X190089815Y-79942539D01*
X190037011Y-79988294D01*
X189985500Y-79999500D01*
X189730730Y-79999500D01*
X189700300Y-80002353D01*
X189700298Y-80002353D01*
X189572119Y-80047206D01*
X189572117Y-80047207D01*
X189462850Y-80127850D01*
X189382207Y-80237117D01*
X189382206Y-80237119D01*
X189337353Y-80365298D01*
X189337353Y-80365300D01*
X189334500Y-80395730D01*
X187855500Y-80395730D01*
X187852646Y-80365300D01*
X187852646Y-80365298D01*
X187815806Y-80260017D01*
X187807793Y-80237118D01*
X187727150Y-80127850D01*
X187617882Y-80047207D01*
X187617880Y-80047206D01*
X187489700Y-80002353D01*
X187459270Y-79999500D01*
X187459266Y-79999500D01*
X187204500Y-79999500D01*
X187137461Y-79979815D01*
X187091706Y-79927011D01*
X187080500Y-79875500D01*
X187080500Y-78904500D01*
X187100185Y-78837461D01*
X187152989Y-78791706D01*
X187204500Y-78780500D01*
X188189560Y-78780500D01*
X188189562Y-78780500D01*
X188265989Y-78760021D01*
X188334511Y-78720460D01*
X188390460Y-78664511D01*
X188770460Y-78284511D01*
X188786934Y-78255977D01*
X188810021Y-78215989D01*
X188830500Y-78139562D01*
X188830500Y-75640438D01*
X188810021Y-75564011D01*
X188796265Y-75540185D01*
X188770464Y-75495495D01*
X188770458Y-75495487D01*
X188254512Y-74979541D01*
X188254507Y-74979537D01*
X188233804Y-74967584D01*
X188233802Y-74967584D01*
X188194833Y-74945085D01*
X188185990Y-74939979D01*
X188160513Y-74933152D01*
X188109562Y-74919500D01*
X188109560Y-74919500D01*
X187541125Y-74919500D01*
X187474086Y-74899815D01*
X187428331Y-74847011D01*
X187418387Y-74777853D01*
X187427691Y-74745412D01*
X187430085Y-74739991D01*
X187433000Y-74714865D01*
X187432999Y-74425136D01*
X187430363Y-74402402D01*
X187430086Y-74400012D01*
X187430085Y-74400008D01*
X187383757Y-74295086D01*
X187374685Y-74225808D01*
X187383757Y-74194913D01*
X187384704Y-74192766D01*
X187384706Y-74192765D01*
X187430085Y-74089991D01*
X187433000Y-74064865D01*
X187432999Y-73775136D01*
X187432997Y-73775117D01*
X187430086Y-73750012D01*
X187430085Y-73750008D01*
X187389174Y-73657354D01*
X187384706Y-73647235D01*
X187384705Y-73647234D01*
X187383757Y-73645086D01*
X187374685Y-73575808D01*
X187383757Y-73544913D01*
X187384704Y-73542766D01*
X187384706Y-73542765D01*
X187430085Y-73439991D01*
X187433000Y-73414865D01*
X187432999Y-73125136D01*
X187432997Y-73125117D01*
X187430086Y-73100012D01*
X187430085Y-73100008D01*
X187383757Y-72995086D01*
X187374685Y-72925808D01*
X187383757Y-72894913D01*
X187384704Y-72892766D01*
X187384706Y-72892765D01*
X187430085Y-72789991D01*
X187433000Y-72764865D01*
X187432999Y-72475136D01*
X187432601Y-72471706D01*
X187430086Y-72450012D01*
X187430085Y-72450008D01*
X187383757Y-72345086D01*
X187374685Y-72275808D01*
X187383757Y-72244913D01*
X187384704Y-72242766D01*
X187384706Y-72242765D01*
X187430085Y-72139991D01*
X187433000Y-72114865D01*
X187432999Y-71825136D01*
X187432997Y-71825117D01*
X187430086Y-71800012D01*
X187430085Y-71800008D01*
X187383757Y-71695086D01*
X187374685Y-71625808D01*
X187383757Y-71594913D01*
X187384704Y-71592766D01*
X187384706Y-71592765D01*
X187430085Y-71489991D01*
X187433000Y-71464865D01*
X187432999Y-71175136D01*
X187432997Y-71175117D01*
X187430086Y-71150012D01*
X187430085Y-71150008D01*
X187383757Y-71045086D01*
X187374685Y-70975808D01*
X187383757Y-70944913D01*
X187384704Y-70942766D01*
X187384706Y-70942765D01*
X187430085Y-70839991D01*
X187433000Y-70814865D01*
X187432999Y-70525136D01*
X187432997Y-70525117D01*
X187430086Y-70500012D01*
X187430085Y-70500008D01*
X187383757Y-70395086D01*
X187374685Y-70325808D01*
X187383757Y-70294913D01*
X187384704Y-70292766D01*
X187384706Y-70292765D01*
X187430085Y-70189991D01*
X187433000Y-70164865D01*
X187432999Y-69875136D01*
X187432997Y-69875117D01*
X187430086Y-69850012D01*
X187430085Y-69850010D01*
X187430085Y-69850009D01*
X187384706Y-69747235D01*
X187305265Y-69667794D01*
X187305263Y-69667793D01*
X187202492Y-69622415D01*
X187177365Y-69619500D01*
X185812643Y-69619500D01*
X185812617Y-69619502D01*
X185787512Y-69622413D01*
X185787508Y-69622415D01*
X185684735Y-69667793D01*
X185605294Y-69747234D01*
X185559915Y-69850006D01*
X185559915Y-69850008D01*
X185557000Y-69875131D01*
X185557000Y-70164856D01*
X185557002Y-70164882D01*
X185559913Y-70189986D01*
X185559914Y-70189990D01*
X185559915Y-70189991D01*
X185605294Y-70292765D01*
X185605295Y-70292766D01*
X185606243Y-70294913D01*
X185615314Y-70364191D01*
X185606243Y-70395085D01*
X185559915Y-70500009D01*
X185557000Y-70525131D01*
X185557000Y-70814856D01*
X185557002Y-70814882D01*
X185559913Y-70839986D01*
X185559914Y-70839990D01*
X185559915Y-70839991D01*
X185605294Y-70942765D01*
X185605295Y-70942766D01*
X185606243Y-70944913D01*
X185615314Y-71014191D01*
X185606243Y-71045085D01*
X185559915Y-71150009D01*
X185557000Y-71175131D01*
X185557000Y-71464856D01*
X185557002Y-71464882D01*
X185559913Y-71489986D01*
X185559914Y-71489990D01*
X185559915Y-71489991D01*
X185605294Y-71592765D01*
X185605295Y-71592766D01*
X185606243Y-71594913D01*
X185615314Y-71664191D01*
X185606243Y-71695085D01*
X185559915Y-71800009D01*
X185557000Y-71825131D01*
X185557000Y-72114856D01*
X185557002Y-72114882D01*
X185559913Y-72139986D01*
X185559914Y-72139990D01*
X185559915Y-72139991D01*
X185605294Y-72242765D01*
X185605295Y-72242766D01*
X185606243Y-72244913D01*
X185615314Y-72314191D01*
X185606243Y-72345085D01*
X185559915Y-72450009D01*
X185557000Y-72475131D01*
X185557000Y-72764856D01*
X185557002Y-72764882D01*
X185559913Y-72789986D01*
X185559914Y-72789990D01*
X185559915Y-72789991D01*
X185605294Y-72892765D01*
X185605295Y-72892766D01*
X185606243Y-72894913D01*
X185615314Y-72964191D01*
X185606243Y-72995085D01*
X185559915Y-73100009D01*
X185557000Y-73125131D01*
X185557000Y-73414856D01*
X185557002Y-73414882D01*
X185559913Y-73439986D01*
X185559914Y-73439990D01*
X185559915Y-73439991D01*
X185605294Y-73542765D01*
X185605295Y-73542766D01*
X185606243Y-73544913D01*
X185615314Y-73614191D01*
X185606243Y-73645085D01*
X185559915Y-73750009D01*
X185557000Y-73775131D01*
X185557000Y-74064856D01*
X185557002Y-74064882D01*
X185559913Y-74089986D01*
X185559914Y-74089990D01*
X185559915Y-74089991D01*
X185605294Y-74192765D01*
X185605295Y-74192766D01*
X185606243Y-74194913D01*
X185615314Y-74264191D01*
X185606243Y-74295085D01*
X185559915Y-74400009D01*
X185557000Y-74425131D01*
X185557000Y-74714856D01*
X185557002Y-74714882D01*
X185559913Y-74739986D01*
X185559914Y-74739990D01*
X185559915Y-74739991D01*
X185605294Y-74842765D01*
X185605295Y-74842766D01*
X185606243Y-74844913D01*
X185615314Y-74914191D01*
X185606243Y-74945085D01*
X185559915Y-75050009D01*
X185557000Y-75075131D01*
X185557000Y-75302667D01*
X185537315Y-75369706D01*
X185484511Y-75415461D01*
X185415353Y-75425405D01*
X185351797Y-75396380D01*
X185345319Y-75390348D01*
X185076819Y-75121848D01*
X185043334Y-75060525D01*
X185040500Y-75034167D01*
X185040500Y-72470440D01*
X185040499Y-72470436D01*
X185040226Y-72469418D01*
X185032350Y-72440021D01*
X185020022Y-72394012D01*
X184980460Y-72325489D01*
X184794957Y-72139986D01*
X184574513Y-71919541D01*
X184572179Y-71918194D01*
X184565800Y-71914511D01*
X184505989Y-71879979D01*
X184429562Y-71859500D01*
X184429560Y-71859500D01*
X184034500Y-71859500D01*
X183967461Y-71839815D01*
X183921706Y-71787011D01*
X183910500Y-71735500D01*
X183910500Y-71480730D01*
X183907646Y-71450300D01*
X183907646Y-71450298D01*
X183862793Y-71322119D01*
X183862792Y-71322117D01*
X183782150Y-71212850D01*
X183672882Y-71132207D01*
X183672880Y-71132206D01*
X183544700Y-71087353D01*
X183514270Y-71084500D01*
X183514266Y-71084500D01*
X183484500Y-71084500D01*
X183417461Y-71064815D01*
X183371706Y-71012011D01*
X183360500Y-70960500D01*
X183360500Y-67974108D01*
X184399500Y-67974108D01*
X184399500Y-68105892D01*
X184401373Y-68112882D01*
X184433608Y-68233187D01*
X184458990Y-68277149D01*
X184499500Y-68347314D01*
X184592686Y-68440500D01*
X184706814Y-68506392D01*
X184834108Y-68540500D01*
X184834110Y-68540500D01*
X184965890Y-68540500D01*
X184965892Y-68540500D01*
X185093186Y-68506392D01*
X185207314Y-68440500D01*
X185300500Y-68347314D01*
X185366392Y-68233186D01*
X185400500Y-68105892D01*
X185400500Y-67995833D01*
X185409144Y-67966395D01*
X185415668Y-67936405D01*
X185419423Y-67931388D01*
X185420185Y-67928794D01*
X185436819Y-67908151D01*
X185471982Y-67872989D01*
X185508153Y-67836818D01*
X185569477Y-67803334D01*
X185595834Y-67800500D01*
X186210500Y-67800500D01*
X186277539Y-67820185D01*
X186323294Y-67872989D01*
X186334500Y-67924500D01*
X186334500Y-67954269D01*
X186337353Y-67984699D01*
X186337353Y-67984701D01*
X186379761Y-68105892D01*
X186382207Y-68112882D01*
X186462850Y-68222150D01*
X186572118Y-68302793D01*
X186614845Y-68317744D01*
X186700299Y-68347646D01*
X186730730Y-68350500D01*
X186730734Y-68350500D01*
X188089270Y-68350500D01*
X188119699Y-68347646D01*
X188119701Y-68347646D01*
X188183790Y-68325219D01*
X188247882Y-68302793D01*
X188357150Y-68222150D01*
X188437793Y-68112882D01*
X188474050Y-68009266D01*
X188482646Y-67984701D01*
X188482646Y-67984699D01*
X188485392Y-67955422D01*
X188511250Y-67890514D01*
X188568095Y-67849889D01*
X188608850Y-67843000D01*
X190045500Y-67843000D01*
X190112539Y-67862685D01*
X190158294Y-67915489D01*
X190169500Y-67967000D01*
X190169500Y-68009269D01*
X190172353Y-68039699D01*
X190172353Y-68039701D01*
X190217206Y-68167880D01*
X190217207Y-68167882D01*
X190297850Y-68277150D01*
X190407118Y-68357793D01*
X190449845Y-68372744D01*
X190535299Y-68402646D01*
X190565730Y-68405500D01*
X190565734Y-68405500D01*
X191974270Y-68405500D01*
X192004699Y-68402646D01*
X192004701Y-68402646D01*
X192068790Y-68380219D01*
X192132882Y-68357793D01*
X192242150Y-68277150D01*
X192322793Y-68167882D01*
X192351980Y-68084471D01*
X192367646Y-68039701D01*
X192367646Y-68039699D01*
X192370500Y-68009269D01*
X192370500Y-67075730D01*
X192367646Y-67045300D01*
X192367646Y-67045298D01*
X192322793Y-66917119D01*
X192322792Y-66917117D01*
X192242150Y-66807850D01*
X192132882Y-66727207D01*
X192132880Y-66727206D01*
X192004700Y-66682353D01*
X191974270Y-66679500D01*
X191974266Y-66679500D01*
X190565734Y-66679500D01*
X190565730Y-66679500D01*
X190535300Y-66682353D01*
X190535298Y-66682353D01*
X190407119Y-66727206D01*
X190407117Y-66727207D01*
X190297850Y-66807850D01*
X190217207Y-66917117D01*
X190217206Y-66917119D01*
X190172353Y-67045298D01*
X190172353Y-67045300D01*
X190169500Y-67075730D01*
X190169500Y-67118000D01*
X190149815Y-67185039D01*
X190097011Y-67230794D01*
X190045500Y-67242000D01*
X188609500Y-67242000D01*
X188542461Y-67222315D01*
X188496706Y-67169511D01*
X188485500Y-67118000D01*
X188485500Y-67045730D01*
X188482646Y-67015300D01*
X188482646Y-67015298D01*
X188443334Y-66902953D01*
X188437793Y-66887118D01*
X188357150Y-66777850D01*
X188247882Y-66697207D01*
X188247880Y-66697206D01*
X188119700Y-66652353D01*
X188089270Y-66649500D01*
X188089266Y-66649500D01*
X186730734Y-66649500D01*
X186730730Y-66649500D01*
X186700300Y-66652353D01*
X186700298Y-66652353D01*
X186572119Y-66697206D01*
X186572117Y-66697207D01*
X186462850Y-66777850D01*
X186382207Y-66887117D01*
X186382206Y-66887119D01*
X186337353Y-67015298D01*
X186337353Y-67015300D01*
X186334500Y-67045730D01*
X186334500Y-67075500D01*
X186314815Y-67142539D01*
X186262011Y-67188294D01*
X186210500Y-67199500D01*
X185380438Y-67199500D01*
X185342224Y-67209739D01*
X185304009Y-67219979D01*
X185304004Y-67219982D01*
X185235495Y-67259535D01*
X185235487Y-67259541D01*
X184991848Y-67503181D01*
X184930525Y-67536666D01*
X184904167Y-67539500D01*
X184834108Y-67539500D01*
X184706812Y-67573608D01*
X184592686Y-67639500D01*
X184592683Y-67639502D01*
X184499502Y-67732683D01*
X184499500Y-67732686D01*
X184433608Y-67846812D01*
X184405763Y-67950733D01*
X184399500Y-67974108D01*
X183360500Y-67974108D01*
X183360500Y-63905833D01*
X183380185Y-63838794D01*
X183396819Y-63818152D01*
X184168152Y-63046819D01*
X184229475Y-63013334D01*
X184255833Y-63010500D01*
X186429560Y-63010500D01*
X186429562Y-63010500D01*
X186505989Y-62990021D01*
X186574511Y-62950460D01*
X186630460Y-62894511D01*
X188410460Y-61114511D01*
X188430132Y-61080438D01*
X188450021Y-61045989D01*
X188470500Y-60969562D01*
X188470500Y-59925435D01*
X188490185Y-59858396D01*
X188542989Y-59812641D01*
X188547012Y-59810889D01*
X188667598Y-59760941D01*
X188839655Y-59645977D01*
X188985977Y-59499655D01*
X189100941Y-59327598D01*
X189180130Y-59136420D01*
X189220500Y-58933465D01*
X189220500Y-58726535D01*
X189220499Y-58726530D01*
X189659500Y-58726530D01*
X189659500Y-58933469D01*
X189699868Y-59136412D01*
X189699870Y-59136420D01*
X189779059Y-59327598D01*
X189824641Y-59395817D01*
X189894024Y-59499657D01*
X190040342Y-59645975D01*
X190040345Y-59645977D01*
X190212402Y-59760941D01*
X190403580Y-59840130D01*
X190576371Y-59874500D01*
X190606530Y-59880499D01*
X190606534Y-59880500D01*
X190606535Y-59880500D01*
X190813466Y-59880500D01*
X190813467Y-59880499D01*
X191016420Y-59840130D01*
X191207598Y-59760941D01*
X191379655Y-59645977D01*
X191525977Y-59499655D01*
X191640941Y-59327598D01*
X191720130Y-59136420D01*
X191760500Y-58933465D01*
X191760500Y-58726535D01*
X191720130Y-58523580D01*
X191660111Y-58378681D01*
X196559500Y-58378681D01*
X196559500Y-58721318D01*
X196597858Y-59061768D01*
X196597861Y-59061782D01*
X196674102Y-59395816D01*
X196674103Y-59395818D01*
X196787264Y-59719216D01*
X196935922Y-60027907D01*
X196935924Y-60027910D01*
X197118211Y-60318018D01*
X197331834Y-60585893D01*
X197574107Y-60828166D01*
X197841982Y-61041789D01*
X198029417Y-61159562D01*
X198132092Y-61224077D01*
X198156830Y-61235990D01*
X198440785Y-61372736D01*
X198764183Y-61485897D01*
X199098217Y-61562139D01*
X199098226Y-61562140D01*
X199098231Y-61562141D01*
X199325197Y-61587713D01*
X199438682Y-61600499D01*
X199438685Y-61600500D01*
X199438688Y-61600500D01*
X199781315Y-61600500D01*
X199781316Y-61600499D01*
X199955311Y-61580895D01*
X200121768Y-61562141D01*
X200121771Y-61562140D01*
X200121783Y-61562139D01*
X200455817Y-61485897D01*
X200779215Y-61372736D01*
X201087910Y-61224076D01*
X201378018Y-61041789D01*
X201645893Y-60828166D01*
X201888166Y-60585893D01*
X202101789Y-60318018D01*
X202284076Y-60027910D01*
X202432736Y-59719215D01*
X202545897Y-59395817D01*
X202622139Y-59061783D01*
X202660500Y-58721312D01*
X202660500Y-58378688D01*
X202622139Y-58038217D01*
X202545897Y-57704183D01*
X202432736Y-57380785D01*
X202284076Y-57072090D01*
X202101789Y-56781982D01*
X201888166Y-56514107D01*
X201645893Y-56271834D01*
X201378018Y-56058211D01*
X201087910Y-55875924D01*
X201087907Y-55875922D01*
X200779216Y-55727264D01*
X200455818Y-55614103D01*
X200455816Y-55614102D01*
X200198024Y-55555262D01*
X200121783Y-55537861D01*
X200121780Y-55537860D01*
X200121768Y-55537858D01*
X199781318Y-55499500D01*
X199781312Y-55499500D01*
X199438688Y-55499500D01*
X199438681Y-55499500D01*
X199098231Y-55537858D01*
X199098217Y-55537861D01*
X198764183Y-55614102D01*
X198764181Y-55614103D01*
X198440783Y-55727264D01*
X198132092Y-55875922D01*
X197841983Y-56058210D01*
X197574107Y-56271833D01*
X197331833Y-56514107D01*
X197118210Y-56781983D01*
X196935922Y-57072092D01*
X196787264Y-57380783D01*
X196674103Y-57704181D01*
X196674102Y-57704183D01*
X196597861Y-58038217D01*
X196597858Y-58038231D01*
X196559500Y-58378681D01*
X191660111Y-58378681D01*
X191640941Y-58332402D01*
X191525977Y-58160345D01*
X191525975Y-58160342D01*
X191379657Y-58014024D01*
X191293626Y-57956541D01*
X191207598Y-57899059D01*
X191016420Y-57819870D01*
X191016412Y-57819868D01*
X190813469Y-57779500D01*
X190813465Y-57779500D01*
X190606535Y-57779500D01*
X190606530Y-57779500D01*
X190403587Y-57819868D01*
X190403579Y-57819870D01*
X190212403Y-57899058D01*
X190040342Y-58014024D01*
X189894024Y-58160342D01*
X189779058Y-58332403D01*
X189699870Y-58523579D01*
X189699868Y-58523587D01*
X189659500Y-58726530D01*
X189220499Y-58726530D01*
X189180130Y-58523580D01*
X189100941Y-58332402D01*
X188985977Y-58160345D01*
X188985975Y-58160342D01*
X188839657Y-58014024D01*
X188753626Y-57956541D01*
X188667598Y-57899059D01*
X188476420Y-57819870D01*
X188476412Y-57819868D01*
X188273469Y-57779500D01*
X188273465Y-57779500D01*
X188066535Y-57779500D01*
X188066530Y-57779500D01*
X187863587Y-57819868D01*
X187863579Y-57819870D01*
X187672403Y-57899058D01*
X187500342Y-58014024D01*
X187354024Y-58160342D01*
X187239058Y-58332403D01*
X187159870Y-58523579D01*
X187159868Y-58523587D01*
X187119500Y-58726530D01*
X187119500Y-58933469D01*
X187159868Y-59136412D01*
X187159870Y-59136420D01*
X187239059Y-59327598D01*
X187284641Y-59395817D01*
X187354024Y-59499657D01*
X187500342Y-59645975D01*
X187500345Y-59645977D01*
X187672402Y-59760941D01*
X187792953Y-59810875D01*
X187847356Y-59854714D01*
X187869421Y-59921008D01*
X187869500Y-59925435D01*
X187869500Y-60754167D01*
X187849815Y-60821206D01*
X187833181Y-60841848D01*
X186301848Y-62373181D01*
X186240525Y-62406666D01*
X186214167Y-62409500D01*
X184040438Y-62409500D01*
X184002224Y-62419739D01*
X183964009Y-62429979D01*
X183964004Y-62429982D01*
X183895495Y-62469535D01*
X183895487Y-62469541D01*
X182819541Y-63545487D01*
X182819535Y-63545495D01*
X182779982Y-63614004D01*
X182779979Y-63614009D01*
X182775322Y-63631390D01*
X182759752Y-63689500D01*
X182759500Y-63690439D01*
X182759500Y-70960500D01*
X182739815Y-71027539D01*
X182687011Y-71073294D01*
X182635500Y-71084500D01*
X182605730Y-71084500D01*
X182575300Y-71087353D01*
X182575298Y-71087353D01*
X182447119Y-71132206D01*
X182447117Y-71132207D01*
X182337850Y-71212850D01*
X182257207Y-71322117D01*
X182257206Y-71322119D01*
X182212353Y-71450298D01*
X182212353Y-71450300D01*
X182209500Y-71480730D01*
X182209500Y-72839269D01*
X182212353Y-72869699D01*
X182212353Y-72869701D01*
X182257206Y-72997880D01*
X182257207Y-72997882D01*
X182337850Y-73107150D01*
X182447118Y-73187793D01*
X182489845Y-73202744D01*
X182575299Y-73232646D01*
X182605730Y-73235500D01*
X182605734Y-73235500D01*
X183514270Y-73235500D01*
X183544699Y-73232646D01*
X183544701Y-73232646D01*
X183608790Y-73210219D01*
X183672882Y-73187793D01*
X183782150Y-73107150D01*
X183862793Y-72997882D01*
X183888013Y-72925808D01*
X183907646Y-72869701D01*
X183907646Y-72869699D01*
X183910500Y-72839269D01*
X183910500Y-72584500D01*
X183913050Y-72575814D01*
X183911762Y-72566853D01*
X183922740Y-72542812D01*
X183930185Y-72517461D01*
X183937025Y-72511533D01*
X183940787Y-72503297D01*
X183963021Y-72489007D01*
X183982989Y-72471706D01*
X183993503Y-72469418D01*
X183999565Y-72465523D01*
X184034500Y-72460500D01*
X184214167Y-72460500D01*
X184281206Y-72480185D01*
X184301848Y-72496819D01*
X184403181Y-72598152D01*
X184436666Y-72659475D01*
X184439500Y-72685833D01*
X184439500Y-75249562D01*
X184446865Y-75277047D01*
X184459979Y-75325990D01*
X184482419Y-75364856D01*
X184490897Y-75379540D01*
X184499540Y-75394511D01*
X184546300Y-75441271D01*
X184549486Y-75445004D01*
X184561841Y-75472603D01*
X184576332Y-75499142D01*
X184575972Y-75504171D01*
X184578033Y-75508775D01*
X184573505Y-75538670D01*
X184571348Y-75568834D01*
X184568324Y-75572872D01*
X184567570Y-75577857D01*
X184547598Y-75600558D01*
X184529476Y-75624767D01*
X184524751Y-75626529D01*
X184521420Y-75630316D01*
X184492340Y-75638617D01*
X184464012Y-75649184D01*
X184455166Y-75649500D01*
X184034500Y-75649500D01*
X183967461Y-75629815D01*
X183921706Y-75577011D01*
X183910500Y-75525500D01*
X183910500Y-75270730D01*
X183907646Y-75240300D01*
X183907646Y-75240298D01*
X183867592Y-75125833D01*
X183862793Y-75112118D01*
X183782150Y-75002850D01*
X183672882Y-74922207D01*
X183672880Y-74922206D01*
X183544700Y-74877353D01*
X183514270Y-74874500D01*
X183514266Y-74874500D01*
X182605734Y-74874500D01*
X182605730Y-74874500D01*
X182575300Y-74877353D01*
X182575298Y-74877353D01*
X182447119Y-74922206D01*
X182447117Y-74922207D01*
X182337850Y-75002850D01*
X182257207Y-75112117D01*
X182257206Y-75112119D01*
X182212353Y-75240298D01*
X182212353Y-75240300D01*
X182209500Y-75270730D01*
X182209500Y-75505167D01*
X182203261Y-75526412D01*
X182201682Y-75548501D01*
X182193609Y-75559284D01*
X182189815Y-75572206D01*
X182173081Y-75586705D01*
X182159810Y-75604434D01*
X182147189Y-75609141D01*
X182137011Y-75617961D01*
X182115093Y-75621112D01*
X182094346Y-75628851D01*
X182081185Y-75625988D01*
X182067853Y-75627905D01*
X182047709Y-75618705D01*
X182026073Y-75613999D01*
X182008347Y-75600730D01*
X182004297Y-75598880D01*
X181997819Y-75592848D01*
X181896819Y-75491848D01*
X181863334Y-75430525D01*
X181860500Y-75404167D01*
X181860500Y-63105833D01*
X181880185Y-63038794D01*
X181896819Y-63018152D01*
X182839152Y-62075819D01*
X182900475Y-62042334D01*
X182926833Y-62039500D01*
X185050560Y-62039500D01*
X185050562Y-62039500D01*
X185126989Y-62019021D01*
X185195511Y-61979460D01*
X185251460Y-61923511D01*
X185870460Y-61304511D01*
X185910021Y-61235989D01*
X185930500Y-61159562D01*
X185930500Y-59925435D01*
X185950185Y-59858396D01*
X186002989Y-59812641D01*
X186007012Y-59810889D01*
X186127598Y-59760941D01*
X186299655Y-59645977D01*
X186445977Y-59499655D01*
X186560941Y-59327598D01*
X186640130Y-59136420D01*
X186680500Y-58933465D01*
X186680500Y-58726535D01*
X186640130Y-58523580D01*
X186560941Y-58332402D01*
X186445977Y-58160345D01*
X186445975Y-58160342D01*
X186299657Y-58014024D01*
X186213626Y-57956541D01*
X186127598Y-57899059D01*
X185936420Y-57819870D01*
X185936412Y-57819868D01*
X185733469Y-57779500D01*
X185733465Y-57779500D01*
X185526535Y-57779500D01*
X185526530Y-57779500D01*
X185323587Y-57819868D01*
X185323579Y-57819870D01*
X185132403Y-57899058D01*
X184960342Y-58014024D01*
X184814024Y-58160342D01*
X184699058Y-58332403D01*
X184619870Y-58523579D01*
X184619868Y-58523587D01*
X184579500Y-58726530D01*
X184579500Y-58933469D01*
X184619868Y-59136412D01*
X184619870Y-59136420D01*
X184699059Y-59327598D01*
X184744641Y-59395817D01*
X184814024Y-59499657D01*
X184960342Y-59645975D01*
X184960345Y-59645977D01*
X185132402Y-59760941D01*
X185252953Y-59810875D01*
X185307356Y-59854714D01*
X185329421Y-59921008D01*
X185329500Y-59925435D01*
X185329500Y-60944167D01*
X185309815Y-61011206D01*
X185293181Y-61031848D01*
X184922848Y-61402181D01*
X184861525Y-61435666D01*
X184835167Y-61438500D01*
X182711438Y-61438500D01*
X182673224Y-61448739D01*
X182635009Y-61458979D01*
X182635004Y-61458982D01*
X182566495Y-61498535D01*
X182566487Y-61498541D01*
X181319541Y-62745487D01*
X181319535Y-62745495D01*
X181279982Y-62814004D01*
X181279979Y-62814009D01*
X181266976Y-62862539D01*
X181259500Y-62890438D01*
X176220500Y-62890438D01*
X176220500Y-54325411D01*
X176220972Y-54314605D01*
X176233760Y-54168430D01*
X176235664Y-54155097D01*
X176241503Y-54125739D01*
X176243330Y-54117903D01*
X176276779Y-53993068D01*
X176281990Y-53977721D01*
X176289010Y-53960773D01*
X176291161Y-53955881D01*
X176349825Y-53830076D01*
X176360629Y-53811366D01*
X176448119Y-53686417D01*
X176462007Y-53669865D01*
X176569865Y-53562007D01*
X176586417Y-53548119D01*
X176711366Y-53460629D01*
X176730076Y-53449825D01*
X176855881Y-53391161D01*
X176860773Y-53389010D01*
X176860776Y-53389009D01*
X176877721Y-53381990D01*
X176893068Y-53376779D01*
X177017903Y-53343330D01*
X177025739Y-53341503D01*
X177055097Y-53335664D01*
X177068430Y-53333760D01*
X177207871Y-53321561D01*
X177214606Y-53320972D01*
X177225412Y-53320500D01*
X212994588Y-53320500D01*
X213005394Y-53320972D01*
G37*
%TD.AperFunction*%
%TD*%
M02*
