%TF.GenerationSoftware,KiCad,Pcbnew,9.0.6*%
%TF.CreationDate,2026-01-27T05:52:47-03:00*%
%TF.ProjectId,evasion_sensor,65766173-696f-46e5-9f73-656e736f722e,rev?*%
%TF.SameCoordinates,Original*%
%TF.FileFunction,Legend,Top*%
%TF.FilePolarity,Positive*%
%FSLAX46Y46*%
G04 Gerber Fmt 4.6, Leading zero omitted, Abs format (unit mm)*
G04 Created by KiCad (PCBNEW 9.0.6) date 2026-01-27 05:52:47*
%MOMM*%
%LPD*%
G01*
G04 APERTURE LIST*
%ADD10C,0.125000*%
%ADD11C,0.150000*%
%ADD12C,0.120000*%
G04 APERTURE END LIST*
D10*
X185859770Y-62253665D02*
X185897865Y-62167951D01*
X185897865Y-62167951D02*
X185897865Y-62025093D01*
X185897865Y-62025093D02*
X185859770Y-61967951D01*
X185859770Y-61967951D02*
X185821674Y-61939379D01*
X185821674Y-61939379D02*
X185745484Y-61910808D01*
X185745484Y-61910808D02*
X185669293Y-61910808D01*
X185669293Y-61910808D02*
X185593103Y-61939379D01*
X185593103Y-61939379D02*
X185555008Y-61967951D01*
X185555008Y-61967951D02*
X185516912Y-62025093D01*
X185516912Y-62025093D02*
X185478817Y-62139379D01*
X185478817Y-62139379D02*
X185440722Y-62196522D01*
X185440722Y-62196522D02*
X185402627Y-62225093D01*
X185402627Y-62225093D02*
X185326436Y-62253665D01*
X185326436Y-62253665D02*
X185250246Y-62253665D01*
X185250246Y-62253665D02*
X185174055Y-62225093D01*
X185174055Y-62225093D02*
X185135960Y-62196522D01*
X185135960Y-62196522D02*
X185097865Y-62139379D01*
X185097865Y-62139379D02*
X185097865Y-61996522D01*
X185097865Y-61996522D02*
X185135960Y-61910808D01*
X185897865Y-61653664D02*
X185097865Y-61653664D01*
X185097865Y-61653664D02*
X185097865Y-61510807D01*
X185097865Y-61510807D02*
X185135960Y-61425093D01*
X185135960Y-61425093D02*
X185212150Y-61367950D01*
X185212150Y-61367950D02*
X185288341Y-61339379D01*
X185288341Y-61339379D02*
X185440722Y-61310807D01*
X185440722Y-61310807D02*
X185555008Y-61310807D01*
X185555008Y-61310807D02*
X185707389Y-61339379D01*
X185707389Y-61339379D02*
X185783579Y-61367950D01*
X185783579Y-61367950D02*
X185859770Y-61425093D01*
X185859770Y-61425093D02*
X185897865Y-61510807D01*
X185897865Y-61510807D02*
X185897865Y-61653664D01*
X185669293Y-61082236D02*
X185669293Y-60796522D01*
X185897865Y-61139379D02*
X185097865Y-60939379D01*
X185097865Y-60939379D02*
X185897865Y-60739379D01*
X188435680Y-62225093D02*
X188473775Y-62139379D01*
X188473775Y-62139379D02*
X188473775Y-61996521D01*
X188473775Y-61996521D02*
X188435680Y-61939379D01*
X188435680Y-61939379D02*
X188397584Y-61910807D01*
X188397584Y-61910807D02*
X188321394Y-61882236D01*
X188321394Y-61882236D02*
X188245203Y-61882236D01*
X188245203Y-61882236D02*
X188169013Y-61910807D01*
X188169013Y-61910807D02*
X188130918Y-61939379D01*
X188130918Y-61939379D02*
X188092822Y-61996521D01*
X188092822Y-61996521D02*
X188054727Y-62110807D01*
X188054727Y-62110807D02*
X188016632Y-62167950D01*
X188016632Y-62167950D02*
X187978537Y-62196521D01*
X187978537Y-62196521D02*
X187902346Y-62225093D01*
X187902346Y-62225093D02*
X187826156Y-62225093D01*
X187826156Y-62225093D02*
X187749965Y-62196521D01*
X187749965Y-62196521D02*
X187711870Y-62167950D01*
X187711870Y-62167950D02*
X187673775Y-62110807D01*
X187673775Y-62110807D02*
X187673775Y-61967950D01*
X187673775Y-61967950D02*
X187711870Y-61882236D01*
X188397584Y-61282235D02*
X188435680Y-61310807D01*
X188435680Y-61310807D02*
X188473775Y-61396521D01*
X188473775Y-61396521D02*
X188473775Y-61453664D01*
X188473775Y-61453664D02*
X188435680Y-61539378D01*
X188435680Y-61539378D02*
X188359489Y-61596521D01*
X188359489Y-61596521D02*
X188283299Y-61625092D01*
X188283299Y-61625092D02*
X188130918Y-61653664D01*
X188130918Y-61653664D02*
X188016632Y-61653664D01*
X188016632Y-61653664D02*
X187864251Y-61625092D01*
X187864251Y-61625092D02*
X187788060Y-61596521D01*
X187788060Y-61596521D02*
X187711870Y-61539378D01*
X187711870Y-61539378D02*
X187673775Y-61453664D01*
X187673775Y-61453664D02*
X187673775Y-61396521D01*
X187673775Y-61396521D02*
X187711870Y-61310807D01*
X187711870Y-61310807D02*
X187749965Y-61282235D01*
X188473775Y-60739378D02*
X188473775Y-61025092D01*
X188473775Y-61025092D02*
X187673775Y-61025092D01*
X190287780Y-62053664D02*
X190249685Y-62110807D01*
X190249685Y-62110807D02*
X190249685Y-62196521D01*
X190249685Y-62196521D02*
X190287780Y-62282235D01*
X190287780Y-62282235D02*
X190363970Y-62339378D01*
X190363970Y-62339378D02*
X190440161Y-62367949D01*
X190440161Y-62367949D02*
X190592542Y-62396521D01*
X190592542Y-62396521D02*
X190706828Y-62396521D01*
X190706828Y-62396521D02*
X190859209Y-62367949D01*
X190859209Y-62367949D02*
X190935399Y-62339378D01*
X190935399Y-62339378D02*
X191011590Y-62282235D01*
X191011590Y-62282235D02*
X191049685Y-62196521D01*
X191049685Y-62196521D02*
X191049685Y-62139378D01*
X191049685Y-62139378D02*
X191011590Y-62053664D01*
X191011590Y-62053664D02*
X190973494Y-62025092D01*
X190973494Y-62025092D02*
X190706828Y-62025092D01*
X190706828Y-62025092D02*
X190706828Y-62139378D01*
X191049685Y-61767949D02*
X190249685Y-61767949D01*
X190249685Y-61767949D02*
X191049685Y-61425092D01*
X191049685Y-61425092D02*
X190249685Y-61425092D01*
X191049685Y-61139378D02*
X190249685Y-61139378D01*
X190249685Y-61139378D02*
X190249685Y-60996521D01*
X190249685Y-60996521D02*
X190287780Y-60910807D01*
X190287780Y-60910807D02*
X190363970Y-60853664D01*
X190363970Y-60853664D02*
X190440161Y-60825093D01*
X190440161Y-60825093D02*
X190592542Y-60796521D01*
X190592542Y-60796521D02*
X190706828Y-60796521D01*
X190706828Y-60796521D02*
X190859209Y-60825093D01*
X190859209Y-60825093D02*
X190935399Y-60853664D01*
X190935399Y-60853664D02*
X191011590Y-60910807D01*
X191011590Y-60910807D02*
X191049685Y-60996521D01*
X191049685Y-60996521D02*
X191049685Y-61139378D01*
X192825595Y-62539379D02*
X192825595Y-62167951D01*
X192825595Y-62167951D02*
X193130357Y-62367951D01*
X193130357Y-62367951D02*
X193130357Y-62282236D01*
X193130357Y-62282236D02*
X193168452Y-62225094D01*
X193168452Y-62225094D02*
X193206547Y-62196522D01*
X193206547Y-62196522D02*
X193282738Y-62167951D01*
X193282738Y-62167951D02*
X193473214Y-62167951D01*
X193473214Y-62167951D02*
X193549404Y-62196522D01*
X193549404Y-62196522D02*
X193587500Y-62225094D01*
X193587500Y-62225094D02*
X193625595Y-62282236D01*
X193625595Y-62282236D02*
X193625595Y-62453665D01*
X193625595Y-62453665D02*
X193587500Y-62510808D01*
X193587500Y-62510808D02*
X193549404Y-62539379D01*
X193549404Y-61910807D02*
X193587500Y-61882236D01*
X193587500Y-61882236D02*
X193625595Y-61910807D01*
X193625595Y-61910807D02*
X193587500Y-61939379D01*
X193587500Y-61939379D02*
X193549404Y-61910807D01*
X193549404Y-61910807D02*
X193625595Y-61910807D01*
X192825595Y-61682236D02*
X192825595Y-61310808D01*
X192825595Y-61310808D02*
X193130357Y-61510808D01*
X193130357Y-61510808D02*
X193130357Y-61425093D01*
X193130357Y-61425093D02*
X193168452Y-61367951D01*
X193168452Y-61367951D02*
X193206547Y-61339379D01*
X193206547Y-61339379D02*
X193282738Y-61310808D01*
X193282738Y-61310808D02*
X193473214Y-61310808D01*
X193473214Y-61310808D02*
X193549404Y-61339379D01*
X193549404Y-61339379D02*
X193587500Y-61367951D01*
X193587500Y-61367951D02*
X193625595Y-61425093D01*
X193625595Y-61425093D02*
X193625595Y-61596522D01*
X193625595Y-61596522D02*
X193587500Y-61653665D01*
X193587500Y-61653665D02*
X193549404Y-61682236D01*
X192825595Y-61139379D02*
X193625595Y-60939379D01*
X193625595Y-60939379D02*
X192825595Y-60739379D01*
X199066521Y-64876130D02*
X199152236Y-64914225D01*
X199152236Y-64914225D02*
X199295093Y-64914225D01*
X199295093Y-64914225D02*
X199352236Y-64876130D01*
X199352236Y-64876130D02*
X199380807Y-64838034D01*
X199380807Y-64838034D02*
X199409378Y-64761844D01*
X199409378Y-64761844D02*
X199409378Y-64685653D01*
X199409378Y-64685653D02*
X199380807Y-64609463D01*
X199380807Y-64609463D02*
X199352236Y-64571368D01*
X199352236Y-64571368D02*
X199295093Y-64533272D01*
X199295093Y-64533272D02*
X199180807Y-64495177D01*
X199180807Y-64495177D02*
X199123664Y-64457082D01*
X199123664Y-64457082D02*
X199095093Y-64418987D01*
X199095093Y-64418987D02*
X199066521Y-64342796D01*
X199066521Y-64342796D02*
X199066521Y-64266606D01*
X199066521Y-64266606D02*
X199095093Y-64190415D01*
X199095093Y-64190415D02*
X199123664Y-64152320D01*
X199123664Y-64152320D02*
X199180807Y-64114225D01*
X199180807Y-64114225D02*
X199323664Y-64114225D01*
X199323664Y-64114225D02*
X199409378Y-64152320D01*
X200009379Y-64838034D02*
X199980807Y-64876130D01*
X199980807Y-64876130D02*
X199895093Y-64914225D01*
X199895093Y-64914225D02*
X199837950Y-64914225D01*
X199837950Y-64914225D02*
X199752236Y-64876130D01*
X199752236Y-64876130D02*
X199695093Y-64799939D01*
X199695093Y-64799939D02*
X199666522Y-64723749D01*
X199666522Y-64723749D02*
X199637950Y-64571368D01*
X199637950Y-64571368D02*
X199637950Y-64457082D01*
X199637950Y-64457082D02*
X199666522Y-64304701D01*
X199666522Y-64304701D02*
X199695093Y-64228510D01*
X199695093Y-64228510D02*
X199752236Y-64152320D01*
X199752236Y-64152320D02*
X199837950Y-64114225D01*
X199837950Y-64114225D02*
X199895093Y-64114225D01*
X199895093Y-64114225D02*
X199980807Y-64152320D01*
X199980807Y-64152320D02*
X200009379Y-64190415D01*
X200552236Y-64914225D02*
X200266522Y-64914225D01*
X200266522Y-64914225D02*
X200266522Y-64114225D01*
X200695093Y-64114225D02*
X201066521Y-64114225D01*
X201066521Y-64114225D02*
X200866521Y-64418987D01*
X200866521Y-64418987D02*
X200952236Y-64418987D01*
X200952236Y-64418987D02*
X201009379Y-64457082D01*
X201009379Y-64457082D02*
X201037950Y-64495177D01*
X201037950Y-64495177D02*
X201066521Y-64571368D01*
X201066521Y-64571368D02*
X201066521Y-64761844D01*
X201066521Y-64761844D02*
X201037950Y-64838034D01*
X201037950Y-64838034D02*
X201009379Y-64876130D01*
X201009379Y-64876130D02*
X200952236Y-64914225D01*
X200952236Y-64914225D02*
X200780807Y-64914225D01*
X200780807Y-64914225D02*
X200723664Y-64876130D01*
X200723664Y-64876130D02*
X200695093Y-64838034D01*
X199066521Y-67452040D02*
X199152236Y-67490135D01*
X199152236Y-67490135D02*
X199295093Y-67490135D01*
X199295093Y-67490135D02*
X199352236Y-67452040D01*
X199352236Y-67452040D02*
X199380807Y-67413944D01*
X199380807Y-67413944D02*
X199409378Y-67337754D01*
X199409378Y-67337754D02*
X199409378Y-67261563D01*
X199409378Y-67261563D02*
X199380807Y-67185373D01*
X199380807Y-67185373D02*
X199352236Y-67147278D01*
X199352236Y-67147278D02*
X199295093Y-67109182D01*
X199295093Y-67109182D02*
X199180807Y-67071087D01*
X199180807Y-67071087D02*
X199123664Y-67032992D01*
X199123664Y-67032992D02*
X199095093Y-66994897D01*
X199095093Y-66994897D02*
X199066521Y-66918706D01*
X199066521Y-66918706D02*
X199066521Y-66842516D01*
X199066521Y-66842516D02*
X199095093Y-66766325D01*
X199095093Y-66766325D02*
X199123664Y-66728230D01*
X199123664Y-66728230D02*
X199180807Y-66690135D01*
X199180807Y-66690135D02*
X199323664Y-66690135D01*
X199323664Y-66690135D02*
X199409378Y-66728230D01*
X199666522Y-67490135D02*
X199666522Y-66690135D01*
X199666522Y-66690135D02*
X199809379Y-66690135D01*
X199809379Y-66690135D02*
X199895093Y-66728230D01*
X199895093Y-66728230D02*
X199952236Y-66804420D01*
X199952236Y-66804420D02*
X199980807Y-66880611D01*
X199980807Y-66880611D02*
X200009379Y-67032992D01*
X200009379Y-67032992D02*
X200009379Y-67147278D01*
X200009379Y-67147278D02*
X199980807Y-67299659D01*
X199980807Y-67299659D02*
X199952236Y-67375849D01*
X199952236Y-67375849D02*
X199895093Y-67452040D01*
X199895093Y-67452040D02*
X199809379Y-67490135D01*
X199809379Y-67490135D02*
X199666522Y-67490135D01*
X200237950Y-67261563D02*
X200523665Y-67261563D01*
X200180807Y-67490135D02*
X200380807Y-66690135D01*
X200380807Y-66690135D02*
X200580807Y-67490135D01*
X200723665Y-66690135D02*
X201095093Y-66690135D01*
X201095093Y-66690135D02*
X200895093Y-66994897D01*
X200895093Y-66994897D02*
X200980808Y-66994897D01*
X200980808Y-66994897D02*
X201037951Y-67032992D01*
X201037951Y-67032992D02*
X201066522Y-67071087D01*
X201066522Y-67071087D02*
X201095093Y-67147278D01*
X201095093Y-67147278D02*
X201095093Y-67337754D01*
X201095093Y-67337754D02*
X201066522Y-67413944D01*
X201066522Y-67413944D02*
X201037951Y-67452040D01*
X201037951Y-67452040D02*
X200980808Y-67490135D01*
X200980808Y-67490135D02*
X200809379Y-67490135D01*
X200809379Y-67490135D02*
X200752236Y-67452040D01*
X200752236Y-67452040D02*
X200723665Y-67413944D01*
X199066521Y-70027950D02*
X199152236Y-70066045D01*
X199152236Y-70066045D02*
X199295093Y-70066045D01*
X199295093Y-70066045D02*
X199352236Y-70027950D01*
X199352236Y-70027950D02*
X199380807Y-69989854D01*
X199380807Y-69989854D02*
X199409378Y-69913664D01*
X199409378Y-69913664D02*
X199409378Y-69837473D01*
X199409378Y-69837473D02*
X199380807Y-69761283D01*
X199380807Y-69761283D02*
X199352236Y-69723188D01*
X199352236Y-69723188D02*
X199295093Y-69685092D01*
X199295093Y-69685092D02*
X199180807Y-69646997D01*
X199180807Y-69646997D02*
X199123664Y-69608902D01*
X199123664Y-69608902D02*
X199095093Y-69570807D01*
X199095093Y-69570807D02*
X199066521Y-69494616D01*
X199066521Y-69494616D02*
X199066521Y-69418426D01*
X199066521Y-69418426D02*
X199095093Y-69342235D01*
X199095093Y-69342235D02*
X199123664Y-69304140D01*
X199123664Y-69304140D02*
X199180807Y-69266045D01*
X199180807Y-69266045D02*
X199323664Y-69266045D01*
X199323664Y-69266045D02*
X199409378Y-69304140D01*
X200009379Y-69989854D02*
X199980807Y-70027950D01*
X199980807Y-70027950D02*
X199895093Y-70066045D01*
X199895093Y-70066045D02*
X199837950Y-70066045D01*
X199837950Y-70066045D02*
X199752236Y-70027950D01*
X199752236Y-70027950D02*
X199695093Y-69951759D01*
X199695093Y-69951759D02*
X199666522Y-69875569D01*
X199666522Y-69875569D02*
X199637950Y-69723188D01*
X199637950Y-69723188D02*
X199637950Y-69608902D01*
X199637950Y-69608902D02*
X199666522Y-69456521D01*
X199666522Y-69456521D02*
X199695093Y-69380330D01*
X199695093Y-69380330D02*
X199752236Y-69304140D01*
X199752236Y-69304140D02*
X199837950Y-69266045D01*
X199837950Y-69266045D02*
X199895093Y-69266045D01*
X199895093Y-69266045D02*
X199980807Y-69304140D01*
X199980807Y-69304140D02*
X200009379Y-69342235D01*
X200552236Y-70066045D02*
X200266522Y-70066045D01*
X200266522Y-70066045D02*
X200266522Y-69266045D01*
X200723664Y-69342235D02*
X200752236Y-69304140D01*
X200752236Y-69304140D02*
X200809379Y-69266045D01*
X200809379Y-69266045D02*
X200952236Y-69266045D01*
X200952236Y-69266045D02*
X201009379Y-69304140D01*
X201009379Y-69304140D02*
X201037950Y-69342235D01*
X201037950Y-69342235D02*
X201066521Y-69418426D01*
X201066521Y-69418426D02*
X201066521Y-69494616D01*
X201066521Y-69494616D02*
X201037950Y-69608902D01*
X201037950Y-69608902D02*
X200695093Y-70066045D01*
X200695093Y-70066045D02*
X201066521Y-70066045D01*
X199066521Y-72603860D02*
X199152236Y-72641955D01*
X199152236Y-72641955D02*
X199295093Y-72641955D01*
X199295093Y-72641955D02*
X199352236Y-72603860D01*
X199352236Y-72603860D02*
X199380807Y-72565764D01*
X199380807Y-72565764D02*
X199409378Y-72489574D01*
X199409378Y-72489574D02*
X199409378Y-72413383D01*
X199409378Y-72413383D02*
X199380807Y-72337193D01*
X199380807Y-72337193D02*
X199352236Y-72299098D01*
X199352236Y-72299098D02*
X199295093Y-72261002D01*
X199295093Y-72261002D02*
X199180807Y-72222907D01*
X199180807Y-72222907D02*
X199123664Y-72184812D01*
X199123664Y-72184812D02*
X199095093Y-72146717D01*
X199095093Y-72146717D02*
X199066521Y-72070526D01*
X199066521Y-72070526D02*
X199066521Y-71994336D01*
X199066521Y-71994336D02*
X199095093Y-71918145D01*
X199095093Y-71918145D02*
X199123664Y-71880050D01*
X199123664Y-71880050D02*
X199180807Y-71841955D01*
X199180807Y-71841955D02*
X199323664Y-71841955D01*
X199323664Y-71841955D02*
X199409378Y-71880050D01*
X199666522Y-72641955D02*
X199666522Y-71841955D01*
X199666522Y-71841955D02*
X199809379Y-71841955D01*
X199809379Y-71841955D02*
X199895093Y-71880050D01*
X199895093Y-71880050D02*
X199952236Y-71956240D01*
X199952236Y-71956240D02*
X199980807Y-72032431D01*
X199980807Y-72032431D02*
X200009379Y-72184812D01*
X200009379Y-72184812D02*
X200009379Y-72299098D01*
X200009379Y-72299098D02*
X199980807Y-72451479D01*
X199980807Y-72451479D02*
X199952236Y-72527669D01*
X199952236Y-72527669D02*
X199895093Y-72603860D01*
X199895093Y-72603860D02*
X199809379Y-72641955D01*
X199809379Y-72641955D02*
X199666522Y-72641955D01*
X200237950Y-72413383D02*
X200523665Y-72413383D01*
X200180807Y-72641955D02*
X200380807Y-71841955D01*
X200380807Y-71841955D02*
X200580807Y-72641955D01*
X200752236Y-71918145D02*
X200780808Y-71880050D01*
X200780808Y-71880050D02*
X200837951Y-71841955D01*
X200837951Y-71841955D02*
X200980808Y-71841955D01*
X200980808Y-71841955D02*
X201037951Y-71880050D01*
X201037951Y-71880050D02*
X201066522Y-71918145D01*
X201066522Y-71918145D02*
X201095093Y-71994336D01*
X201095093Y-71994336D02*
X201095093Y-72070526D01*
X201095093Y-72070526D02*
X201066522Y-72184812D01*
X201066522Y-72184812D02*
X200723665Y-72641955D01*
X200723665Y-72641955D02*
X201095093Y-72641955D01*
X199066521Y-75179770D02*
X199152236Y-75217865D01*
X199152236Y-75217865D02*
X199295093Y-75217865D01*
X199295093Y-75217865D02*
X199352236Y-75179770D01*
X199352236Y-75179770D02*
X199380807Y-75141674D01*
X199380807Y-75141674D02*
X199409378Y-75065484D01*
X199409378Y-75065484D02*
X199409378Y-74989293D01*
X199409378Y-74989293D02*
X199380807Y-74913103D01*
X199380807Y-74913103D02*
X199352236Y-74875008D01*
X199352236Y-74875008D02*
X199295093Y-74836912D01*
X199295093Y-74836912D02*
X199180807Y-74798817D01*
X199180807Y-74798817D02*
X199123664Y-74760722D01*
X199123664Y-74760722D02*
X199095093Y-74722627D01*
X199095093Y-74722627D02*
X199066521Y-74646436D01*
X199066521Y-74646436D02*
X199066521Y-74570246D01*
X199066521Y-74570246D02*
X199095093Y-74494055D01*
X199095093Y-74494055D02*
X199123664Y-74455960D01*
X199123664Y-74455960D02*
X199180807Y-74417865D01*
X199180807Y-74417865D02*
X199323664Y-74417865D01*
X199323664Y-74417865D02*
X199409378Y-74455960D01*
X200009379Y-75141674D02*
X199980807Y-75179770D01*
X199980807Y-75179770D02*
X199895093Y-75217865D01*
X199895093Y-75217865D02*
X199837950Y-75217865D01*
X199837950Y-75217865D02*
X199752236Y-75179770D01*
X199752236Y-75179770D02*
X199695093Y-75103579D01*
X199695093Y-75103579D02*
X199666522Y-75027389D01*
X199666522Y-75027389D02*
X199637950Y-74875008D01*
X199637950Y-74875008D02*
X199637950Y-74760722D01*
X199637950Y-74760722D02*
X199666522Y-74608341D01*
X199666522Y-74608341D02*
X199695093Y-74532150D01*
X199695093Y-74532150D02*
X199752236Y-74455960D01*
X199752236Y-74455960D02*
X199837950Y-74417865D01*
X199837950Y-74417865D02*
X199895093Y-74417865D01*
X199895093Y-74417865D02*
X199980807Y-74455960D01*
X199980807Y-74455960D02*
X200009379Y-74494055D01*
X200552236Y-75217865D02*
X200266522Y-75217865D01*
X200266522Y-75217865D02*
X200266522Y-74417865D01*
X201066521Y-75217865D02*
X200723664Y-75217865D01*
X200895093Y-75217865D02*
X200895093Y-74417865D01*
X200895093Y-74417865D02*
X200837950Y-74532150D01*
X200837950Y-74532150D02*
X200780807Y-74608341D01*
X200780807Y-74608341D02*
X200723664Y-74646436D01*
X199066521Y-77755680D02*
X199152236Y-77793775D01*
X199152236Y-77793775D02*
X199295093Y-77793775D01*
X199295093Y-77793775D02*
X199352236Y-77755680D01*
X199352236Y-77755680D02*
X199380807Y-77717584D01*
X199380807Y-77717584D02*
X199409378Y-77641394D01*
X199409378Y-77641394D02*
X199409378Y-77565203D01*
X199409378Y-77565203D02*
X199380807Y-77489013D01*
X199380807Y-77489013D02*
X199352236Y-77450918D01*
X199352236Y-77450918D02*
X199295093Y-77412822D01*
X199295093Y-77412822D02*
X199180807Y-77374727D01*
X199180807Y-77374727D02*
X199123664Y-77336632D01*
X199123664Y-77336632D02*
X199095093Y-77298537D01*
X199095093Y-77298537D02*
X199066521Y-77222346D01*
X199066521Y-77222346D02*
X199066521Y-77146156D01*
X199066521Y-77146156D02*
X199095093Y-77069965D01*
X199095093Y-77069965D02*
X199123664Y-77031870D01*
X199123664Y-77031870D02*
X199180807Y-76993775D01*
X199180807Y-76993775D02*
X199323664Y-76993775D01*
X199323664Y-76993775D02*
X199409378Y-77031870D01*
X199666522Y-77793775D02*
X199666522Y-76993775D01*
X199666522Y-76993775D02*
X199809379Y-76993775D01*
X199809379Y-76993775D02*
X199895093Y-77031870D01*
X199895093Y-77031870D02*
X199952236Y-77108060D01*
X199952236Y-77108060D02*
X199980807Y-77184251D01*
X199980807Y-77184251D02*
X200009379Y-77336632D01*
X200009379Y-77336632D02*
X200009379Y-77450918D01*
X200009379Y-77450918D02*
X199980807Y-77603299D01*
X199980807Y-77603299D02*
X199952236Y-77679489D01*
X199952236Y-77679489D02*
X199895093Y-77755680D01*
X199895093Y-77755680D02*
X199809379Y-77793775D01*
X199809379Y-77793775D02*
X199666522Y-77793775D01*
X200237950Y-77565203D02*
X200523665Y-77565203D01*
X200180807Y-77793775D02*
X200380807Y-76993775D01*
X200380807Y-76993775D02*
X200580807Y-77793775D01*
X201095093Y-77793775D02*
X200752236Y-77793775D01*
X200923665Y-77793775D02*
X200923665Y-76993775D01*
X200923665Y-76993775D02*
X200866522Y-77108060D01*
X200866522Y-77108060D02*
X200809379Y-77184251D01*
X200809379Y-77184251D02*
X200752236Y-77222346D01*
X199066521Y-80331590D02*
X199152236Y-80369685D01*
X199152236Y-80369685D02*
X199295093Y-80369685D01*
X199295093Y-80369685D02*
X199352236Y-80331590D01*
X199352236Y-80331590D02*
X199380807Y-80293494D01*
X199380807Y-80293494D02*
X199409378Y-80217304D01*
X199409378Y-80217304D02*
X199409378Y-80141113D01*
X199409378Y-80141113D02*
X199380807Y-80064923D01*
X199380807Y-80064923D02*
X199352236Y-80026828D01*
X199352236Y-80026828D02*
X199295093Y-79988732D01*
X199295093Y-79988732D02*
X199180807Y-79950637D01*
X199180807Y-79950637D02*
X199123664Y-79912542D01*
X199123664Y-79912542D02*
X199095093Y-79874447D01*
X199095093Y-79874447D02*
X199066521Y-79798256D01*
X199066521Y-79798256D02*
X199066521Y-79722066D01*
X199066521Y-79722066D02*
X199095093Y-79645875D01*
X199095093Y-79645875D02*
X199123664Y-79607780D01*
X199123664Y-79607780D02*
X199180807Y-79569685D01*
X199180807Y-79569685D02*
X199323664Y-79569685D01*
X199323664Y-79569685D02*
X199409378Y-79607780D01*
X200009379Y-80293494D02*
X199980807Y-80331590D01*
X199980807Y-80331590D02*
X199895093Y-80369685D01*
X199895093Y-80369685D02*
X199837950Y-80369685D01*
X199837950Y-80369685D02*
X199752236Y-80331590D01*
X199752236Y-80331590D02*
X199695093Y-80255399D01*
X199695093Y-80255399D02*
X199666522Y-80179209D01*
X199666522Y-80179209D02*
X199637950Y-80026828D01*
X199637950Y-80026828D02*
X199637950Y-79912542D01*
X199637950Y-79912542D02*
X199666522Y-79760161D01*
X199666522Y-79760161D02*
X199695093Y-79683970D01*
X199695093Y-79683970D02*
X199752236Y-79607780D01*
X199752236Y-79607780D02*
X199837950Y-79569685D01*
X199837950Y-79569685D02*
X199895093Y-79569685D01*
X199895093Y-79569685D02*
X199980807Y-79607780D01*
X199980807Y-79607780D02*
X200009379Y-79645875D01*
X200552236Y-80369685D02*
X200266522Y-80369685D01*
X200266522Y-80369685D02*
X200266522Y-79569685D01*
X200866521Y-79569685D02*
X200923664Y-79569685D01*
X200923664Y-79569685D02*
X200980807Y-79607780D01*
X200980807Y-79607780D02*
X201009379Y-79645875D01*
X201009379Y-79645875D02*
X201037950Y-79722066D01*
X201037950Y-79722066D02*
X201066521Y-79874447D01*
X201066521Y-79874447D02*
X201066521Y-80064923D01*
X201066521Y-80064923D02*
X201037950Y-80217304D01*
X201037950Y-80217304D02*
X201009379Y-80293494D01*
X201009379Y-80293494D02*
X200980807Y-80331590D01*
X200980807Y-80331590D02*
X200923664Y-80369685D01*
X200923664Y-80369685D02*
X200866521Y-80369685D01*
X200866521Y-80369685D02*
X200809379Y-80331590D01*
X200809379Y-80331590D02*
X200780807Y-80293494D01*
X200780807Y-80293494D02*
X200752236Y-80217304D01*
X200752236Y-80217304D02*
X200723664Y-80064923D01*
X200723664Y-80064923D02*
X200723664Y-79874447D01*
X200723664Y-79874447D02*
X200752236Y-79722066D01*
X200752236Y-79722066D02*
X200780807Y-79645875D01*
X200780807Y-79645875D02*
X200809379Y-79607780D01*
X200809379Y-79607780D02*
X200866521Y-79569685D01*
X199066521Y-82907500D02*
X199152236Y-82945595D01*
X199152236Y-82945595D02*
X199295093Y-82945595D01*
X199295093Y-82945595D02*
X199352236Y-82907500D01*
X199352236Y-82907500D02*
X199380807Y-82869404D01*
X199380807Y-82869404D02*
X199409378Y-82793214D01*
X199409378Y-82793214D02*
X199409378Y-82717023D01*
X199409378Y-82717023D02*
X199380807Y-82640833D01*
X199380807Y-82640833D02*
X199352236Y-82602738D01*
X199352236Y-82602738D02*
X199295093Y-82564642D01*
X199295093Y-82564642D02*
X199180807Y-82526547D01*
X199180807Y-82526547D02*
X199123664Y-82488452D01*
X199123664Y-82488452D02*
X199095093Y-82450357D01*
X199095093Y-82450357D02*
X199066521Y-82374166D01*
X199066521Y-82374166D02*
X199066521Y-82297976D01*
X199066521Y-82297976D02*
X199095093Y-82221785D01*
X199095093Y-82221785D02*
X199123664Y-82183690D01*
X199123664Y-82183690D02*
X199180807Y-82145595D01*
X199180807Y-82145595D02*
X199323664Y-82145595D01*
X199323664Y-82145595D02*
X199409378Y-82183690D01*
X199666522Y-82945595D02*
X199666522Y-82145595D01*
X199666522Y-82145595D02*
X199809379Y-82145595D01*
X199809379Y-82145595D02*
X199895093Y-82183690D01*
X199895093Y-82183690D02*
X199952236Y-82259880D01*
X199952236Y-82259880D02*
X199980807Y-82336071D01*
X199980807Y-82336071D02*
X200009379Y-82488452D01*
X200009379Y-82488452D02*
X200009379Y-82602738D01*
X200009379Y-82602738D02*
X199980807Y-82755119D01*
X199980807Y-82755119D02*
X199952236Y-82831309D01*
X199952236Y-82831309D02*
X199895093Y-82907500D01*
X199895093Y-82907500D02*
X199809379Y-82945595D01*
X199809379Y-82945595D02*
X199666522Y-82945595D01*
X200237950Y-82717023D02*
X200523665Y-82717023D01*
X200180807Y-82945595D02*
X200380807Y-82145595D01*
X200380807Y-82145595D02*
X200580807Y-82945595D01*
X200895093Y-82145595D02*
X200952236Y-82145595D01*
X200952236Y-82145595D02*
X201009379Y-82183690D01*
X201009379Y-82183690D02*
X201037951Y-82221785D01*
X201037951Y-82221785D02*
X201066522Y-82297976D01*
X201066522Y-82297976D02*
X201095093Y-82450357D01*
X201095093Y-82450357D02*
X201095093Y-82640833D01*
X201095093Y-82640833D02*
X201066522Y-82793214D01*
X201066522Y-82793214D02*
X201037951Y-82869404D01*
X201037951Y-82869404D02*
X201009379Y-82907500D01*
X201009379Y-82907500D02*
X200952236Y-82945595D01*
X200952236Y-82945595D02*
X200895093Y-82945595D01*
X200895093Y-82945595D02*
X200837951Y-82907500D01*
X200837951Y-82907500D02*
X200809379Y-82869404D01*
X200809379Y-82869404D02*
X200780808Y-82793214D01*
X200780808Y-82793214D02*
X200752236Y-82640833D01*
X200752236Y-82640833D02*
X200752236Y-82450357D01*
X200752236Y-82450357D02*
X200780808Y-82297976D01*
X200780808Y-82297976D02*
X200809379Y-82221785D01*
X200809379Y-82221785D02*
X200837951Y-82183690D01*
X200837951Y-82183690D02*
X200895093Y-82145595D01*
X178410331Y-88581175D02*
X178410331Y-87581175D01*
X178410331Y-87581175D02*
X178743664Y-88295460D01*
X178743664Y-88295460D02*
X179076997Y-87581175D01*
X179076997Y-87581175D02*
X179076997Y-88581175D01*
X179553188Y-87581175D02*
X179553188Y-88390698D01*
X179553188Y-88390698D02*
X179600807Y-88485936D01*
X179600807Y-88485936D02*
X179648426Y-88533556D01*
X179648426Y-88533556D02*
X179743664Y-88581175D01*
X179743664Y-88581175D02*
X179934140Y-88581175D01*
X179934140Y-88581175D02*
X180029378Y-88533556D01*
X180029378Y-88533556D02*
X180076997Y-88485936D01*
X180076997Y-88485936D02*
X180124616Y-88390698D01*
X180124616Y-88390698D02*
X180124616Y-87581175D01*
X180505569Y-87581175D02*
X181172235Y-88581175D01*
X181172235Y-87581175D02*
X180505569Y-88581175D01*
X182315093Y-88581175D02*
X182315093Y-87581175D01*
X182743664Y-87676413D02*
X182791283Y-87628794D01*
X182791283Y-87628794D02*
X182886521Y-87581175D01*
X182886521Y-87581175D02*
X183124616Y-87581175D01*
X183124616Y-87581175D02*
X183219854Y-87628794D01*
X183219854Y-87628794D02*
X183267473Y-87676413D01*
X183267473Y-87676413D02*
X183315092Y-87771651D01*
X183315092Y-87771651D02*
X183315092Y-87866889D01*
X183315092Y-87866889D02*
X183267473Y-88009746D01*
X183267473Y-88009746D02*
X182696045Y-88581175D01*
X182696045Y-88581175D02*
X183315092Y-88581175D01*
X184315092Y-88485936D02*
X184267473Y-88533556D01*
X184267473Y-88533556D02*
X184124616Y-88581175D01*
X184124616Y-88581175D02*
X184029378Y-88581175D01*
X184029378Y-88581175D02*
X183886521Y-88533556D01*
X183886521Y-88533556D02*
X183791283Y-88438317D01*
X183791283Y-88438317D02*
X183743664Y-88343079D01*
X183743664Y-88343079D02*
X183696045Y-88152603D01*
X183696045Y-88152603D02*
X183696045Y-88009746D01*
X183696045Y-88009746D02*
X183743664Y-87819270D01*
X183743664Y-87819270D02*
X183791283Y-87724032D01*
X183791283Y-87724032D02*
X183886521Y-87628794D01*
X183886521Y-87628794D02*
X184029378Y-87581175D01*
X184029378Y-87581175D02*
X184124616Y-87581175D01*
X184124616Y-87581175D02*
X184267473Y-87628794D01*
X184267473Y-87628794D02*
X184315092Y-87676413D01*
X178981759Y-90095880D02*
X178934140Y-90143500D01*
X178934140Y-90143500D02*
X178791283Y-90191119D01*
X178791283Y-90191119D02*
X178696045Y-90191119D01*
X178696045Y-90191119D02*
X178553188Y-90143500D01*
X178553188Y-90143500D02*
X178457950Y-90048261D01*
X178457950Y-90048261D02*
X178410331Y-89953023D01*
X178410331Y-89953023D02*
X178362712Y-89762547D01*
X178362712Y-89762547D02*
X178362712Y-89619690D01*
X178362712Y-89619690D02*
X178410331Y-89429214D01*
X178410331Y-89429214D02*
X178457950Y-89333976D01*
X178457950Y-89333976D02*
X178553188Y-89238738D01*
X178553188Y-89238738D02*
X178696045Y-89191119D01*
X178696045Y-89191119D02*
X178791283Y-89191119D01*
X178791283Y-89191119D02*
X178934140Y-89238738D01*
X178934140Y-89238738D02*
X178981759Y-89286357D01*
X179410331Y-90191119D02*
X179410331Y-89524452D01*
X179410331Y-89714928D02*
X179457950Y-89619690D01*
X179457950Y-89619690D02*
X179505569Y-89572071D01*
X179505569Y-89572071D02*
X179600807Y-89524452D01*
X179600807Y-89524452D02*
X179696045Y-89524452D01*
X180029379Y-90191119D02*
X180029379Y-89524452D01*
X180029379Y-89191119D02*
X179981760Y-89238738D01*
X179981760Y-89238738D02*
X180029379Y-89286357D01*
X180029379Y-89286357D02*
X180076998Y-89238738D01*
X180076998Y-89238738D02*
X180029379Y-89191119D01*
X180029379Y-89191119D02*
X180029379Y-89286357D01*
X180457950Y-90143500D02*
X180553188Y-90191119D01*
X180553188Y-90191119D02*
X180743664Y-90191119D01*
X180743664Y-90191119D02*
X180838902Y-90143500D01*
X180838902Y-90143500D02*
X180886521Y-90048261D01*
X180886521Y-90048261D02*
X180886521Y-90000642D01*
X180886521Y-90000642D02*
X180838902Y-89905404D01*
X180838902Y-89905404D02*
X180743664Y-89857785D01*
X180743664Y-89857785D02*
X180600807Y-89857785D01*
X180600807Y-89857785D02*
X180505569Y-89810166D01*
X180505569Y-89810166D02*
X180457950Y-89714928D01*
X180457950Y-89714928D02*
X180457950Y-89667309D01*
X180457950Y-89667309D02*
X180505569Y-89572071D01*
X180505569Y-89572071D02*
X180600807Y-89524452D01*
X180600807Y-89524452D02*
X180743664Y-89524452D01*
X180743664Y-89524452D02*
X180838902Y-89572071D01*
X181172236Y-89524452D02*
X181553188Y-89524452D01*
X181315093Y-89191119D02*
X181315093Y-90048261D01*
X181315093Y-90048261D02*
X181362712Y-90143500D01*
X181362712Y-90143500D02*
X181457950Y-90191119D01*
X181457950Y-90191119D02*
X181553188Y-90191119D01*
X181886522Y-90191119D02*
X181886522Y-89524452D01*
X181886522Y-89191119D02*
X181838903Y-89238738D01*
X181838903Y-89238738D02*
X181886522Y-89286357D01*
X181886522Y-89286357D02*
X181934141Y-89238738D01*
X181934141Y-89238738D02*
X181886522Y-89191119D01*
X181886522Y-89191119D02*
X181886522Y-89286357D01*
X182791283Y-90191119D02*
X182791283Y-89667309D01*
X182791283Y-89667309D02*
X182743664Y-89572071D01*
X182743664Y-89572071D02*
X182648426Y-89524452D01*
X182648426Y-89524452D02*
X182457950Y-89524452D01*
X182457950Y-89524452D02*
X182362712Y-89572071D01*
X182791283Y-90143500D02*
X182696045Y-90191119D01*
X182696045Y-90191119D02*
X182457950Y-90191119D01*
X182457950Y-90191119D02*
X182362712Y-90143500D01*
X182362712Y-90143500D02*
X182315093Y-90048261D01*
X182315093Y-90048261D02*
X182315093Y-89953023D01*
X182315093Y-89953023D02*
X182362712Y-89857785D01*
X182362712Y-89857785D02*
X182457950Y-89810166D01*
X182457950Y-89810166D02*
X182696045Y-89810166D01*
X182696045Y-89810166D02*
X182791283Y-89762547D01*
X183267474Y-89524452D02*
X183267474Y-90191119D01*
X183267474Y-89619690D02*
X183315093Y-89572071D01*
X183315093Y-89572071D02*
X183410331Y-89524452D01*
X183410331Y-89524452D02*
X183553188Y-89524452D01*
X183553188Y-89524452D02*
X183648426Y-89572071D01*
X183648426Y-89572071D02*
X183696045Y-89667309D01*
X183696045Y-89667309D02*
X183696045Y-90191119D01*
X185505569Y-90095880D02*
X185457950Y-90143500D01*
X185457950Y-90143500D02*
X185315093Y-90191119D01*
X185315093Y-90191119D02*
X185219855Y-90191119D01*
X185219855Y-90191119D02*
X185076998Y-90143500D01*
X185076998Y-90143500D02*
X184981760Y-90048261D01*
X184981760Y-90048261D02*
X184934141Y-89953023D01*
X184934141Y-89953023D02*
X184886522Y-89762547D01*
X184886522Y-89762547D02*
X184886522Y-89619690D01*
X184886522Y-89619690D02*
X184934141Y-89429214D01*
X184934141Y-89429214D02*
X184981760Y-89333976D01*
X184981760Y-89333976D02*
X185076998Y-89238738D01*
X185076998Y-89238738D02*
X185219855Y-89191119D01*
X185219855Y-89191119D02*
X185315093Y-89191119D01*
X185315093Y-89191119D02*
X185457950Y-89238738D01*
X185457950Y-89238738D02*
X185505569Y-89286357D01*
X186362712Y-90191119D02*
X186362712Y-89667309D01*
X186362712Y-89667309D02*
X186315093Y-89572071D01*
X186315093Y-89572071D02*
X186219855Y-89524452D01*
X186219855Y-89524452D02*
X186029379Y-89524452D01*
X186029379Y-89524452D02*
X185934141Y-89572071D01*
X186362712Y-90143500D02*
X186267474Y-90191119D01*
X186267474Y-90191119D02*
X186029379Y-90191119D01*
X186029379Y-90191119D02*
X185934141Y-90143500D01*
X185934141Y-90143500D02*
X185886522Y-90048261D01*
X185886522Y-90048261D02*
X185886522Y-89953023D01*
X185886522Y-89953023D02*
X185934141Y-89857785D01*
X185934141Y-89857785D02*
X186029379Y-89810166D01*
X186029379Y-89810166D02*
X186267474Y-89810166D01*
X186267474Y-89810166D02*
X186362712Y-89762547D01*
X186791284Y-90143500D02*
X186886522Y-90191119D01*
X186886522Y-90191119D02*
X187076998Y-90191119D01*
X187076998Y-90191119D02*
X187172236Y-90143500D01*
X187172236Y-90143500D02*
X187219855Y-90048261D01*
X187219855Y-90048261D02*
X187219855Y-90000642D01*
X187219855Y-90000642D02*
X187172236Y-89905404D01*
X187172236Y-89905404D02*
X187076998Y-89857785D01*
X187076998Y-89857785D02*
X186934141Y-89857785D01*
X186934141Y-89857785D02*
X186838903Y-89810166D01*
X186838903Y-89810166D02*
X186791284Y-89714928D01*
X186791284Y-89714928D02*
X186791284Y-89667309D01*
X186791284Y-89667309D02*
X186838903Y-89572071D01*
X186838903Y-89572071D02*
X186934141Y-89524452D01*
X186934141Y-89524452D02*
X187076998Y-89524452D01*
X187076998Y-89524452D02*
X187172236Y-89572071D01*
X187505570Y-89524452D02*
X187886522Y-89524452D01*
X187648427Y-89191119D02*
X187648427Y-90048261D01*
X187648427Y-90048261D02*
X187696046Y-90143500D01*
X187696046Y-90143500D02*
X187791284Y-90191119D01*
X187791284Y-90191119D02*
X187886522Y-90191119D01*
X188219856Y-90191119D02*
X188219856Y-89524452D01*
X188219856Y-89714928D02*
X188267475Y-89619690D01*
X188267475Y-89619690D02*
X188315094Y-89572071D01*
X188315094Y-89572071D02*
X188410332Y-89524452D01*
X188410332Y-89524452D02*
X188505570Y-89524452D01*
X188981761Y-90191119D02*
X188886523Y-90143500D01*
X188886523Y-90143500D02*
X188838904Y-90095880D01*
X188838904Y-90095880D02*
X188791285Y-90000642D01*
X188791285Y-90000642D02*
X188791285Y-89714928D01*
X188791285Y-89714928D02*
X188838904Y-89619690D01*
X188838904Y-89619690D02*
X188886523Y-89572071D01*
X188886523Y-89572071D02*
X188981761Y-89524452D01*
X188981761Y-89524452D02*
X189124618Y-89524452D01*
X189124618Y-89524452D02*
X189219856Y-89572071D01*
X189219856Y-89572071D02*
X189267475Y-89619690D01*
X189267475Y-89619690D02*
X189315094Y-89714928D01*
X189315094Y-89714928D02*
X189315094Y-90000642D01*
X189315094Y-90000642D02*
X189267475Y-90095880D01*
X189267475Y-90095880D02*
X189219856Y-90143500D01*
X189219856Y-90143500D02*
X189124618Y-90191119D01*
X189124618Y-90191119D02*
X188981761Y-90191119D01*
X190981761Y-90191119D02*
X190505571Y-90191119D01*
X190505571Y-90191119D02*
X190505571Y-89191119D01*
X191743666Y-90191119D02*
X191743666Y-89667309D01*
X191743666Y-89667309D02*
X191696047Y-89572071D01*
X191696047Y-89572071D02*
X191600809Y-89524452D01*
X191600809Y-89524452D02*
X191410333Y-89524452D01*
X191410333Y-89524452D02*
X191315095Y-89572071D01*
X191743666Y-90143500D02*
X191648428Y-90191119D01*
X191648428Y-90191119D02*
X191410333Y-90191119D01*
X191410333Y-90191119D02*
X191315095Y-90143500D01*
X191315095Y-90143500D02*
X191267476Y-90048261D01*
X191267476Y-90048261D02*
X191267476Y-89953023D01*
X191267476Y-89953023D02*
X191315095Y-89857785D01*
X191315095Y-89857785D02*
X191410333Y-89810166D01*
X191410333Y-89810166D02*
X191648428Y-89810166D01*
X191648428Y-89810166D02*
X191743666Y-89762547D01*
X192648428Y-89524452D02*
X192648428Y-90333976D01*
X192648428Y-90333976D02*
X192600809Y-90429214D01*
X192600809Y-90429214D02*
X192553190Y-90476833D01*
X192553190Y-90476833D02*
X192457952Y-90524452D01*
X192457952Y-90524452D02*
X192315095Y-90524452D01*
X192315095Y-90524452D02*
X192219857Y-90476833D01*
X192648428Y-90143500D02*
X192553190Y-90191119D01*
X192553190Y-90191119D02*
X192362714Y-90191119D01*
X192362714Y-90191119D02*
X192267476Y-90143500D01*
X192267476Y-90143500D02*
X192219857Y-90095880D01*
X192219857Y-90095880D02*
X192172238Y-90000642D01*
X192172238Y-90000642D02*
X192172238Y-89714928D01*
X192172238Y-89714928D02*
X192219857Y-89619690D01*
X192219857Y-89619690D02*
X192267476Y-89572071D01*
X192267476Y-89572071D02*
X192362714Y-89524452D01*
X192362714Y-89524452D02*
X192553190Y-89524452D01*
X192553190Y-89524452D02*
X192648428Y-89572071D01*
X193267476Y-90191119D02*
X193172238Y-90143500D01*
X193172238Y-90143500D02*
X193124619Y-90095880D01*
X193124619Y-90095880D02*
X193077000Y-90000642D01*
X193077000Y-90000642D02*
X193077000Y-89714928D01*
X193077000Y-89714928D02*
X193124619Y-89619690D01*
X193124619Y-89619690D02*
X193172238Y-89572071D01*
X193172238Y-89572071D02*
X193267476Y-89524452D01*
X193267476Y-89524452D02*
X193410333Y-89524452D01*
X193410333Y-89524452D02*
X193505571Y-89572071D01*
X193505571Y-89572071D02*
X193553190Y-89619690D01*
X193553190Y-89619690D02*
X193600809Y-89714928D01*
X193600809Y-89714928D02*
X193600809Y-90000642D01*
X193600809Y-90000642D02*
X193553190Y-90095880D01*
X193553190Y-90095880D02*
X193505571Y-90143500D01*
X193505571Y-90143500D02*
X193410333Y-90191119D01*
X193410333Y-90191119D02*
X193267476Y-90191119D01*
X193981762Y-90143500D02*
X194077000Y-90191119D01*
X194077000Y-90191119D02*
X194267476Y-90191119D01*
X194267476Y-90191119D02*
X194362714Y-90143500D01*
X194362714Y-90143500D02*
X194410333Y-90048261D01*
X194410333Y-90048261D02*
X194410333Y-90000642D01*
X194410333Y-90000642D02*
X194362714Y-89905404D01*
X194362714Y-89905404D02*
X194267476Y-89857785D01*
X194267476Y-89857785D02*
X194124619Y-89857785D01*
X194124619Y-89857785D02*
X194029381Y-89810166D01*
X194029381Y-89810166D02*
X193981762Y-89714928D01*
X193981762Y-89714928D02*
X193981762Y-89667309D01*
X193981762Y-89667309D02*
X194029381Y-89572071D01*
X194029381Y-89572071D02*
X194124619Y-89524452D01*
X194124619Y-89524452D02*
X194267476Y-89524452D01*
X194267476Y-89524452D02*
X194362714Y-89572071D01*
D11*
X208147142Y-73194819D02*
X207813809Y-72718628D01*
X207575714Y-73194819D02*
X207575714Y-72194819D01*
X207575714Y-72194819D02*
X207956666Y-72194819D01*
X207956666Y-72194819D02*
X208051904Y-72242438D01*
X208051904Y-72242438D02*
X208099523Y-72290057D01*
X208099523Y-72290057D02*
X208147142Y-72385295D01*
X208147142Y-72385295D02*
X208147142Y-72528152D01*
X208147142Y-72528152D02*
X208099523Y-72623390D01*
X208099523Y-72623390D02*
X208051904Y-72671009D01*
X208051904Y-72671009D02*
X207956666Y-72718628D01*
X207956666Y-72718628D02*
X207575714Y-72718628D01*
X209099523Y-73194819D02*
X208528095Y-73194819D01*
X208813809Y-73194819D02*
X208813809Y-72194819D01*
X208813809Y-72194819D02*
X208718571Y-72337676D01*
X208718571Y-72337676D02*
X208623333Y-72432914D01*
X208623333Y-72432914D02*
X208528095Y-72480533D01*
X209718571Y-72194819D02*
X209813809Y-72194819D01*
X209813809Y-72194819D02*
X209909047Y-72242438D01*
X209909047Y-72242438D02*
X209956666Y-72290057D01*
X209956666Y-72290057D02*
X210004285Y-72385295D01*
X210004285Y-72385295D02*
X210051904Y-72575771D01*
X210051904Y-72575771D02*
X210051904Y-72813866D01*
X210051904Y-72813866D02*
X210004285Y-73004342D01*
X210004285Y-73004342D02*
X209956666Y-73099580D01*
X209956666Y-73099580D02*
X209909047Y-73147200D01*
X209909047Y-73147200D02*
X209813809Y-73194819D01*
X209813809Y-73194819D02*
X209718571Y-73194819D01*
X209718571Y-73194819D02*
X209623333Y-73147200D01*
X209623333Y-73147200D02*
X209575714Y-73099580D01*
X209575714Y-73099580D02*
X209528095Y-73004342D01*
X209528095Y-73004342D02*
X209480476Y-72813866D01*
X209480476Y-72813866D02*
X209480476Y-72575771D01*
X209480476Y-72575771D02*
X209528095Y-72385295D01*
X209528095Y-72385295D02*
X209575714Y-72290057D01*
X209575714Y-72290057D02*
X209623333Y-72242438D01*
X209623333Y-72242438D02*
X209718571Y-72194819D01*
X208623333Y-65554819D02*
X208290000Y-65078628D01*
X208051905Y-65554819D02*
X208051905Y-64554819D01*
X208051905Y-64554819D02*
X208432857Y-64554819D01*
X208432857Y-64554819D02*
X208528095Y-64602438D01*
X208528095Y-64602438D02*
X208575714Y-64650057D01*
X208575714Y-64650057D02*
X208623333Y-64745295D01*
X208623333Y-64745295D02*
X208623333Y-64888152D01*
X208623333Y-64888152D02*
X208575714Y-64983390D01*
X208575714Y-64983390D02*
X208528095Y-65031009D01*
X208528095Y-65031009D02*
X208432857Y-65078628D01*
X208432857Y-65078628D02*
X208051905Y-65078628D01*
X209194762Y-64983390D02*
X209099524Y-64935771D01*
X209099524Y-64935771D02*
X209051905Y-64888152D01*
X209051905Y-64888152D02*
X209004286Y-64792914D01*
X209004286Y-64792914D02*
X209004286Y-64745295D01*
X209004286Y-64745295D02*
X209051905Y-64650057D01*
X209051905Y-64650057D02*
X209099524Y-64602438D01*
X209099524Y-64602438D02*
X209194762Y-64554819D01*
X209194762Y-64554819D02*
X209385238Y-64554819D01*
X209385238Y-64554819D02*
X209480476Y-64602438D01*
X209480476Y-64602438D02*
X209528095Y-64650057D01*
X209528095Y-64650057D02*
X209575714Y-64745295D01*
X209575714Y-64745295D02*
X209575714Y-64792914D01*
X209575714Y-64792914D02*
X209528095Y-64888152D01*
X209528095Y-64888152D02*
X209480476Y-64935771D01*
X209480476Y-64935771D02*
X209385238Y-64983390D01*
X209385238Y-64983390D02*
X209194762Y-64983390D01*
X209194762Y-64983390D02*
X209099524Y-65031009D01*
X209099524Y-65031009D02*
X209051905Y-65078628D01*
X209051905Y-65078628D02*
X209004286Y-65173866D01*
X209004286Y-65173866D02*
X209004286Y-65364342D01*
X209004286Y-65364342D02*
X209051905Y-65459580D01*
X209051905Y-65459580D02*
X209099524Y-65507200D01*
X209099524Y-65507200D02*
X209194762Y-65554819D01*
X209194762Y-65554819D02*
X209385238Y-65554819D01*
X209385238Y-65554819D02*
X209480476Y-65507200D01*
X209480476Y-65507200D02*
X209528095Y-65459580D01*
X209528095Y-65459580D02*
X209575714Y-65364342D01*
X209575714Y-65364342D02*
X209575714Y-65173866D01*
X209575714Y-65173866D02*
X209528095Y-65078628D01*
X209528095Y-65078628D02*
X209480476Y-65031009D01*
X209480476Y-65031009D02*
X209385238Y-64983390D01*
X208147142Y-77014819D02*
X207813809Y-76538628D01*
X207575714Y-77014819D02*
X207575714Y-76014819D01*
X207575714Y-76014819D02*
X207956666Y-76014819D01*
X207956666Y-76014819D02*
X208051904Y-76062438D01*
X208051904Y-76062438D02*
X208099523Y-76110057D01*
X208099523Y-76110057D02*
X208147142Y-76205295D01*
X208147142Y-76205295D02*
X208147142Y-76348152D01*
X208147142Y-76348152D02*
X208099523Y-76443390D01*
X208099523Y-76443390D02*
X208051904Y-76491009D01*
X208051904Y-76491009D02*
X207956666Y-76538628D01*
X207956666Y-76538628D02*
X207575714Y-76538628D01*
X209099523Y-77014819D02*
X208528095Y-77014819D01*
X208813809Y-77014819D02*
X208813809Y-76014819D01*
X208813809Y-76014819D02*
X208718571Y-76157676D01*
X208718571Y-76157676D02*
X208623333Y-76252914D01*
X208623333Y-76252914D02*
X208528095Y-76300533D01*
X210051904Y-77014819D02*
X209480476Y-77014819D01*
X209766190Y-77014819D02*
X209766190Y-76014819D01*
X209766190Y-76014819D02*
X209670952Y-76157676D01*
X209670952Y-76157676D02*
X209575714Y-76252914D01*
X209575714Y-76252914D02*
X209480476Y-76300533D01*
X188595595Y-77899819D02*
X188595595Y-78709342D01*
X188595595Y-78709342D02*
X188643214Y-78804580D01*
X188643214Y-78804580D02*
X188690833Y-78852200D01*
X188690833Y-78852200D02*
X188786071Y-78899819D01*
X188786071Y-78899819D02*
X188976547Y-78899819D01*
X188976547Y-78899819D02*
X189071785Y-78852200D01*
X189071785Y-78852200D02*
X189119404Y-78804580D01*
X189119404Y-78804580D02*
X189167023Y-78709342D01*
X189167023Y-78709342D02*
X189167023Y-77899819D01*
X190167023Y-78899819D02*
X189595595Y-78899819D01*
X189881309Y-78899819D02*
X189881309Y-77899819D01*
X189881309Y-77899819D02*
X189786071Y-78042676D01*
X189786071Y-78042676D02*
X189690833Y-78137914D01*
X189690833Y-78137914D02*
X189595595Y-78185533D01*
X189064819Y-82566666D02*
X188588628Y-82899999D01*
X189064819Y-83138094D02*
X188064819Y-83138094D01*
X188064819Y-83138094D02*
X188064819Y-82757142D01*
X188064819Y-82757142D02*
X188112438Y-82661904D01*
X188112438Y-82661904D02*
X188160057Y-82614285D01*
X188160057Y-82614285D02*
X188255295Y-82566666D01*
X188255295Y-82566666D02*
X188398152Y-82566666D01*
X188398152Y-82566666D02*
X188493390Y-82614285D01*
X188493390Y-82614285D02*
X188541009Y-82661904D01*
X188541009Y-82661904D02*
X188588628Y-82757142D01*
X188588628Y-82757142D02*
X188588628Y-83138094D01*
X188398152Y-81709523D02*
X189064819Y-81709523D01*
X188017200Y-81947618D02*
X188731485Y-82185713D01*
X188731485Y-82185713D02*
X188731485Y-81566666D01*
X192694819Y-82566666D02*
X192218628Y-82899999D01*
X192694819Y-83138094D02*
X191694819Y-83138094D01*
X191694819Y-83138094D02*
X191694819Y-82757142D01*
X191694819Y-82757142D02*
X191742438Y-82661904D01*
X191742438Y-82661904D02*
X191790057Y-82614285D01*
X191790057Y-82614285D02*
X191885295Y-82566666D01*
X191885295Y-82566666D02*
X192028152Y-82566666D01*
X192028152Y-82566666D02*
X192123390Y-82614285D01*
X192123390Y-82614285D02*
X192171009Y-82661904D01*
X192171009Y-82661904D02*
X192218628Y-82757142D01*
X192218628Y-82757142D02*
X192218628Y-83138094D01*
X191694819Y-81709523D02*
X191694819Y-81899999D01*
X191694819Y-81899999D02*
X191742438Y-81995237D01*
X191742438Y-81995237D02*
X191790057Y-82042856D01*
X191790057Y-82042856D02*
X191932914Y-82138094D01*
X191932914Y-82138094D02*
X192123390Y-82185713D01*
X192123390Y-82185713D02*
X192504342Y-82185713D01*
X192504342Y-82185713D02*
X192599580Y-82138094D01*
X192599580Y-82138094D02*
X192647200Y-82090475D01*
X192647200Y-82090475D02*
X192694819Y-81995237D01*
X192694819Y-81995237D02*
X192694819Y-81804761D01*
X192694819Y-81804761D02*
X192647200Y-81709523D01*
X192647200Y-81709523D02*
X192599580Y-81661904D01*
X192599580Y-81661904D02*
X192504342Y-81614285D01*
X192504342Y-81614285D02*
X192266247Y-81614285D01*
X192266247Y-81614285D02*
X192171009Y-81661904D01*
X192171009Y-81661904D02*
X192123390Y-81709523D01*
X192123390Y-81709523D02*
X192075771Y-81804761D01*
X192075771Y-81804761D02*
X192075771Y-81995237D01*
X192075771Y-81995237D02*
X192123390Y-82090475D01*
X192123390Y-82090475D02*
X192171009Y-82138094D01*
X192171009Y-82138094D02*
X192266247Y-82185713D01*
X208147142Y-84654819D02*
X207813809Y-84178628D01*
X207575714Y-84654819D02*
X207575714Y-83654819D01*
X207575714Y-83654819D02*
X207956666Y-83654819D01*
X207956666Y-83654819D02*
X208051904Y-83702438D01*
X208051904Y-83702438D02*
X208099523Y-83750057D01*
X208099523Y-83750057D02*
X208147142Y-83845295D01*
X208147142Y-83845295D02*
X208147142Y-83988152D01*
X208147142Y-83988152D02*
X208099523Y-84083390D01*
X208099523Y-84083390D02*
X208051904Y-84131009D01*
X208051904Y-84131009D02*
X207956666Y-84178628D01*
X207956666Y-84178628D02*
X207575714Y-84178628D01*
X209099523Y-84654819D02*
X208528095Y-84654819D01*
X208813809Y-84654819D02*
X208813809Y-83654819D01*
X208813809Y-83654819D02*
X208718571Y-83797676D01*
X208718571Y-83797676D02*
X208623333Y-83892914D01*
X208623333Y-83892914D02*
X208528095Y-83940533D01*
X209432857Y-83654819D02*
X210051904Y-83654819D01*
X210051904Y-83654819D02*
X209718571Y-84035771D01*
X209718571Y-84035771D02*
X209861428Y-84035771D01*
X209861428Y-84035771D02*
X209956666Y-84083390D01*
X209956666Y-84083390D02*
X210004285Y-84131009D01*
X210004285Y-84131009D02*
X210051904Y-84226247D01*
X210051904Y-84226247D02*
X210051904Y-84464342D01*
X210051904Y-84464342D02*
X210004285Y-84559580D01*
X210004285Y-84559580D02*
X209956666Y-84607200D01*
X209956666Y-84607200D02*
X209861428Y-84654819D01*
X209861428Y-84654819D02*
X209575714Y-84654819D01*
X209575714Y-84654819D02*
X209480476Y-84607200D01*
X209480476Y-84607200D02*
X209432857Y-84559580D01*
X208623333Y-69374819D02*
X208290000Y-68898628D01*
X208051905Y-69374819D02*
X208051905Y-68374819D01*
X208051905Y-68374819D02*
X208432857Y-68374819D01*
X208432857Y-68374819D02*
X208528095Y-68422438D01*
X208528095Y-68422438D02*
X208575714Y-68470057D01*
X208575714Y-68470057D02*
X208623333Y-68565295D01*
X208623333Y-68565295D02*
X208623333Y-68708152D01*
X208623333Y-68708152D02*
X208575714Y-68803390D01*
X208575714Y-68803390D02*
X208528095Y-68851009D01*
X208528095Y-68851009D02*
X208432857Y-68898628D01*
X208432857Y-68898628D02*
X208051905Y-68898628D01*
X209099524Y-69374819D02*
X209290000Y-69374819D01*
X209290000Y-69374819D02*
X209385238Y-69327200D01*
X209385238Y-69327200D02*
X209432857Y-69279580D01*
X209432857Y-69279580D02*
X209528095Y-69136723D01*
X209528095Y-69136723D02*
X209575714Y-68946247D01*
X209575714Y-68946247D02*
X209575714Y-68565295D01*
X209575714Y-68565295D02*
X209528095Y-68470057D01*
X209528095Y-68470057D02*
X209480476Y-68422438D01*
X209480476Y-68422438D02*
X209385238Y-68374819D01*
X209385238Y-68374819D02*
X209194762Y-68374819D01*
X209194762Y-68374819D02*
X209099524Y-68422438D01*
X209099524Y-68422438D02*
X209051905Y-68470057D01*
X209051905Y-68470057D02*
X209004286Y-68565295D01*
X209004286Y-68565295D02*
X209004286Y-68803390D01*
X209004286Y-68803390D02*
X209051905Y-68898628D01*
X209051905Y-68898628D02*
X209099524Y-68946247D01*
X209099524Y-68946247D02*
X209194762Y-68993866D01*
X209194762Y-68993866D02*
X209385238Y-68993866D01*
X209385238Y-68993866D02*
X209480476Y-68946247D01*
X209480476Y-68946247D02*
X209528095Y-68898628D01*
X209528095Y-68898628D02*
X209575714Y-68803390D01*
X208147142Y-80834819D02*
X207813809Y-80358628D01*
X207575714Y-80834819D02*
X207575714Y-79834819D01*
X207575714Y-79834819D02*
X207956666Y-79834819D01*
X207956666Y-79834819D02*
X208051904Y-79882438D01*
X208051904Y-79882438D02*
X208099523Y-79930057D01*
X208099523Y-79930057D02*
X208147142Y-80025295D01*
X208147142Y-80025295D02*
X208147142Y-80168152D01*
X208147142Y-80168152D02*
X208099523Y-80263390D01*
X208099523Y-80263390D02*
X208051904Y-80311009D01*
X208051904Y-80311009D02*
X207956666Y-80358628D01*
X207956666Y-80358628D02*
X207575714Y-80358628D01*
X209099523Y-80834819D02*
X208528095Y-80834819D01*
X208813809Y-80834819D02*
X208813809Y-79834819D01*
X208813809Y-79834819D02*
X208718571Y-79977676D01*
X208718571Y-79977676D02*
X208623333Y-80072914D01*
X208623333Y-80072914D02*
X208528095Y-80120533D01*
X209480476Y-79930057D02*
X209528095Y-79882438D01*
X209528095Y-79882438D02*
X209623333Y-79834819D01*
X209623333Y-79834819D02*
X209861428Y-79834819D01*
X209861428Y-79834819D02*
X209956666Y-79882438D01*
X209956666Y-79882438D02*
X210004285Y-79930057D01*
X210004285Y-79930057D02*
X210051904Y-80025295D01*
X210051904Y-80025295D02*
X210051904Y-80120533D01*
X210051904Y-80120533D02*
X210004285Y-80263390D01*
X210004285Y-80263390D02*
X209432857Y-80834819D01*
X209432857Y-80834819D02*
X210051904Y-80834819D01*
X181343333Y-70784819D02*
X181010000Y-70308628D01*
X180771905Y-70784819D02*
X180771905Y-69784819D01*
X180771905Y-69784819D02*
X181152857Y-69784819D01*
X181152857Y-69784819D02*
X181248095Y-69832438D01*
X181248095Y-69832438D02*
X181295714Y-69880057D01*
X181295714Y-69880057D02*
X181343333Y-69975295D01*
X181343333Y-69975295D02*
X181343333Y-70118152D01*
X181343333Y-70118152D02*
X181295714Y-70213390D01*
X181295714Y-70213390D02*
X181248095Y-70261009D01*
X181248095Y-70261009D02*
X181152857Y-70308628D01*
X181152857Y-70308628D02*
X180771905Y-70308628D01*
X182295714Y-70784819D02*
X181724286Y-70784819D01*
X182010000Y-70784819D02*
X182010000Y-69784819D01*
X182010000Y-69784819D02*
X181914762Y-69927676D01*
X181914762Y-69927676D02*
X181819524Y-70022914D01*
X181819524Y-70022914D02*
X181724286Y-70070533D01*
X193479580Y-66146666D02*
X193527200Y-66194285D01*
X193527200Y-66194285D02*
X193574819Y-66337142D01*
X193574819Y-66337142D02*
X193574819Y-66432380D01*
X193574819Y-66432380D02*
X193527200Y-66575237D01*
X193527200Y-66575237D02*
X193431961Y-66670475D01*
X193431961Y-66670475D02*
X193336723Y-66718094D01*
X193336723Y-66718094D02*
X193146247Y-66765713D01*
X193146247Y-66765713D02*
X193003390Y-66765713D01*
X193003390Y-66765713D02*
X192812914Y-66718094D01*
X192812914Y-66718094D02*
X192717676Y-66670475D01*
X192717676Y-66670475D02*
X192622438Y-66575237D01*
X192622438Y-66575237D02*
X192574819Y-66432380D01*
X192574819Y-66432380D02*
X192574819Y-66337142D01*
X192574819Y-66337142D02*
X192622438Y-66194285D01*
X192622438Y-66194285D02*
X192670057Y-66146666D01*
X193574819Y-65194285D02*
X193574819Y-65765713D01*
X193574819Y-65479999D02*
X192574819Y-65479999D01*
X192574819Y-65479999D02*
X192717676Y-65575237D01*
X192717676Y-65575237D02*
X192812914Y-65670475D01*
X192812914Y-65670475D02*
X192860533Y-65765713D01*
X196374819Y-82586666D02*
X195898628Y-82919999D01*
X196374819Y-83158094D02*
X195374819Y-83158094D01*
X195374819Y-83158094D02*
X195374819Y-82777142D01*
X195374819Y-82777142D02*
X195422438Y-82681904D01*
X195422438Y-82681904D02*
X195470057Y-82634285D01*
X195470057Y-82634285D02*
X195565295Y-82586666D01*
X195565295Y-82586666D02*
X195708152Y-82586666D01*
X195708152Y-82586666D02*
X195803390Y-82634285D01*
X195803390Y-82634285D02*
X195851009Y-82681904D01*
X195851009Y-82681904D02*
X195898628Y-82777142D01*
X195898628Y-82777142D02*
X195898628Y-83158094D01*
X195374819Y-81681904D02*
X195374819Y-82158094D01*
X195374819Y-82158094D02*
X195851009Y-82205713D01*
X195851009Y-82205713D02*
X195803390Y-82158094D01*
X195803390Y-82158094D02*
X195755771Y-82062856D01*
X195755771Y-82062856D02*
X195755771Y-81824761D01*
X195755771Y-81824761D02*
X195803390Y-81729523D01*
X195803390Y-81729523D02*
X195851009Y-81681904D01*
X195851009Y-81681904D02*
X195946247Y-81634285D01*
X195946247Y-81634285D02*
X196184342Y-81634285D01*
X196184342Y-81634285D02*
X196279580Y-81681904D01*
X196279580Y-81681904D02*
X196327200Y-81729523D01*
X196327200Y-81729523D02*
X196374819Y-81824761D01*
X196374819Y-81824761D02*
X196374819Y-82062856D01*
X196374819Y-82062856D02*
X196327200Y-82158094D01*
X196327200Y-82158094D02*
X196279580Y-82205713D01*
X202796666Y-61814819D02*
X202796666Y-62529104D01*
X202796666Y-62529104D02*
X202749047Y-62671961D01*
X202749047Y-62671961D02*
X202653809Y-62767200D01*
X202653809Y-62767200D02*
X202510952Y-62814819D01*
X202510952Y-62814819D02*
X202415714Y-62814819D01*
X203796666Y-62814819D02*
X203225238Y-62814819D01*
X203510952Y-62814819D02*
X203510952Y-61814819D01*
X203510952Y-61814819D02*
X203415714Y-61957676D01*
X203415714Y-61957676D02*
X203320476Y-62052914D01*
X203320476Y-62052914D02*
X203225238Y-62100533D01*
X208623333Y-61734819D02*
X208290000Y-61258628D01*
X208051905Y-61734819D02*
X208051905Y-60734819D01*
X208051905Y-60734819D02*
X208432857Y-60734819D01*
X208432857Y-60734819D02*
X208528095Y-60782438D01*
X208528095Y-60782438D02*
X208575714Y-60830057D01*
X208575714Y-60830057D02*
X208623333Y-60925295D01*
X208623333Y-60925295D02*
X208623333Y-61068152D01*
X208623333Y-61068152D02*
X208575714Y-61163390D01*
X208575714Y-61163390D02*
X208528095Y-61211009D01*
X208528095Y-61211009D02*
X208432857Y-61258628D01*
X208432857Y-61258628D02*
X208051905Y-61258628D01*
X208956667Y-60734819D02*
X209623333Y-60734819D01*
X209623333Y-60734819D02*
X209194762Y-61734819D01*
X189694819Y-66116666D02*
X189218628Y-66449999D01*
X189694819Y-66688094D02*
X188694819Y-66688094D01*
X188694819Y-66688094D02*
X188694819Y-66307142D01*
X188694819Y-66307142D02*
X188742438Y-66211904D01*
X188742438Y-66211904D02*
X188790057Y-66164285D01*
X188790057Y-66164285D02*
X188885295Y-66116666D01*
X188885295Y-66116666D02*
X189028152Y-66116666D01*
X189028152Y-66116666D02*
X189123390Y-66164285D01*
X189123390Y-66164285D02*
X189171009Y-66211904D01*
X189171009Y-66211904D02*
X189218628Y-66307142D01*
X189218628Y-66307142D02*
X189218628Y-66688094D01*
X188694819Y-65783332D02*
X188694819Y-65164285D01*
X188694819Y-65164285D02*
X189075771Y-65497618D01*
X189075771Y-65497618D02*
X189075771Y-65354761D01*
X189075771Y-65354761D02*
X189123390Y-65259523D01*
X189123390Y-65259523D02*
X189171009Y-65211904D01*
X189171009Y-65211904D02*
X189266247Y-65164285D01*
X189266247Y-65164285D02*
X189504342Y-65164285D01*
X189504342Y-65164285D02*
X189599580Y-65211904D01*
X189599580Y-65211904D02*
X189647200Y-65259523D01*
X189647200Y-65259523D02*
X189694819Y-65354761D01*
X189694819Y-65354761D02*
X189694819Y-65640475D01*
X189694819Y-65640475D02*
X189647200Y-65735713D01*
X189647200Y-65735713D02*
X189599580Y-65783332D01*
X181343333Y-74574819D02*
X181010000Y-74098628D01*
X180771905Y-74574819D02*
X180771905Y-73574819D01*
X180771905Y-73574819D02*
X181152857Y-73574819D01*
X181152857Y-73574819D02*
X181248095Y-73622438D01*
X181248095Y-73622438D02*
X181295714Y-73670057D01*
X181295714Y-73670057D02*
X181343333Y-73765295D01*
X181343333Y-73765295D02*
X181343333Y-73908152D01*
X181343333Y-73908152D02*
X181295714Y-74003390D01*
X181295714Y-74003390D02*
X181248095Y-74051009D01*
X181248095Y-74051009D02*
X181152857Y-74098628D01*
X181152857Y-74098628D02*
X180771905Y-74098628D01*
X181724286Y-73670057D02*
X181771905Y-73622438D01*
X181771905Y-73622438D02*
X181867143Y-73574819D01*
X181867143Y-73574819D02*
X182105238Y-73574819D01*
X182105238Y-73574819D02*
X182200476Y-73622438D01*
X182200476Y-73622438D02*
X182248095Y-73670057D01*
X182248095Y-73670057D02*
X182295714Y-73765295D01*
X182295714Y-73765295D02*
X182295714Y-73860533D01*
X182295714Y-73860533D02*
X182248095Y-74003390D01*
X182248095Y-74003390D02*
X181676667Y-74574819D01*
X181676667Y-74574819D02*
X182295714Y-74574819D01*
X208147142Y-88474819D02*
X207813809Y-87998628D01*
X207575714Y-88474819D02*
X207575714Y-87474819D01*
X207575714Y-87474819D02*
X207956666Y-87474819D01*
X207956666Y-87474819D02*
X208051904Y-87522438D01*
X208051904Y-87522438D02*
X208099523Y-87570057D01*
X208099523Y-87570057D02*
X208147142Y-87665295D01*
X208147142Y-87665295D02*
X208147142Y-87808152D01*
X208147142Y-87808152D02*
X208099523Y-87903390D01*
X208099523Y-87903390D02*
X208051904Y-87951009D01*
X208051904Y-87951009D02*
X207956666Y-87998628D01*
X207956666Y-87998628D02*
X207575714Y-87998628D01*
X209099523Y-88474819D02*
X208528095Y-88474819D01*
X208813809Y-88474819D02*
X208813809Y-87474819D01*
X208813809Y-87474819D02*
X208718571Y-87617676D01*
X208718571Y-87617676D02*
X208623333Y-87712914D01*
X208623333Y-87712914D02*
X208528095Y-87760533D01*
X209956666Y-87808152D02*
X209956666Y-88474819D01*
X209718571Y-87427200D02*
X209480476Y-88141485D01*
X209480476Y-88141485D02*
X210099523Y-88141485D01*
X195084819Y-59163333D02*
X195799104Y-59163333D01*
X195799104Y-59163333D02*
X195941961Y-59210952D01*
X195941961Y-59210952D02*
X196037200Y-59306190D01*
X196037200Y-59306190D02*
X196084819Y-59449047D01*
X196084819Y-59449047D02*
X196084819Y-59544285D01*
X195180057Y-58734761D02*
X195132438Y-58687142D01*
X195132438Y-58687142D02*
X195084819Y-58591904D01*
X195084819Y-58591904D02*
X195084819Y-58353809D01*
X195084819Y-58353809D02*
X195132438Y-58258571D01*
X195132438Y-58258571D02*
X195180057Y-58210952D01*
X195180057Y-58210952D02*
X195275295Y-58163333D01*
X195275295Y-58163333D02*
X195370533Y-58163333D01*
X195370533Y-58163333D02*
X195513390Y-58210952D01*
X195513390Y-58210952D02*
X196084819Y-58782380D01*
X196084819Y-58782380D02*
X196084819Y-58163333D01*
X198848095Y-55204819D02*
X198848095Y-54204819D01*
X198848095Y-54681009D02*
X199419523Y-54681009D01*
X199419523Y-55204819D02*
X199419523Y-54204819D01*
X200419523Y-55204819D02*
X199848095Y-55204819D01*
X200133809Y-55204819D02*
X200133809Y-54204819D01*
X200133809Y-54204819D02*
X200038571Y-54347676D01*
X200038571Y-54347676D02*
X199943333Y-54442914D01*
X199943333Y-54442914D02*
X199848095Y-54490533D01*
X198848095Y-84734819D02*
X198848095Y-83734819D01*
X198848095Y-84211009D02*
X199419523Y-84211009D01*
X199419523Y-84734819D02*
X199419523Y-83734819D01*
X199848095Y-83830057D02*
X199895714Y-83782438D01*
X199895714Y-83782438D02*
X199990952Y-83734819D01*
X199990952Y-83734819D02*
X200229047Y-83734819D01*
X200229047Y-83734819D02*
X200324285Y-83782438D01*
X200324285Y-83782438D02*
X200371904Y-83830057D01*
X200371904Y-83830057D02*
X200419523Y-83925295D01*
X200419523Y-83925295D02*
X200419523Y-84020533D01*
X200419523Y-84020533D02*
X200371904Y-84163390D01*
X200371904Y-84163390D02*
X199800476Y-84734819D01*
X199800476Y-84734819D02*
X200419523Y-84734819D01*
D12*
%TO.C,R10*%
X209517064Y-70000000D02*
X208062936Y-70000000D01*
X209517064Y-71820000D02*
X208062936Y-71820000D01*
%TO.C,R8*%
X209517064Y-62360000D02*
X208062936Y-62360000D01*
X209517064Y-64180000D02*
X208062936Y-64180000D01*
%TO.C,R11*%
X209517064Y-73820000D02*
X208062936Y-73820000D01*
X209517064Y-75640000D02*
X208062936Y-75640000D01*
%TO.C,U1*%
X187047500Y-69560000D02*
X191667500Y-69560000D01*
X191667500Y-77630000D02*
X187047500Y-77630000D01*
X193547500Y-77415000D02*
X193217500Y-77175000D01*
X193547500Y-76935000D01*
X193547500Y-77415000D01*
G36*
X193547500Y-77415000D02*
G01*
X193217500Y-77175000D01*
X193547500Y-76935000D01*
X193547500Y-77415000D01*
G37*
%TO.C,R4*%
X185870000Y-81672936D02*
X185870000Y-83127064D01*
X187690000Y-81672936D02*
X187690000Y-83127064D01*
%TO.C,R6*%
X189500000Y-81672936D02*
X189500000Y-83127064D01*
X191320000Y-81672936D02*
X191320000Y-83127064D01*
%TO.C,R13*%
X209517064Y-81460000D02*
X208062936Y-81460000D01*
X209517064Y-83280000D02*
X208062936Y-83280000D01*
%TO.C,R9*%
X209517064Y-66180000D02*
X208062936Y-66180000D01*
X209517064Y-68000000D02*
X208062936Y-68000000D01*
%TO.C,R12*%
X209517064Y-77640000D02*
X208062936Y-77640000D01*
X209517064Y-79460000D02*
X208062936Y-79460000D01*
%TO.C,R1*%
X180782936Y-71250000D02*
X182237064Y-71250000D01*
X180782936Y-73070000D02*
X182237064Y-73070000D01*
%TO.C,C1*%
X190360000Y-65268748D02*
X190360000Y-66691252D01*
X192180000Y-65268748D02*
X192180000Y-66691252D01*
%TO.C,R5*%
X193180000Y-81692936D02*
X193180000Y-83147064D01*
X195000000Y-81692936D02*
X195000000Y-83147064D01*
%TO.C,J1*%
X201750000Y-63360000D02*
X203130000Y-63360000D01*
X201750000Y-64740000D02*
X201750000Y-63360000D01*
X201750000Y-66010000D02*
X201750000Y-83900000D01*
X201750000Y-66010000D02*
X204510000Y-66010000D01*
X201750000Y-83900000D02*
X204510000Y-83900000D01*
X204510000Y-66010000D02*
X204510000Y-83900000D01*
%TO.C,R7*%
X209517064Y-58540000D02*
X208062936Y-58540000D01*
X209517064Y-60360000D02*
X208062936Y-60360000D01*
%TO.C,R3*%
X186500000Y-65222936D02*
X186500000Y-66677064D01*
X188320000Y-65222936D02*
X188320000Y-66677064D01*
%TO.C,R2*%
X180782936Y-75040000D02*
X182237064Y-75040000D01*
X180782936Y-76860000D02*
X182237064Y-76860000D01*
%TO.C,R14*%
X209517064Y-85280000D02*
X208062936Y-85280000D01*
X209517064Y-87100000D02*
X208062936Y-87100000D01*
%TO.C,J2*%
X184250000Y-57450000D02*
X184250000Y-60210000D01*
X191980000Y-57450000D02*
X184250000Y-57450000D01*
X191980000Y-57450000D02*
X191980000Y-60210000D01*
X191980000Y-60210000D02*
X184250000Y-60210000D01*
X193250000Y-57450000D02*
X194630000Y-57450000D01*
X194630000Y-57450000D02*
X194630000Y-58830000D01*
%TD*%
M02*
