%TF.GenerationSoftware,KiCad,Pcbnew,9.0.6*%
%TF.CreationDate,2026-01-27T05:52:51-03:00*%
%TF.ProjectId,evasion_sensor,65766173-696f-46e5-9f73-656e736f722e,rev?*%
%TF.SameCoordinates,Original*%
%TF.FileFunction,Drillmap*%
%TF.FilePolarity,Positive*%
%FSLAX45Y45*%
G04 Gerber Fmt 4.5, Leading zero omitted, Abs format (unit mm)*
G04 Created by KiCad (PCBNEW 9.0.6) date 2026-01-27 05:52:51*
%MOMM*%
%LPD*%
G01*
G04 APERTURE LIST*
%ADD10C,0.050000*%
%ADD11C,0.200000*%
%ADD12C,0.100000*%
%ADD13C,0.320000*%
G04 APERTURE END LIST*
D10*
X17622000Y-5432000D02*
G75*
G02*
X17722000Y-5332000I100000J0D01*
G01*
X17722000Y-9264000D02*
G75*
G02*
X17622000Y-9164000I0J100000D01*
G01*
X21300000Y-5332000D02*
G75*
G02*
X21400000Y-5432000I0J-100000D01*
G01*
X21400000Y-9164000D02*
G75*
G02*
X21300000Y-9264000I-100000J0D01*
G01*
X17722000Y-5332000D02*
X21300000Y-5332000D01*
X17622000Y-9164000D02*
X17622000Y-5432000D01*
X21300000Y-9264000D02*
X17722000Y-9264000D01*
X21400000Y-5432000D02*
X21400000Y-9164000D01*
D11*
D12*
X18475000Y-6789000D02*
X18505000Y-6819000D01*
X18505000Y-6789000D02*
X18475000Y-6819000D01*
X18745000Y-8646000D02*
X18775000Y-8676000D01*
X18775000Y-8646000D02*
X18745000Y-8676000D01*
X19111000Y-8646000D02*
X19141000Y-8676000D01*
X19141000Y-8646000D02*
X19111000Y-8676000D01*
X19438500Y-6891500D02*
X19468500Y-6921500D01*
X19468500Y-6891500D02*
X19438500Y-6921500D01*
X19460000Y-8646000D02*
X19490000Y-8676000D01*
X19490000Y-8646000D02*
X19460000Y-8676000D01*
X19517000Y-7769000D02*
X19547000Y-7799000D01*
X19547000Y-7769000D02*
X19517000Y-7799000D01*
X18613000Y-5883000D02*
G75*
G02*
X18513000Y-5883000I-50000J0D01*
G01*
X18513000Y-5883000D02*
G75*
G02*
X18613000Y-5883000I50000J0D01*
G01*
X18867000Y-5883000D02*
G75*
G02*
X18767000Y-5883000I-50000J0D01*
G01*
X18767000Y-5883000D02*
G75*
G02*
X18867000Y-5883000I50000J0D01*
G01*
X19121000Y-5883000D02*
G75*
G02*
X19021000Y-5883000I-50000J0D01*
G01*
X19021000Y-5883000D02*
G75*
G02*
X19121000Y-5883000I50000J0D01*
G01*
X19375000Y-5883000D02*
G75*
G02*
X19275000Y-5883000I-50000J0D01*
G01*
X19275000Y-5883000D02*
G75*
G02*
X19375000Y-5883000I50000J0D01*
G01*
X20363000Y-6474000D02*
G75*
G02*
X20263000Y-6474000I-50000J0D01*
G01*
X20263000Y-6474000D02*
G75*
G02*
X20363000Y-6474000I50000J0D01*
G01*
X20363000Y-6728000D02*
G75*
G02*
X20263000Y-6728000I-50000J0D01*
G01*
X20263000Y-6728000D02*
G75*
G02*
X20363000Y-6728000I50000J0D01*
G01*
X20363000Y-6982000D02*
G75*
G02*
X20263000Y-6982000I-50000J0D01*
G01*
X20263000Y-6982000D02*
G75*
G02*
X20363000Y-6982000I50000J0D01*
G01*
X20363000Y-7236000D02*
G75*
G02*
X20263000Y-7236000I-50000J0D01*
G01*
X20263000Y-7236000D02*
G75*
G02*
X20363000Y-7236000I50000J0D01*
G01*
X20363000Y-7490000D02*
G75*
G02*
X20263000Y-7490000I-50000J0D01*
G01*
X20263000Y-7490000D02*
G75*
G02*
X20363000Y-7490000I50000J0D01*
G01*
X20363000Y-7744000D02*
G75*
G02*
X20263000Y-7744000I-50000J0D01*
G01*
X20263000Y-7744000D02*
G75*
G02*
X20363000Y-7744000I50000J0D01*
G01*
X20363000Y-7998000D02*
G75*
G02*
X20263000Y-7998000I-50000J0D01*
G01*
X20263000Y-7998000D02*
G75*
G02*
X20363000Y-7998000I50000J0D01*
G01*
X20363000Y-8252000D02*
G75*
G02*
X20263000Y-8252000I-50000J0D01*
G01*
X20263000Y-8252000D02*
G75*
G02*
X20363000Y-8252000I50000J0D01*
G01*
D13*
X19961000Y-5695000D02*
X19961000Y-6015000D01*
X19801000Y-5855000D02*
X20121000Y-5855000D01*
X19961000Y-8648000D02*
X19961000Y-8968000D01*
X19801000Y-8808000D02*
X20121000Y-8808000D01*
D11*
X17880277Y-9577984D02*
X17880277Y-9377984D01*
X17880277Y-9377984D02*
X17927896Y-9377984D01*
X17927896Y-9377984D02*
X17956467Y-9387508D01*
X17956467Y-9387508D02*
X17975515Y-9406555D01*
X17975515Y-9406555D02*
X17985039Y-9425603D01*
X17985039Y-9425603D02*
X17994563Y-9463698D01*
X17994563Y-9463698D02*
X17994563Y-9492270D01*
X17994563Y-9492270D02*
X17985039Y-9530365D01*
X17985039Y-9530365D02*
X17975515Y-9549412D01*
X17975515Y-9549412D02*
X17956467Y-9568460D01*
X17956467Y-9568460D02*
X17927896Y-9577984D01*
X17927896Y-9577984D02*
X17880277Y-9577984D01*
X18080277Y-9577984D02*
X18080277Y-9444650D01*
X18080277Y-9482746D02*
X18089801Y-9463698D01*
X18089801Y-9463698D02*
X18099324Y-9454174D01*
X18099324Y-9454174D02*
X18118372Y-9444650D01*
X18118372Y-9444650D02*
X18137420Y-9444650D01*
X18204086Y-9577984D02*
X18204086Y-9444650D01*
X18204086Y-9377984D02*
X18194563Y-9387508D01*
X18194563Y-9387508D02*
X18204086Y-9397031D01*
X18204086Y-9397031D02*
X18213610Y-9387508D01*
X18213610Y-9387508D02*
X18204086Y-9377984D01*
X18204086Y-9377984D02*
X18204086Y-9397031D01*
X18327896Y-9577984D02*
X18308848Y-9568460D01*
X18308848Y-9568460D02*
X18299324Y-9549412D01*
X18299324Y-9549412D02*
X18299324Y-9377984D01*
X18432658Y-9577984D02*
X18413610Y-9568460D01*
X18413610Y-9568460D02*
X18404086Y-9549412D01*
X18404086Y-9549412D02*
X18404086Y-9377984D01*
X18661229Y-9577984D02*
X18661229Y-9377984D01*
X18661229Y-9377984D02*
X18727896Y-9520841D01*
X18727896Y-9520841D02*
X18794563Y-9377984D01*
X18794563Y-9377984D02*
X18794563Y-9577984D01*
X18975515Y-9577984D02*
X18975515Y-9473222D01*
X18975515Y-9473222D02*
X18965991Y-9454174D01*
X18965991Y-9454174D02*
X18946944Y-9444650D01*
X18946944Y-9444650D02*
X18908848Y-9444650D01*
X18908848Y-9444650D02*
X18889801Y-9454174D01*
X18975515Y-9568460D02*
X18956467Y-9577984D01*
X18956467Y-9577984D02*
X18908848Y-9577984D01*
X18908848Y-9577984D02*
X18889801Y-9568460D01*
X18889801Y-9568460D02*
X18880277Y-9549412D01*
X18880277Y-9549412D02*
X18880277Y-9530365D01*
X18880277Y-9530365D02*
X18889801Y-9511317D01*
X18889801Y-9511317D02*
X18908848Y-9501793D01*
X18908848Y-9501793D02*
X18956467Y-9501793D01*
X18956467Y-9501793D02*
X18975515Y-9492270D01*
X19070753Y-9444650D02*
X19070753Y-9644650D01*
X19070753Y-9454174D02*
X19089801Y-9444650D01*
X19089801Y-9444650D02*
X19127896Y-9444650D01*
X19127896Y-9444650D02*
X19146944Y-9454174D01*
X19146944Y-9454174D02*
X19156467Y-9463698D01*
X19156467Y-9463698D02*
X19165991Y-9482746D01*
X19165991Y-9482746D02*
X19165991Y-9539889D01*
X19165991Y-9539889D02*
X19156467Y-9558936D01*
X19156467Y-9558936D02*
X19146944Y-9568460D01*
X19146944Y-9568460D02*
X19127896Y-9577984D01*
X19127896Y-9577984D02*
X19089801Y-9577984D01*
X19089801Y-9577984D02*
X19070753Y-9568460D01*
X19251705Y-9558936D02*
X19261229Y-9568460D01*
X19261229Y-9568460D02*
X19251705Y-9577984D01*
X19251705Y-9577984D02*
X19242182Y-9568460D01*
X19242182Y-9568460D02*
X19251705Y-9558936D01*
X19251705Y-9558936D02*
X19251705Y-9577984D01*
X19251705Y-9454174D02*
X19261229Y-9463698D01*
X19261229Y-9463698D02*
X19251705Y-9473222D01*
X19251705Y-9473222D02*
X19242182Y-9463698D01*
X19242182Y-9463698D02*
X19251705Y-9454174D01*
X19251705Y-9454174D02*
X19251705Y-9473222D01*
D12*
X17589500Y-9891500D02*
X17619500Y-9921500D01*
X17619500Y-9891500D02*
X17589500Y-9921500D01*
D11*
X17918372Y-9797984D02*
X17937420Y-9797984D01*
X17937420Y-9797984D02*
X17956467Y-9807508D01*
X17956467Y-9807508D02*
X17965991Y-9817031D01*
X17965991Y-9817031D02*
X17975515Y-9836079D01*
X17975515Y-9836079D02*
X17985039Y-9874174D01*
X17985039Y-9874174D02*
X17985039Y-9921793D01*
X17985039Y-9921793D02*
X17975515Y-9959889D01*
X17975515Y-9959889D02*
X17965991Y-9978936D01*
X17965991Y-9978936D02*
X17956467Y-9988460D01*
X17956467Y-9988460D02*
X17937420Y-9997984D01*
X17937420Y-9997984D02*
X17918372Y-9997984D01*
X17918372Y-9997984D02*
X17899324Y-9988460D01*
X17899324Y-9988460D02*
X17889801Y-9978936D01*
X17889801Y-9978936D02*
X17880277Y-9959889D01*
X17880277Y-9959889D02*
X17870753Y-9921793D01*
X17870753Y-9921793D02*
X17870753Y-9874174D01*
X17870753Y-9874174D02*
X17880277Y-9836079D01*
X17880277Y-9836079D02*
X17889801Y-9817031D01*
X17889801Y-9817031D02*
X17899324Y-9807508D01*
X17899324Y-9807508D02*
X17918372Y-9797984D01*
X18070753Y-9978936D02*
X18080277Y-9988460D01*
X18080277Y-9988460D02*
X18070753Y-9997984D01*
X18070753Y-9997984D02*
X18061229Y-9988460D01*
X18061229Y-9988460D02*
X18070753Y-9978936D01*
X18070753Y-9978936D02*
X18070753Y-9997984D01*
X18146944Y-9797984D02*
X18270753Y-9797984D01*
X18270753Y-9797984D02*
X18204086Y-9874174D01*
X18204086Y-9874174D02*
X18232658Y-9874174D01*
X18232658Y-9874174D02*
X18251705Y-9883698D01*
X18251705Y-9883698D02*
X18261229Y-9893222D01*
X18261229Y-9893222D02*
X18270753Y-9912270D01*
X18270753Y-9912270D02*
X18270753Y-9959889D01*
X18270753Y-9959889D02*
X18261229Y-9978936D01*
X18261229Y-9978936D02*
X18251705Y-9988460D01*
X18251705Y-9988460D02*
X18232658Y-9997984D01*
X18232658Y-9997984D02*
X18175515Y-9997984D01*
X18175515Y-9997984D02*
X18156467Y-9988460D01*
X18156467Y-9988460D02*
X18146944Y-9978936D01*
X18394563Y-9797984D02*
X18413610Y-9797984D01*
X18413610Y-9797984D02*
X18432658Y-9807508D01*
X18432658Y-9807508D02*
X18442182Y-9817031D01*
X18442182Y-9817031D02*
X18451705Y-9836079D01*
X18451705Y-9836079D02*
X18461229Y-9874174D01*
X18461229Y-9874174D02*
X18461229Y-9921793D01*
X18461229Y-9921793D02*
X18451705Y-9959889D01*
X18451705Y-9959889D02*
X18442182Y-9978936D01*
X18442182Y-9978936D02*
X18432658Y-9988460D01*
X18432658Y-9988460D02*
X18413610Y-9997984D01*
X18413610Y-9997984D02*
X18394563Y-9997984D01*
X18394563Y-9997984D02*
X18375515Y-9988460D01*
X18375515Y-9988460D02*
X18365991Y-9978936D01*
X18365991Y-9978936D02*
X18356467Y-9959889D01*
X18356467Y-9959889D02*
X18346944Y-9921793D01*
X18346944Y-9921793D02*
X18346944Y-9874174D01*
X18346944Y-9874174D02*
X18356467Y-9836079D01*
X18356467Y-9836079D02*
X18365991Y-9817031D01*
X18365991Y-9817031D02*
X18375515Y-9807508D01*
X18375515Y-9807508D02*
X18394563Y-9797984D01*
X18585039Y-9797984D02*
X18604086Y-9797984D01*
X18604086Y-9797984D02*
X18623134Y-9807508D01*
X18623134Y-9807508D02*
X18632658Y-9817031D01*
X18632658Y-9817031D02*
X18642182Y-9836079D01*
X18642182Y-9836079D02*
X18651705Y-9874174D01*
X18651705Y-9874174D02*
X18651705Y-9921793D01*
X18651705Y-9921793D02*
X18642182Y-9959889D01*
X18642182Y-9959889D02*
X18632658Y-9978936D01*
X18632658Y-9978936D02*
X18623134Y-9988460D01*
X18623134Y-9988460D02*
X18604086Y-9997984D01*
X18604086Y-9997984D02*
X18585039Y-9997984D01*
X18585039Y-9997984D02*
X18565991Y-9988460D01*
X18565991Y-9988460D02*
X18556467Y-9978936D01*
X18556467Y-9978936D02*
X18546944Y-9959889D01*
X18546944Y-9959889D02*
X18537420Y-9921793D01*
X18537420Y-9921793D02*
X18537420Y-9874174D01*
X18537420Y-9874174D02*
X18546944Y-9836079D01*
X18546944Y-9836079D02*
X18556467Y-9817031D01*
X18556467Y-9817031D02*
X18565991Y-9807508D01*
X18565991Y-9807508D02*
X18585039Y-9797984D01*
X18737420Y-9997984D02*
X18737420Y-9864650D01*
X18737420Y-9883698D02*
X18746944Y-9874174D01*
X18746944Y-9874174D02*
X18765991Y-9864650D01*
X18765991Y-9864650D02*
X18794563Y-9864650D01*
X18794563Y-9864650D02*
X18813610Y-9874174D01*
X18813610Y-9874174D02*
X18823134Y-9893222D01*
X18823134Y-9893222D02*
X18823134Y-9997984D01*
X18823134Y-9893222D02*
X18832658Y-9874174D01*
X18832658Y-9874174D02*
X18851705Y-9864650D01*
X18851705Y-9864650D02*
X18880277Y-9864650D01*
X18880277Y-9864650D02*
X18899325Y-9874174D01*
X18899325Y-9874174D02*
X18908848Y-9893222D01*
X18908848Y-9893222D02*
X18908848Y-9997984D01*
X19004086Y-9997984D02*
X19004086Y-9864650D01*
X19004086Y-9883698D02*
X19013610Y-9874174D01*
X19013610Y-9874174D02*
X19032658Y-9864650D01*
X19032658Y-9864650D02*
X19061229Y-9864650D01*
X19061229Y-9864650D02*
X19080277Y-9874174D01*
X19080277Y-9874174D02*
X19089801Y-9893222D01*
X19089801Y-9893222D02*
X19089801Y-9997984D01*
X19089801Y-9893222D02*
X19099325Y-9874174D01*
X19099325Y-9874174D02*
X19118372Y-9864650D01*
X19118372Y-9864650D02*
X19146944Y-9864650D01*
X19146944Y-9864650D02*
X19165991Y-9874174D01*
X19165991Y-9874174D02*
X19175515Y-9893222D01*
X19175515Y-9893222D02*
X19175515Y-9997984D01*
X19565991Y-9788460D02*
X19394563Y-10045603D01*
X19823134Y-9797984D02*
X19842182Y-9797984D01*
X19842182Y-9797984D02*
X19861229Y-9807508D01*
X19861229Y-9807508D02*
X19870753Y-9817031D01*
X19870753Y-9817031D02*
X19880277Y-9836079D01*
X19880277Y-9836079D02*
X19889801Y-9874174D01*
X19889801Y-9874174D02*
X19889801Y-9921793D01*
X19889801Y-9921793D02*
X19880277Y-9959889D01*
X19880277Y-9959889D02*
X19870753Y-9978936D01*
X19870753Y-9978936D02*
X19861229Y-9988460D01*
X19861229Y-9988460D02*
X19842182Y-9997984D01*
X19842182Y-9997984D02*
X19823134Y-9997984D01*
X19823134Y-9997984D02*
X19804087Y-9988460D01*
X19804087Y-9988460D02*
X19794563Y-9978936D01*
X19794563Y-9978936D02*
X19785039Y-9959889D01*
X19785039Y-9959889D02*
X19775515Y-9921793D01*
X19775515Y-9921793D02*
X19775515Y-9874174D01*
X19775515Y-9874174D02*
X19785039Y-9836079D01*
X19785039Y-9836079D02*
X19794563Y-9817031D01*
X19794563Y-9817031D02*
X19804087Y-9807508D01*
X19804087Y-9807508D02*
X19823134Y-9797984D01*
X19975515Y-9978936D02*
X19985039Y-9988460D01*
X19985039Y-9988460D02*
X19975515Y-9997984D01*
X19975515Y-9997984D02*
X19965991Y-9988460D01*
X19965991Y-9988460D02*
X19975515Y-9978936D01*
X19975515Y-9978936D02*
X19975515Y-9997984D01*
X20108848Y-9797984D02*
X20127896Y-9797984D01*
X20127896Y-9797984D02*
X20146944Y-9807508D01*
X20146944Y-9807508D02*
X20156468Y-9817031D01*
X20156468Y-9817031D02*
X20165991Y-9836079D01*
X20165991Y-9836079D02*
X20175515Y-9874174D01*
X20175515Y-9874174D02*
X20175515Y-9921793D01*
X20175515Y-9921793D02*
X20165991Y-9959889D01*
X20165991Y-9959889D02*
X20156468Y-9978936D01*
X20156468Y-9978936D02*
X20146944Y-9988460D01*
X20146944Y-9988460D02*
X20127896Y-9997984D01*
X20127896Y-9997984D02*
X20108848Y-9997984D01*
X20108848Y-9997984D02*
X20089801Y-9988460D01*
X20089801Y-9988460D02*
X20080277Y-9978936D01*
X20080277Y-9978936D02*
X20070753Y-9959889D01*
X20070753Y-9959889D02*
X20061229Y-9921793D01*
X20061229Y-9921793D02*
X20061229Y-9874174D01*
X20061229Y-9874174D02*
X20070753Y-9836079D01*
X20070753Y-9836079D02*
X20080277Y-9817031D01*
X20080277Y-9817031D02*
X20089801Y-9807508D01*
X20089801Y-9807508D02*
X20108848Y-9797984D01*
X20365991Y-9997984D02*
X20251706Y-9997984D01*
X20308848Y-9997984D02*
X20308848Y-9797984D01*
X20308848Y-9797984D02*
X20289801Y-9826555D01*
X20289801Y-9826555D02*
X20270753Y-9845603D01*
X20270753Y-9845603D02*
X20251706Y-9855127D01*
X20556468Y-9997984D02*
X20442182Y-9997984D01*
X20499325Y-9997984D02*
X20499325Y-9797984D01*
X20499325Y-9797984D02*
X20480277Y-9826555D01*
X20480277Y-9826555D02*
X20461229Y-9845603D01*
X20461229Y-9845603D02*
X20442182Y-9855127D01*
X20670753Y-9883698D02*
X20651706Y-9874174D01*
X20651706Y-9874174D02*
X20642182Y-9864650D01*
X20642182Y-9864650D02*
X20632658Y-9845603D01*
X20632658Y-9845603D02*
X20632658Y-9836079D01*
X20632658Y-9836079D02*
X20642182Y-9817031D01*
X20642182Y-9817031D02*
X20651706Y-9807508D01*
X20651706Y-9807508D02*
X20670753Y-9797984D01*
X20670753Y-9797984D02*
X20708849Y-9797984D01*
X20708849Y-9797984D02*
X20727896Y-9807508D01*
X20727896Y-9807508D02*
X20737420Y-9817031D01*
X20737420Y-9817031D02*
X20746944Y-9836079D01*
X20746944Y-9836079D02*
X20746944Y-9845603D01*
X20746944Y-9845603D02*
X20737420Y-9864650D01*
X20737420Y-9864650D02*
X20727896Y-9874174D01*
X20727896Y-9874174D02*
X20708849Y-9883698D01*
X20708849Y-9883698D02*
X20670753Y-9883698D01*
X20670753Y-9883698D02*
X20651706Y-9893222D01*
X20651706Y-9893222D02*
X20642182Y-9902746D01*
X20642182Y-9902746D02*
X20632658Y-9921793D01*
X20632658Y-9921793D02*
X20632658Y-9959889D01*
X20632658Y-9959889D02*
X20642182Y-9978936D01*
X20642182Y-9978936D02*
X20651706Y-9988460D01*
X20651706Y-9988460D02*
X20670753Y-9997984D01*
X20670753Y-9997984D02*
X20708849Y-9997984D01*
X20708849Y-9997984D02*
X20727896Y-9988460D01*
X20727896Y-9988460D02*
X20737420Y-9978936D01*
X20737420Y-9978936D02*
X20746944Y-9959889D01*
X20746944Y-9959889D02*
X20746944Y-9921793D01*
X20746944Y-9921793D02*
X20737420Y-9902746D01*
X20737420Y-9902746D02*
X20727896Y-9893222D01*
X20727896Y-9893222D02*
X20708849Y-9883698D01*
X20823134Y-9797984D02*
X20823134Y-9836079D01*
X20899325Y-9797984D02*
X20899325Y-9836079D01*
X21194563Y-10074174D02*
X21185039Y-10064650D01*
X21185039Y-10064650D02*
X21165991Y-10036079D01*
X21165991Y-10036079D02*
X21156468Y-10017031D01*
X21156468Y-10017031D02*
X21146944Y-9988460D01*
X21146944Y-9988460D02*
X21137420Y-9940841D01*
X21137420Y-9940841D02*
X21137420Y-9902746D01*
X21137420Y-9902746D02*
X21146944Y-9855127D01*
X21146944Y-9855127D02*
X21156468Y-9826555D01*
X21156468Y-9826555D02*
X21165991Y-9807508D01*
X21165991Y-9807508D02*
X21185039Y-9778936D01*
X21185039Y-9778936D02*
X21194563Y-9769412D01*
X21356468Y-9797984D02*
X21318372Y-9797984D01*
X21318372Y-9797984D02*
X21299325Y-9807508D01*
X21299325Y-9807508D02*
X21289801Y-9817031D01*
X21289801Y-9817031D02*
X21270753Y-9845603D01*
X21270753Y-9845603D02*
X21261230Y-9883698D01*
X21261230Y-9883698D02*
X21261230Y-9959889D01*
X21261230Y-9959889D02*
X21270753Y-9978936D01*
X21270753Y-9978936D02*
X21280277Y-9988460D01*
X21280277Y-9988460D02*
X21299325Y-9997984D01*
X21299325Y-9997984D02*
X21337420Y-9997984D01*
X21337420Y-9997984D02*
X21356468Y-9988460D01*
X21356468Y-9988460D02*
X21365991Y-9978936D01*
X21365991Y-9978936D02*
X21375515Y-9959889D01*
X21375515Y-9959889D02*
X21375515Y-9912270D01*
X21375515Y-9912270D02*
X21365991Y-9893222D01*
X21365991Y-9893222D02*
X21356468Y-9883698D01*
X21356468Y-9883698D02*
X21337420Y-9874174D01*
X21337420Y-9874174D02*
X21299325Y-9874174D01*
X21299325Y-9874174D02*
X21280277Y-9883698D01*
X21280277Y-9883698D02*
X21270753Y-9893222D01*
X21270753Y-9893222D02*
X21261230Y-9912270D01*
X21613611Y-9997984D02*
X21613611Y-9797984D01*
X21699325Y-9997984D02*
X21699325Y-9893222D01*
X21699325Y-9893222D02*
X21689801Y-9874174D01*
X21689801Y-9874174D02*
X21670753Y-9864650D01*
X21670753Y-9864650D02*
X21642182Y-9864650D01*
X21642182Y-9864650D02*
X21623134Y-9874174D01*
X21623134Y-9874174D02*
X21613611Y-9883698D01*
X21823134Y-9997984D02*
X21804087Y-9988460D01*
X21804087Y-9988460D02*
X21794563Y-9978936D01*
X21794563Y-9978936D02*
X21785039Y-9959889D01*
X21785039Y-9959889D02*
X21785039Y-9902746D01*
X21785039Y-9902746D02*
X21794563Y-9883698D01*
X21794563Y-9883698D02*
X21804087Y-9874174D01*
X21804087Y-9874174D02*
X21823134Y-9864650D01*
X21823134Y-9864650D02*
X21851706Y-9864650D01*
X21851706Y-9864650D02*
X21870753Y-9874174D01*
X21870753Y-9874174D02*
X21880277Y-9883698D01*
X21880277Y-9883698D02*
X21889801Y-9902746D01*
X21889801Y-9902746D02*
X21889801Y-9959889D01*
X21889801Y-9959889D02*
X21880277Y-9978936D01*
X21880277Y-9978936D02*
X21870753Y-9988460D01*
X21870753Y-9988460D02*
X21851706Y-9997984D01*
X21851706Y-9997984D02*
X21823134Y-9997984D01*
X22004087Y-9997984D02*
X21985039Y-9988460D01*
X21985039Y-9988460D02*
X21975515Y-9969412D01*
X21975515Y-9969412D02*
X21975515Y-9797984D01*
X22156468Y-9988460D02*
X22137420Y-9997984D01*
X22137420Y-9997984D02*
X22099325Y-9997984D01*
X22099325Y-9997984D02*
X22080277Y-9988460D01*
X22080277Y-9988460D02*
X22070753Y-9969412D01*
X22070753Y-9969412D02*
X22070753Y-9893222D01*
X22070753Y-9893222D02*
X22080277Y-9874174D01*
X22080277Y-9874174D02*
X22099325Y-9864650D01*
X22099325Y-9864650D02*
X22137420Y-9864650D01*
X22137420Y-9864650D02*
X22156468Y-9874174D01*
X22156468Y-9874174D02*
X22165992Y-9893222D01*
X22165992Y-9893222D02*
X22165992Y-9912270D01*
X22165992Y-9912270D02*
X22070753Y-9931317D01*
X22242182Y-9988460D02*
X22261230Y-9997984D01*
X22261230Y-9997984D02*
X22299325Y-9997984D01*
X22299325Y-9997984D02*
X22318373Y-9988460D01*
X22318373Y-9988460D02*
X22327896Y-9969412D01*
X22327896Y-9969412D02*
X22327896Y-9959889D01*
X22327896Y-9959889D02*
X22318373Y-9940841D01*
X22318373Y-9940841D02*
X22299325Y-9931317D01*
X22299325Y-9931317D02*
X22270753Y-9931317D01*
X22270753Y-9931317D02*
X22251706Y-9921793D01*
X22251706Y-9921793D02*
X22242182Y-9902746D01*
X22242182Y-9902746D02*
X22242182Y-9893222D01*
X22242182Y-9893222D02*
X22251706Y-9874174D01*
X22251706Y-9874174D02*
X22270753Y-9864650D01*
X22270753Y-9864650D02*
X22299325Y-9864650D01*
X22299325Y-9864650D02*
X22318373Y-9874174D01*
X22394563Y-10074174D02*
X22404087Y-10064650D01*
X22404087Y-10064650D02*
X22423134Y-10036079D01*
X22423134Y-10036079D02*
X22432658Y-10017031D01*
X22432658Y-10017031D02*
X22442182Y-9988460D01*
X22442182Y-9988460D02*
X22451706Y-9940841D01*
X22451706Y-9940841D02*
X22451706Y-9902746D01*
X22451706Y-9902746D02*
X22442182Y-9855127D01*
X22442182Y-9855127D02*
X22432658Y-9826555D01*
X22432658Y-9826555D02*
X22423134Y-9807508D01*
X22423134Y-9807508D02*
X22404087Y-9778936D01*
X22404087Y-9778936D02*
X22394563Y-9769412D01*
D12*
X17619500Y-10170500D02*
G75*
G02*
X17519500Y-10170500I-50000J0D01*
G01*
X17519500Y-10170500D02*
G75*
G02*
X17619500Y-10170500I50000J0D01*
G01*
D11*
X17985039Y-10261984D02*
X17870753Y-10261984D01*
X17927896Y-10261984D02*
X17927896Y-10061984D01*
X17927896Y-10061984D02*
X17908848Y-10090555D01*
X17908848Y-10090555D02*
X17889801Y-10109603D01*
X17889801Y-10109603D02*
X17870753Y-10119127D01*
X18070753Y-10242936D02*
X18080277Y-10252460D01*
X18080277Y-10252460D02*
X18070753Y-10261984D01*
X18070753Y-10261984D02*
X18061229Y-10252460D01*
X18061229Y-10252460D02*
X18070753Y-10242936D01*
X18070753Y-10242936D02*
X18070753Y-10261984D01*
X18204086Y-10061984D02*
X18223134Y-10061984D01*
X18223134Y-10061984D02*
X18242182Y-10071508D01*
X18242182Y-10071508D02*
X18251705Y-10081031D01*
X18251705Y-10081031D02*
X18261229Y-10100079D01*
X18261229Y-10100079D02*
X18270753Y-10138174D01*
X18270753Y-10138174D02*
X18270753Y-10185793D01*
X18270753Y-10185793D02*
X18261229Y-10223889D01*
X18261229Y-10223889D02*
X18251705Y-10242936D01*
X18251705Y-10242936D02*
X18242182Y-10252460D01*
X18242182Y-10252460D02*
X18223134Y-10261984D01*
X18223134Y-10261984D02*
X18204086Y-10261984D01*
X18204086Y-10261984D02*
X18185039Y-10252460D01*
X18185039Y-10252460D02*
X18175515Y-10242936D01*
X18175515Y-10242936D02*
X18165991Y-10223889D01*
X18165991Y-10223889D02*
X18156467Y-10185793D01*
X18156467Y-10185793D02*
X18156467Y-10138174D01*
X18156467Y-10138174D02*
X18165991Y-10100079D01*
X18165991Y-10100079D02*
X18175515Y-10081031D01*
X18175515Y-10081031D02*
X18185039Y-10071508D01*
X18185039Y-10071508D02*
X18204086Y-10061984D01*
X18394563Y-10061984D02*
X18413610Y-10061984D01*
X18413610Y-10061984D02*
X18432658Y-10071508D01*
X18432658Y-10071508D02*
X18442182Y-10081031D01*
X18442182Y-10081031D02*
X18451705Y-10100079D01*
X18451705Y-10100079D02*
X18461229Y-10138174D01*
X18461229Y-10138174D02*
X18461229Y-10185793D01*
X18461229Y-10185793D02*
X18451705Y-10223889D01*
X18451705Y-10223889D02*
X18442182Y-10242936D01*
X18442182Y-10242936D02*
X18432658Y-10252460D01*
X18432658Y-10252460D02*
X18413610Y-10261984D01*
X18413610Y-10261984D02*
X18394563Y-10261984D01*
X18394563Y-10261984D02*
X18375515Y-10252460D01*
X18375515Y-10252460D02*
X18365991Y-10242936D01*
X18365991Y-10242936D02*
X18356467Y-10223889D01*
X18356467Y-10223889D02*
X18346944Y-10185793D01*
X18346944Y-10185793D02*
X18346944Y-10138174D01*
X18346944Y-10138174D02*
X18356467Y-10100079D01*
X18356467Y-10100079D02*
X18365991Y-10081031D01*
X18365991Y-10081031D02*
X18375515Y-10071508D01*
X18375515Y-10071508D02*
X18394563Y-10061984D01*
X18585039Y-10061984D02*
X18604086Y-10061984D01*
X18604086Y-10061984D02*
X18623134Y-10071508D01*
X18623134Y-10071508D02*
X18632658Y-10081031D01*
X18632658Y-10081031D02*
X18642182Y-10100079D01*
X18642182Y-10100079D02*
X18651705Y-10138174D01*
X18651705Y-10138174D02*
X18651705Y-10185793D01*
X18651705Y-10185793D02*
X18642182Y-10223889D01*
X18642182Y-10223889D02*
X18632658Y-10242936D01*
X18632658Y-10242936D02*
X18623134Y-10252460D01*
X18623134Y-10252460D02*
X18604086Y-10261984D01*
X18604086Y-10261984D02*
X18585039Y-10261984D01*
X18585039Y-10261984D02*
X18565991Y-10252460D01*
X18565991Y-10252460D02*
X18556467Y-10242936D01*
X18556467Y-10242936D02*
X18546944Y-10223889D01*
X18546944Y-10223889D02*
X18537420Y-10185793D01*
X18537420Y-10185793D02*
X18537420Y-10138174D01*
X18537420Y-10138174D02*
X18546944Y-10100079D01*
X18546944Y-10100079D02*
X18556467Y-10081031D01*
X18556467Y-10081031D02*
X18565991Y-10071508D01*
X18565991Y-10071508D02*
X18585039Y-10061984D01*
X18737420Y-10261984D02*
X18737420Y-10128650D01*
X18737420Y-10147698D02*
X18746944Y-10138174D01*
X18746944Y-10138174D02*
X18765991Y-10128650D01*
X18765991Y-10128650D02*
X18794563Y-10128650D01*
X18794563Y-10128650D02*
X18813610Y-10138174D01*
X18813610Y-10138174D02*
X18823134Y-10157222D01*
X18823134Y-10157222D02*
X18823134Y-10261984D01*
X18823134Y-10157222D02*
X18832658Y-10138174D01*
X18832658Y-10138174D02*
X18851705Y-10128650D01*
X18851705Y-10128650D02*
X18880277Y-10128650D01*
X18880277Y-10128650D02*
X18899325Y-10138174D01*
X18899325Y-10138174D02*
X18908848Y-10157222D01*
X18908848Y-10157222D02*
X18908848Y-10261984D01*
X19004086Y-10261984D02*
X19004086Y-10128650D01*
X19004086Y-10147698D02*
X19013610Y-10138174D01*
X19013610Y-10138174D02*
X19032658Y-10128650D01*
X19032658Y-10128650D02*
X19061229Y-10128650D01*
X19061229Y-10128650D02*
X19080277Y-10138174D01*
X19080277Y-10138174D02*
X19089801Y-10157222D01*
X19089801Y-10157222D02*
X19089801Y-10261984D01*
X19089801Y-10157222D02*
X19099325Y-10138174D01*
X19099325Y-10138174D02*
X19118372Y-10128650D01*
X19118372Y-10128650D02*
X19146944Y-10128650D01*
X19146944Y-10128650D02*
X19165991Y-10138174D01*
X19165991Y-10138174D02*
X19175515Y-10157222D01*
X19175515Y-10157222D02*
X19175515Y-10261984D01*
X19565991Y-10052460D02*
X19394563Y-10309603D01*
X19823134Y-10061984D02*
X19842182Y-10061984D01*
X19842182Y-10061984D02*
X19861229Y-10071508D01*
X19861229Y-10071508D02*
X19870753Y-10081031D01*
X19870753Y-10081031D02*
X19880277Y-10100079D01*
X19880277Y-10100079D02*
X19889801Y-10138174D01*
X19889801Y-10138174D02*
X19889801Y-10185793D01*
X19889801Y-10185793D02*
X19880277Y-10223889D01*
X19880277Y-10223889D02*
X19870753Y-10242936D01*
X19870753Y-10242936D02*
X19861229Y-10252460D01*
X19861229Y-10252460D02*
X19842182Y-10261984D01*
X19842182Y-10261984D02*
X19823134Y-10261984D01*
X19823134Y-10261984D02*
X19804087Y-10252460D01*
X19804087Y-10252460D02*
X19794563Y-10242936D01*
X19794563Y-10242936D02*
X19785039Y-10223889D01*
X19785039Y-10223889D02*
X19775515Y-10185793D01*
X19775515Y-10185793D02*
X19775515Y-10138174D01*
X19775515Y-10138174D02*
X19785039Y-10100079D01*
X19785039Y-10100079D02*
X19794563Y-10081031D01*
X19794563Y-10081031D02*
X19804087Y-10071508D01*
X19804087Y-10071508D02*
X19823134Y-10061984D01*
X19975515Y-10242936D02*
X19985039Y-10252460D01*
X19985039Y-10252460D02*
X19975515Y-10261984D01*
X19975515Y-10261984D02*
X19965991Y-10252460D01*
X19965991Y-10252460D02*
X19975515Y-10242936D01*
X19975515Y-10242936D02*
X19975515Y-10261984D01*
X20108848Y-10061984D02*
X20127896Y-10061984D01*
X20127896Y-10061984D02*
X20146944Y-10071508D01*
X20146944Y-10071508D02*
X20156468Y-10081031D01*
X20156468Y-10081031D02*
X20165991Y-10100079D01*
X20165991Y-10100079D02*
X20175515Y-10138174D01*
X20175515Y-10138174D02*
X20175515Y-10185793D01*
X20175515Y-10185793D02*
X20165991Y-10223889D01*
X20165991Y-10223889D02*
X20156468Y-10242936D01*
X20156468Y-10242936D02*
X20146944Y-10252460D01*
X20146944Y-10252460D02*
X20127896Y-10261984D01*
X20127896Y-10261984D02*
X20108848Y-10261984D01*
X20108848Y-10261984D02*
X20089801Y-10252460D01*
X20089801Y-10252460D02*
X20080277Y-10242936D01*
X20080277Y-10242936D02*
X20070753Y-10223889D01*
X20070753Y-10223889D02*
X20061229Y-10185793D01*
X20061229Y-10185793D02*
X20061229Y-10138174D01*
X20061229Y-10138174D02*
X20070753Y-10100079D01*
X20070753Y-10100079D02*
X20080277Y-10081031D01*
X20080277Y-10081031D02*
X20089801Y-10071508D01*
X20089801Y-10071508D02*
X20108848Y-10061984D01*
X20242182Y-10061984D02*
X20365991Y-10061984D01*
X20365991Y-10061984D02*
X20299325Y-10138174D01*
X20299325Y-10138174D02*
X20327896Y-10138174D01*
X20327896Y-10138174D02*
X20346944Y-10147698D01*
X20346944Y-10147698D02*
X20356468Y-10157222D01*
X20356468Y-10157222D02*
X20365991Y-10176270D01*
X20365991Y-10176270D02*
X20365991Y-10223889D01*
X20365991Y-10223889D02*
X20356468Y-10242936D01*
X20356468Y-10242936D02*
X20346944Y-10252460D01*
X20346944Y-10252460D02*
X20327896Y-10261984D01*
X20327896Y-10261984D02*
X20270753Y-10261984D01*
X20270753Y-10261984D02*
X20251706Y-10252460D01*
X20251706Y-10252460D02*
X20242182Y-10242936D01*
X20461229Y-10261984D02*
X20499325Y-10261984D01*
X20499325Y-10261984D02*
X20518372Y-10252460D01*
X20518372Y-10252460D02*
X20527896Y-10242936D01*
X20527896Y-10242936D02*
X20546944Y-10214365D01*
X20546944Y-10214365D02*
X20556468Y-10176270D01*
X20556468Y-10176270D02*
X20556468Y-10100079D01*
X20556468Y-10100079D02*
X20546944Y-10081031D01*
X20546944Y-10081031D02*
X20537420Y-10071508D01*
X20537420Y-10071508D02*
X20518372Y-10061984D01*
X20518372Y-10061984D02*
X20480277Y-10061984D01*
X20480277Y-10061984D02*
X20461229Y-10071508D01*
X20461229Y-10071508D02*
X20451706Y-10081031D01*
X20451706Y-10081031D02*
X20442182Y-10100079D01*
X20442182Y-10100079D02*
X20442182Y-10147698D01*
X20442182Y-10147698D02*
X20451706Y-10166746D01*
X20451706Y-10166746D02*
X20461229Y-10176270D01*
X20461229Y-10176270D02*
X20480277Y-10185793D01*
X20480277Y-10185793D02*
X20518372Y-10185793D01*
X20518372Y-10185793D02*
X20537420Y-10176270D01*
X20537420Y-10176270D02*
X20546944Y-10166746D01*
X20546944Y-10166746D02*
X20556468Y-10147698D01*
X20727896Y-10128650D02*
X20727896Y-10261984D01*
X20680277Y-10052460D02*
X20632658Y-10195317D01*
X20632658Y-10195317D02*
X20756468Y-10195317D01*
X20823134Y-10061984D02*
X20823134Y-10100079D01*
X20899325Y-10061984D02*
X20899325Y-10100079D01*
X21194563Y-10338174D02*
X21185039Y-10328650D01*
X21185039Y-10328650D02*
X21165991Y-10300079D01*
X21165991Y-10300079D02*
X21156468Y-10281031D01*
X21156468Y-10281031D02*
X21146944Y-10252460D01*
X21146944Y-10252460D02*
X21137420Y-10204841D01*
X21137420Y-10204841D02*
X21137420Y-10166746D01*
X21137420Y-10166746D02*
X21146944Y-10119127D01*
X21146944Y-10119127D02*
X21156468Y-10090555D01*
X21156468Y-10090555D02*
X21165991Y-10071508D01*
X21165991Y-10071508D02*
X21185039Y-10042936D01*
X21185039Y-10042936D02*
X21194563Y-10033412D01*
X21375515Y-10261984D02*
X21261230Y-10261984D01*
X21318372Y-10261984D02*
X21318372Y-10061984D01*
X21318372Y-10061984D02*
X21299325Y-10090555D01*
X21299325Y-10090555D02*
X21280277Y-10109603D01*
X21280277Y-10109603D02*
X21261230Y-10119127D01*
X21451706Y-10081031D02*
X21461230Y-10071508D01*
X21461230Y-10071508D02*
X21480277Y-10061984D01*
X21480277Y-10061984D02*
X21527896Y-10061984D01*
X21527896Y-10061984D02*
X21546944Y-10071508D01*
X21546944Y-10071508D02*
X21556468Y-10081031D01*
X21556468Y-10081031D02*
X21565991Y-10100079D01*
X21565991Y-10100079D02*
X21565991Y-10119127D01*
X21565991Y-10119127D02*
X21556468Y-10147698D01*
X21556468Y-10147698D02*
X21442182Y-10261984D01*
X21442182Y-10261984D02*
X21565991Y-10261984D01*
X21804087Y-10261984D02*
X21804087Y-10061984D01*
X21889801Y-10261984D02*
X21889801Y-10157222D01*
X21889801Y-10157222D02*
X21880277Y-10138174D01*
X21880277Y-10138174D02*
X21861230Y-10128650D01*
X21861230Y-10128650D02*
X21832658Y-10128650D01*
X21832658Y-10128650D02*
X21813611Y-10138174D01*
X21813611Y-10138174D02*
X21804087Y-10147698D01*
X22013611Y-10261984D02*
X21994563Y-10252460D01*
X21994563Y-10252460D02*
X21985039Y-10242936D01*
X21985039Y-10242936D02*
X21975515Y-10223889D01*
X21975515Y-10223889D02*
X21975515Y-10166746D01*
X21975515Y-10166746D02*
X21985039Y-10147698D01*
X21985039Y-10147698D02*
X21994563Y-10138174D01*
X21994563Y-10138174D02*
X22013611Y-10128650D01*
X22013611Y-10128650D02*
X22042182Y-10128650D01*
X22042182Y-10128650D02*
X22061230Y-10138174D01*
X22061230Y-10138174D02*
X22070753Y-10147698D01*
X22070753Y-10147698D02*
X22080277Y-10166746D01*
X22080277Y-10166746D02*
X22080277Y-10223889D01*
X22080277Y-10223889D02*
X22070753Y-10242936D01*
X22070753Y-10242936D02*
X22061230Y-10252460D01*
X22061230Y-10252460D02*
X22042182Y-10261984D01*
X22042182Y-10261984D02*
X22013611Y-10261984D01*
X22194563Y-10261984D02*
X22175515Y-10252460D01*
X22175515Y-10252460D02*
X22165992Y-10233412D01*
X22165992Y-10233412D02*
X22165992Y-10061984D01*
X22346944Y-10252460D02*
X22327896Y-10261984D01*
X22327896Y-10261984D02*
X22289801Y-10261984D01*
X22289801Y-10261984D02*
X22270753Y-10252460D01*
X22270753Y-10252460D02*
X22261230Y-10233412D01*
X22261230Y-10233412D02*
X22261230Y-10157222D01*
X22261230Y-10157222D02*
X22270753Y-10138174D01*
X22270753Y-10138174D02*
X22289801Y-10128650D01*
X22289801Y-10128650D02*
X22327896Y-10128650D01*
X22327896Y-10128650D02*
X22346944Y-10138174D01*
X22346944Y-10138174D02*
X22356468Y-10157222D01*
X22356468Y-10157222D02*
X22356468Y-10176270D01*
X22356468Y-10176270D02*
X22261230Y-10195317D01*
X22432658Y-10252460D02*
X22451706Y-10261984D01*
X22451706Y-10261984D02*
X22489801Y-10261984D01*
X22489801Y-10261984D02*
X22508849Y-10252460D01*
X22508849Y-10252460D02*
X22518372Y-10233412D01*
X22518372Y-10233412D02*
X22518372Y-10223889D01*
X22518372Y-10223889D02*
X22508849Y-10204841D01*
X22508849Y-10204841D02*
X22489801Y-10195317D01*
X22489801Y-10195317D02*
X22461230Y-10195317D01*
X22461230Y-10195317D02*
X22442182Y-10185793D01*
X22442182Y-10185793D02*
X22432658Y-10166746D01*
X22432658Y-10166746D02*
X22432658Y-10157222D01*
X22432658Y-10157222D02*
X22442182Y-10138174D01*
X22442182Y-10138174D02*
X22461230Y-10128650D01*
X22461230Y-10128650D02*
X22489801Y-10128650D01*
X22489801Y-10128650D02*
X22508849Y-10138174D01*
X22585039Y-10338174D02*
X22594563Y-10328650D01*
X22594563Y-10328650D02*
X22613611Y-10300079D01*
X22613611Y-10300079D02*
X22623134Y-10281031D01*
X22623134Y-10281031D02*
X22632658Y-10252460D01*
X22632658Y-10252460D02*
X22642182Y-10204841D01*
X22642182Y-10204841D02*
X22642182Y-10166746D01*
X22642182Y-10166746D02*
X22632658Y-10119127D01*
X22632658Y-10119127D02*
X22623134Y-10090555D01*
X22623134Y-10090555D02*
X22613611Y-10071508D01*
X22613611Y-10071508D02*
X22594563Y-10042936D01*
X22594563Y-10042936D02*
X22585039Y-10033412D01*
X17519500Y-10334500D02*
X17519500Y-10534500D01*
X17419500Y-10434500D02*
X17619500Y-10434500D01*
X17861229Y-10325984D02*
X17985039Y-10325984D01*
X17985039Y-10325984D02*
X17918372Y-10402174D01*
X17918372Y-10402174D02*
X17946944Y-10402174D01*
X17946944Y-10402174D02*
X17965991Y-10411698D01*
X17965991Y-10411698D02*
X17975515Y-10421222D01*
X17975515Y-10421222D02*
X17985039Y-10440270D01*
X17985039Y-10440270D02*
X17985039Y-10487889D01*
X17985039Y-10487889D02*
X17975515Y-10506936D01*
X17975515Y-10506936D02*
X17965991Y-10516460D01*
X17965991Y-10516460D02*
X17946944Y-10525984D01*
X17946944Y-10525984D02*
X17889801Y-10525984D01*
X17889801Y-10525984D02*
X17870753Y-10516460D01*
X17870753Y-10516460D02*
X17861229Y-10506936D01*
X18070753Y-10506936D02*
X18080277Y-10516460D01*
X18080277Y-10516460D02*
X18070753Y-10525984D01*
X18070753Y-10525984D02*
X18061229Y-10516460D01*
X18061229Y-10516460D02*
X18070753Y-10506936D01*
X18070753Y-10506936D02*
X18070753Y-10525984D01*
X18156467Y-10345031D02*
X18165991Y-10335508D01*
X18165991Y-10335508D02*
X18185039Y-10325984D01*
X18185039Y-10325984D02*
X18232658Y-10325984D01*
X18232658Y-10325984D02*
X18251705Y-10335508D01*
X18251705Y-10335508D02*
X18261229Y-10345031D01*
X18261229Y-10345031D02*
X18270753Y-10364079D01*
X18270753Y-10364079D02*
X18270753Y-10383127D01*
X18270753Y-10383127D02*
X18261229Y-10411698D01*
X18261229Y-10411698D02*
X18146944Y-10525984D01*
X18146944Y-10525984D02*
X18270753Y-10525984D01*
X18394563Y-10325984D02*
X18413610Y-10325984D01*
X18413610Y-10325984D02*
X18432658Y-10335508D01*
X18432658Y-10335508D02*
X18442182Y-10345031D01*
X18442182Y-10345031D02*
X18451705Y-10364079D01*
X18451705Y-10364079D02*
X18461229Y-10402174D01*
X18461229Y-10402174D02*
X18461229Y-10449793D01*
X18461229Y-10449793D02*
X18451705Y-10487889D01*
X18451705Y-10487889D02*
X18442182Y-10506936D01*
X18442182Y-10506936D02*
X18432658Y-10516460D01*
X18432658Y-10516460D02*
X18413610Y-10525984D01*
X18413610Y-10525984D02*
X18394563Y-10525984D01*
X18394563Y-10525984D02*
X18375515Y-10516460D01*
X18375515Y-10516460D02*
X18365991Y-10506936D01*
X18365991Y-10506936D02*
X18356467Y-10487889D01*
X18356467Y-10487889D02*
X18346944Y-10449793D01*
X18346944Y-10449793D02*
X18346944Y-10402174D01*
X18346944Y-10402174D02*
X18356467Y-10364079D01*
X18356467Y-10364079D02*
X18365991Y-10345031D01*
X18365991Y-10345031D02*
X18375515Y-10335508D01*
X18375515Y-10335508D02*
X18394563Y-10325984D01*
X18585039Y-10325984D02*
X18604086Y-10325984D01*
X18604086Y-10325984D02*
X18623134Y-10335508D01*
X18623134Y-10335508D02*
X18632658Y-10345031D01*
X18632658Y-10345031D02*
X18642182Y-10364079D01*
X18642182Y-10364079D02*
X18651705Y-10402174D01*
X18651705Y-10402174D02*
X18651705Y-10449793D01*
X18651705Y-10449793D02*
X18642182Y-10487889D01*
X18642182Y-10487889D02*
X18632658Y-10506936D01*
X18632658Y-10506936D02*
X18623134Y-10516460D01*
X18623134Y-10516460D02*
X18604086Y-10525984D01*
X18604086Y-10525984D02*
X18585039Y-10525984D01*
X18585039Y-10525984D02*
X18565991Y-10516460D01*
X18565991Y-10516460D02*
X18556467Y-10506936D01*
X18556467Y-10506936D02*
X18546944Y-10487889D01*
X18546944Y-10487889D02*
X18537420Y-10449793D01*
X18537420Y-10449793D02*
X18537420Y-10402174D01*
X18537420Y-10402174D02*
X18546944Y-10364079D01*
X18546944Y-10364079D02*
X18556467Y-10345031D01*
X18556467Y-10345031D02*
X18565991Y-10335508D01*
X18565991Y-10335508D02*
X18585039Y-10325984D01*
X18737420Y-10525984D02*
X18737420Y-10392650D01*
X18737420Y-10411698D02*
X18746944Y-10402174D01*
X18746944Y-10402174D02*
X18765991Y-10392650D01*
X18765991Y-10392650D02*
X18794563Y-10392650D01*
X18794563Y-10392650D02*
X18813610Y-10402174D01*
X18813610Y-10402174D02*
X18823134Y-10421222D01*
X18823134Y-10421222D02*
X18823134Y-10525984D01*
X18823134Y-10421222D02*
X18832658Y-10402174D01*
X18832658Y-10402174D02*
X18851705Y-10392650D01*
X18851705Y-10392650D02*
X18880277Y-10392650D01*
X18880277Y-10392650D02*
X18899325Y-10402174D01*
X18899325Y-10402174D02*
X18908848Y-10421222D01*
X18908848Y-10421222D02*
X18908848Y-10525984D01*
X19004086Y-10525984D02*
X19004086Y-10392650D01*
X19004086Y-10411698D02*
X19013610Y-10402174D01*
X19013610Y-10402174D02*
X19032658Y-10392650D01*
X19032658Y-10392650D02*
X19061229Y-10392650D01*
X19061229Y-10392650D02*
X19080277Y-10402174D01*
X19080277Y-10402174D02*
X19089801Y-10421222D01*
X19089801Y-10421222D02*
X19089801Y-10525984D01*
X19089801Y-10421222D02*
X19099325Y-10402174D01*
X19099325Y-10402174D02*
X19118372Y-10392650D01*
X19118372Y-10392650D02*
X19146944Y-10392650D01*
X19146944Y-10392650D02*
X19165991Y-10402174D01*
X19165991Y-10402174D02*
X19175515Y-10421222D01*
X19175515Y-10421222D02*
X19175515Y-10525984D01*
X19565991Y-10316460D02*
X19394563Y-10573603D01*
X19823134Y-10325984D02*
X19842182Y-10325984D01*
X19842182Y-10325984D02*
X19861229Y-10335508D01*
X19861229Y-10335508D02*
X19870753Y-10345031D01*
X19870753Y-10345031D02*
X19880277Y-10364079D01*
X19880277Y-10364079D02*
X19889801Y-10402174D01*
X19889801Y-10402174D02*
X19889801Y-10449793D01*
X19889801Y-10449793D02*
X19880277Y-10487889D01*
X19880277Y-10487889D02*
X19870753Y-10506936D01*
X19870753Y-10506936D02*
X19861229Y-10516460D01*
X19861229Y-10516460D02*
X19842182Y-10525984D01*
X19842182Y-10525984D02*
X19823134Y-10525984D01*
X19823134Y-10525984D02*
X19804087Y-10516460D01*
X19804087Y-10516460D02*
X19794563Y-10506936D01*
X19794563Y-10506936D02*
X19785039Y-10487889D01*
X19785039Y-10487889D02*
X19775515Y-10449793D01*
X19775515Y-10449793D02*
X19775515Y-10402174D01*
X19775515Y-10402174D02*
X19785039Y-10364079D01*
X19785039Y-10364079D02*
X19794563Y-10345031D01*
X19794563Y-10345031D02*
X19804087Y-10335508D01*
X19804087Y-10335508D02*
X19823134Y-10325984D01*
X19975515Y-10506936D02*
X19985039Y-10516460D01*
X19985039Y-10516460D02*
X19975515Y-10525984D01*
X19975515Y-10525984D02*
X19965991Y-10516460D01*
X19965991Y-10516460D02*
X19975515Y-10506936D01*
X19975515Y-10506936D02*
X19975515Y-10525984D01*
X20175515Y-10525984D02*
X20061229Y-10525984D01*
X20118372Y-10525984D02*
X20118372Y-10325984D01*
X20118372Y-10325984D02*
X20099325Y-10354555D01*
X20099325Y-10354555D02*
X20080277Y-10373603D01*
X20080277Y-10373603D02*
X20061229Y-10383127D01*
X20251706Y-10345031D02*
X20261229Y-10335508D01*
X20261229Y-10335508D02*
X20280277Y-10325984D01*
X20280277Y-10325984D02*
X20327896Y-10325984D01*
X20327896Y-10325984D02*
X20346944Y-10335508D01*
X20346944Y-10335508D02*
X20356468Y-10345031D01*
X20356468Y-10345031D02*
X20365991Y-10364079D01*
X20365991Y-10364079D02*
X20365991Y-10383127D01*
X20365991Y-10383127D02*
X20356468Y-10411698D01*
X20356468Y-10411698D02*
X20242182Y-10525984D01*
X20242182Y-10525984D02*
X20365991Y-10525984D01*
X20537420Y-10325984D02*
X20499325Y-10325984D01*
X20499325Y-10325984D02*
X20480277Y-10335508D01*
X20480277Y-10335508D02*
X20470753Y-10345031D01*
X20470753Y-10345031D02*
X20451706Y-10373603D01*
X20451706Y-10373603D02*
X20442182Y-10411698D01*
X20442182Y-10411698D02*
X20442182Y-10487889D01*
X20442182Y-10487889D02*
X20451706Y-10506936D01*
X20451706Y-10506936D02*
X20461229Y-10516460D01*
X20461229Y-10516460D02*
X20480277Y-10525984D01*
X20480277Y-10525984D02*
X20518372Y-10525984D01*
X20518372Y-10525984D02*
X20537420Y-10516460D01*
X20537420Y-10516460D02*
X20546944Y-10506936D01*
X20546944Y-10506936D02*
X20556468Y-10487889D01*
X20556468Y-10487889D02*
X20556468Y-10440270D01*
X20556468Y-10440270D02*
X20546944Y-10421222D01*
X20546944Y-10421222D02*
X20537420Y-10411698D01*
X20537420Y-10411698D02*
X20518372Y-10402174D01*
X20518372Y-10402174D02*
X20480277Y-10402174D01*
X20480277Y-10402174D02*
X20461229Y-10411698D01*
X20461229Y-10411698D02*
X20451706Y-10421222D01*
X20451706Y-10421222D02*
X20442182Y-10440270D01*
X20680277Y-10325984D02*
X20699325Y-10325984D01*
X20699325Y-10325984D02*
X20718372Y-10335508D01*
X20718372Y-10335508D02*
X20727896Y-10345031D01*
X20727896Y-10345031D02*
X20737420Y-10364079D01*
X20737420Y-10364079D02*
X20746944Y-10402174D01*
X20746944Y-10402174D02*
X20746944Y-10449793D01*
X20746944Y-10449793D02*
X20737420Y-10487889D01*
X20737420Y-10487889D02*
X20727896Y-10506936D01*
X20727896Y-10506936D02*
X20718372Y-10516460D01*
X20718372Y-10516460D02*
X20699325Y-10525984D01*
X20699325Y-10525984D02*
X20680277Y-10525984D01*
X20680277Y-10525984D02*
X20661229Y-10516460D01*
X20661229Y-10516460D02*
X20651706Y-10506936D01*
X20651706Y-10506936D02*
X20642182Y-10487889D01*
X20642182Y-10487889D02*
X20632658Y-10449793D01*
X20632658Y-10449793D02*
X20632658Y-10402174D01*
X20632658Y-10402174D02*
X20642182Y-10364079D01*
X20642182Y-10364079D02*
X20651706Y-10345031D01*
X20651706Y-10345031D02*
X20661229Y-10335508D01*
X20661229Y-10335508D02*
X20680277Y-10325984D01*
X20823134Y-10325984D02*
X20823134Y-10364079D01*
X20899325Y-10325984D02*
X20899325Y-10364079D01*
X21194563Y-10602174D02*
X21185039Y-10592650D01*
X21185039Y-10592650D02*
X21165991Y-10564079D01*
X21165991Y-10564079D02*
X21156468Y-10545031D01*
X21156468Y-10545031D02*
X21146944Y-10516460D01*
X21146944Y-10516460D02*
X21137420Y-10468841D01*
X21137420Y-10468841D02*
X21137420Y-10430746D01*
X21137420Y-10430746D02*
X21146944Y-10383127D01*
X21146944Y-10383127D02*
X21156468Y-10354555D01*
X21156468Y-10354555D02*
X21165991Y-10335508D01*
X21165991Y-10335508D02*
X21185039Y-10306936D01*
X21185039Y-10306936D02*
X21194563Y-10297412D01*
X21261230Y-10345031D02*
X21270753Y-10335508D01*
X21270753Y-10335508D02*
X21289801Y-10325984D01*
X21289801Y-10325984D02*
X21337420Y-10325984D01*
X21337420Y-10325984D02*
X21356468Y-10335508D01*
X21356468Y-10335508D02*
X21365991Y-10345031D01*
X21365991Y-10345031D02*
X21375515Y-10364079D01*
X21375515Y-10364079D02*
X21375515Y-10383127D01*
X21375515Y-10383127D02*
X21365991Y-10411698D01*
X21365991Y-10411698D02*
X21251706Y-10525984D01*
X21251706Y-10525984D02*
X21375515Y-10525984D01*
X21613611Y-10525984D02*
X21613611Y-10325984D01*
X21699325Y-10525984D02*
X21699325Y-10421222D01*
X21699325Y-10421222D02*
X21689801Y-10402174D01*
X21689801Y-10402174D02*
X21670753Y-10392650D01*
X21670753Y-10392650D02*
X21642182Y-10392650D01*
X21642182Y-10392650D02*
X21623134Y-10402174D01*
X21623134Y-10402174D02*
X21613611Y-10411698D01*
X21823134Y-10525984D02*
X21804087Y-10516460D01*
X21804087Y-10516460D02*
X21794563Y-10506936D01*
X21794563Y-10506936D02*
X21785039Y-10487889D01*
X21785039Y-10487889D02*
X21785039Y-10430746D01*
X21785039Y-10430746D02*
X21794563Y-10411698D01*
X21794563Y-10411698D02*
X21804087Y-10402174D01*
X21804087Y-10402174D02*
X21823134Y-10392650D01*
X21823134Y-10392650D02*
X21851706Y-10392650D01*
X21851706Y-10392650D02*
X21870753Y-10402174D01*
X21870753Y-10402174D02*
X21880277Y-10411698D01*
X21880277Y-10411698D02*
X21889801Y-10430746D01*
X21889801Y-10430746D02*
X21889801Y-10487889D01*
X21889801Y-10487889D02*
X21880277Y-10506936D01*
X21880277Y-10506936D02*
X21870753Y-10516460D01*
X21870753Y-10516460D02*
X21851706Y-10525984D01*
X21851706Y-10525984D02*
X21823134Y-10525984D01*
X22004087Y-10525984D02*
X21985039Y-10516460D01*
X21985039Y-10516460D02*
X21975515Y-10497412D01*
X21975515Y-10497412D02*
X21975515Y-10325984D01*
X22156468Y-10516460D02*
X22137420Y-10525984D01*
X22137420Y-10525984D02*
X22099325Y-10525984D01*
X22099325Y-10525984D02*
X22080277Y-10516460D01*
X22080277Y-10516460D02*
X22070753Y-10497412D01*
X22070753Y-10497412D02*
X22070753Y-10421222D01*
X22070753Y-10421222D02*
X22080277Y-10402174D01*
X22080277Y-10402174D02*
X22099325Y-10392650D01*
X22099325Y-10392650D02*
X22137420Y-10392650D01*
X22137420Y-10392650D02*
X22156468Y-10402174D01*
X22156468Y-10402174D02*
X22165992Y-10421222D01*
X22165992Y-10421222D02*
X22165992Y-10440270D01*
X22165992Y-10440270D02*
X22070753Y-10459317D01*
X22242182Y-10516460D02*
X22261230Y-10525984D01*
X22261230Y-10525984D02*
X22299325Y-10525984D01*
X22299325Y-10525984D02*
X22318373Y-10516460D01*
X22318373Y-10516460D02*
X22327896Y-10497412D01*
X22327896Y-10497412D02*
X22327896Y-10487889D01*
X22327896Y-10487889D02*
X22318373Y-10468841D01*
X22318373Y-10468841D02*
X22299325Y-10459317D01*
X22299325Y-10459317D02*
X22270753Y-10459317D01*
X22270753Y-10459317D02*
X22251706Y-10449793D01*
X22251706Y-10449793D02*
X22242182Y-10430746D01*
X22242182Y-10430746D02*
X22242182Y-10421222D01*
X22242182Y-10421222D02*
X22251706Y-10402174D01*
X22251706Y-10402174D02*
X22270753Y-10392650D01*
X22270753Y-10392650D02*
X22299325Y-10392650D01*
X22299325Y-10392650D02*
X22318373Y-10402174D01*
X22394563Y-10602174D02*
X22404087Y-10592650D01*
X22404087Y-10592650D02*
X22423134Y-10564079D01*
X22423134Y-10564079D02*
X22432658Y-10545031D01*
X22432658Y-10545031D02*
X22442182Y-10516460D01*
X22442182Y-10516460D02*
X22451706Y-10468841D01*
X22451706Y-10468841D02*
X22451706Y-10430746D01*
X22451706Y-10430746D02*
X22442182Y-10383127D01*
X22442182Y-10383127D02*
X22432658Y-10354555D01*
X22432658Y-10354555D02*
X22423134Y-10335508D01*
X22423134Y-10335508D02*
X22404087Y-10306936D01*
X22404087Y-10306936D02*
X22394563Y-10297412D01*
M02*
