%TF.GenerationSoftware,KiCad,Pcbnew,9.0.6*%
%TF.CreationDate,2026-01-27T05:52:47-03:00*%
%TF.ProjectId,evasion_sensor,65766173-696f-46e5-9f73-656e736f722e,rev?*%
%TF.SameCoordinates,Original*%
%TF.FileFunction,Soldermask,Top*%
%TF.FilePolarity,Negative*%
%FSLAX46Y46*%
G04 Gerber Fmt 4.6, Leading zero omitted, Abs format (unit mm)*
G04 Created by KiCad (PCBNEW 9.0.6) date 2026-01-27 05:52:47*
%MOMM*%
%LPD*%
G01*
G04 APERTURE LIST*
G04 Aperture macros list*
%AMRoundRect*
0 Rectangle with rounded corners*
0 $1 Rounding radius*
0 $2 $3 $4 $5 $6 $7 $8 $9 X,Y pos of 4 corners*
0 Add a 4 corners polygon primitive as box body*
4,1,4,$2,$3,$4,$5,$6,$7,$8,$9,$2,$3,0*
0 Add four circle primitives for the rounded corners*
1,1,$1+$1,$2,$3*
1,1,$1+$1,$4,$5*
1,1,$1+$1,$6,$7*
1,1,$1+$1,$8,$9*
0 Add four rect primitives between the rounded corners*
20,1,$1+$1,$2,$3,$4,$5,0*
20,1,$1+$1,$4,$5,$6,$7,0*
20,1,$1+$1,$6,$7,$8,$9,0*
20,1,$1+$1,$8,$9,$2,$3,0*%
G04 Aperture macros list end*
%ADD10RoundRect,0.250000X0.400000X0.625000X-0.400000X0.625000X-0.400000X-0.625000X0.400000X-0.625000X0*%
%ADD11RoundRect,0.100000X0.637500X0.100000X-0.637500X0.100000X-0.637500X-0.100000X0.637500X-0.100000X0*%
%ADD12RoundRect,0.250000X-0.625000X0.400000X-0.625000X-0.400000X0.625000X-0.400000X0.625000X0.400000X0*%
%ADD13RoundRect,0.250000X-0.400000X-0.625000X0.400000X-0.625000X0.400000X0.625000X-0.400000X0.625000X0*%
%ADD14RoundRect,0.250000X-0.650000X0.412500X-0.650000X-0.412500X0.650000X-0.412500X0.650000X0.412500X0*%
%ADD15R,1.700000X1.700000*%
%ADD16C,1.700000*%
%ADD17C,5.700000*%
G04 APERTURE END LIST*
D10*
%TO.C,R10*%
X210340000Y-70910000D03*
X207240000Y-70910000D03*
%TD*%
%TO.C,R8*%
X210340000Y-63270000D03*
X207240000Y-63270000D03*
%TD*%
%TO.C,R11*%
X210340000Y-74730000D03*
X207240000Y-74730000D03*
%TD*%
D11*
%TO.C,U1*%
X192220000Y-77170000D03*
X192220000Y-76520000D03*
X192220000Y-75870000D03*
X192220000Y-75220000D03*
X192220000Y-74570000D03*
X192220000Y-73920000D03*
X192220000Y-73270000D03*
X192220000Y-72620000D03*
X192220000Y-71970000D03*
X192220000Y-71320000D03*
X192220000Y-70670000D03*
X192220000Y-70020000D03*
X186495000Y-70020000D03*
X186495000Y-70670000D03*
X186495000Y-71320000D03*
X186495000Y-71970000D03*
X186495000Y-72620000D03*
X186495000Y-73270000D03*
X186495000Y-73920000D03*
X186495000Y-74570000D03*
X186495000Y-75220000D03*
X186495000Y-75870000D03*
X186495000Y-76520000D03*
X186495000Y-77170000D03*
%TD*%
D12*
%TO.C,R4*%
X186780000Y-80850000D03*
X186780000Y-83950000D03*
%TD*%
%TO.C,R6*%
X190410000Y-80850000D03*
X190410000Y-83950000D03*
%TD*%
D10*
%TO.C,R13*%
X210340000Y-82370000D03*
X207240000Y-82370000D03*
%TD*%
%TO.C,R9*%
X210340000Y-67090000D03*
X207240000Y-67090000D03*
%TD*%
%TO.C,R12*%
X210340000Y-78550000D03*
X207240000Y-78550000D03*
%TD*%
D13*
%TO.C,R1*%
X179960000Y-72160000D03*
X183060000Y-72160000D03*
%TD*%
D14*
%TO.C,C1*%
X191270000Y-64417500D03*
X191270000Y-67542500D03*
%TD*%
D12*
%TO.C,R5*%
X194090000Y-80870000D03*
X194090000Y-83970000D03*
%TD*%
D15*
%TO.C,J1*%
X203130000Y-64740000D03*
D16*
X203130000Y-67280000D03*
X203130000Y-69820000D03*
X203130000Y-72360000D03*
X203130000Y-74900000D03*
X203130000Y-77440000D03*
X203130000Y-79980000D03*
X203130000Y-82520000D03*
%TD*%
D10*
%TO.C,R7*%
X210340000Y-59450000D03*
X207240000Y-59450000D03*
%TD*%
D12*
%TO.C,R3*%
X187410000Y-64400000D03*
X187410000Y-67500000D03*
%TD*%
D13*
%TO.C,R2*%
X179960000Y-75950000D03*
X183060000Y-75950000D03*
%TD*%
D10*
%TO.C,R14*%
X210340000Y-86190000D03*
X207240000Y-86190000D03*
%TD*%
D15*
%TO.C,J2*%
X193250000Y-58830000D03*
D16*
X190710000Y-58830000D03*
X188170000Y-58830000D03*
X185630000Y-58830000D03*
%TD*%
D17*
%TO.C,H1*%
X199610000Y-58550000D03*
%TD*%
%TO.C,H2*%
X199610000Y-88080000D03*
%TD*%
M02*
