%TF.GenerationSoftware,KiCad,Pcbnew,9.0.6*%
%TF.CreationDate,2026-01-26T18:49:08-03:00*%
%TF.ProjectId,evasion_sensor,65766173-696f-46e5-9f73-656e736f722e,rev?*%
%TF.SameCoordinates,Original*%
%TF.FileFunction,Legend,Top*%
%TF.FilePolarity,Positive*%
%FSLAX46Y46*%
G04 Gerber Fmt 4.6, Leading zero omitted, Abs format (unit mm)*
G04 Created by KiCad (PCBNEW 9.0.6) date 2026-01-26 18:49:08*
%MOMM*%
%LPD*%
G01*
G04 APERTURE LIST*
%ADD10C,0.125000*%
%ADD11C,0.150000*%
%ADD12C,0.120000*%
G04 APERTURE END LIST*
D10*
X197752712Y-65724088D02*
X197895569Y-65795516D01*
X197895569Y-65795516D02*
X198133664Y-65795516D01*
X198133664Y-65795516D02*
X198228902Y-65724088D01*
X198228902Y-65724088D02*
X198276521Y-65652659D01*
X198276521Y-65652659D02*
X198324140Y-65509802D01*
X198324140Y-65509802D02*
X198324140Y-65366945D01*
X198324140Y-65366945D02*
X198276521Y-65224088D01*
X198276521Y-65224088D02*
X198228902Y-65152659D01*
X198228902Y-65152659D02*
X198133664Y-65081230D01*
X198133664Y-65081230D02*
X197943188Y-65009802D01*
X197943188Y-65009802D02*
X197847950Y-64938373D01*
X197847950Y-64938373D02*
X197800331Y-64866945D01*
X197800331Y-64866945D02*
X197752712Y-64724088D01*
X197752712Y-64724088D02*
X197752712Y-64581230D01*
X197752712Y-64581230D02*
X197800331Y-64438373D01*
X197800331Y-64438373D02*
X197847950Y-64366945D01*
X197847950Y-64366945D02*
X197943188Y-64295516D01*
X197943188Y-64295516D02*
X198181283Y-64295516D01*
X198181283Y-64295516D02*
X198324140Y-64366945D01*
X199324140Y-65652659D02*
X199276521Y-65724088D01*
X199276521Y-65724088D02*
X199133664Y-65795516D01*
X199133664Y-65795516D02*
X199038426Y-65795516D01*
X199038426Y-65795516D02*
X198895569Y-65724088D01*
X198895569Y-65724088D02*
X198800331Y-65581230D01*
X198800331Y-65581230D02*
X198752712Y-65438373D01*
X198752712Y-65438373D02*
X198705093Y-65152659D01*
X198705093Y-65152659D02*
X198705093Y-64938373D01*
X198705093Y-64938373D02*
X198752712Y-64652659D01*
X198752712Y-64652659D02*
X198800331Y-64509802D01*
X198800331Y-64509802D02*
X198895569Y-64366945D01*
X198895569Y-64366945D02*
X199038426Y-64295516D01*
X199038426Y-64295516D02*
X199133664Y-64295516D01*
X199133664Y-64295516D02*
X199276521Y-64366945D01*
X199276521Y-64366945D02*
X199324140Y-64438373D01*
X200228902Y-65795516D02*
X199752712Y-65795516D01*
X199752712Y-65795516D02*
X199752712Y-64295516D01*
X200466998Y-64295516D02*
X201086045Y-64295516D01*
X201086045Y-64295516D02*
X200752712Y-64866945D01*
X200752712Y-64866945D02*
X200895569Y-64866945D01*
X200895569Y-64866945D02*
X200990807Y-64938373D01*
X200990807Y-64938373D02*
X201038426Y-65009802D01*
X201038426Y-65009802D02*
X201086045Y-65152659D01*
X201086045Y-65152659D02*
X201086045Y-65509802D01*
X201086045Y-65509802D02*
X201038426Y-65652659D01*
X201038426Y-65652659D02*
X200990807Y-65724088D01*
X200990807Y-65724088D02*
X200895569Y-65795516D01*
X200895569Y-65795516D02*
X200609855Y-65795516D01*
X200609855Y-65795516D02*
X200514617Y-65724088D01*
X200514617Y-65724088D02*
X200466998Y-65652659D01*
X197752712Y-68139004D02*
X197895569Y-68210432D01*
X197895569Y-68210432D02*
X198133664Y-68210432D01*
X198133664Y-68210432D02*
X198228902Y-68139004D01*
X198228902Y-68139004D02*
X198276521Y-68067575D01*
X198276521Y-68067575D02*
X198324140Y-67924718D01*
X198324140Y-67924718D02*
X198324140Y-67781861D01*
X198324140Y-67781861D02*
X198276521Y-67639004D01*
X198276521Y-67639004D02*
X198228902Y-67567575D01*
X198228902Y-67567575D02*
X198133664Y-67496146D01*
X198133664Y-67496146D02*
X197943188Y-67424718D01*
X197943188Y-67424718D02*
X197847950Y-67353289D01*
X197847950Y-67353289D02*
X197800331Y-67281861D01*
X197800331Y-67281861D02*
X197752712Y-67139004D01*
X197752712Y-67139004D02*
X197752712Y-66996146D01*
X197752712Y-66996146D02*
X197800331Y-66853289D01*
X197800331Y-66853289D02*
X197847950Y-66781861D01*
X197847950Y-66781861D02*
X197943188Y-66710432D01*
X197943188Y-66710432D02*
X198181283Y-66710432D01*
X198181283Y-66710432D02*
X198324140Y-66781861D01*
X198752712Y-68210432D02*
X198752712Y-66710432D01*
X198752712Y-66710432D02*
X198990807Y-66710432D01*
X198990807Y-66710432D02*
X199133664Y-66781861D01*
X199133664Y-66781861D02*
X199228902Y-66924718D01*
X199228902Y-66924718D02*
X199276521Y-67067575D01*
X199276521Y-67067575D02*
X199324140Y-67353289D01*
X199324140Y-67353289D02*
X199324140Y-67567575D01*
X199324140Y-67567575D02*
X199276521Y-67853289D01*
X199276521Y-67853289D02*
X199228902Y-67996146D01*
X199228902Y-67996146D02*
X199133664Y-68139004D01*
X199133664Y-68139004D02*
X198990807Y-68210432D01*
X198990807Y-68210432D02*
X198752712Y-68210432D01*
X199705093Y-67781861D02*
X200181283Y-67781861D01*
X199609855Y-68210432D02*
X199943188Y-66710432D01*
X199943188Y-66710432D02*
X200276521Y-68210432D01*
X200514617Y-66710432D02*
X201133664Y-66710432D01*
X201133664Y-66710432D02*
X200800331Y-67281861D01*
X200800331Y-67281861D02*
X200943188Y-67281861D01*
X200943188Y-67281861D02*
X201038426Y-67353289D01*
X201038426Y-67353289D02*
X201086045Y-67424718D01*
X201086045Y-67424718D02*
X201133664Y-67567575D01*
X201133664Y-67567575D02*
X201133664Y-67924718D01*
X201133664Y-67924718D02*
X201086045Y-68067575D01*
X201086045Y-68067575D02*
X201038426Y-68139004D01*
X201038426Y-68139004D02*
X200943188Y-68210432D01*
X200943188Y-68210432D02*
X200657474Y-68210432D01*
X200657474Y-68210432D02*
X200562236Y-68139004D01*
X200562236Y-68139004D02*
X200514617Y-68067575D01*
X197752712Y-70553920D02*
X197895569Y-70625348D01*
X197895569Y-70625348D02*
X198133664Y-70625348D01*
X198133664Y-70625348D02*
X198228902Y-70553920D01*
X198228902Y-70553920D02*
X198276521Y-70482491D01*
X198276521Y-70482491D02*
X198324140Y-70339634D01*
X198324140Y-70339634D02*
X198324140Y-70196777D01*
X198324140Y-70196777D02*
X198276521Y-70053920D01*
X198276521Y-70053920D02*
X198228902Y-69982491D01*
X198228902Y-69982491D02*
X198133664Y-69911062D01*
X198133664Y-69911062D02*
X197943188Y-69839634D01*
X197943188Y-69839634D02*
X197847950Y-69768205D01*
X197847950Y-69768205D02*
X197800331Y-69696777D01*
X197800331Y-69696777D02*
X197752712Y-69553920D01*
X197752712Y-69553920D02*
X197752712Y-69411062D01*
X197752712Y-69411062D02*
X197800331Y-69268205D01*
X197800331Y-69268205D02*
X197847950Y-69196777D01*
X197847950Y-69196777D02*
X197943188Y-69125348D01*
X197943188Y-69125348D02*
X198181283Y-69125348D01*
X198181283Y-69125348D02*
X198324140Y-69196777D01*
X199324140Y-70482491D02*
X199276521Y-70553920D01*
X199276521Y-70553920D02*
X199133664Y-70625348D01*
X199133664Y-70625348D02*
X199038426Y-70625348D01*
X199038426Y-70625348D02*
X198895569Y-70553920D01*
X198895569Y-70553920D02*
X198800331Y-70411062D01*
X198800331Y-70411062D02*
X198752712Y-70268205D01*
X198752712Y-70268205D02*
X198705093Y-69982491D01*
X198705093Y-69982491D02*
X198705093Y-69768205D01*
X198705093Y-69768205D02*
X198752712Y-69482491D01*
X198752712Y-69482491D02*
X198800331Y-69339634D01*
X198800331Y-69339634D02*
X198895569Y-69196777D01*
X198895569Y-69196777D02*
X199038426Y-69125348D01*
X199038426Y-69125348D02*
X199133664Y-69125348D01*
X199133664Y-69125348D02*
X199276521Y-69196777D01*
X199276521Y-69196777D02*
X199324140Y-69268205D01*
X200228902Y-70625348D02*
X199752712Y-70625348D01*
X199752712Y-70625348D02*
X199752712Y-69125348D01*
X200514617Y-69268205D02*
X200562236Y-69196777D01*
X200562236Y-69196777D02*
X200657474Y-69125348D01*
X200657474Y-69125348D02*
X200895569Y-69125348D01*
X200895569Y-69125348D02*
X200990807Y-69196777D01*
X200990807Y-69196777D02*
X201038426Y-69268205D01*
X201038426Y-69268205D02*
X201086045Y-69411062D01*
X201086045Y-69411062D02*
X201086045Y-69553920D01*
X201086045Y-69553920D02*
X201038426Y-69768205D01*
X201038426Y-69768205D02*
X200466998Y-70625348D01*
X200466998Y-70625348D02*
X201086045Y-70625348D01*
X197752712Y-72968836D02*
X197895569Y-73040264D01*
X197895569Y-73040264D02*
X198133664Y-73040264D01*
X198133664Y-73040264D02*
X198228902Y-72968836D01*
X198228902Y-72968836D02*
X198276521Y-72897407D01*
X198276521Y-72897407D02*
X198324140Y-72754550D01*
X198324140Y-72754550D02*
X198324140Y-72611693D01*
X198324140Y-72611693D02*
X198276521Y-72468836D01*
X198276521Y-72468836D02*
X198228902Y-72397407D01*
X198228902Y-72397407D02*
X198133664Y-72325978D01*
X198133664Y-72325978D02*
X197943188Y-72254550D01*
X197943188Y-72254550D02*
X197847950Y-72183121D01*
X197847950Y-72183121D02*
X197800331Y-72111693D01*
X197800331Y-72111693D02*
X197752712Y-71968836D01*
X197752712Y-71968836D02*
X197752712Y-71825978D01*
X197752712Y-71825978D02*
X197800331Y-71683121D01*
X197800331Y-71683121D02*
X197847950Y-71611693D01*
X197847950Y-71611693D02*
X197943188Y-71540264D01*
X197943188Y-71540264D02*
X198181283Y-71540264D01*
X198181283Y-71540264D02*
X198324140Y-71611693D01*
X198752712Y-73040264D02*
X198752712Y-71540264D01*
X198752712Y-71540264D02*
X198990807Y-71540264D01*
X198990807Y-71540264D02*
X199133664Y-71611693D01*
X199133664Y-71611693D02*
X199228902Y-71754550D01*
X199228902Y-71754550D02*
X199276521Y-71897407D01*
X199276521Y-71897407D02*
X199324140Y-72183121D01*
X199324140Y-72183121D02*
X199324140Y-72397407D01*
X199324140Y-72397407D02*
X199276521Y-72683121D01*
X199276521Y-72683121D02*
X199228902Y-72825978D01*
X199228902Y-72825978D02*
X199133664Y-72968836D01*
X199133664Y-72968836D02*
X198990807Y-73040264D01*
X198990807Y-73040264D02*
X198752712Y-73040264D01*
X199705093Y-72611693D02*
X200181283Y-72611693D01*
X199609855Y-73040264D02*
X199943188Y-71540264D01*
X199943188Y-71540264D02*
X200276521Y-73040264D01*
X200562236Y-71683121D02*
X200609855Y-71611693D01*
X200609855Y-71611693D02*
X200705093Y-71540264D01*
X200705093Y-71540264D02*
X200943188Y-71540264D01*
X200943188Y-71540264D02*
X201038426Y-71611693D01*
X201038426Y-71611693D02*
X201086045Y-71683121D01*
X201086045Y-71683121D02*
X201133664Y-71825978D01*
X201133664Y-71825978D02*
X201133664Y-71968836D01*
X201133664Y-71968836D02*
X201086045Y-72183121D01*
X201086045Y-72183121D02*
X200514617Y-73040264D01*
X200514617Y-73040264D02*
X201133664Y-73040264D01*
X197752712Y-75383752D02*
X197895569Y-75455180D01*
X197895569Y-75455180D02*
X198133664Y-75455180D01*
X198133664Y-75455180D02*
X198228902Y-75383752D01*
X198228902Y-75383752D02*
X198276521Y-75312323D01*
X198276521Y-75312323D02*
X198324140Y-75169466D01*
X198324140Y-75169466D02*
X198324140Y-75026609D01*
X198324140Y-75026609D02*
X198276521Y-74883752D01*
X198276521Y-74883752D02*
X198228902Y-74812323D01*
X198228902Y-74812323D02*
X198133664Y-74740894D01*
X198133664Y-74740894D02*
X197943188Y-74669466D01*
X197943188Y-74669466D02*
X197847950Y-74598037D01*
X197847950Y-74598037D02*
X197800331Y-74526609D01*
X197800331Y-74526609D02*
X197752712Y-74383752D01*
X197752712Y-74383752D02*
X197752712Y-74240894D01*
X197752712Y-74240894D02*
X197800331Y-74098037D01*
X197800331Y-74098037D02*
X197847950Y-74026609D01*
X197847950Y-74026609D02*
X197943188Y-73955180D01*
X197943188Y-73955180D02*
X198181283Y-73955180D01*
X198181283Y-73955180D02*
X198324140Y-74026609D01*
X199324140Y-75312323D02*
X199276521Y-75383752D01*
X199276521Y-75383752D02*
X199133664Y-75455180D01*
X199133664Y-75455180D02*
X199038426Y-75455180D01*
X199038426Y-75455180D02*
X198895569Y-75383752D01*
X198895569Y-75383752D02*
X198800331Y-75240894D01*
X198800331Y-75240894D02*
X198752712Y-75098037D01*
X198752712Y-75098037D02*
X198705093Y-74812323D01*
X198705093Y-74812323D02*
X198705093Y-74598037D01*
X198705093Y-74598037D02*
X198752712Y-74312323D01*
X198752712Y-74312323D02*
X198800331Y-74169466D01*
X198800331Y-74169466D02*
X198895569Y-74026609D01*
X198895569Y-74026609D02*
X199038426Y-73955180D01*
X199038426Y-73955180D02*
X199133664Y-73955180D01*
X199133664Y-73955180D02*
X199276521Y-74026609D01*
X199276521Y-74026609D02*
X199324140Y-74098037D01*
X200228902Y-75455180D02*
X199752712Y-75455180D01*
X199752712Y-75455180D02*
X199752712Y-73955180D01*
X201086045Y-75455180D02*
X200514617Y-75455180D01*
X200800331Y-75455180D02*
X200800331Y-73955180D01*
X200800331Y-73955180D02*
X200705093Y-74169466D01*
X200705093Y-74169466D02*
X200609855Y-74312323D01*
X200609855Y-74312323D02*
X200514617Y-74383752D01*
X197752712Y-77798668D02*
X197895569Y-77870096D01*
X197895569Y-77870096D02*
X198133664Y-77870096D01*
X198133664Y-77870096D02*
X198228902Y-77798668D01*
X198228902Y-77798668D02*
X198276521Y-77727239D01*
X198276521Y-77727239D02*
X198324140Y-77584382D01*
X198324140Y-77584382D02*
X198324140Y-77441525D01*
X198324140Y-77441525D02*
X198276521Y-77298668D01*
X198276521Y-77298668D02*
X198228902Y-77227239D01*
X198228902Y-77227239D02*
X198133664Y-77155810D01*
X198133664Y-77155810D02*
X197943188Y-77084382D01*
X197943188Y-77084382D02*
X197847950Y-77012953D01*
X197847950Y-77012953D02*
X197800331Y-76941525D01*
X197800331Y-76941525D02*
X197752712Y-76798668D01*
X197752712Y-76798668D02*
X197752712Y-76655810D01*
X197752712Y-76655810D02*
X197800331Y-76512953D01*
X197800331Y-76512953D02*
X197847950Y-76441525D01*
X197847950Y-76441525D02*
X197943188Y-76370096D01*
X197943188Y-76370096D02*
X198181283Y-76370096D01*
X198181283Y-76370096D02*
X198324140Y-76441525D01*
X198752712Y-77870096D02*
X198752712Y-76370096D01*
X198752712Y-76370096D02*
X198990807Y-76370096D01*
X198990807Y-76370096D02*
X199133664Y-76441525D01*
X199133664Y-76441525D02*
X199228902Y-76584382D01*
X199228902Y-76584382D02*
X199276521Y-76727239D01*
X199276521Y-76727239D02*
X199324140Y-77012953D01*
X199324140Y-77012953D02*
X199324140Y-77227239D01*
X199324140Y-77227239D02*
X199276521Y-77512953D01*
X199276521Y-77512953D02*
X199228902Y-77655810D01*
X199228902Y-77655810D02*
X199133664Y-77798668D01*
X199133664Y-77798668D02*
X198990807Y-77870096D01*
X198990807Y-77870096D02*
X198752712Y-77870096D01*
X199705093Y-77441525D02*
X200181283Y-77441525D01*
X199609855Y-77870096D02*
X199943188Y-76370096D01*
X199943188Y-76370096D02*
X200276521Y-77870096D01*
X201133664Y-77870096D02*
X200562236Y-77870096D01*
X200847950Y-77870096D02*
X200847950Y-76370096D01*
X200847950Y-76370096D02*
X200752712Y-76584382D01*
X200752712Y-76584382D02*
X200657474Y-76727239D01*
X200657474Y-76727239D02*
X200562236Y-76798668D01*
X197752712Y-80213584D02*
X197895569Y-80285012D01*
X197895569Y-80285012D02*
X198133664Y-80285012D01*
X198133664Y-80285012D02*
X198228902Y-80213584D01*
X198228902Y-80213584D02*
X198276521Y-80142155D01*
X198276521Y-80142155D02*
X198324140Y-79999298D01*
X198324140Y-79999298D02*
X198324140Y-79856441D01*
X198324140Y-79856441D02*
X198276521Y-79713584D01*
X198276521Y-79713584D02*
X198228902Y-79642155D01*
X198228902Y-79642155D02*
X198133664Y-79570726D01*
X198133664Y-79570726D02*
X197943188Y-79499298D01*
X197943188Y-79499298D02*
X197847950Y-79427869D01*
X197847950Y-79427869D02*
X197800331Y-79356441D01*
X197800331Y-79356441D02*
X197752712Y-79213584D01*
X197752712Y-79213584D02*
X197752712Y-79070726D01*
X197752712Y-79070726D02*
X197800331Y-78927869D01*
X197800331Y-78927869D02*
X197847950Y-78856441D01*
X197847950Y-78856441D02*
X197943188Y-78785012D01*
X197943188Y-78785012D02*
X198181283Y-78785012D01*
X198181283Y-78785012D02*
X198324140Y-78856441D01*
X199324140Y-80142155D02*
X199276521Y-80213584D01*
X199276521Y-80213584D02*
X199133664Y-80285012D01*
X199133664Y-80285012D02*
X199038426Y-80285012D01*
X199038426Y-80285012D02*
X198895569Y-80213584D01*
X198895569Y-80213584D02*
X198800331Y-80070726D01*
X198800331Y-80070726D02*
X198752712Y-79927869D01*
X198752712Y-79927869D02*
X198705093Y-79642155D01*
X198705093Y-79642155D02*
X198705093Y-79427869D01*
X198705093Y-79427869D02*
X198752712Y-79142155D01*
X198752712Y-79142155D02*
X198800331Y-78999298D01*
X198800331Y-78999298D02*
X198895569Y-78856441D01*
X198895569Y-78856441D02*
X199038426Y-78785012D01*
X199038426Y-78785012D02*
X199133664Y-78785012D01*
X199133664Y-78785012D02*
X199276521Y-78856441D01*
X199276521Y-78856441D02*
X199324140Y-78927869D01*
X200228902Y-80285012D02*
X199752712Y-80285012D01*
X199752712Y-80285012D02*
X199752712Y-78785012D01*
X200752712Y-78785012D02*
X200847950Y-78785012D01*
X200847950Y-78785012D02*
X200943188Y-78856441D01*
X200943188Y-78856441D02*
X200990807Y-78927869D01*
X200990807Y-78927869D02*
X201038426Y-79070726D01*
X201038426Y-79070726D02*
X201086045Y-79356441D01*
X201086045Y-79356441D02*
X201086045Y-79713584D01*
X201086045Y-79713584D02*
X201038426Y-79999298D01*
X201038426Y-79999298D02*
X200990807Y-80142155D01*
X200990807Y-80142155D02*
X200943188Y-80213584D01*
X200943188Y-80213584D02*
X200847950Y-80285012D01*
X200847950Y-80285012D02*
X200752712Y-80285012D01*
X200752712Y-80285012D02*
X200657474Y-80213584D01*
X200657474Y-80213584D02*
X200609855Y-80142155D01*
X200609855Y-80142155D02*
X200562236Y-79999298D01*
X200562236Y-79999298D02*
X200514617Y-79713584D01*
X200514617Y-79713584D02*
X200514617Y-79356441D01*
X200514617Y-79356441D02*
X200562236Y-79070726D01*
X200562236Y-79070726D02*
X200609855Y-78927869D01*
X200609855Y-78927869D02*
X200657474Y-78856441D01*
X200657474Y-78856441D02*
X200752712Y-78785012D01*
X197752712Y-82628500D02*
X197895569Y-82699928D01*
X197895569Y-82699928D02*
X198133664Y-82699928D01*
X198133664Y-82699928D02*
X198228902Y-82628500D01*
X198228902Y-82628500D02*
X198276521Y-82557071D01*
X198276521Y-82557071D02*
X198324140Y-82414214D01*
X198324140Y-82414214D02*
X198324140Y-82271357D01*
X198324140Y-82271357D02*
X198276521Y-82128500D01*
X198276521Y-82128500D02*
X198228902Y-82057071D01*
X198228902Y-82057071D02*
X198133664Y-81985642D01*
X198133664Y-81985642D02*
X197943188Y-81914214D01*
X197943188Y-81914214D02*
X197847950Y-81842785D01*
X197847950Y-81842785D02*
X197800331Y-81771357D01*
X197800331Y-81771357D02*
X197752712Y-81628500D01*
X197752712Y-81628500D02*
X197752712Y-81485642D01*
X197752712Y-81485642D02*
X197800331Y-81342785D01*
X197800331Y-81342785D02*
X197847950Y-81271357D01*
X197847950Y-81271357D02*
X197943188Y-81199928D01*
X197943188Y-81199928D02*
X198181283Y-81199928D01*
X198181283Y-81199928D02*
X198324140Y-81271357D01*
X198752712Y-82699928D02*
X198752712Y-81199928D01*
X198752712Y-81199928D02*
X198990807Y-81199928D01*
X198990807Y-81199928D02*
X199133664Y-81271357D01*
X199133664Y-81271357D02*
X199228902Y-81414214D01*
X199228902Y-81414214D02*
X199276521Y-81557071D01*
X199276521Y-81557071D02*
X199324140Y-81842785D01*
X199324140Y-81842785D02*
X199324140Y-82057071D01*
X199324140Y-82057071D02*
X199276521Y-82342785D01*
X199276521Y-82342785D02*
X199228902Y-82485642D01*
X199228902Y-82485642D02*
X199133664Y-82628500D01*
X199133664Y-82628500D02*
X198990807Y-82699928D01*
X198990807Y-82699928D02*
X198752712Y-82699928D01*
X199705093Y-82271357D02*
X200181283Y-82271357D01*
X199609855Y-82699928D02*
X199943188Y-81199928D01*
X199943188Y-81199928D02*
X200276521Y-82699928D01*
X200800331Y-81199928D02*
X200895569Y-81199928D01*
X200895569Y-81199928D02*
X200990807Y-81271357D01*
X200990807Y-81271357D02*
X201038426Y-81342785D01*
X201038426Y-81342785D02*
X201086045Y-81485642D01*
X201086045Y-81485642D02*
X201133664Y-81771357D01*
X201133664Y-81771357D02*
X201133664Y-82128500D01*
X201133664Y-82128500D02*
X201086045Y-82414214D01*
X201086045Y-82414214D02*
X201038426Y-82557071D01*
X201038426Y-82557071D02*
X200990807Y-82628500D01*
X200990807Y-82628500D02*
X200895569Y-82699928D01*
X200895569Y-82699928D02*
X200800331Y-82699928D01*
X200800331Y-82699928D02*
X200705093Y-82628500D01*
X200705093Y-82628500D02*
X200657474Y-82557071D01*
X200657474Y-82557071D02*
X200609855Y-82414214D01*
X200609855Y-82414214D02*
X200562236Y-82128500D01*
X200562236Y-82128500D02*
X200562236Y-81771357D01*
X200562236Y-81771357D02*
X200609855Y-81485642D01*
X200609855Y-81485642D02*
X200657474Y-81342785D01*
X200657474Y-81342785D02*
X200705093Y-81271357D01*
X200705093Y-81271357D02*
X200800331Y-81199928D01*
X178410331Y-87231175D02*
X178410331Y-86231175D01*
X178410331Y-86231175D02*
X178743664Y-86945460D01*
X178743664Y-86945460D02*
X179076997Y-86231175D01*
X179076997Y-86231175D02*
X179076997Y-87231175D01*
X179553188Y-86231175D02*
X179553188Y-87040698D01*
X179553188Y-87040698D02*
X179600807Y-87135936D01*
X179600807Y-87135936D02*
X179648426Y-87183556D01*
X179648426Y-87183556D02*
X179743664Y-87231175D01*
X179743664Y-87231175D02*
X179934140Y-87231175D01*
X179934140Y-87231175D02*
X180029378Y-87183556D01*
X180029378Y-87183556D02*
X180076997Y-87135936D01*
X180076997Y-87135936D02*
X180124616Y-87040698D01*
X180124616Y-87040698D02*
X180124616Y-86231175D01*
X180505569Y-86231175D02*
X181172235Y-87231175D01*
X181172235Y-86231175D02*
X180505569Y-87231175D01*
X182315093Y-87231175D02*
X182315093Y-86231175D01*
X182743664Y-86326413D02*
X182791283Y-86278794D01*
X182791283Y-86278794D02*
X182886521Y-86231175D01*
X182886521Y-86231175D02*
X183124616Y-86231175D01*
X183124616Y-86231175D02*
X183219854Y-86278794D01*
X183219854Y-86278794D02*
X183267473Y-86326413D01*
X183267473Y-86326413D02*
X183315092Y-86421651D01*
X183315092Y-86421651D02*
X183315092Y-86516889D01*
X183315092Y-86516889D02*
X183267473Y-86659746D01*
X183267473Y-86659746D02*
X182696045Y-87231175D01*
X182696045Y-87231175D02*
X183315092Y-87231175D01*
X184315092Y-87135936D02*
X184267473Y-87183556D01*
X184267473Y-87183556D02*
X184124616Y-87231175D01*
X184124616Y-87231175D02*
X184029378Y-87231175D01*
X184029378Y-87231175D02*
X183886521Y-87183556D01*
X183886521Y-87183556D02*
X183791283Y-87088317D01*
X183791283Y-87088317D02*
X183743664Y-86993079D01*
X183743664Y-86993079D02*
X183696045Y-86802603D01*
X183696045Y-86802603D02*
X183696045Y-86659746D01*
X183696045Y-86659746D02*
X183743664Y-86469270D01*
X183743664Y-86469270D02*
X183791283Y-86374032D01*
X183791283Y-86374032D02*
X183886521Y-86278794D01*
X183886521Y-86278794D02*
X184029378Y-86231175D01*
X184029378Y-86231175D02*
X184124616Y-86231175D01*
X184124616Y-86231175D02*
X184267473Y-86278794D01*
X184267473Y-86278794D02*
X184315092Y-86326413D01*
X178981759Y-88745880D02*
X178934140Y-88793500D01*
X178934140Y-88793500D02*
X178791283Y-88841119D01*
X178791283Y-88841119D02*
X178696045Y-88841119D01*
X178696045Y-88841119D02*
X178553188Y-88793500D01*
X178553188Y-88793500D02*
X178457950Y-88698261D01*
X178457950Y-88698261D02*
X178410331Y-88603023D01*
X178410331Y-88603023D02*
X178362712Y-88412547D01*
X178362712Y-88412547D02*
X178362712Y-88269690D01*
X178362712Y-88269690D02*
X178410331Y-88079214D01*
X178410331Y-88079214D02*
X178457950Y-87983976D01*
X178457950Y-87983976D02*
X178553188Y-87888738D01*
X178553188Y-87888738D02*
X178696045Y-87841119D01*
X178696045Y-87841119D02*
X178791283Y-87841119D01*
X178791283Y-87841119D02*
X178934140Y-87888738D01*
X178934140Y-87888738D02*
X178981759Y-87936357D01*
X179410331Y-88841119D02*
X179410331Y-88174452D01*
X179410331Y-88364928D02*
X179457950Y-88269690D01*
X179457950Y-88269690D02*
X179505569Y-88222071D01*
X179505569Y-88222071D02*
X179600807Y-88174452D01*
X179600807Y-88174452D02*
X179696045Y-88174452D01*
X180029379Y-88841119D02*
X180029379Y-88174452D01*
X180029379Y-87841119D02*
X179981760Y-87888738D01*
X179981760Y-87888738D02*
X180029379Y-87936357D01*
X180029379Y-87936357D02*
X180076998Y-87888738D01*
X180076998Y-87888738D02*
X180029379Y-87841119D01*
X180029379Y-87841119D02*
X180029379Y-87936357D01*
X180457950Y-88793500D02*
X180553188Y-88841119D01*
X180553188Y-88841119D02*
X180743664Y-88841119D01*
X180743664Y-88841119D02*
X180838902Y-88793500D01*
X180838902Y-88793500D02*
X180886521Y-88698261D01*
X180886521Y-88698261D02*
X180886521Y-88650642D01*
X180886521Y-88650642D02*
X180838902Y-88555404D01*
X180838902Y-88555404D02*
X180743664Y-88507785D01*
X180743664Y-88507785D02*
X180600807Y-88507785D01*
X180600807Y-88507785D02*
X180505569Y-88460166D01*
X180505569Y-88460166D02*
X180457950Y-88364928D01*
X180457950Y-88364928D02*
X180457950Y-88317309D01*
X180457950Y-88317309D02*
X180505569Y-88222071D01*
X180505569Y-88222071D02*
X180600807Y-88174452D01*
X180600807Y-88174452D02*
X180743664Y-88174452D01*
X180743664Y-88174452D02*
X180838902Y-88222071D01*
X181172236Y-88174452D02*
X181553188Y-88174452D01*
X181315093Y-87841119D02*
X181315093Y-88698261D01*
X181315093Y-88698261D02*
X181362712Y-88793500D01*
X181362712Y-88793500D02*
X181457950Y-88841119D01*
X181457950Y-88841119D02*
X181553188Y-88841119D01*
X181886522Y-88841119D02*
X181886522Y-88174452D01*
X181886522Y-87841119D02*
X181838903Y-87888738D01*
X181838903Y-87888738D02*
X181886522Y-87936357D01*
X181886522Y-87936357D02*
X181934141Y-87888738D01*
X181934141Y-87888738D02*
X181886522Y-87841119D01*
X181886522Y-87841119D02*
X181886522Y-87936357D01*
X182791283Y-88841119D02*
X182791283Y-88317309D01*
X182791283Y-88317309D02*
X182743664Y-88222071D01*
X182743664Y-88222071D02*
X182648426Y-88174452D01*
X182648426Y-88174452D02*
X182457950Y-88174452D01*
X182457950Y-88174452D02*
X182362712Y-88222071D01*
X182791283Y-88793500D02*
X182696045Y-88841119D01*
X182696045Y-88841119D02*
X182457950Y-88841119D01*
X182457950Y-88841119D02*
X182362712Y-88793500D01*
X182362712Y-88793500D02*
X182315093Y-88698261D01*
X182315093Y-88698261D02*
X182315093Y-88603023D01*
X182315093Y-88603023D02*
X182362712Y-88507785D01*
X182362712Y-88507785D02*
X182457950Y-88460166D01*
X182457950Y-88460166D02*
X182696045Y-88460166D01*
X182696045Y-88460166D02*
X182791283Y-88412547D01*
X183267474Y-88174452D02*
X183267474Y-88841119D01*
X183267474Y-88269690D02*
X183315093Y-88222071D01*
X183315093Y-88222071D02*
X183410331Y-88174452D01*
X183410331Y-88174452D02*
X183553188Y-88174452D01*
X183553188Y-88174452D02*
X183648426Y-88222071D01*
X183648426Y-88222071D02*
X183696045Y-88317309D01*
X183696045Y-88317309D02*
X183696045Y-88841119D01*
X185505569Y-88745880D02*
X185457950Y-88793500D01*
X185457950Y-88793500D02*
X185315093Y-88841119D01*
X185315093Y-88841119D02*
X185219855Y-88841119D01*
X185219855Y-88841119D02*
X185076998Y-88793500D01*
X185076998Y-88793500D02*
X184981760Y-88698261D01*
X184981760Y-88698261D02*
X184934141Y-88603023D01*
X184934141Y-88603023D02*
X184886522Y-88412547D01*
X184886522Y-88412547D02*
X184886522Y-88269690D01*
X184886522Y-88269690D02*
X184934141Y-88079214D01*
X184934141Y-88079214D02*
X184981760Y-87983976D01*
X184981760Y-87983976D02*
X185076998Y-87888738D01*
X185076998Y-87888738D02*
X185219855Y-87841119D01*
X185219855Y-87841119D02*
X185315093Y-87841119D01*
X185315093Y-87841119D02*
X185457950Y-87888738D01*
X185457950Y-87888738D02*
X185505569Y-87936357D01*
X186362712Y-88841119D02*
X186362712Y-88317309D01*
X186362712Y-88317309D02*
X186315093Y-88222071D01*
X186315093Y-88222071D02*
X186219855Y-88174452D01*
X186219855Y-88174452D02*
X186029379Y-88174452D01*
X186029379Y-88174452D02*
X185934141Y-88222071D01*
X186362712Y-88793500D02*
X186267474Y-88841119D01*
X186267474Y-88841119D02*
X186029379Y-88841119D01*
X186029379Y-88841119D02*
X185934141Y-88793500D01*
X185934141Y-88793500D02*
X185886522Y-88698261D01*
X185886522Y-88698261D02*
X185886522Y-88603023D01*
X185886522Y-88603023D02*
X185934141Y-88507785D01*
X185934141Y-88507785D02*
X186029379Y-88460166D01*
X186029379Y-88460166D02*
X186267474Y-88460166D01*
X186267474Y-88460166D02*
X186362712Y-88412547D01*
X186791284Y-88793500D02*
X186886522Y-88841119D01*
X186886522Y-88841119D02*
X187076998Y-88841119D01*
X187076998Y-88841119D02*
X187172236Y-88793500D01*
X187172236Y-88793500D02*
X187219855Y-88698261D01*
X187219855Y-88698261D02*
X187219855Y-88650642D01*
X187219855Y-88650642D02*
X187172236Y-88555404D01*
X187172236Y-88555404D02*
X187076998Y-88507785D01*
X187076998Y-88507785D02*
X186934141Y-88507785D01*
X186934141Y-88507785D02*
X186838903Y-88460166D01*
X186838903Y-88460166D02*
X186791284Y-88364928D01*
X186791284Y-88364928D02*
X186791284Y-88317309D01*
X186791284Y-88317309D02*
X186838903Y-88222071D01*
X186838903Y-88222071D02*
X186934141Y-88174452D01*
X186934141Y-88174452D02*
X187076998Y-88174452D01*
X187076998Y-88174452D02*
X187172236Y-88222071D01*
X187505570Y-88174452D02*
X187886522Y-88174452D01*
X187648427Y-87841119D02*
X187648427Y-88698261D01*
X187648427Y-88698261D02*
X187696046Y-88793500D01*
X187696046Y-88793500D02*
X187791284Y-88841119D01*
X187791284Y-88841119D02*
X187886522Y-88841119D01*
X188219856Y-88841119D02*
X188219856Y-88174452D01*
X188219856Y-88364928D02*
X188267475Y-88269690D01*
X188267475Y-88269690D02*
X188315094Y-88222071D01*
X188315094Y-88222071D02*
X188410332Y-88174452D01*
X188410332Y-88174452D02*
X188505570Y-88174452D01*
X188981761Y-88841119D02*
X188886523Y-88793500D01*
X188886523Y-88793500D02*
X188838904Y-88745880D01*
X188838904Y-88745880D02*
X188791285Y-88650642D01*
X188791285Y-88650642D02*
X188791285Y-88364928D01*
X188791285Y-88364928D02*
X188838904Y-88269690D01*
X188838904Y-88269690D02*
X188886523Y-88222071D01*
X188886523Y-88222071D02*
X188981761Y-88174452D01*
X188981761Y-88174452D02*
X189124618Y-88174452D01*
X189124618Y-88174452D02*
X189219856Y-88222071D01*
X189219856Y-88222071D02*
X189267475Y-88269690D01*
X189267475Y-88269690D02*
X189315094Y-88364928D01*
X189315094Y-88364928D02*
X189315094Y-88650642D01*
X189315094Y-88650642D02*
X189267475Y-88745880D01*
X189267475Y-88745880D02*
X189219856Y-88793500D01*
X189219856Y-88793500D02*
X189124618Y-88841119D01*
X189124618Y-88841119D02*
X188981761Y-88841119D01*
X190981761Y-88841119D02*
X190505571Y-88841119D01*
X190505571Y-88841119D02*
X190505571Y-87841119D01*
X191743666Y-88841119D02*
X191743666Y-88317309D01*
X191743666Y-88317309D02*
X191696047Y-88222071D01*
X191696047Y-88222071D02*
X191600809Y-88174452D01*
X191600809Y-88174452D02*
X191410333Y-88174452D01*
X191410333Y-88174452D02*
X191315095Y-88222071D01*
X191743666Y-88793500D02*
X191648428Y-88841119D01*
X191648428Y-88841119D02*
X191410333Y-88841119D01*
X191410333Y-88841119D02*
X191315095Y-88793500D01*
X191315095Y-88793500D02*
X191267476Y-88698261D01*
X191267476Y-88698261D02*
X191267476Y-88603023D01*
X191267476Y-88603023D02*
X191315095Y-88507785D01*
X191315095Y-88507785D02*
X191410333Y-88460166D01*
X191410333Y-88460166D02*
X191648428Y-88460166D01*
X191648428Y-88460166D02*
X191743666Y-88412547D01*
X192648428Y-88174452D02*
X192648428Y-88983976D01*
X192648428Y-88983976D02*
X192600809Y-89079214D01*
X192600809Y-89079214D02*
X192553190Y-89126833D01*
X192553190Y-89126833D02*
X192457952Y-89174452D01*
X192457952Y-89174452D02*
X192315095Y-89174452D01*
X192315095Y-89174452D02*
X192219857Y-89126833D01*
X192648428Y-88793500D02*
X192553190Y-88841119D01*
X192553190Y-88841119D02*
X192362714Y-88841119D01*
X192362714Y-88841119D02*
X192267476Y-88793500D01*
X192267476Y-88793500D02*
X192219857Y-88745880D01*
X192219857Y-88745880D02*
X192172238Y-88650642D01*
X192172238Y-88650642D02*
X192172238Y-88364928D01*
X192172238Y-88364928D02*
X192219857Y-88269690D01*
X192219857Y-88269690D02*
X192267476Y-88222071D01*
X192267476Y-88222071D02*
X192362714Y-88174452D01*
X192362714Y-88174452D02*
X192553190Y-88174452D01*
X192553190Y-88174452D02*
X192648428Y-88222071D01*
X193267476Y-88841119D02*
X193172238Y-88793500D01*
X193172238Y-88793500D02*
X193124619Y-88745880D01*
X193124619Y-88745880D02*
X193077000Y-88650642D01*
X193077000Y-88650642D02*
X193077000Y-88364928D01*
X193077000Y-88364928D02*
X193124619Y-88269690D01*
X193124619Y-88269690D02*
X193172238Y-88222071D01*
X193172238Y-88222071D02*
X193267476Y-88174452D01*
X193267476Y-88174452D02*
X193410333Y-88174452D01*
X193410333Y-88174452D02*
X193505571Y-88222071D01*
X193505571Y-88222071D02*
X193553190Y-88269690D01*
X193553190Y-88269690D02*
X193600809Y-88364928D01*
X193600809Y-88364928D02*
X193600809Y-88650642D01*
X193600809Y-88650642D02*
X193553190Y-88745880D01*
X193553190Y-88745880D02*
X193505571Y-88793500D01*
X193505571Y-88793500D02*
X193410333Y-88841119D01*
X193410333Y-88841119D02*
X193267476Y-88841119D01*
X193981762Y-88793500D02*
X194077000Y-88841119D01*
X194077000Y-88841119D02*
X194267476Y-88841119D01*
X194267476Y-88841119D02*
X194362714Y-88793500D01*
X194362714Y-88793500D02*
X194410333Y-88698261D01*
X194410333Y-88698261D02*
X194410333Y-88650642D01*
X194410333Y-88650642D02*
X194362714Y-88555404D01*
X194362714Y-88555404D02*
X194267476Y-88507785D01*
X194267476Y-88507785D02*
X194124619Y-88507785D01*
X194124619Y-88507785D02*
X194029381Y-88460166D01*
X194029381Y-88460166D02*
X193981762Y-88364928D01*
X193981762Y-88364928D02*
X193981762Y-88317309D01*
X193981762Y-88317309D02*
X194029381Y-88222071D01*
X194029381Y-88222071D02*
X194124619Y-88174452D01*
X194124619Y-88174452D02*
X194267476Y-88174452D01*
X194267476Y-88174452D02*
X194362714Y-88222071D01*
X186403752Y-63361283D02*
X186475180Y-63218426D01*
X186475180Y-63218426D02*
X186475180Y-62980331D01*
X186475180Y-62980331D02*
X186403752Y-62885093D01*
X186403752Y-62885093D02*
X186332323Y-62837474D01*
X186332323Y-62837474D02*
X186189466Y-62789855D01*
X186189466Y-62789855D02*
X186046609Y-62789855D01*
X186046609Y-62789855D02*
X185903752Y-62837474D01*
X185903752Y-62837474D02*
X185832323Y-62885093D01*
X185832323Y-62885093D02*
X185760894Y-62980331D01*
X185760894Y-62980331D02*
X185689466Y-63170807D01*
X185689466Y-63170807D02*
X185618037Y-63266045D01*
X185618037Y-63266045D02*
X185546609Y-63313664D01*
X185546609Y-63313664D02*
X185403752Y-63361283D01*
X185403752Y-63361283D02*
X185260894Y-63361283D01*
X185260894Y-63361283D02*
X185118037Y-63313664D01*
X185118037Y-63313664D02*
X185046609Y-63266045D01*
X185046609Y-63266045D02*
X184975180Y-63170807D01*
X184975180Y-63170807D02*
X184975180Y-62932712D01*
X184975180Y-62932712D02*
X185046609Y-62789855D01*
X186475180Y-62361283D02*
X184975180Y-62361283D01*
X184975180Y-62361283D02*
X184975180Y-62123188D01*
X184975180Y-62123188D02*
X185046609Y-61980331D01*
X185046609Y-61980331D02*
X185189466Y-61885093D01*
X185189466Y-61885093D02*
X185332323Y-61837474D01*
X185332323Y-61837474D02*
X185618037Y-61789855D01*
X185618037Y-61789855D02*
X185832323Y-61789855D01*
X185832323Y-61789855D02*
X186118037Y-61837474D01*
X186118037Y-61837474D02*
X186260894Y-61885093D01*
X186260894Y-61885093D02*
X186403752Y-61980331D01*
X186403752Y-61980331D02*
X186475180Y-62123188D01*
X186475180Y-62123188D02*
X186475180Y-62361283D01*
X186046609Y-61408902D02*
X186046609Y-60932712D01*
X186475180Y-61504140D02*
X184975180Y-61170807D01*
X184975180Y-61170807D02*
X186475180Y-60837474D01*
X188818668Y-63313664D02*
X188890096Y-63170807D01*
X188890096Y-63170807D02*
X188890096Y-62932712D01*
X188890096Y-62932712D02*
X188818668Y-62837474D01*
X188818668Y-62837474D02*
X188747239Y-62789855D01*
X188747239Y-62789855D02*
X188604382Y-62742236D01*
X188604382Y-62742236D02*
X188461525Y-62742236D01*
X188461525Y-62742236D02*
X188318668Y-62789855D01*
X188318668Y-62789855D02*
X188247239Y-62837474D01*
X188247239Y-62837474D02*
X188175810Y-62932712D01*
X188175810Y-62932712D02*
X188104382Y-63123188D01*
X188104382Y-63123188D02*
X188032953Y-63218426D01*
X188032953Y-63218426D02*
X187961525Y-63266045D01*
X187961525Y-63266045D02*
X187818668Y-63313664D01*
X187818668Y-63313664D02*
X187675810Y-63313664D01*
X187675810Y-63313664D02*
X187532953Y-63266045D01*
X187532953Y-63266045D02*
X187461525Y-63218426D01*
X187461525Y-63218426D02*
X187390096Y-63123188D01*
X187390096Y-63123188D02*
X187390096Y-62885093D01*
X187390096Y-62885093D02*
X187461525Y-62742236D01*
X188747239Y-61742236D02*
X188818668Y-61789855D01*
X188818668Y-61789855D02*
X188890096Y-61932712D01*
X188890096Y-61932712D02*
X188890096Y-62027950D01*
X188890096Y-62027950D02*
X188818668Y-62170807D01*
X188818668Y-62170807D02*
X188675810Y-62266045D01*
X188675810Y-62266045D02*
X188532953Y-62313664D01*
X188532953Y-62313664D02*
X188247239Y-62361283D01*
X188247239Y-62361283D02*
X188032953Y-62361283D01*
X188032953Y-62361283D02*
X187747239Y-62313664D01*
X187747239Y-62313664D02*
X187604382Y-62266045D01*
X187604382Y-62266045D02*
X187461525Y-62170807D01*
X187461525Y-62170807D02*
X187390096Y-62027950D01*
X187390096Y-62027950D02*
X187390096Y-61932712D01*
X187390096Y-61932712D02*
X187461525Y-61789855D01*
X187461525Y-61789855D02*
X187532953Y-61742236D01*
X188890096Y-60837474D02*
X188890096Y-61313664D01*
X188890096Y-61313664D02*
X187390096Y-61313664D01*
X189876441Y-63027950D02*
X189805012Y-63123188D01*
X189805012Y-63123188D02*
X189805012Y-63266045D01*
X189805012Y-63266045D02*
X189876441Y-63408902D01*
X189876441Y-63408902D02*
X190019298Y-63504140D01*
X190019298Y-63504140D02*
X190162155Y-63551759D01*
X190162155Y-63551759D02*
X190447869Y-63599378D01*
X190447869Y-63599378D02*
X190662155Y-63599378D01*
X190662155Y-63599378D02*
X190947869Y-63551759D01*
X190947869Y-63551759D02*
X191090726Y-63504140D01*
X191090726Y-63504140D02*
X191233584Y-63408902D01*
X191233584Y-63408902D02*
X191305012Y-63266045D01*
X191305012Y-63266045D02*
X191305012Y-63170807D01*
X191305012Y-63170807D02*
X191233584Y-63027950D01*
X191233584Y-63027950D02*
X191162155Y-62980331D01*
X191162155Y-62980331D02*
X190662155Y-62980331D01*
X190662155Y-62980331D02*
X190662155Y-63170807D01*
X191305012Y-62551759D02*
X189805012Y-62551759D01*
X189805012Y-62551759D02*
X191305012Y-61980331D01*
X191305012Y-61980331D02*
X189805012Y-61980331D01*
X191305012Y-61504140D02*
X189805012Y-61504140D01*
X189805012Y-61504140D02*
X189805012Y-61266045D01*
X189805012Y-61266045D02*
X189876441Y-61123188D01*
X189876441Y-61123188D02*
X190019298Y-61027950D01*
X190019298Y-61027950D02*
X190162155Y-60980331D01*
X190162155Y-60980331D02*
X190447869Y-60932712D01*
X190447869Y-60932712D02*
X190662155Y-60932712D01*
X190662155Y-60932712D02*
X190947869Y-60980331D01*
X190947869Y-60980331D02*
X191090726Y-61027950D01*
X191090726Y-61027950D02*
X191233584Y-61123188D01*
X191233584Y-61123188D02*
X191305012Y-61266045D01*
X191305012Y-61266045D02*
X191305012Y-61504140D01*
X192219928Y-63837473D02*
X192219928Y-63218426D01*
X192219928Y-63218426D02*
X192791357Y-63551759D01*
X192791357Y-63551759D02*
X192791357Y-63408902D01*
X192791357Y-63408902D02*
X192862785Y-63313664D01*
X192862785Y-63313664D02*
X192934214Y-63266045D01*
X192934214Y-63266045D02*
X193077071Y-63218426D01*
X193077071Y-63218426D02*
X193434214Y-63218426D01*
X193434214Y-63218426D02*
X193577071Y-63266045D01*
X193577071Y-63266045D02*
X193648500Y-63313664D01*
X193648500Y-63313664D02*
X193719928Y-63408902D01*
X193719928Y-63408902D02*
X193719928Y-63694616D01*
X193719928Y-63694616D02*
X193648500Y-63789854D01*
X193648500Y-63789854D02*
X193577071Y-63837473D01*
X193577071Y-62789854D02*
X193648500Y-62742235D01*
X193648500Y-62742235D02*
X193719928Y-62789854D01*
X193719928Y-62789854D02*
X193648500Y-62837473D01*
X193648500Y-62837473D02*
X193577071Y-62789854D01*
X193577071Y-62789854D02*
X193719928Y-62789854D01*
X192219928Y-62408902D02*
X192219928Y-61789855D01*
X192219928Y-61789855D02*
X192791357Y-62123188D01*
X192791357Y-62123188D02*
X192791357Y-61980331D01*
X192791357Y-61980331D02*
X192862785Y-61885093D01*
X192862785Y-61885093D02*
X192934214Y-61837474D01*
X192934214Y-61837474D02*
X193077071Y-61789855D01*
X193077071Y-61789855D02*
X193434214Y-61789855D01*
X193434214Y-61789855D02*
X193577071Y-61837474D01*
X193577071Y-61837474D02*
X193648500Y-61885093D01*
X193648500Y-61885093D02*
X193719928Y-61980331D01*
X193719928Y-61980331D02*
X193719928Y-62266045D01*
X193719928Y-62266045D02*
X193648500Y-62361283D01*
X193648500Y-62361283D02*
X193577071Y-62408902D01*
X192219928Y-61504140D02*
X193719928Y-61170807D01*
X193719928Y-61170807D02*
X192219928Y-60837474D01*
D11*
X208147142Y-73194819D02*
X207813809Y-72718628D01*
X207575714Y-73194819D02*
X207575714Y-72194819D01*
X207575714Y-72194819D02*
X207956666Y-72194819D01*
X207956666Y-72194819D02*
X208051904Y-72242438D01*
X208051904Y-72242438D02*
X208099523Y-72290057D01*
X208099523Y-72290057D02*
X208147142Y-72385295D01*
X208147142Y-72385295D02*
X208147142Y-72528152D01*
X208147142Y-72528152D02*
X208099523Y-72623390D01*
X208099523Y-72623390D02*
X208051904Y-72671009D01*
X208051904Y-72671009D02*
X207956666Y-72718628D01*
X207956666Y-72718628D02*
X207575714Y-72718628D01*
X209099523Y-73194819D02*
X208528095Y-73194819D01*
X208813809Y-73194819D02*
X208813809Y-72194819D01*
X208813809Y-72194819D02*
X208718571Y-72337676D01*
X208718571Y-72337676D02*
X208623333Y-72432914D01*
X208623333Y-72432914D02*
X208528095Y-72480533D01*
X209718571Y-72194819D02*
X209813809Y-72194819D01*
X209813809Y-72194819D02*
X209909047Y-72242438D01*
X209909047Y-72242438D02*
X209956666Y-72290057D01*
X209956666Y-72290057D02*
X210004285Y-72385295D01*
X210004285Y-72385295D02*
X210051904Y-72575771D01*
X210051904Y-72575771D02*
X210051904Y-72813866D01*
X210051904Y-72813866D02*
X210004285Y-73004342D01*
X210004285Y-73004342D02*
X209956666Y-73099580D01*
X209956666Y-73099580D02*
X209909047Y-73147200D01*
X209909047Y-73147200D02*
X209813809Y-73194819D01*
X209813809Y-73194819D02*
X209718571Y-73194819D01*
X209718571Y-73194819D02*
X209623333Y-73147200D01*
X209623333Y-73147200D02*
X209575714Y-73099580D01*
X209575714Y-73099580D02*
X209528095Y-73004342D01*
X209528095Y-73004342D02*
X209480476Y-72813866D01*
X209480476Y-72813866D02*
X209480476Y-72575771D01*
X209480476Y-72575771D02*
X209528095Y-72385295D01*
X209528095Y-72385295D02*
X209575714Y-72290057D01*
X209575714Y-72290057D02*
X209623333Y-72242438D01*
X209623333Y-72242438D02*
X209718571Y-72194819D01*
X208623333Y-65554819D02*
X208290000Y-65078628D01*
X208051905Y-65554819D02*
X208051905Y-64554819D01*
X208051905Y-64554819D02*
X208432857Y-64554819D01*
X208432857Y-64554819D02*
X208528095Y-64602438D01*
X208528095Y-64602438D02*
X208575714Y-64650057D01*
X208575714Y-64650057D02*
X208623333Y-64745295D01*
X208623333Y-64745295D02*
X208623333Y-64888152D01*
X208623333Y-64888152D02*
X208575714Y-64983390D01*
X208575714Y-64983390D02*
X208528095Y-65031009D01*
X208528095Y-65031009D02*
X208432857Y-65078628D01*
X208432857Y-65078628D02*
X208051905Y-65078628D01*
X209194762Y-64983390D02*
X209099524Y-64935771D01*
X209099524Y-64935771D02*
X209051905Y-64888152D01*
X209051905Y-64888152D02*
X209004286Y-64792914D01*
X209004286Y-64792914D02*
X209004286Y-64745295D01*
X209004286Y-64745295D02*
X209051905Y-64650057D01*
X209051905Y-64650057D02*
X209099524Y-64602438D01*
X209099524Y-64602438D02*
X209194762Y-64554819D01*
X209194762Y-64554819D02*
X209385238Y-64554819D01*
X209385238Y-64554819D02*
X209480476Y-64602438D01*
X209480476Y-64602438D02*
X209528095Y-64650057D01*
X209528095Y-64650057D02*
X209575714Y-64745295D01*
X209575714Y-64745295D02*
X209575714Y-64792914D01*
X209575714Y-64792914D02*
X209528095Y-64888152D01*
X209528095Y-64888152D02*
X209480476Y-64935771D01*
X209480476Y-64935771D02*
X209385238Y-64983390D01*
X209385238Y-64983390D02*
X209194762Y-64983390D01*
X209194762Y-64983390D02*
X209099524Y-65031009D01*
X209099524Y-65031009D02*
X209051905Y-65078628D01*
X209051905Y-65078628D02*
X209004286Y-65173866D01*
X209004286Y-65173866D02*
X209004286Y-65364342D01*
X209004286Y-65364342D02*
X209051905Y-65459580D01*
X209051905Y-65459580D02*
X209099524Y-65507200D01*
X209099524Y-65507200D02*
X209194762Y-65554819D01*
X209194762Y-65554819D02*
X209385238Y-65554819D01*
X209385238Y-65554819D02*
X209480476Y-65507200D01*
X209480476Y-65507200D02*
X209528095Y-65459580D01*
X209528095Y-65459580D02*
X209575714Y-65364342D01*
X209575714Y-65364342D02*
X209575714Y-65173866D01*
X209575714Y-65173866D02*
X209528095Y-65078628D01*
X209528095Y-65078628D02*
X209480476Y-65031009D01*
X209480476Y-65031009D02*
X209385238Y-64983390D01*
X208147142Y-77014819D02*
X207813809Y-76538628D01*
X207575714Y-77014819D02*
X207575714Y-76014819D01*
X207575714Y-76014819D02*
X207956666Y-76014819D01*
X207956666Y-76014819D02*
X208051904Y-76062438D01*
X208051904Y-76062438D02*
X208099523Y-76110057D01*
X208099523Y-76110057D02*
X208147142Y-76205295D01*
X208147142Y-76205295D02*
X208147142Y-76348152D01*
X208147142Y-76348152D02*
X208099523Y-76443390D01*
X208099523Y-76443390D02*
X208051904Y-76491009D01*
X208051904Y-76491009D02*
X207956666Y-76538628D01*
X207956666Y-76538628D02*
X207575714Y-76538628D01*
X209099523Y-77014819D02*
X208528095Y-77014819D01*
X208813809Y-77014819D02*
X208813809Y-76014819D01*
X208813809Y-76014819D02*
X208718571Y-76157676D01*
X208718571Y-76157676D02*
X208623333Y-76252914D01*
X208623333Y-76252914D02*
X208528095Y-76300533D01*
X210051904Y-77014819D02*
X209480476Y-77014819D01*
X209766190Y-77014819D02*
X209766190Y-76014819D01*
X209766190Y-76014819D02*
X209670952Y-76157676D01*
X209670952Y-76157676D02*
X209575714Y-76252914D01*
X209575714Y-76252914D02*
X209480476Y-76300533D01*
X188595595Y-77899819D02*
X188595595Y-78709342D01*
X188595595Y-78709342D02*
X188643214Y-78804580D01*
X188643214Y-78804580D02*
X188690833Y-78852200D01*
X188690833Y-78852200D02*
X188786071Y-78899819D01*
X188786071Y-78899819D02*
X188976547Y-78899819D01*
X188976547Y-78899819D02*
X189071785Y-78852200D01*
X189071785Y-78852200D02*
X189119404Y-78804580D01*
X189119404Y-78804580D02*
X189167023Y-78709342D01*
X189167023Y-78709342D02*
X189167023Y-77899819D01*
X190167023Y-78899819D02*
X189595595Y-78899819D01*
X189881309Y-78899819D02*
X189881309Y-77899819D01*
X189881309Y-77899819D02*
X189786071Y-78042676D01*
X189786071Y-78042676D02*
X189690833Y-78137914D01*
X189690833Y-78137914D02*
X189595595Y-78185533D01*
X189064819Y-82566666D02*
X188588628Y-82899999D01*
X189064819Y-83138094D02*
X188064819Y-83138094D01*
X188064819Y-83138094D02*
X188064819Y-82757142D01*
X188064819Y-82757142D02*
X188112438Y-82661904D01*
X188112438Y-82661904D02*
X188160057Y-82614285D01*
X188160057Y-82614285D02*
X188255295Y-82566666D01*
X188255295Y-82566666D02*
X188398152Y-82566666D01*
X188398152Y-82566666D02*
X188493390Y-82614285D01*
X188493390Y-82614285D02*
X188541009Y-82661904D01*
X188541009Y-82661904D02*
X188588628Y-82757142D01*
X188588628Y-82757142D02*
X188588628Y-83138094D01*
X188398152Y-81709523D02*
X189064819Y-81709523D01*
X188017200Y-81947618D02*
X188731485Y-82185713D01*
X188731485Y-82185713D02*
X188731485Y-81566666D01*
X192694819Y-82566666D02*
X192218628Y-82899999D01*
X192694819Y-83138094D02*
X191694819Y-83138094D01*
X191694819Y-83138094D02*
X191694819Y-82757142D01*
X191694819Y-82757142D02*
X191742438Y-82661904D01*
X191742438Y-82661904D02*
X191790057Y-82614285D01*
X191790057Y-82614285D02*
X191885295Y-82566666D01*
X191885295Y-82566666D02*
X192028152Y-82566666D01*
X192028152Y-82566666D02*
X192123390Y-82614285D01*
X192123390Y-82614285D02*
X192171009Y-82661904D01*
X192171009Y-82661904D02*
X192218628Y-82757142D01*
X192218628Y-82757142D02*
X192218628Y-83138094D01*
X191694819Y-81709523D02*
X191694819Y-81899999D01*
X191694819Y-81899999D02*
X191742438Y-81995237D01*
X191742438Y-81995237D02*
X191790057Y-82042856D01*
X191790057Y-82042856D02*
X191932914Y-82138094D01*
X191932914Y-82138094D02*
X192123390Y-82185713D01*
X192123390Y-82185713D02*
X192504342Y-82185713D01*
X192504342Y-82185713D02*
X192599580Y-82138094D01*
X192599580Y-82138094D02*
X192647200Y-82090475D01*
X192647200Y-82090475D02*
X192694819Y-81995237D01*
X192694819Y-81995237D02*
X192694819Y-81804761D01*
X192694819Y-81804761D02*
X192647200Y-81709523D01*
X192647200Y-81709523D02*
X192599580Y-81661904D01*
X192599580Y-81661904D02*
X192504342Y-81614285D01*
X192504342Y-81614285D02*
X192266247Y-81614285D01*
X192266247Y-81614285D02*
X192171009Y-81661904D01*
X192171009Y-81661904D02*
X192123390Y-81709523D01*
X192123390Y-81709523D02*
X192075771Y-81804761D01*
X192075771Y-81804761D02*
X192075771Y-81995237D01*
X192075771Y-81995237D02*
X192123390Y-82090475D01*
X192123390Y-82090475D02*
X192171009Y-82138094D01*
X192171009Y-82138094D02*
X192266247Y-82185713D01*
X208147142Y-84654819D02*
X207813809Y-84178628D01*
X207575714Y-84654819D02*
X207575714Y-83654819D01*
X207575714Y-83654819D02*
X207956666Y-83654819D01*
X207956666Y-83654819D02*
X208051904Y-83702438D01*
X208051904Y-83702438D02*
X208099523Y-83750057D01*
X208099523Y-83750057D02*
X208147142Y-83845295D01*
X208147142Y-83845295D02*
X208147142Y-83988152D01*
X208147142Y-83988152D02*
X208099523Y-84083390D01*
X208099523Y-84083390D02*
X208051904Y-84131009D01*
X208051904Y-84131009D02*
X207956666Y-84178628D01*
X207956666Y-84178628D02*
X207575714Y-84178628D01*
X209099523Y-84654819D02*
X208528095Y-84654819D01*
X208813809Y-84654819D02*
X208813809Y-83654819D01*
X208813809Y-83654819D02*
X208718571Y-83797676D01*
X208718571Y-83797676D02*
X208623333Y-83892914D01*
X208623333Y-83892914D02*
X208528095Y-83940533D01*
X209432857Y-83654819D02*
X210051904Y-83654819D01*
X210051904Y-83654819D02*
X209718571Y-84035771D01*
X209718571Y-84035771D02*
X209861428Y-84035771D01*
X209861428Y-84035771D02*
X209956666Y-84083390D01*
X209956666Y-84083390D02*
X210004285Y-84131009D01*
X210004285Y-84131009D02*
X210051904Y-84226247D01*
X210051904Y-84226247D02*
X210051904Y-84464342D01*
X210051904Y-84464342D02*
X210004285Y-84559580D01*
X210004285Y-84559580D02*
X209956666Y-84607200D01*
X209956666Y-84607200D02*
X209861428Y-84654819D01*
X209861428Y-84654819D02*
X209575714Y-84654819D01*
X209575714Y-84654819D02*
X209480476Y-84607200D01*
X209480476Y-84607200D02*
X209432857Y-84559580D01*
X208623333Y-69374819D02*
X208290000Y-68898628D01*
X208051905Y-69374819D02*
X208051905Y-68374819D01*
X208051905Y-68374819D02*
X208432857Y-68374819D01*
X208432857Y-68374819D02*
X208528095Y-68422438D01*
X208528095Y-68422438D02*
X208575714Y-68470057D01*
X208575714Y-68470057D02*
X208623333Y-68565295D01*
X208623333Y-68565295D02*
X208623333Y-68708152D01*
X208623333Y-68708152D02*
X208575714Y-68803390D01*
X208575714Y-68803390D02*
X208528095Y-68851009D01*
X208528095Y-68851009D02*
X208432857Y-68898628D01*
X208432857Y-68898628D02*
X208051905Y-68898628D01*
X209099524Y-69374819D02*
X209290000Y-69374819D01*
X209290000Y-69374819D02*
X209385238Y-69327200D01*
X209385238Y-69327200D02*
X209432857Y-69279580D01*
X209432857Y-69279580D02*
X209528095Y-69136723D01*
X209528095Y-69136723D02*
X209575714Y-68946247D01*
X209575714Y-68946247D02*
X209575714Y-68565295D01*
X209575714Y-68565295D02*
X209528095Y-68470057D01*
X209528095Y-68470057D02*
X209480476Y-68422438D01*
X209480476Y-68422438D02*
X209385238Y-68374819D01*
X209385238Y-68374819D02*
X209194762Y-68374819D01*
X209194762Y-68374819D02*
X209099524Y-68422438D01*
X209099524Y-68422438D02*
X209051905Y-68470057D01*
X209051905Y-68470057D02*
X209004286Y-68565295D01*
X209004286Y-68565295D02*
X209004286Y-68803390D01*
X209004286Y-68803390D02*
X209051905Y-68898628D01*
X209051905Y-68898628D02*
X209099524Y-68946247D01*
X209099524Y-68946247D02*
X209194762Y-68993866D01*
X209194762Y-68993866D02*
X209385238Y-68993866D01*
X209385238Y-68993866D02*
X209480476Y-68946247D01*
X209480476Y-68946247D02*
X209528095Y-68898628D01*
X209528095Y-68898628D02*
X209575714Y-68803390D01*
X208147142Y-80834819D02*
X207813809Y-80358628D01*
X207575714Y-80834819D02*
X207575714Y-79834819D01*
X207575714Y-79834819D02*
X207956666Y-79834819D01*
X207956666Y-79834819D02*
X208051904Y-79882438D01*
X208051904Y-79882438D02*
X208099523Y-79930057D01*
X208099523Y-79930057D02*
X208147142Y-80025295D01*
X208147142Y-80025295D02*
X208147142Y-80168152D01*
X208147142Y-80168152D02*
X208099523Y-80263390D01*
X208099523Y-80263390D02*
X208051904Y-80311009D01*
X208051904Y-80311009D02*
X207956666Y-80358628D01*
X207956666Y-80358628D02*
X207575714Y-80358628D01*
X209099523Y-80834819D02*
X208528095Y-80834819D01*
X208813809Y-80834819D02*
X208813809Y-79834819D01*
X208813809Y-79834819D02*
X208718571Y-79977676D01*
X208718571Y-79977676D02*
X208623333Y-80072914D01*
X208623333Y-80072914D02*
X208528095Y-80120533D01*
X209480476Y-79930057D02*
X209528095Y-79882438D01*
X209528095Y-79882438D02*
X209623333Y-79834819D01*
X209623333Y-79834819D02*
X209861428Y-79834819D01*
X209861428Y-79834819D02*
X209956666Y-79882438D01*
X209956666Y-79882438D02*
X210004285Y-79930057D01*
X210004285Y-79930057D02*
X210051904Y-80025295D01*
X210051904Y-80025295D02*
X210051904Y-80120533D01*
X210051904Y-80120533D02*
X210004285Y-80263390D01*
X210004285Y-80263390D02*
X209432857Y-80834819D01*
X209432857Y-80834819D02*
X210051904Y-80834819D01*
X181343333Y-70784819D02*
X181010000Y-70308628D01*
X180771905Y-70784819D02*
X180771905Y-69784819D01*
X180771905Y-69784819D02*
X181152857Y-69784819D01*
X181152857Y-69784819D02*
X181248095Y-69832438D01*
X181248095Y-69832438D02*
X181295714Y-69880057D01*
X181295714Y-69880057D02*
X181343333Y-69975295D01*
X181343333Y-69975295D02*
X181343333Y-70118152D01*
X181343333Y-70118152D02*
X181295714Y-70213390D01*
X181295714Y-70213390D02*
X181248095Y-70261009D01*
X181248095Y-70261009D02*
X181152857Y-70308628D01*
X181152857Y-70308628D02*
X180771905Y-70308628D01*
X182295714Y-70784819D02*
X181724286Y-70784819D01*
X182010000Y-70784819D02*
X182010000Y-69784819D01*
X182010000Y-69784819D02*
X181914762Y-69927676D01*
X181914762Y-69927676D02*
X181819524Y-70022914D01*
X181819524Y-70022914D02*
X181724286Y-70070533D01*
X193479580Y-66416666D02*
X193527200Y-66464285D01*
X193527200Y-66464285D02*
X193574819Y-66607142D01*
X193574819Y-66607142D02*
X193574819Y-66702380D01*
X193574819Y-66702380D02*
X193527200Y-66845237D01*
X193527200Y-66845237D02*
X193431961Y-66940475D01*
X193431961Y-66940475D02*
X193336723Y-66988094D01*
X193336723Y-66988094D02*
X193146247Y-67035713D01*
X193146247Y-67035713D02*
X193003390Y-67035713D01*
X193003390Y-67035713D02*
X192812914Y-66988094D01*
X192812914Y-66988094D02*
X192717676Y-66940475D01*
X192717676Y-66940475D02*
X192622438Y-66845237D01*
X192622438Y-66845237D02*
X192574819Y-66702380D01*
X192574819Y-66702380D02*
X192574819Y-66607142D01*
X192574819Y-66607142D02*
X192622438Y-66464285D01*
X192622438Y-66464285D02*
X192670057Y-66416666D01*
X193574819Y-65464285D02*
X193574819Y-66035713D01*
X193574819Y-65749999D02*
X192574819Y-65749999D01*
X192574819Y-65749999D02*
X192717676Y-65845237D01*
X192717676Y-65845237D02*
X192812914Y-65940475D01*
X192812914Y-65940475D02*
X192860533Y-66035713D01*
X196374819Y-82586666D02*
X195898628Y-82919999D01*
X196374819Y-83158094D02*
X195374819Y-83158094D01*
X195374819Y-83158094D02*
X195374819Y-82777142D01*
X195374819Y-82777142D02*
X195422438Y-82681904D01*
X195422438Y-82681904D02*
X195470057Y-82634285D01*
X195470057Y-82634285D02*
X195565295Y-82586666D01*
X195565295Y-82586666D02*
X195708152Y-82586666D01*
X195708152Y-82586666D02*
X195803390Y-82634285D01*
X195803390Y-82634285D02*
X195851009Y-82681904D01*
X195851009Y-82681904D02*
X195898628Y-82777142D01*
X195898628Y-82777142D02*
X195898628Y-83158094D01*
X195374819Y-81681904D02*
X195374819Y-82158094D01*
X195374819Y-82158094D02*
X195851009Y-82205713D01*
X195851009Y-82205713D02*
X195803390Y-82158094D01*
X195803390Y-82158094D02*
X195755771Y-82062856D01*
X195755771Y-82062856D02*
X195755771Y-81824761D01*
X195755771Y-81824761D02*
X195803390Y-81729523D01*
X195803390Y-81729523D02*
X195851009Y-81681904D01*
X195851009Y-81681904D02*
X195946247Y-81634285D01*
X195946247Y-81634285D02*
X196184342Y-81634285D01*
X196184342Y-81634285D02*
X196279580Y-81681904D01*
X196279580Y-81681904D02*
X196327200Y-81729523D01*
X196327200Y-81729523D02*
X196374819Y-81824761D01*
X196374819Y-81824761D02*
X196374819Y-82062856D01*
X196374819Y-82062856D02*
X196327200Y-82158094D01*
X196327200Y-82158094D02*
X196279580Y-82205713D01*
X202796666Y-61814819D02*
X202796666Y-62529104D01*
X202796666Y-62529104D02*
X202749047Y-62671961D01*
X202749047Y-62671961D02*
X202653809Y-62767200D01*
X202653809Y-62767200D02*
X202510952Y-62814819D01*
X202510952Y-62814819D02*
X202415714Y-62814819D01*
X203796666Y-62814819D02*
X203225238Y-62814819D01*
X203510952Y-62814819D02*
X203510952Y-61814819D01*
X203510952Y-61814819D02*
X203415714Y-61957676D01*
X203415714Y-61957676D02*
X203320476Y-62052914D01*
X203320476Y-62052914D02*
X203225238Y-62100533D01*
X208623333Y-61734819D02*
X208290000Y-61258628D01*
X208051905Y-61734819D02*
X208051905Y-60734819D01*
X208051905Y-60734819D02*
X208432857Y-60734819D01*
X208432857Y-60734819D02*
X208528095Y-60782438D01*
X208528095Y-60782438D02*
X208575714Y-60830057D01*
X208575714Y-60830057D02*
X208623333Y-60925295D01*
X208623333Y-60925295D02*
X208623333Y-61068152D01*
X208623333Y-61068152D02*
X208575714Y-61163390D01*
X208575714Y-61163390D02*
X208528095Y-61211009D01*
X208528095Y-61211009D02*
X208432857Y-61258628D01*
X208432857Y-61258628D02*
X208051905Y-61258628D01*
X208956667Y-60734819D02*
X209623333Y-60734819D01*
X209623333Y-60734819D02*
X209194762Y-61734819D01*
X189694819Y-66386666D02*
X189218628Y-66719999D01*
X189694819Y-66958094D02*
X188694819Y-66958094D01*
X188694819Y-66958094D02*
X188694819Y-66577142D01*
X188694819Y-66577142D02*
X188742438Y-66481904D01*
X188742438Y-66481904D02*
X188790057Y-66434285D01*
X188790057Y-66434285D02*
X188885295Y-66386666D01*
X188885295Y-66386666D02*
X189028152Y-66386666D01*
X189028152Y-66386666D02*
X189123390Y-66434285D01*
X189123390Y-66434285D02*
X189171009Y-66481904D01*
X189171009Y-66481904D02*
X189218628Y-66577142D01*
X189218628Y-66577142D02*
X189218628Y-66958094D01*
X188694819Y-66053332D02*
X188694819Y-65434285D01*
X188694819Y-65434285D02*
X189075771Y-65767618D01*
X189075771Y-65767618D02*
X189075771Y-65624761D01*
X189075771Y-65624761D02*
X189123390Y-65529523D01*
X189123390Y-65529523D02*
X189171009Y-65481904D01*
X189171009Y-65481904D02*
X189266247Y-65434285D01*
X189266247Y-65434285D02*
X189504342Y-65434285D01*
X189504342Y-65434285D02*
X189599580Y-65481904D01*
X189599580Y-65481904D02*
X189647200Y-65529523D01*
X189647200Y-65529523D02*
X189694819Y-65624761D01*
X189694819Y-65624761D02*
X189694819Y-65910475D01*
X189694819Y-65910475D02*
X189647200Y-66005713D01*
X189647200Y-66005713D02*
X189599580Y-66053332D01*
X181343333Y-74574819D02*
X181010000Y-74098628D01*
X180771905Y-74574819D02*
X180771905Y-73574819D01*
X180771905Y-73574819D02*
X181152857Y-73574819D01*
X181152857Y-73574819D02*
X181248095Y-73622438D01*
X181248095Y-73622438D02*
X181295714Y-73670057D01*
X181295714Y-73670057D02*
X181343333Y-73765295D01*
X181343333Y-73765295D02*
X181343333Y-73908152D01*
X181343333Y-73908152D02*
X181295714Y-74003390D01*
X181295714Y-74003390D02*
X181248095Y-74051009D01*
X181248095Y-74051009D02*
X181152857Y-74098628D01*
X181152857Y-74098628D02*
X180771905Y-74098628D01*
X181724286Y-73670057D02*
X181771905Y-73622438D01*
X181771905Y-73622438D02*
X181867143Y-73574819D01*
X181867143Y-73574819D02*
X182105238Y-73574819D01*
X182105238Y-73574819D02*
X182200476Y-73622438D01*
X182200476Y-73622438D02*
X182248095Y-73670057D01*
X182248095Y-73670057D02*
X182295714Y-73765295D01*
X182295714Y-73765295D02*
X182295714Y-73860533D01*
X182295714Y-73860533D02*
X182248095Y-74003390D01*
X182248095Y-74003390D02*
X181676667Y-74574819D01*
X181676667Y-74574819D02*
X182295714Y-74574819D01*
X208147142Y-88474819D02*
X207813809Y-87998628D01*
X207575714Y-88474819D02*
X207575714Y-87474819D01*
X207575714Y-87474819D02*
X207956666Y-87474819D01*
X207956666Y-87474819D02*
X208051904Y-87522438D01*
X208051904Y-87522438D02*
X208099523Y-87570057D01*
X208099523Y-87570057D02*
X208147142Y-87665295D01*
X208147142Y-87665295D02*
X208147142Y-87808152D01*
X208147142Y-87808152D02*
X208099523Y-87903390D01*
X208099523Y-87903390D02*
X208051904Y-87951009D01*
X208051904Y-87951009D02*
X207956666Y-87998628D01*
X207956666Y-87998628D02*
X207575714Y-87998628D01*
X209099523Y-88474819D02*
X208528095Y-88474819D01*
X208813809Y-88474819D02*
X208813809Y-87474819D01*
X208813809Y-87474819D02*
X208718571Y-87617676D01*
X208718571Y-87617676D02*
X208623333Y-87712914D01*
X208623333Y-87712914D02*
X208528095Y-87760533D01*
X209956666Y-87808152D02*
X209956666Y-88474819D01*
X209718571Y-87427200D02*
X209480476Y-88141485D01*
X209480476Y-88141485D02*
X210099523Y-88141485D01*
X195084819Y-59163333D02*
X195799104Y-59163333D01*
X195799104Y-59163333D02*
X195941961Y-59210952D01*
X195941961Y-59210952D02*
X196037200Y-59306190D01*
X196037200Y-59306190D02*
X196084819Y-59449047D01*
X196084819Y-59449047D02*
X196084819Y-59544285D01*
X195180057Y-58734761D02*
X195132438Y-58687142D01*
X195132438Y-58687142D02*
X195084819Y-58591904D01*
X195084819Y-58591904D02*
X195084819Y-58353809D01*
X195084819Y-58353809D02*
X195132438Y-58258571D01*
X195132438Y-58258571D02*
X195180057Y-58210952D01*
X195180057Y-58210952D02*
X195275295Y-58163333D01*
X195275295Y-58163333D02*
X195370533Y-58163333D01*
X195370533Y-58163333D02*
X195513390Y-58210952D01*
X195513390Y-58210952D02*
X196084819Y-58782380D01*
X196084819Y-58782380D02*
X196084819Y-58163333D01*
D12*
%TO.C,R10*%
X209517064Y-70000000D02*
X208062936Y-70000000D01*
X209517064Y-71820000D02*
X208062936Y-71820000D01*
%TO.C,R8*%
X209517064Y-62360000D02*
X208062936Y-62360000D01*
X209517064Y-64180000D02*
X208062936Y-64180000D01*
%TO.C,R11*%
X209517064Y-73820000D02*
X208062936Y-73820000D01*
X209517064Y-75640000D02*
X208062936Y-75640000D01*
%TO.C,U1*%
X187047500Y-69560000D02*
X191667500Y-69560000D01*
X191667500Y-77630000D02*
X187047500Y-77630000D01*
X193547500Y-77415000D02*
X193217500Y-77175000D01*
X193547500Y-76935000D01*
X193547500Y-77415000D01*
G36*
X193547500Y-77415000D02*
G01*
X193217500Y-77175000D01*
X193547500Y-76935000D01*
X193547500Y-77415000D01*
G37*
%TO.C,R4*%
X185870000Y-81672936D02*
X185870000Y-83127064D01*
X187690000Y-81672936D02*
X187690000Y-83127064D01*
%TO.C,R6*%
X189500000Y-81672936D02*
X189500000Y-83127064D01*
X191320000Y-81672936D02*
X191320000Y-83127064D01*
%TO.C,R13*%
X209517064Y-81460000D02*
X208062936Y-81460000D01*
X209517064Y-83280000D02*
X208062936Y-83280000D01*
%TO.C,R9*%
X209517064Y-66180000D02*
X208062936Y-66180000D01*
X209517064Y-68000000D02*
X208062936Y-68000000D01*
%TO.C,R12*%
X209517064Y-77640000D02*
X208062936Y-77640000D01*
X209517064Y-79460000D02*
X208062936Y-79460000D01*
%TO.C,R1*%
X180782936Y-71250000D02*
X182237064Y-71250000D01*
X180782936Y-73070000D02*
X182237064Y-73070000D01*
%TO.C,C1*%
X190360000Y-65538748D02*
X190360000Y-66961252D01*
X192180000Y-65538748D02*
X192180000Y-66961252D01*
%TO.C,R5*%
X193180000Y-81692936D02*
X193180000Y-83147064D01*
X195000000Y-81692936D02*
X195000000Y-83147064D01*
%TO.C,J1*%
X201750000Y-63360000D02*
X203130000Y-63360000D01*
X201750000Y-64740000D02*
X201750000Y-63360000D01*
X201750000Y-66010000D02*
X201750000Y-83900000D01*
X201750000Y-66010000D02*
X204510000Y-66010000D01*
X201750000Y-83900000D02*
X204510000Y-83900000D01*
X204510000Y-66010000D02*
X204510000Y-83900000D01*
%TO.C,R7*%
X209517064Y-58540000D02*
X208062936Y-58540000D01*
X209517064Y-60360000D02*
X208062936Y-60360000D01*
%TO.C,R3*%
X186500000Y-65492936D02*
X186500000Y-66947064D01*
X188320000Y-65492936D02*
X188320000Y-66947064D01*
%TO.C,R2*%
X180782936Y-75040000D02*
X182237064Y-75040000D01*
X180782936Y-76860000D02*
X182237064Y-76860000D01*
%TO.C,R14*%
X209517064Y-85280000D02*
X208062936Y-85280000D01*
X209517064Y-87100000D02*
X208062936Y-87100000D01*
%TO.C,J2*%
X184250000Y-57450000D02*
X184250000Y-60210000D01*
X191980000Y-57450000D02*
X184250000Y-57450000D01*
X191980000Y-57450000D02*
X191980000Y-60210000D01*
X191980000Y-60210000D02*
X184250000Y-60210000D01*
X193250000Y-57450000D02*
X194630000Y-57450000D01*
X194630000Y-57450000D02*
X194630000Y-58830000D01*
%TD*%
M02*
