%TF.GenerationSoftware,KiCad,Pcbnew,9.0.6*%
%TF.CreationDate,2026-01-26T18:49:13-03:00*%
%TF.ProjectId,evasion_sensor,65766173-696f-46e5-9f73-656e736f722e,rev?*%
%TF.SameCoordinates,Original*%
%TF.FileFunction,Drillmap*%
%TF.FilePolarity,Positive*%
%FSLAX45Y45*%
G04 Gerber Fmt 4.5, Leading zero omitted, Abs format (unit mm)*
G04 Created by KiCad (PCBNEW 9.0.6) date 2026-01-26 18:49:13*
%MOMM*%
%LPD*%
G01*
G04 APERTURE LIST*
%ADD10C,0.050000*%
%ADD11C,0.200000*%
%ADD12C,0.100000*%
G04 APERTURE END LIST*
D10*
X17763000Y-9034000D02*
G75*
G02*
X17663000Y-8934000I0J100000D01*
G01*
X21286000Y-5637000D02*
X21286000Y-8934000D01*
X17663000Y-8934000D02*
X17663000Y-5637000D01*
X17663000Y-5637000D02*
G75*
G02*
X17763000Y-5537000I100000J0D01*
G01*
X21186000Y-5537000D02*
G75*
G02*
X21286000Y-5637000I0J-100000D01*
G01*
X21186000Y-9034000D02*
X17763000Y-9034000D01*
X17763000Y-5537000D02*
X21186000Y-5537000D01*
X21286000Y-8934000D02*
G75*
G02*
X21186000Y-9034000I-100000J0D01*
G01*
D11*
D12*
X18726000Y-6762000D02*
X18756000Y-6792000D01*
X18756000Y-6762000D02*
X18726000Y-6792000D01*
X18745000Y-8646000D02*
X18775000Y-8676000D01*
X18775000Y-8646000D02*
X18745000Y-8676000D01*
X19111000Y-8646000D02*
X19141000Y-8676000D01*
X19141000Y-8646000D02*
X19111000Y-8676000D01*
X19112000Y-6766250D02*
X19142000Y-6796250D01*
X19142000Y-6766250D02*
X19112000Y-6796250D01*
X19438500Y-6891500D02*
X19468500Y-6921500D01*
X19468500Y-6891500D02*
X19438500Y-6921500D01*
X19460000Y-8646000D02*
X19490000Y-8676000D01*
X19490000Y-8646000D02*
X19460000Y-8676000D01*
X19517000Y-7702000D02*
X19547000Y-7732000D01*
X19547000Y-7702000D02*
X19517000Y-7732000D01*
X18613000Y-5883000D02*
G75*
G02*
X18513000Y-5883000I-50000J0D01*
G01*
X18513000Y-5883000D02*
G75*
G02*
X18613000Y-5883000I50000J0D01*
G01*
X18867000Y-5883000D02*
G75*
G02*
X18767000Y-5883000I-50000J0D01*
G01*
X18767000Y-5883000D02*
G75*
G02*
X18867000Y-5883000I50000J0D01*
G01*
X19121000Y-5883000D02*
G75*
G02*
X19021000Y-5883000I-50000J0D01*
G01*
X19021000Y-5883000D02*
G75*
G02*
X19121000Y-5883000I50000J0D01*
G01*
X19375000Y-5883000D02*
G75*
G02*
X19275000Y-5883000I-50000J0D01*
G01*
X19275000Y-5883000D02*
G75*
G02*
X19375000Y-5883000I50000J0D01*
G01*
X20363000Y-6474000D02*
G75*
G02*
X20263000Y-6474000I-50000J0D01*
G01*
X20263000Y-6474000D02*
G75*
G02*
X20363000Y-6474000I50000J0D01*
G01*
X20363000Y-6728000D02*
G75*
G02*
X20263000Y-6728000I-50000J0D01*
G01*
X20263000Y-6728000D02*
G75*
G02*
X20363000Y-6728000I50000J0D01*
G01*
X20363000Y-6982000D02*
G75*
G02*
X20263000Y-6982000I-50000J0D01*
G01*
X20263000Y-6982000D02*
G75*
G02*
X20363000Y-6982000I50000J0D01*
G01*
X20363000Y-7236000D02*
G75*
G02*
X20263000Y-7236000I-50000J0D01*
G01*
X20263000Y-7236000D02*
G75*
G02*
X20363000Y-7236000I50000J0D01*
G01*
X20363000Y-7490000D02*
G75*
G02*
X20263000Y-7490000I-50000J0D01*
G01*
X20263000Y-7490000D02*
G75*
G02*
X20363000Y-7490000I50000J0D01*
G01*
X20363000Y-7744000D02*
G75*
G02*
X20263000Y-7744000I-50000J0D01*
G01*
X20263000Y-7744000D02*
G75*
G02*
X20363000Y-7744000I50000J0D01*
G01*
X20363000Y-7998000D02*
G75*
G02*
X20263000Y-7998000I-50000J0D01*
G01*
X20263000Y-7998000D02*
G75*
G02*
X20363000Y-7998000I50000J0D01*
G01*
X20363000Y-8252000D02*
G75*
G02*
X20263000Y-8252000I-50000J0D01*
G01*
X20263000Y-8252000D02*
G75*
G02*
X20363000Y-8252000I50000J0D01*
G01*
D11*
X17921277Y-9347984D02*
X17921277Y-9147984D01*
X17921277Y-9147984D02*
X17968896Y-9147984D01*
X17968896Y-9147984D02*
X17997467Y-9157508D01*
X17997467Y-9157508D02*
X18016515Y-9176555D01*
X18016515Y-9176555D02*
X18026039Y-9195603D01*
X18026039Y-9195603D02*
X18035563Y-9233698D01*
X18035563Y-9233698D02*
X18035563Y-9262270D01*
X18035563Y-9262270D02*
X18026039Y-9300365D01*
X18026039Y-9300365D02*
X18016515Y-9319412D01*
X18016515Y-9319412D02*
X17997467Y-9338460D01*
X17997467Y-9338460D02*
X17968896Y-9347984D01*
X17968896Y-9347984D02*
X17921277Y-9347984D01*
X18121277Y-9347984D02*
X18121277Y-9214650D01*
X18121277Y-9252746D02*
X18130801Y-9233698D01*
X18130801Y-9233698D02*
X18140324Y-9224174D01*
X18140324Y-9224174D02*
X18159372Y-9214650D01*
X18159372Y-9214650D02*
X18178420Y-9214650D01*
X18245086Y-9347984D02*
X18245086Y-9214650D01*
X18245086Y-9147984D02*
X18235563Y-9157508D01*
X18235563Y-9157508D02*
X18245086Y-9167031D01*
X18245086Y-9167031D02*
X18254610Y-9157508D01*
X18254610Y-9157508D02*
X18245086Y-9147984D01*
X18245086Y-9147984D02*
X18245086Y-9167031D01*
X18368896Y-9347984D02*
X18349848Y-9338460D01*
X18349848Y-9338460D02*
X18340324Y-9319412D01*
X18340324Y-9319412D02*
X18340324Y-9147984D01*
X18473658Y-9347984D02*
X18454610Y-9338460D01*
X18454610Y-9338460D02*
X18445086Y-9319412D01*
X18445086Y-9319412D02*
X18445086Y-9147984D01*
X18702229Y-9347984D02*
X18702229Y-9147984D01*
X18702229Y-9147984D02*
X18768896Y-9290841D01*
X18768896Y-9290841D02*
X18835563Y-9147984D01*
X18835563Y-9147984D02*
X18835563Y-9347984D01*
X19016515Y-9347984D02*
X19016515Y-9243222D01*
X19016515Y-9243222D02*
X19006991Y-9224174D01*
X19006991Y-9224174D02*
X18987944Y-9214650D01*
X18987944Y-9214650D02*
X18949848Y-9214650D01*
X18949848Y-9214650D02*
X18930801Y-9224174D01*
X19016515Y-9338460D02*
X18997467Y-9347984D01*
X18997467Y-9347984D02*
X18949848Y-9347984D01*
X18949848Y-9347984D02*
X18930801Y-9338460D01*
X18930801Y-9338460D02*
X18921277Y-9319412D01*
X18921277Y-9319412D02*
X18921277Y-9300365D01*
X18921277Y-9300365D02*
X18930801Y-9281317D01*
X18930801Y-9281317D02*
X18949848Y-9271793D01*
X18949848Y-9271793D02*
X18997467Y-9271793D01*
X18997467Y-9271793D02*
X19016515Y-9262270D01*
X19111753Y-9214650D02*
X19111753Y-9414650D01*
X19111753Y-9224174D02*
X19130801Y-9214650D01*
X19130801Y-9214650D02*
X19168896Y-9214650D01*
X19168896Y-9214650D02*
X19187944Y-9224174D01*
X19187944Y-9224174D02*
X19197467Y-9233698D01*
X19197467Y-9233698D02*
X19206991Y-9252746D01*
X19206991Y-9252746D02*
X19206991Y-9309889D01*
X19206991Y-9309889D02*
X19197467Y-9328936D01*
X19197467Y-9328936D02*
X19187944Y-9338460D01*
X19187944Y-9338460D02*
X19168896Y-9347984D01*
X19168896Y-9347984D02*
X19130801Y-9347984D01*
X19130801Y-9347984D02*
X19111753Y-9338460D01*
X19292705Y-9328936D02*
X19302229Y-9338460D01*
X19302229Y-9338460D02*
X19292705Y-9347984D01*
X19292705Y-9347984D02*
X19283182Y-9338460D01*
X19283182Y-9338460D02*
X19292705Y-9328936D01*
X19292705Y-9328936D02*
X19292705Y-9347984D01*
X19292705Y-9224174D02*
X19302229Y-9233698D01*
X19302229Y-9233698D02*
X19292705Y-9243222D01*
X19292705Y-9243222D02*
X19283182Y-9233698D01*
X19283182Y-9233698D02*
X19292705Y-9224174D01*
X19292705Y-9224174D02*
X19292705Y-9243222D01*
D12*
X17630500Y-9661500D02*
X17660500Y-9691500D01*
X17660500Y-9661500D02*
X17630500Y-9691500D01*
D11*
X17959372Y-9567984D02*
X17978420Y-9567984D01*
X17978420Y-9567984D02*
X17997467Y-9577508D01*
X17997467Y-9577508D02*
X18006991Y-9587031D01*
X18006991Y-9587031D02*
X18016515Y-9606079D01*
X18016515Y-9606079D02*
X18026039Y-9644174D01*
X18026039Y-9644174D02*
X18026039Y-9691793D01*
X18026039Y-9691793D02*
X18016515Y-9729889D01*
X18016515Y-9729889D02*
X18006991Y-9748936D01*
X18006991Y-9748936D02*
X17997467Y-9758460D01*
X17997467Y-9758460D02*
X17978420Y-9767984D01*
X17978420Y-9767984D02*
X17959372Y-9767984D01*
X17959372Y-9767984D02*
X17940324Y-9758460D01*
X17940324Y-9758460D02*
X17930801Y-9748936D01*
X17930801Y-9748936D02*
X17921277Y-9729889D01*
X17921277Y-9729889D02*
X17911753Y-9691793D01*
X17911753Y-9691793D02*
X17911753Y-9644174D01*
X17911753Y-9644174D02*
X17921277Y-9606079D01*
X17921277Y-9606079D02*
X17930801Y-9587031D01*
X17930801Y-9587031D02*
X17940324Y-9577508D01*
X17940324Y-9577508D02*
X17959372Y-9567984D01*
X18111753Y-9748936D02*
X18121277Y-9758460D01*
X18121277Y-9758460D02*
X18111753Y-9767984D01*
X18111753Y-9767984D02*
X18102229Y-9758460D01*
X18102229Y-9758460D02*
X18111753Y-9748936D01*
X18111753Y-9748936D02*
X18111753Y-9767984D01*
X18187944Y-9567984D02*
X18311753Y-9567984D01*
X18311753Y-9567984D02*
X18245086Y-9644174D01*
X18245086Y-9644174D02*
X18273658Y-9644174D01*
X18273658Y-9644174D02*
X18292705Y-9653698D01*
X18292705Y-9653698D02*
X18302229Y-9663222D01*
X18302229Y-9663222D02*
X18311753Y-9682270D01*
X18311753Y-9682270D02*
X18311753Y-9729889D01*
X18311753Y-9729889D02*
X18302229Y-9748936D01*
X18302229Y-9748936D02*
X18292705Y-9758460D01*
X18292705Y-9758460D02*
X18273658Y-9767984D01*
X18273658Y-9767984D02*
X18216515Y-9767984D01*
X18216515Y-9767984D02*
X18197467Y-9758460D01*
X18197467Y-9758460D02*
X18187944Y-9748936D01*
X18435563Y-9567984D02*
X18454610Y-9567984D01*
X18454610Y-9567984D02*
X18473658Y-9577508D01*
X18473658Y-9577508D02*
X18483182Y-9587031D01*
X18483182Y-9587031D02*
X18492705Y-9606079D01*
X18492705Y-9606079D02*
X18502229Y-9644174D01*
X18502229Y-9644174D02*
X18502229Y-9691793D01*
X18502229Y-9691793D02*
X18492705Y-9729889D01*
X18492705Y-9729889D02*
X18483182Y-9748936D01*
X18483182Y-9748936D02*
X18473658Y-9758460D01*
X18473658Y-9758460D02*
X18454610Y-9767984D01*
X18454610Y-9767984D02*
X18435563Y-9767984D01*
X18435563Y-9767984D02*
X18416515Y-9758460D01*
X18416515Y-9758460D02*
X18406991Y-9748936D01*
X18406991Y-9748936D02*
X18397467Y-9729889D01*
X18397467Y-9729889D02*
X18387944Y-9691793D01*
X18387944Y-9691793D02*
X18387944Y-9644174D01*
X18387944Y-9644174D02*
X18397467Y-9606079D01*
X18397467Y-9606079D02*
X18406991Y-9587031D01*
X18406991Y-9587031D02*
X18416515Y-9577508D01*
X18416515Y-9577508D02*
X18435563Y-9567984D01*
X18626039Y-9567984D02*
X18645086Y-9567984D01*
X18645086Y-9567984D02*
X18664134Y-9577508D01*
X18664134Y-9577508D02*
X18673658Y-9587031D01*
X18673658Y-9587031D02*
X18683182Y-9606079D01*
X18683182Y-9606079D02*
X18692705Y-9644174D01*
X18692705Y-9644174D02*
X18692705Y-9691793D01*
X18692705Y-9691793D02*
X18683182Y-9729889D01*
X18683182Y-9729889D02*
X18673658Y-9748936D01*
X18673658Y-9748936D02*
X18664134Y-9758460D01*
X18664134Y-9758460D02*
X18645086Y-9767984D01*
X18645086Y-9767984D02*
X18626039Y-9767984D01*
X18626039Y-9767984D02*
X18606991Y-9758460D01*
X18606991Y-9758460D02*
X18597467Y-9748936D01*
X18597467Y-9748936D02*
X18587944Y-9729889D01*
X18587944Y-9729889D02*
X18578420Y-9691793D01*
X18578420Y-9691793D02*
X18578420Y-9644174D01*
X18578420Y-9644174D02*
X18587944Y-9606079D01*
X18587944Y-9606079D02*
X18597467Y-9587031D01*
X18597467Y-9587031D02*
X18606991Y-9577508D01*
X18606991Y-9577508D02*
X18626039Y-9567984D01*
X18778420Y-9767984D02*
X18778420Y-9634650D01*
X18778420Y-9653698D02*
X18787944Y-9644174D01*
X18787944Y-9644174D02*
X18806991Y-9634650D01*
X18806991Y-9634650D02*
X18835563Y-9634650D01*
X18835563Y-9634650D02*
X18854610Y-9644174D01*
X18854610Y-9644174D02*
X18864134Y-9663222D01*
X18864134Y-9663222D02*
X18864134Y-9767984D01*
X18864134Y-9663222D02*
X18873658Y-9644174D01*
X18873658Y-9644174D02*
X18892705Y-9634650D01*
X18892705Y-9634650D02*
X18921277Y-9634650D01*
X18921277Y-9634650D02*
X18940325Y-9644174D01*
X18940325Y-9644174D02*
X18949848Y-9663222D01*
X18949848Y-9663222D02*
X18949848Y-9767984D01*
X19045086Y-9767984D02*
X19045086Y-9634650D01*
X19045086Y-9653698D02*
X19054610Y-9644174D01*
X19054610Y-9644174D02*
X19073658Y-9634650D01*
X19073658Y-9634650D02*
X19102229Y-9634650D01*
X19102229Y-9634650D02*
X19121277Y-9644174D01*
X19121277Y-9644174D02*
X19130801Y-9663222D01*
X19130801Y-9663222D02*
X19130801Y-9767984D01*
X19130801Y-9663222D02*
X19140325Y-9644174D01*
X19140325Y-9644174D02*
X19159372Y-9634650D01*
X19159372Y-9634650D02*
X19187944Y-9634650D01*
X19187944Y-9634650D02*
X19206991Y-9644174D01*
X19206991Y-9644174D02*
X19216515Y-9663222D01*
X19216515Y-9663222D02*
X19216515Y-9767984D01*
X19606991Y-9558460D02*
X19435563Y-9815603D01*
X19864134Y-9567984D02*
X19883182Y-9567984D01*
X19883182Y-9567984D02*
X19902229Y-9577508D01*
X19902229Y-9577508D02*
X19911753Y-9587031D01*
X19911753Y-9587031D02*
X19921277Y-9606079D01*
X19921277Y-9606079D02*
X19930801Y-9644174D01*
X19930801Y-9644174D02*
X19930801Y-9691793D01*
X19930801Y-9691793D02*
X19921277Y-9729889D01*
X19921277Y-9729889D02*
X19911753Y-9748936D01*
X19911753Y-9748936D02*
X19902229Y-9758460D01*
X19902229Y-9758460D02*
X19883182Y-9767984D01*
X19883182Y-9767984D02*
X19864134Y-9767984D01*
X19864134Y-9767984D02*
X19845087Y-9758460D01*
X19845087Y-9758460D02*
X19835563Y-9748936D01*
X19835563Y-9748936D02*
X19826039Y-9729889D01*
X19826039Y-9729889D02*
X19816515Y-9691793D01*
X19816515Y-9691793D02*
X19816515Y-9644174D01*
X19816515Y-9644174D02*
X19826039Y-9606079D01*
X19826039Y-9606079D02*
X19835563Y-9587031D01*
X19835563Y-9587031D02*
X19845087Y-9577508D01*
X19845087Y-9577508D02*
X19864134Y-9567984D01*
X20016515Y-9748936D02*
X20026039Y-9758460D01*
X20026039Y-9758460D02*
X20016515Y-9767984D01*
X20016515Y-9767984D02*
X20006991Y-9758460D01*
X20006991Y-9758460D02*
X20016515Y-9748936D01*
X20016515Y-9748936D02*
X20016515Y-9767984D01*
X20149848Y-9567984D02*
X20168896Y-9567984D01*
X20168896Y-9567984D02*
X20187944Y-9577508D01*
X20187944Y-9577508D02*
X20197468Y-9587031D01*
X20197468Y-9587031D02*
X20206991Y-9606079D01*
X20206991Y-9606079D02*
X20216515Y-9644174D01*
X20216515Y-9644174D02*
X20216515Y-9691793D01*
X20216515Y-9691793D02*
X20206991Y-9729889D01*
X20206991Y-9729889D02*
X20197468Y-9748936D01*
X20197468Y-9748936D02*
X20187944Y-9758460D01*
X20187944Y-9758460D02*
X20168896Y-9767984D01*
X20168896Y-9767984D02*
X20149848Y-9767984D01*
X20149848Y-9767984D02*
X20130801Y-9758460D01*
X20130801Y-9758460D02*
X20121277Y-9748936D01*
X20121277Y-9748936D02*
X20111753Y-9729889D01*
X20111753Y-9729889D02*
X20102229Y-9691793D01*
X20102229Y-9691793D02*
X20102229Y-9644174D01*
X20102229Y-9644174D02*
X20111753Y-9606079D01*
X20111753Y-9606079D02*
X20121277Y-9587031D01*
X20121277Y-9587031D02*
X20130801Y-9577508D01*
X20130801Y-9577508D02*
X20149848Y-9567984D01*
X20406991Y-9767984D02*
X20292706Y-9767984D01*
X20349848Y-9767984D02*
X20349848Y-9567984D01*
X20349848Y-9567984D02*
X20330801Y-9596555D01*
X20330801Y-9596555D02*
X20311753Y-9615603D01*
X20311753Y-9615603D02*
X20292706Y-9625127D01*
X20597468Y-9767984D02*
X20483182Y-9767984D01*
X20540325Y-9767984D02*
X20540325Y-9567984D01*
X20540325Y-9567984D02*
X20521277Y-9596555D01*
X20521277Y-9596555D02*
X20502229Y-9615603D01*
X20502229Y-9615603D02*
X20483182Y-9625127D01*
X20711753Y-9653698D02*
X20692706Y-9644174D01*
X20692706Y-9644174D02*
X20683182Y-9634650D01*
X20683182Y-9634650D02*
X20673658Y-9615603D01*
X20673658Y-9615603D02*
X20673658Y-9606079D01*
X20673658Y-9606079D02*
X20683182Y-9587031D01*
X20683182Y-9587031D02*
X20692706Y-9577508D01*
X20692706Y-9577508D02*
X20711753Y-9567984D01*
X20711753Y-9567984D02*
X20749849Y-9567984D01*
X20749849Y-9567984D02*
X20768896Y-9577508D01*
X20768896Y-9577508D02*
X20778420Y-9587031D01*
X20778420Y-9587031D02*
X20787944Y-9606079D01*
X20787944Y-9606079D02*
X20787944Y-9615603D01*
X20787944Y-9615603D02*
X20778420Y-9634650D01*
X20778420Y-9634650D02*
X20768896Y-9644174D01*
X20768896Y-9644174D02*
X20749849Y-9653698D01*
X20749849Y-9653698D02*
X20711753Y-9653698D01*
X20711753Y-9653698D02*
X20692706Y-9663222D01*
X20692706Y-9663222D02*
X20683182Y-9672746D01*
X20683182Y-9672746D02*
X20673658Y-9691793D01*
X20673658Y-9691793D02*
X20673658Y-9729889D01*
X20673658Y-9729889D02*
X20683182Y-9748936D01*
X20683182Y-9748936D02*
X20692706Y-9758460D01*
X20692706Y-9758460D02*
X20711753Y-9767984D01*
X20711753Y-9767984D02*
X20749849Y-9767984D01*
X20749849Y-9767984D02*
X20768896Y-9758460D01*
X20768896Y-9758460D02*
X20778420Y-9748936D01*
X20778420Y-9748936D02*
X20787944Y-9729889D01*
X20787944Y-9729889D02*
X20787944Y-9691793D01*
X20787944Y-9691793D02*
X20778420Y-9672746D01*
X20778420Y-9672746D02*
X20768896Y-9663222D01*
X20768896Y-9663222D02*
X20749849Y-9653698D01*
X20864134Y-9567984D02*
X20864134Y-9606079D01*
X20940325Y-9567984D02*
X20940325Y-9606079D01*
X21235563Y-9844174D02*
X21226039Y-9834650D01*
X21226039Y-9834650D02*
X21206991Y-9806079D01*
X21206991Y-9806079D02*
X21197468Y-9787031D01*
X21197468Y-9787031D02*
X21187944Y-9758460D01*
X21187944Y-9758460D02*
X21178420Y-9710841D01*
X21178420Y-9710841D02*
X21178420Y-9672746D01*
X21178420Y-9672746D02*
X21187944Y-9625127D01*
X21187944Y-9625127D02*
X21197468Y-9596555D01*
X21197468Y-9596555D02*
X21206991Y-9577508D01*
X21206991Y-9577508D02*
X21226039Y-9548936D01*
X21226039Y-9548936D02*
X21235563Y-9539412D01*
X21292706Y-9567984D02*
X21426039Y-9567984D01*
X21426039Y-9567984D02*
X21340325Y-9767984D01*
X21654611Y-9767984D02*
X21654611Y-9567984D01*
X21740325Y-9767984D02*
X21740325Y-9663222D01*
X21740325Y-9663222D02*
X21730801Y-9644174D01*
X21730801Y-9644174D02*
X21711753Y-9634650D01*
X21711753Y-9634650D02*
X21683182Y-9634650D01*
X21683182Y-9634650D02*
X21664134Y-9644174D01*
X21664134Y-9644174D02*
X21654611Y-9653698D01*
X21864134Y-9767984D02*
X21845087Y-9758460D01*
X21845087Y-9758460D02*
X21835563Y-9748936D01*
X21835563Y-9748936D02*
X21826039Y-9729889D01*
X21826039Y-9729889D02*
X21826039Y-9672746D01*
X21826039Y-9672746D02*
X21835563Y-9653698D01*
X21835563Y-9653698D02*
X21845087Y-9644174D01*
X21845087Y-9644174D02*
X21864134Y-9634650D01*
X21864134Y-9634650D02*
X21892706Y-9634650D01*
X21892706Y-9634650D02*
X21911753Y-9644174D01*
X21911753Y-9644174D02*
X21921277Y-9653698D01*
X21921277Y-9653698D02*
X21930801Y-9672746D01*
X21930801Y-9672746D02*
X21930801Y-9729889D01*
X21930801Y-9729889D02*
X21921277Y-9748936D01*
X21921277Y-9748936D02*
X21911753Y-9758460D01*
X21911753Y-9758460D02*
X21892706Y-9767984D01*
X21892706Y-9767984D02*
X21864134Y-9767984D01*
X22045087Y-9767984D02*
X22026039Y-9758460D01*
X22026039Y-9758460D02*
X22016515Y-9739412D01*
X22016515Y-9739412D02*
X22016515Y-9567984D01*
X22197468Y-9758460D02*
X22178420Y-9767984D01*
X22178420Y-9767984D02*
X22140325Y-9767984D01*
X22140325Y-9767984D02*
X22121277Y-9758460D01*
X22121277Y-9758460D02*
X22111753Y-9739412D01*
X22111753Y-9739412D02*
X22111753Y-9663222D01*
X22111753Y-9663222D02*
X22121277Y-9644174D01*
X22121277Y-9644174D02*
X22140325Y-9634650D01*
X22140325Y-9634650D02*
X22178420Y-9634650D01*
X22178420Y-9634650D02*
X22197468Y-9644174D01*
X22197468Y-9644174D02*
X22206992Y-9663222D01*
X22206992Y-9663222D02*
X22206992Y-9682270D01*
X22206992Y-9682270D02*
X22111753Y-9701317D01*
X22283182Y-9758460D02*
X22302230Y-9767984D01*
X22302230Y-9767984D02*
X22340325Y-9767984D01*
X22340325Y-9767984D02*
X22359373Y-9758460D01*
X22359373Y-9758460D02*
X22368896Y-9739412D01*
X22368896Y-9739412D02*
X22368896Y-9729889D01*
X22368896Y-9729889D02*
X22359373Y-9710841D01*
X22359373Y-9710841D02*
X22340325Y-9701317D01*
X22340325Y-9701317D02*
X22311753Y-9701317D01*
X22311753Y-9701317D02*
X22292706Y-9691793D01*
X22292706Y-9691793D02*
X22283182Y-9672746D01*
X22283182Y-9672746D02*
X22283182Y-9663222D01*
X22283182Y-9663222D02*
X22292706Y-9644174D01*
X22292706Y-9644174D02*
X22311753Y-9634650D01*
X22311753Y-9634650D02*
X22340325Y-9634650D01*
X22340325Y-9634650D02*
X22359373Y-9644174D01*
X22435563Y-9844174D02*
X22445087Y-9834650D01*
X22445087Y-9834650D02*
X22464134Y-9806079D01*
X22464134Y-9806079D02*
X22473658Y-9787031D01*
X22473658Y-9787031D02*
X22483182Y-9758460D01*
X22483182Y-9758460D02*
X22492706Y-9710841D01*
X22492706Y-9710841D02*
X22492706Y-9672746D01*
X22492706Y-9672746D02*
X22483182Y-9625127D01*
X22483182Y-9625127D02*
X22473658Y-9596555D01*
X22473658Y-9596555D02*
X22464134Y-9577508D01*
X22464134Y-9577508D02*
X22445087Y-9548936D01*
X22445087Y-9548936D02*
X22435563Y-9539412D01*
D12*
X17660500Y-9940500D02*
G75*
G02*
X17560500Y-9940500I-50000J0D01*
G01*
X17560500Y-9940500D02*
G75*
G02*
X17660500Y-9940500I50000J0D01*
G01*
D11*
X18026039Y-10031984D02*
X17911753Y-10031984D01*
X17968896Y-10031984D02*
X17968896Y-9831984D01*
X17968896Y-9831984D02*
X17949848Y-9860555D01*
X17949848Y-9860555D02*
X17930801Y-9879603D01*
X17930801Y-9879603D02*
X17911753Y-9889127D01*
X18111753Y-10012936D02*
X18121277Y-10022460D01*
X18121277Y-10022460D02*
X18111753Y-10031984D01*
X18111753Y-10031984D02*
X18102229Y-10022460D01*
X18102229Y-10022460D02*
X18111753Y-10012936D01*
X18111753Y-10012936D02*
X18111753Y-10031984D01*
X18245086Y-9831984D02*
X18264134Y-9831984D01*
X18264134Y-9831984D02*
X18283182Y-9841508D01*
X18283182Y-9841508D02*
X18292705Y-9851031D01*
X18292705Y-9851031D02*
X18302229Y-9870079D01*
X18302229Y-9870079D02*
X18311753Y-9908174D01*
X18311753Y-9908174D02*
X18311753Y-9955793D01*
X18311753Y-9955793D02*
X18302229Y-9993889D01*
X18302229Y-9993889D02*
X18292705Y-10012936D01*
X18292705Y-10012936D02*
X18283182Y-10022460D01*
X18283182Y-10022460D02*
X18264134Y-10031984D01*
X18264134Y-10031984D02*
X18245086Y-10031984D01*
X18245086Y-10031984D02*
X18226039Y-10022460D01*
X18226039Y-10022460D02*
X18216515Y-10012936D01*
X18216515Y-10012936D02*
X18206991Y-9993889D01*
X18206991Y-9993889D02*
X18197467Y-9955793D01*
X18197467Y-9955793D02*
X18197467Y-9908174D01*
X18197467Y-9908174D02*
X18206991Y-9870079D01*
X18206991Y-9870079D02*
X18216515Y-9851031D01*
X18216515Y-9851031D02*
X18226039Y-9841508D01*
X18226039Y-9841508D02*
X18245086Y-9831984D01*
X18435563Y-9831984D02*
X18454610Y-9831984D01*
X18454610Y-9831984D02*
X18473658Y-9841508D01*
X18473658Y-9841508D02*
X18483182Y-9851031D01*
X18483182Y-9851031D02*
X18492705Y-9870079D01*
X18492705Y-9870079D02*
X18502229Y-9908174D01*
X18502229Y-9908174D02*
X18502229Y-9955793D01*
X18502229Y-9955793D02*
X18492705Y-9993889D01*
X18492705Y-9993889D02*
X18483182Y-10012936D01*
X18483182Y-10012936D02*
X18473658Y-10022460D01*
X18473658Y-10022460D02*
X18454610Y-10031984D01*
X18454610Y-10031984D02*
X18435563Y-10031984D01*
X18435563Y-10031984D02*
X18416515Y-10022460D01*
X18416515Y-10022460D02*
X18406991Y-10012936D01*
X18406991Y-10012936D02*
X18397467Y-9993889D01*
X18397467Y-9993889D02*
X18387944Y-9955793D01*
X18387944Y-9955793D02*
X18387944Y-9908174D01*
X18387944Y-9908174D02*
X18397467Y-9870079D01*
X18397467Y-9870079D02*
X18406991Y-9851031D01*
X18406991Y-9851031D02*
X18416515Y-9841508D01*
X18416515Y-9841508D02*
X18435563Y-9831984D01*
X18626039Y-9831984D02*
X18645086Y-9831984D01*
X18645086Y-9831984D02*
X18664134Y-9841508D01*
X18664134Y-9841508D02*
X18673658Y-9851031D01*
X18673658Y-9851031D02*
X18683182Y-9870079D01*
X18683182Y-9870079D02*
X18692705Y-9908174D01*
X18692705Y-9908174D02*
X18692705Y-9955793D01*
X18692705Y-9955793D02*
X18683182Y-9993889D01*
X18683182Y-9993889D02*
X18673658Y-10012936D01*
X18673658Y-10012936D02*
X18664134Y-10022460D01*
X18664134Y-10022460D02*
X18645086Y-10031984D01*
X18645086Y-10031984D02*
X18626039Y-10031984D01*
X18626039Y-10031984D02*
X18606991Y-10022460D01*
X18606991Y-10022460D02*
X18597467Y-10012936D01*
X18597467Y-10012936D02*
X18587944Y-9993889D01*
X18587944Y-9993889D02*
X18578420Y-9955793D01*
X18578420Y-9955793D02*
X18578420Y-9908174D01*
X18578420Y-9908174D02*
X18587944Y-9870079D01*
X18587944Y-9870079D02*
X18597467Y-9851031D01*
X18597467Y-9851031D02*
X18606991Y-9841508D01*
X18606991Y-9841508D02*
X18626039Y-9831984D01*
X18778420Y-10031984D02*
X18778420Y-9898650D01*
X18778420Y-9917698D02*
X18787944Y-9908174D01*
X18787944Y-9908174D02*
X18806991Y-9898650D01*
X18806991Y-9898650D02*
X18835563Y-9898650D01*
X18835563Y-9898650D02*
X18854610Y-9908174D01*
X18854610Y-9908174D02*
X18864134Y-9927222D01*
X18864134Y-9927222D02*
X18864134Y-10031984D01*
X18864134Y-9927222D02*
X18873658Y-9908174D01*
X18873658Y-9908174D02*
X18892705Y-9898650D01*
X18892705Y-9898650D02*
X18921277Y-9898650D01*
X18921277Y-9898650D02*
X18940325Y-9908174D01*
X18940325Y-9908174D02*
X18949848Y-9927222D01*
X18949848Y-9927222D02*
X18949848Y-10031984D01*
X19045086Y-10031984D02*
X19045086Y-9898650D01*
X19045086Y-9917698D02*
X19054610Y-9908174D01*
X19054610Y-9908174D02*
X19073658Y-9898650D01*
X19073658Y-9898650D02*
X19102229Y-9898650D01*
X19102229Y-9898650D02*
X19121277Y-9908174D01*
X19121277Y-9908174D02*
X19130801Y-9927222D01*
X19130801Y-9927222D02*
X19130801Y-10031984D01*
X19130801Y-9927222D02*
X19140325Y-9908174D01*
X19140325Y-9908174D02*
X19159372Y-9898650D01*
X19159372Y-9898650D02*
X19187944Y-9898650D01*
X19187944Y-9898650D02*
X19206991Y-9908174D01*
X19206991Y-9908174D02*
X19216515Y-9927222D01*
X19216515Y-9927222D02*
X19216515Y-10031984D01*
X19606991Y-9822460D02*
X19435563Y-10079603D01*
X19864134Y-9831984D02*
X19883182Y-9831984D01*
X19883182Y-9831984D02*
X19902229Y-9841508D01*
X19902229Y-9841508D02*
X19911753Y-9851031D01*
X19911753Y-9851031D02*
X19921277Y-9870079D01*
X19921277Y-9870079D02*
X19930801Y-9908174D01*
X19930801Y-9908174D02*
X19930801Y-9955793D01*
X19930801Y-9955793D02*
X19921277Y-9993889D01*
X19921277Y-9993889D02*
X19911753Y-10012936D01*
X19911753Y-10012936D02*
X19902229Y-10022460D01*
X19902229Y-10022460D02*
X19883182Y-10031984D01*
X19883182Y-10031984D02*
X19864134Y-10031984D01*
X19864134Y-10031984D02*
X19845087Y-10022460D01*
X19845087Y-10022460D02*
X19835563Y-10012936D01*
X19835563Y-10012936D02*
X19826039Y-9993889D01*
X19826039Y-9993889D02*
X19816515Y-9955793D01*
X19816515Y-9955793D02*
X19816515Y-9908174D01*
X19816515Y-9908174D02*
X19826039Y-9870079D01*
X19826039Y-9870079D02*
X19835563Y-9851031D01*
X19835563Y-9851031D02*
X19845087Y-9841508D01*
X19845087Y-9841508D02*
X19864134Y-9831984D01*
X20016515Y-10012936D02*
X20026039Y-10022460D01*
X20026039Y-10022460D02*
X20016515Y-10031984D01*
X20016515Y-10031984D02*
X20006991Y-10022460D01*
X20006991Y-10022460D02*
X20016515Y-10012936D01*
X20016515Y-10012936D02*
X20016515Y-10031984D01*
X20149848Y-9831984D02*
X20168896Y-9831984D01*
X20168896Y-9831984D02*
X20187944Y-9841508D01*
X20187944Y-9841508D02*
X20197468Y-9851031D01*
X20197468Y-9851031D02*
X20206991Y-9870079D01*
X20206991Y-9870079D02*
X20216515Y-9908174D01*
X20216515Y-9908174D02*
X20216515Y-9955793D01*
X20216515Y-9955793D02*
X20206991Y-9993889D01*
X20206991Y-9993889D02*
X20197468Y-10012936D01*
X20197468Y-10012936D02*
X20187944Y-10022460D01*
X20187944Y-10022460D02*
X20168896Y-10031984D01*
X20168896Y-10031984D02*
X20149848Y-10031984D01*
X20149848Y-10031984D02*
X20130801Y-10022460D01*
X20130801Y-10022460D02*
X20121277Y-10012936D01*
X20121277Y-10012936D02*
X20111753Y-9993889D01*
X20111753Y-9993889D02*
X20102229Y-9955793D01*
X20102229Y-9955793D02*
X20102229Y-9908174D01*
X20102229Y-9908174D02*
X20111753Y-9870079D01*
X20111753Y-9870079D02*
X20121277Y-9851031D01*
X20121277Y-9851031D02*
X20130801Y-9841508D01*
X20130801Y-9841508D02*
X20149848Y-9831984D01*
X20283182Y-9831984D02*
X20406991Y-9831984D01*
X20406991Y-9831984D02*
X20340325Y-9908174D01*
X20340325Y-9908174D02*
X20368896Y-9908174D01*
X20368896Y-9908174D02*
X20387944Y-9917698D01*
X20387944Y-9917698D02*
X20397468Y-9927222D01*
X20397468Y-9927222D02*
X20406991Y-9946270D01*
X20406991Y-9946270D02*
X20406991Y-9993889D01*
X20406991Y-9993889D02*
X20397468Y-10012936D01*
X20397468Y-10012936D02*
X20387944Y-10022460D01*
X20387944Y-10022460D02*
X20368896Y-10031984D01*
X20368896Y-10031984D02*
X20311753Y-10031984D01*
X20311753Y-10031984D02*
X20292706Y-10022460D01*
X20292706Y-10022460D02*
X20283182Y-10012936D01*
X20502229Y-10031984D02*
X20540325Y-10031984D01*
X20540325Y-10031984D02*
X20559372Y-10022460D01*
X20559372Y-10022460D02*
X20568896Y-10012936D01*
X20568896Y-10012936D02*
X20587944Y-9984365D01*
X20587944Y-9984365D02*
X20597468Y-9946270D01*
X20597468Y-9946270D02*
X20597468Y-9870079D01*
X20597468Y-9870079D02*
X20587944Y-9851031D01*
X20587944Y-9851031D02*
X20578420Y-9841508D01*
X20578420Y-9841508D02*
X20559372Y-9831984D01*
X20559372Y-9831984D02*
X20521277Y-9831984D01*
X20521277Y-9831984D02*
X20502229Y-9841508D01*
X20502229Y-9841508D02*
X20492706Y-9851031D01*
X20492706Y-9851031D02*
X20483182Y-9870079D01*
X20483182Y-9870079D02*
X20483182Y-9917698D01*
X20483182Y-9917698D02*
X20492706Y-9936746D01*
X20492706Y-9936746D02*
X20502229Y-9946270D01*
X20502229Y-9946270D02*
X20521277Y-9955793D01*
X20521277Y-9955793D02*
X20559372Y-9955793D01*
X20559372Y-9955793D02*
X20578420Y-9946270D01*
X20578420Y-9946270D02*
X20587944Y-9936746D01*
X20587944Y-9936746D02*
X20597468Y-9917698D01*
X20768896Y-9898650D02*
X20768896Y-10031984D01*
X20721277Y-9822460D02*
X20673658Y-9965317D01*
X20673658Y-9965317D02*
X20797468Y-9965317D01*
X20864134Y-9831984D02*
X20864134Y-9870079D01*
X20940325Y-9831984D02*
X20940325Y-9870079D01*
X21235563Y-10108174D02*
X21226039Y-10098650D01*
X21226039Y-10098650D02*
X21206991Y-10070079D01*
X21206991Y-10070079D02*
X21197468Y-10051031D01*
X21197468Y-10051031D02*
X21187944Y-10022460D01*
X21187944Y-10022460D02*
X21178420Y-9974841D01*
X21178420Y-9974841D02*
X21178420Y-9936746D01*
X21178420Y-9936746D02*
X21187944Y-9889127D01*
X21187944Y-9889127D02*
X21197468Y-9860555D01*
X21197468Y-9860555D02*
X21206991Y-9841508D01*
X21206991Y-9841508D02*
X21226039Y-9812936D01*
X21226039Y-9812936D02*
X21235563Y-9803412D01*
X21416515Y-10031984D02*
X21302230Y-10031984D01*
X21359372Y-10031984D02*
X21359372Y-9831984D01*
X21359372Y-9831984D02*
X21340325Y-9860555D01*
X21340325Y-9860555D02*
X21321277Y-9879603D01*
X21321277Y-9879603D02*
X21302230Y-9889127D01*
X21492706Y-9851031D02*
X21502230Y-9841508D01*
X21502230Y-9841508D02*
X21521277Y-9831984D01*
X21521277Y-9831984D02*
X21568896Y-9831984D01*
X21568896Y-9831984D02*
X21587944Y-9841508D01*
X21587944Y-9841508D02*
X21597468Y-9851031D01*
X21597468Y-9851031D02*
X21606991Y-9870079D01*
X21606991Y-9870079D02*
X21606991Y-9889127D01*
X21606991Y-9889127D02*
X21597468Y-9917698D01*
X21597468Y-9917698D02*
X21483182Y-10031984D01*
X21483182Y-10031984D02*
X21606991Y-10031984D01*
X21845087Y-10031984D02*
X21845087Y-9831984D01*
X21930801Y-10031984D02*
X21930801Y-9927222D01*
X21930801Y-9927222D02*
X21921277Y-9908174D01*
X21921277Y-9908174D02*
X21902230Y-9898650D01*
X21902230Y-9898650D02*
X21873658Y-9898650D01*
X21873658Y-9898650D02*
X21854611Y-9908174D01*
X21854611Y-9908174D02*
X21845087Y-9917698D01*
X22054611Y-10031984D02*
X22035563Y-10022460D01*
X22035563Y-10022460D02*
X22026039Y-10012936D01*
X22026039Y-10012936D02*
X22016515Y-9993889D01*
X22016515Y-9993889D02*
X22016515Y-9936746D01*
X22016515Y-9936746D02*
X22026039Y-9917698D01*
X22026039Y-9917698D02*
X22035563Y-9908174D01*
X22035563Y-9908174D02*
X22054611Y-9898650D01*
X22054611Y-9898650D02*
X22083182Y-9898650D01*
X22083182Y-9898650D02*
X22102230Y-9908174D01*
X22102230Y-9908174D02*
X22111753Y-9917698D01*
X22111753Y-9917698D02*
X22121277Y-9936746D01*
X22121277Y-9936746D02*
X22121277Y-9993889D01*
X22121277Y-9993889D02*
X22111753Y-10012936D01*
X22111753Y-10012936D02*
X22102230Y-10022460D01*
X22102230Y-10022460D02*
X22083182Y-10031984D01*
X22083182Y-10031984D02*
X22054611Y-10031984D01*
X22235563Y-10031984D02*
X22216515Y-10022460D01*
X22216515Y-10022460D02*
X22206992Y-10003412D01*
X22206992Y-10003412D02*
X22206992Y-9831984D01*
X22387944Y-10022460D02*
X22368896Y-10031984D01*
X22368896Y-10031984D02*
X22330801Y-10031984D01*
X22330801Y-10031984D02*
X22311753Y-10022460D01*
X22311753Y-10022460D02*
X22302230Y-10003412D01*
X22302230Y-10003412D02*
X22302230Y-9927222D01*
X22302230Y-9927222D02*
X22311753Y-9908174D01*
X22311753Y-9908174D02*
X22330801Y-9898650D01*
X22330801Y-9898650D02*
X22368896Y-9898650D01*
X22368896Y-9898650D02*
X22387944Y-9908174D01*
X22387944Y-9908174D02*
X22397468Y-9927222D01*
X22397468Y-9927222D02*
X22397468Y-9946270D01*
X22397468Y-9946270D02*
X22302230Y-9965317D01*
X22473658Y-10022460D02*
X22492706Y-10031984D01*
X22492706Y-10031984D02*
X22530801Y-10031984D01*
X22530801Y-10031984D02*
X22549849Y-10022460D01*
X22549849Y-10022460D02*
X22559372Y-10003412D01*
X22559372Y-10003412D02*
X22559372Y-9993889D01*
X22559372Y-9993889D02*
X22549849Y-9974841D01*
X22549849Y-9974841D02*
X22530801Y-9965317D01*
X22530801Y-9965317D02*
X22502230Y-9965317D01*
X22502230Y-9965317D02*
X22483182Y-9955793D01*
X22483182Y-9955793D02*
X22473658Y-9936746D01*
X22473658Y-9936746D02*
X22473658Y-9927222D01*
X22473658Y-9927222D02*
X22483182Y-9908174D01*
X22483182Y-9908174D02*
X22502230Y-9898650D01*
X22502230Y-9898650D02*
X22530801Y-9898650D01*
X22530801Y-9898650D02*
X22549849Y-9908174D01*
X22626039Y-10108174D02*
X22635563Y-10098650D01*
X22635563Y-10098650D02*
X22654611Y-10070079D01*
X22654611Y-10070079D02*
X22664134Y-10051031D01*
X22664134Y-10051031D02*
X22673658Y-10022460D01*
X22673658Y-10022460D02*
X22683182Y-9974841D01*
X22683182Y-9974841D02*
X22683182Y-9936746D01*
X22683182Y-9936746D02*
X22673658Y-9889127D01*
X22673658Y-9889127D02*
X22664134Y-9860555D01*
X22664134Y-9860555D02*
X22654611Y-9841508D01*
X22654611Y-9841508D02*
X22635563Y-9812936D01*
X22635563Y-9812936D02*
X22626039Y-9803412D01*
M02*
