%TF.GenerationSoftware,KiCad,Pcbnew,9.0.6*%
%TF.CreationDate,2026-01-27T05:52:51-03:00*%
%TF.ProjectId,evasion_sensor,65766173-696f-46e5-9f73-656e736f722e,rev?*%
%TF.SameCoordinates,Original*%
%TF.FileFunction,Drillmap*%
%TF.FilePolarity,Positive*%
%FSLAX45Y45*%
G04 Gerber Fmt 4.5, Leading zero omitted, Abs format (unit mm)*
G04 Created by KiCad (PCBNEW 9.0.6) date 2026-01-27 05:52:51*
%MOMM*%
%LPD*%
G01*
G04 APERTURE LIST*
%ADD10C,0.050000*%
%ADD11C,0.200000*%
G04 APERTURE END LIST*
D10*
X17622000Y-5432000D02*
G75*
G02*
X17722000Y-5332000I100000J0D01*
G01*
X17722000Y-9264000D02*
G75*
G02*
X17622000Y-9164000I0J100000D01*
G01*
X21300000Y-5332000D02*
G75*
G02*
X21400000Y-5432000I0J-100000D01*
G01*
X21400000Y-9164000D02*
G75*
G02*
X21300000Y-9264000I-100000J0D01*
G01*
X17722000Y-5332000D02*
X21300000Y-5332000D01*
X17622000Y-9164000D02*
X17622000Y-5432000D01*
X21300000Y-9264000D02*
X17722000Y-9264000D01*
X21400000Y-5432000D02*
X21400000Y-9164000D01*
D11*
X17880277Y-9577984D02*
X17880277Y-9377984D01*
X17880277Y-9377984D02*
X17927896Y-9377984D01*
X17927896Y-9377984D02*
X17956467Y-9387508D01*
X17956467Y-9387508D02*
X17975515Y-9406555D01*
X17975515Y-9406555D02*
X17985039Y-9425603D01*
X17985039Y-9425603D02*
X17994563Y-9463698D01*
X17994563Y-9463698D02*
X17994563Y-9492270D01*
X17994563Y-9492270D02*
X17985039Y-9530365D01*
X17985039Y-9530365D02*
X17975515Y-9549412D01*
X17975515Y-9549412D02*
X17956467Y-9568460D01*
X17956467Y-9568460D02*
X17927896Y-9577984D01*
X17927896Y-9577984D02*
X17880277Y-9577984D01*
X18080277Y-9577984D02*
X18080277Y-9444650D01*
X18080277Y-9482746D02*
X18089801Y-9463698D01*
X18089801Y-9463698D02*
X18099324Y-9454174D01*
X18099324Y-9454174D02*
X18118372Y-9444650D01*
X18118372Y-9444650D02*
X18137420Y-9444650D01*
X18204086Y-9577984D02*
X18204086Y-9444650D01*
X18204086Y-9377984D02*
X18194563Y-9387508D01*
X18194563Y-9387508D02*
X18204086Y-9397031D01*
X18204086Y-9397031D02*
X18213610Y-9387508D01*
X18213610Y-9387508D02*
X18204086Y-9377984D01*
X18204086Y-9377984D02*
X18204086Y-9397031D01*
X18327896Y-9577984D02*
X18308848Y-9568460D01*
X18308848Y-9568460D02*
X18299324Y-9549412D01*
X18299324Y-9549412D02*
X18299324Y-9377984D01*
X18432658Y-9577984D02*
X18413610Y-9568460D01*
X18413610Y-9568460D02*
X18404086Y-9549412D01*
X18404086Y-9549412D02*
X18404086Y-9377984D01*
X18661229Y-9577984D02*
X18661229Y-9377984D01*
X18661229Y-9377984D02*
X18727896Y-9520841D01*
X18727896Y-9520841D02*
X18794563Y-9377984D01*
X18794563Y-9377984D02*
X18794563Y-9577984D01*
X18975515Y-9577984D02*
X18975515Y-9473222D01*
X18975515Y-9473222D02*
X18965991Y-9454174D01*
X18965991Y-9454174D02*
X18946944Y-9444650D01*
X18946944Y-9444650D02*
X18908848Y-9444650D01*
X18908848Y-9444650D02*
X18889801Y-9454174D01*
X18975515Y-9568460D02*
X18956467Y-9577984D01*
X18956467Y-9577984D02*
X18908848Y-9577984D01*
X18908848Y-9577984D02*
X18889801Y-9568460D01*
X18889801Y-9568460D02*
X18880277Y-9549412D01*
X18880277Y-9549412D02*
X18880277Y-9530365D01*
X18880277Y-9530365D02*
X18889801Y-9511317D01*
X18889801Y-9511317D02*
X18908848Y-9501793D01*
X18908848Y-9501793D02*
X18956467Y-9501793D01*
X18956467Y-9501793D02*
X18975515Y-9492270D01*
X19070753Y-9444650D02*
X19070753Y-9644650D01*
X19070753Y-9454174D02*
X19089801Y-9444650D01*
X19089801Y-9444650D02*
X19127896Y-9444650D01*
X19127896Y-9444650D02*
X19146944Y-9454174D01*
X19146944Y-9454174D02*
X19156467Y-9463698D01*
X19156467Y-9463698D02*
X19165991Y-9482746D01*
X19165991Y-9482746D02*
X19165991Y-9539889D01*
X19165991Y-9539889D02*
X19156467Y-9558936D01*
X19156467Y-9558936D02*
X19146944Y-9568460D01*
X19146944Y-9568460D02*
X19127896Y-9577984D01*
X19127896Y-9577984D02*
X19089801Y-9577984D01*
X19089801Y-9577984D02*
X19070753Y-9568460D01*
X19251705Y-9558936D02*
X19261229Y-9568460D01*
X19261229Y-9568460D02*
X19251705Y-9577984D01*
X19251705Y-9577984D02*
X19242182Y-9568460D01*
X19242182Y-9568460D02*
X19251705Y-9558936D01*
X19251705Y-9558936D02*
X19251705Y-9577984D01*
X19251705Y-9454174D02*
X19261229Y-9463698D01*
X19261229Y-9463698D02*
X19251705Y-9473222D01*
X19251705Y-9473222D02*
X19242182Y-9463698D01*
X19242182Y-9463698D02*
X19251705Y-9454174D01*
X19251705Y-9454174D02*
X19251705Y-9473222D01*
M02*
